<svg width="24" height="24" viewBox="0 0 24 24" fill="none" xmlns="http://www.w3.org/2000/svg">
<path d="M16 11C16 11.5523 16.4477 12 17 12C17.5523 12 18 11.5523 18 11H16ZM6 11C6 11.5523 6.44772 12 7 12C7.55228 12 8 11.5523 8 11H6ZM4.63803 20.673L4.18404 21.564L4.63803 20.673ZM3.32698 19.362L2.43597 19.816L3.32698 19.362ZM20.673 19.362L21.564 19.816L20.673 19.362ZM19.362 20.673L19.816 21.564L19.362 20.673ZM19.362 11.327L19.816 10.436L19.362 11.327ZM20.673 12.638L21.564 12.184L20.673 12.638ZM4.63803 11.327L4.18404 10.436L4.63803 11.327ZM3.32698 12.638L2.43597 12.184L3.32698 12.638ZM16 8V11H18V8H16ZM8 11V8H6V11H8ZM12 4C14.2091 4 16 5.79086 16 8H18C18 4.68629 15.3137 2 12 2V4ZM12 2C8.68629 2 6 4.68629 6 8H8C8 5.79086 9.79086 4 12 4V2ZM7.8 12H16.2V10H7.8V12ZM20 15.8V16.2H22V15.8H20ZM16.2 20H7.8V22H16.2V20ZM4 16.2V15.8H2V16.2H4ZM7.8 20C6.94342 20 6.36113 19.9992 5.91104 19.9624C5.47262 19.9266 5.24842 19.8617 5.09202 19.782L4.18404 21.564C4.66937 21.8113 5.18608 21.9099 5.74817 21.9558C6.2986 22.0008 6.97642 22 7.8 22V20ZM2 16.2C2 17.0236 1.99922 17.7014 2.04419 18.2518C2.09012 18.8139 2.18868 19.3306 2.43597 19.816L4.21799 18.908C4.1383 18.7516 4.07337 18.5274 4.03755 18.089C4.00078 17.6389 4 17.0566 4 16.2H2ZM5.09202 19.782C4.7157 19.5903 4.40973 19.2843 4.21799 18.908L2.43597 19.816C2.81947 20.5686 3.43139 21.1805 4.18404 21.564L5.09202 19.782ZM20 16.2C20 17.0566 19.9992 17.6389 19.9624 18.089C19.9266 18.5274 19.8617 18.7516 19.782 18.908L21.564 19.816C21.8113 19.3306 21.9099 18.8139 21.9558 18.2518C22.0008 17.7014 22 17.0236 22 16.2H20ZM16.2 22C17.0236 22 17.7014 22.0008 18.2518 21.9558C18.8139 21.9099 19.3306 21.8113 19.816 21.564L18.908 19.782C18.7516 19.8617 18.5274 19.9266 18.089 19.9624C17.6389 19.9992 17.0566 20 16.2 20V22ZM19.782 18.908C19.5903 19.2843 19.2843 19.5903 18.908 19.782L19.816 21.564C20.5686 21.1805 21.1805 20.5686 21.564 19.816L19.782 18.908ZM16.2 12C17.0566 12 17.6389 12.0008 18.089 12.0376C18.5274 12.0734 18.7516 12.1383 18.908 12.218L19.816 10.436C19.3306 10.1887 18.8139 10.0901 18.2518 10.0442C17.7014 9.99922 17.0236 10 16.2 10V12ZM22 15.8C22 14.9764 22.0008 14.2986 21.9558 13.7482C21.9099 13.1861 21.8113 12.6694 21.564 12.184L19.782 13.092C19.8617 13.2484 19.9266 13.4726 19.9624 13.911C19.9992 14.3611 20 14.9434 20 15.8H22ZM18.908 12.218C19.2843 12.4097 19.5903 12.7157 19.782 13.092L21.564 12.184C21.1805 11.4314 20.5686 10.8195 19.816 10.436L18.908 12.218ZM7.8 10C6.97642 10 6.2986 9.99922 5.74817 10.0442C5.18608 10.0901 4.66937 10.1887 4.18404 10.436L5.09202 12.218C5.24842 12.1383 5.47262 12.0734 5.91104 12.0376C6.36113 12.0008 6.94342 12 7.8 12V10ZM4 15.8C4 14.9434 4.00078 14.3611 4.03755 13.911C4.07337 13.4726 4.1383 13.2484 4.21799 13.092L2.43597 12.184C2.18868 12.6694 2.09012 13.1861 2.04419 13.7482C1.99922 14.2986 2 14.9764 2 15.8H4ZM4.18404 10.436C3.43139 10.8195 2.81947 11.4314 2.43597 12.184L4.21799 13.092C4.40973 12.7157 4.71569 12.4097 5.09202 12.218L4.18404 10.436Z" fill="#172136"/>
</svg>
