<svg width="24" height="24" viewBox="0 0 24 24" fill="none" xmlns="http://www.w3.org/2000/svg">
<path d="M6 10C6 10.5523 6.44772 11 7 11C7.55228 11 8 10.5523 8 10H6ZM15.2008 5.60058C15.5325 6.04217 16.1594 6.13126 16.6009 5.79957C17.0425 5.46788 17.1316 4.84101 16.7999 4.39942L15.2008 5.60058ZM13 14C13 13.4477 12.5523 13 12 13C11.4477 13 11 13.4477 11 14H13ZM11 16C11 16.5523 11.4477 17 12 17C12.5523 17 13 16.5523 13 16H11ZM8 8C8 5.79086 9.79086 4 12 4V2C8.68629 2 6 4.68629 6 8H8ZM8 10V8H6V10H8ZM12 4C13.308 4 14.4693 4.62676 15.2008 5.60058L16.7999 4.39942C15.707 2.94434 13.9636 2 12 2V4ZM18 15C18 18.3137 15.3137 21 12 21V23C16.4183 23 20 19.4183 20 15H18ZM12 21C8.68629 21 6 18.3137 6 15H4C4 19.4183 7.58172 23 12 23V21ZM6 15C6 11.6863 8.68629 9 12 9V7C7.58172 7 4 10.5817 4 15H6ZM12 9C15.3137 9 18 11.6863 18 15H20C20 10.5817 16.4183 7 12 7V9ZM11 14V16H13V14H11Z" fill="#172136"/>
</svg>
