<svg width="24" height="24" viewBox="0 0 24 24" fill="none" xmlns="http://www.w3.org/2000/svg">
<path d="M7 10H6C6 10.5523 6.44772 11 7 11V10ZM7.10102 11C7.6533 11 8.10102 10.5523 8.10102 10C8.10102 9.44772 7.6533 9 7.10102 9V11ZM17 10V11C17.5523 11 18 10.5523 18 10H17ZM16.899 9C16.3467 9 15.899 9.44772 15.899 10C15.899 10.5523 16.3467 11 16.899 11V9ZM13 14C13 13.4477 12.5523 13 12 13C11.4477 13 11 13.4477 11 14H13ZM11 16C11 16.5523 11.4477 17 12 17C12.5523 17 13 16.5523 13 16H11ZM8 8C8 5.79086 9.79086 4 12 4V2C8.68629 2 6 4.68629 6 8H8ZM8 10V8H6V10H8ZM7.10102 9H7V11H7.10102V9ZM17 9H16.899V11H17V9ZM16 8V10H18V8H16ZM12 4C14.2091 4 16 5.79086 16 8H18C18 4.68629 15.3137 2 12 2V4ZM18 15C18 18.3137 15.3137 21 12 21V23C16.4183 23 20 19.4183 20 15H18ZM12 21C8.68629 21 6 18.3137 6 15H4C4 19.4183 7.58172 23 12 23V21ZM6 15C6 11.6863 8.68629 9 12 9V7C7.58172 7 4 10.5817 4 15H6ZM12 9C15.3137 9 18 11.6863 18 15H20C20 10.5817 16.4183 7 12 7V9ZM11 14V16H13V14H11Z" fill="#172136"/>
</svg>
