<svg width="24" height="24" viewBox="0 0 24 24" fill="none" xmlns="http://www.w3.org/2000/svg">
<path d="M14.5752 16.9216L14.0374 16.0784L14.5752 16.9216ZM14.649 15.947L15.5977 15.6308H15.5977L14.649 15.947ZM14.7912 16.6218L13.8213 16.3782L14.7912 16.6218ZM9.95681 12.1967L9.27558 12.9288V12.9288L9.95681 12.1967ZM10.3164 12.5711L11.2041 12.1107L10.3164 12.5711ZM10.2684 13.1947L11.2171 13.5109L10.2684 13.1947ZM10.3724 12.7907L11.3722 12.7695L10.3724 12.7907ZM9.35099 15.947L8.40231 15.6308L9.35099 15.947ZM9.20877 16.6218L10.1787 16.3782L9.20877 16.6218ZM9.42484 16.9216L9.96259 16.0784L9.42484 16.9216ZM14.0432 12.1967L14.7244 12.9288L14.0432 12.1967ZM13.6836 12.5711L12.7959 12.1107L13.6836 12.5711ZM13.7316 13.1947L12.7829 13.5109H12.7829L13.7316 13.1947ZM13.6276 12.7907L14.6274 12.8118L13.6276 12.7907ZM21 12C21 16.9706 16.9706 21 12 21V23C18.0751 23 23 18.0751 23 12H21ZM12 21C7.02944 21 3 16.9706 3 12H1C1 18.0751 5.92487 23 12 23V21ZM3 12C3 7.02944 7.02944 3 12 3V1C5.92487 1 1 5.92487 1 12H3ZM12 3C16.9706 3 21 7.02944 21 12H23C23 5.92487 18.0751 1 12 1V3ZM14.7244 12.9288C15.5078 12.1998 16 11.1566 16 10H14C14 10.5784 13.7558 11.0981 13.362 11.4646L14.7244 12.9288ZM16 10C16 7.79086 14.2091 6 12 6V8C13.1046 8 14 8.89543 14 10H16ZM12 6C9.79086 6 8 7.79086 8 10H10C10 8.89543 10.8954 8 12 8V6ZM8 10C8 11.1566 8.49218 12.1998 9.27558 12.9288L10.638 11.4646C10.2442 11.0981 10 10.5784 10 10H8ZM10.2997 16.2632L11.2171 13.5109L9.31975 12.8785L8.40231 15.6308L10.2997 16.2632ZM13.8901 16H10.1099V18H13.8901V16ZM12.7829 13.5109L13.7003 16.2632L15.5977 15.6308L14.6802 12.8785L12.7829 13.5109ZM13.8901 18C14.0586 18 14.2522 18.001 14.4166 17.9862C14.586 17.9709 14.852 17.9311 15.1129 17.7647L14.0374 16.0784C14.1067 16.0342 14.1688 16.0122 14.2074 16.0017C14.2418 15.9924 14.2572 15.9924 14.2375 15.9942C14.218 15.996 14.1832 15.9979 14.1209 15.9989C14.059 16 13.9862 16 13.8901 16V18ZM13.7003 16.2632C13.7307 16.3545 13.7537 16.4235 13.7723 16.4826C13.791 16.542 13.8002 16.5757 13.8047 16.5946C13.8092 16.6139 13.8043 16.5994 13.8023 16.5638C13.8 16.5238 13.8013 16.458 13.8213 16.3782L15.7611 16.8653C15.8365 16.5652 15.7902 16.3002 15.7511 16.1347C15.7131 15.974 15.651 15.7907 15.5977 15.6308L13.7003 16.2632ZM15.1129 17.7647C15.4359 17.5587 15.6678 17.2369 15.7611 16.8653L13.8213 16.3782C13.8524 16.2544 13.9297 16.1471 14.0374 16.0784L15.1129 17.7647ZM9.27558 12.9288C9.32975 12.9792 9.37313 13.0195 9.41015 13.0546C9.4474 13.0898 9.47205 13.1138 9.48894 13.131C9.50664 13.1489 9.50674 13.1503 9.49845 13.1401C9.49076 13.1307 9.46056 13.0929 9.42867 13.0315L11.2041 12.1107C11.1098 11.9289 10.9795 11.7942 10.9142 11.7279C10.8369 11.6493 10.7376 11.5573 10.638 11.4646L9.27558 12.9288ZM11.2171 13.5109C11.2488 13.4158 11.2859 13.3058 11.3122 13.2093C11.3391 13.1108 11.3761 12.9546 11.3722 12.7695L9.37265 12.8118C9.37156 12.7605 9.37639 12.7211 9.37996 12.6993C9.38326 12.6791 9.38598 12.671 9.38291 12.6823C9.37987 12.6934 9.37402 12.7132 9.36274 12.7483C9.35148 12.7832 9.33788 12.8241 9.31975 12.8785L11.2171 13.5109ZM9.42867 13.0315C9.4312 13.0363 9.40802 12.9931 9.39045 12.9243C9.37287 12.8554 9.37253 12.8064 9.37265 12.8118L11.3722 12.7695C11.3704 12.6839 11.363 12.5655 11.3284 12.4298C11.2937 12.2941 11.2435 12.1866 11.2041 12.1107L9.42867 13.0315ZM8.40231 15.6308C8.34901 15.7907 8.28689 15.974 8.24893 16.1347C8.20981 16.3002 8.16351 16.5652 8.23888 16.8653L10.1787 16.3782C10.1987 16.458 10.2 16.5238 10.1977 16.5638C10.1957 16.5994 10.1907 16.6139 10.1953 16.5947C10.1998 16.5757 10.209 16.542 10.2277 16.4826C10.2463 16.4235 10.2693 16.3545 10.2997 16.2632L8.40231 15.6308ZM10.1099 16C10.0138 16 9.94103 16 9.87907 15.9989C9.8168 15.9979 9.78196 15.996 9.76254 15.9942C9.74279 15.9924 9.75817 15.9924 9.79258 16.0017C9.83123 16.0122 9.89329 16.0342 9.96259 16.0784L8.88709 17.7647C9.14799 17.9311 9.41402 17.9709 9.58343 17.9862C9.7478 18.001 9.94139 18 10.1099 18V16ZM8.23888 16.8653C8.33218 17.2369 8.5641 17.5587 8.88709 17.7647L9.96259 16.0784C10.0702 16.1471 10.1476 16.2544 10.1787 16.3782L8.23888 16.8653ZM13.362 11.4646C13.2624 11.5573 13.1631 11.6493 13.0858 11.7279C13.0205 11.7942 12.8902 11.9289 12.7959 12.1107L14.5713 13.0315C14.5394 13.0929 14.5092 13.1307 14.5015 13.1401C14.4933 13.1503 14.4934 13.1489 14.5111 13.131C14.5279 13.1138 14.5526 13.0898 14.5899 13.0546C14.6269 13.0195 14.6702 12.9792 14.7244 12.9288L13.362 11.4646ZM14.6802 12.8785C14.6621 12.8241 14.6485 12.7832 14.6373 12.7483C14.626 12.7132 14.6201 12.6934 14.6171 12.6823C14.614 12.671 14.6167 12.6791 14.62 12.6993C14.6236 12.7211 14.6284 12.7605 14.6274 12.8118L12.6278 12.7695C12.6239 12.9546 12.6609 13.1108 12.6878 13.2093C12.7141 13.3058 12.7512 13.4158 12.7829 13.5109L14.6802 12.8785ZM12.7959 12.1107C12.7565 12.1866 12.7063 12.2941 12.6716 12.4298C12.637 12.5655 12.6296 12.6839 12.6278 12.7695L14.6274 12.8118C14.6275 12.8064 14.6271 12.8554 14.6096 12.9243C14.592 12.9931 14.5688 13.0363 14.5713 13.0315L12.7959 12.1107Z" fill="#172136"/>
</svg>
