<svg width="24" height="24" viewBox="0 0 24 24" fill="none" xmlns="http://www.w3.org/2000/svg">
<path d="M6 11C6 11.5523 6.44772 12 7 12C7.55228 12 8 11.5523 8 11H6ZM15.92 7.19893C16.0298 7.74018 16.5577 8.08988 17.0989 7.98001C17.6402 7.87015 17.9899 7.34231 17.88 6.80107L15.92 7.19893ZM5.63803 20.673L5.18404 21.564L5.63803 20.673ZM4.32698 19.362L3.43597 19.816L4.32698 19.362ZM19.673 19.362L20.564 19.816L19.673 19.362ZM18.362 20.673L18.816 21.564L18.362 20.673ZM18.362 11.327L18.816 10.436L18.362 11.327ZM19.673 12.638L20.564 12.184L19.673 12.638ZM5.63803 11.327L5.18404 10.436L5.63803 11.327ZM4.32698 12.638L3.43597 12.184L4.32698 12.638ZM8 11V8H6V11H8ZM12 2C8.68629 2 6 4.68629 6 8H8C8 5.79086 9.79086 4 12 4V2ZM12 4C13.934 4 15.5494 5.37356 15.92 7.19893L17.88 6.80107C17.324 4.06196 14.9039 2 12 2V4ZM8.8 12H15.2V10H8.8V12ZM19 15.8V16.2H21V15.8H19ZM15.2 20H8.8V22H15.2V20ZM5 16.2V15.8H3V16.2H5ZM8.8 20C7.94342 20 7.36113 19.9992 6.91104 19.9624C6.47262 19.9266 6.24842 19.8617 6.09202 19.782L5.18404 21.564C5.66937 21.8113 6.18608 21.9099 6.74817 21.9558C7.2986 22.0008 7.97642 22 8.8 22V20ZM3 16.2C3 17.0236 2.99922 17.7014 3.04419 18.2518C3.09012 18.8139 3.18868 19.3306 3.43597 19.816L5.21799 18.908C5.1383 18.7516 5.07337 18.5274 5.03755 18.089C5.00078 17.6389 5 17.0566 5 16.2H3ZM6.09202 19.782C5.7157 19.5903 5.40973 19.2843 5.21799 18.908L3.43597 19.816C3.81947 20.5686 4.43139 21.1805 5.18404 21.564L6.09202 19.782ZM19 16.2C19 17.0566 18.9992 17.6389 18.9624 18.089C18.9266 18.5274 18.8617 18.7516 18.782 18.908L20.564 19.816C20.8113 19.3306 20.9099 18.8139 20.9558 18.2518C21.0008 17.7014 21 17.0236 21 16.2H19ZM15.2 22C16.0236 22 16.7014 22.0008 17.2518 21.9558C17.8139 21.9099 18.3306 21.8113 18.816 21.564L17.908 19.782C17.7516 19.8617 17.5274 19.9266 17.089 19.9624C16.6389 19.9992 16.0566 20 15.2 20V22ZM18.782 18.908C18.5903 19.2843 18.2843 19.5903 17.908 19.782L18.816 21.564C19.5686 21.1805 20.1805 20.5686 20.564 19.816L18.782 18.908ZM15.2 12C16.0566 12 16.6389 12.0008 17.089 12.0376C17.5274 12.0734 17.7516 12.1383 17.908 12.218L18.816 10.436C18.3306 10.1887 17.8139 10.0901 17.2518 10.0442C16.7014 9.99922 16.0236 10 15.2 10V12ZM21 15.8C21 14.9764 21.0008 14.2986 20.9558 13.7482C20.9099 13.1861 20.8113 12.6694 20.564 12.184L18.782 13.092C18.8617 13.2484 18.9266 13.4726 18.9624 13.911C18.9992 14.3611 19 14.9434 19 15.8H21ZM17.908 12.218C18.2843 12.4097 18.5903 12.7157 18.782 13.092L20.564 12.184C20.1805 11.4314 19.5686 10.8195 18.816 10.436L17.908 12.218ZM8.8 10C7.97642 10 7.2986 9.99922 6.74817 10.0442C6.18608 10.0901 5.66937 10.1887 5.18404 10.436L6.09202 12.218C6.24842 12.1383 6.47262 12.0734 6.91104 12.0376C7.36113 12.0008 7.94342 12 8.8 12V10ZM5 15.8C5 14.9434 5.00078 14.3611 5.03755 13.911C5.07337 13.4726 5.1383 13.2484 5.21799 13.092L3.43597 12.184C3.18868 12.6694 3.09012 13.1861 3.04419 13.7482C2.99922 14.2986 3 14.9764 3 15.8H5ZM5.18404 10.436C4.43139 10.8195 3.81947 11.4314 3.43597 12.184L5.21799 13.092C5.40973 12.7157 5.71569 12.4097 6.09202 12.218L5.18404 10.436Z" fill="#172136"/>
</svg>
