<svg width="24" height="24" viewBox="0 0 24 24" fill="none" xmlns="http://www.w3.org/2000/svg">
<path d="M3 7.8H2H3ZM3.32698 4.63803L4.21799 5.09202L3.32698 4.63803ZM7.8 3V4V3ZM4.63803 3.32698L4.18404 2.43597L4.63803 3.32698ZM7.8 21V22V21ZM4.63803 20.673L5.09202 19.782L4.63803 20.673ZM3 16.2H4H3ZM3.32698 19.362L2.43597 19.816L3.32698 19.362ZM20.673 19.362L19.782 18.908L20.673 19.362ZM16.2 21V20V21ZM19.362 20.673L19.816 21.564L19.362 20.673ZM20.673 4.63803L19.782 5.09202L20.673 4.63803ZM16.2 3V2V3ZM19.362 3.32698L18.908 4.21799L19.362 3.32698ZM14.5752 16.9216L14.0374 16.0784L14.5752 16.9216ZM14.649 15.947L15.5977 15.6308H15.5977L14.649 15.947ZM14.7912 16.6218L13.8213 16.3782L14.7912 16.6218ZM9.95681 12.1967L9.27558 12.9288V12.9288L9.95681 12.1967ZM10.3164 12.5711L11.2041 12.1107L10.3164 12.5711ZM10.2684 13.1947L9.31975 12.8785L10.2684 13.1947ZM10.3724 12.7907L11.3722 12.7695L10.3724 12.7907ZM9.35099 15.947L10.2997 16.2632L9.35099 15.947ZM9.20877 16.6218L10.1787 16.3782L9.20877 16.6218ZM9.42484 16.9216L9.96259 16.0784L9.42484 16.9216ZM14.0432 12.1967L14.7244 12.9288L14.0432 12.1967ZM13.6836 12.5711L12.7959 12.1107L13.6836 12.5711ZM13.7316 13.1947L12.7829 13.5109H12.7829L13.7316 13.1947ZM13.6276 12.7907L14.6274 12.8118L13.6276 12.7907ZM20 7.8V16.2H22V7.8H20ZM16.2 20H7.8V22H16.2V20ZM4 16.2L4 7.8H2L2 16.2H4ZM7.8 4L16.2 4V2L7.8 2V4ZM4 7.8C4 6.94342 4.00078 6.36113 4.03755 5.91104C4.07337 5.47262 4.1383 5.24842 4.21799 5.09202L2.43597 4.18404C2.18868 4.66937 2.09012 5.18608 2.04419 5.74817C1.99922 6.2986 2 6.97642 2 7.8H4ZM7.8 2C6.97642 2 6.2986 1.99922 5.74817 2.04419C5.18608 2.09012 4.66937 2.18868 4.18404 2.43597L5.09202 4.21799C5.24842 4.1383 5.47262 4.07337 5.91104 4.03755C6.36113 4.00078 6.94342 4 7.8 4V2ZM4.21799 5.09202C4.40973 4.71569 4.7157 4.40973 5.09202 4.21799L4.18404 2.43597C3.43139 2.81947 2.81947 3.43139 2.43597 4.18404L4.21799 5.09202ZM7.8 20C6.94342 20 6.36113 19.9992 5.91104 19.9624C5.47262 19.9266 5.24842 19.8617 5.09202 19.782L4.18404 21.564C4.66937 21.8113 5.18608 21.9099 5.74817 21.9558C6.2986 22.0008 6.97642 22 7.8 22V20ZM2 16.2C2 17.0236 1.99922 17.7014 2.04419 18.2518C2.09012 18.8139 2.18868 19.3306 2.43597 19.816L4.21799 18.908C4.1383 18.7516 4.07337 18.5274 4.03755 18.089C4.00078 17.6389 4 17.0566 4 16.2H2ZM5.09202 19.782C4.71569 19.5903 4.40973 19.2843 4.21799 18.908L2.43597 19.816C2.81947 20.5686 3.43139 21.1805 4.18404 21.564L5.09202 19.782ZM20 16.2C20 17.0566 19.9992 17.6389 19.9624 18.089C19.9266 18.5274 19.8617 18.7516 19.782 18.908L21.564 19.816C21.8113 19.3306 21.9099 18.8139 21.9558 18.2518C22.0008 17.7014 22 17.0236 22 16.2H20ZM16.2 22C17.0236 22 17.7014 22.0008 18.2518 21.9558C18.8139 21.9099 19.3306 21.8113 19.816 21.564L18.908 19.782C18.7516 19.8617 18.5274 19.9266 18.089 19.9624C17.6389 19.9992 17.0566 20 16.2 20V22ZM19.782 18.908C19.5903 19.2843 19.2843 19.5903 18.908 19.782L19.816 21.564C20.5686 21.1805 21.1805 20.5686 21.564 19.816L19.782 18.908ZM22 7.8C22 6.97642 22.0008 6.2986 21.9558 5.74818C21.9099 5.18608 21.8113 4.66937 21.564 4.18404L19.782 5.09202C19.8617 5.24842 19.9266 5.47262 19.9624 5.91104C19.9992 6.36113 20 6.94342 20 7.8H22ZM16.2 4C17.0566 4 17.6389 4.00078 18.089 4.03755C18.5274 4.07337 18.7516 4.1383 18.908 4.21799L19.816 2.43598C19.3306 2.18868 18.8139 2.09012 18.2518 2.04419C17.7014 1.99922 17.0236 2 16.2 2V4ZM21.564 4.18404C21.1805 3.43139 20.5686 2.81947 19.816 2.43598L18.908 4.21799C19.2843 4.40974 19.5903 4.7157 19.782 5.09202L21.564 4.18404ZM14.7244 12.9288C15.5078 12.1998 16 11.1566 16 10H14C14 10.5783 13.7558 11.0981 13.362 11.4646L14.7244 12.9288ZM16 10C16 7.79086 14.2091 6 12 6V8C13.1046 8 14 8.89543 14 10H16ZM12 6C9.79086 6 8 7.79086 8 10H10C10 8.89543 10.8954 8 12 8V6ZM8 10C8 11.1566 8.49218 12.1998 9.27558 12.9288L10.638 11.4646C10.2442 11.0981 10 10.5783 10 10H8ZM10.2997 16.2632L11.2171 13.5109L9.31975 12.8785L8.40231 15.6308L10.2997 16.2632ZM13.8901 16H10.1099V18H13.8901V16ZM12.7829 13.5109L13.7003 16.2632L15.5977 15.6308L14.6802 12.8785L12.7829 13.5109ZM13.8901 18C14.0586 18 14.2522 18.001 14.4166 17.9862C14.586 17.9709 14.852 17.9311 15.1129 17.7647L14.0374 16.0784C14.1067 16.0342 14.1688 16.0122 14.2074 16.0017C14.2418 15.9924 14.2572 15.9924 14.2375 15.9942C14.218 15.996 14.1832 15.9979 14.1209 15.9989C14.059 16 13.9862 16 13.8901 16V18ZM13.7003 16.2632C13.7307 16.3545 13.7537 16.4235 13.7723 16.4826C13.791 16.542 13.8002 16.5757 13.8047 16.5946C13.8092 16.6139 13.8043 16.5994 13.8023 16.5638C13.8 16.5238 13.8013 16.458 13.8213 16.3782L15.7611 16.8653C15.8365 16.5652 15.7902 16.3002 15.7511 16.1347C15.7131 15.974 15.651 15.7907 15.5977 15.6308L13.7003 16.2632ZM15.1129 17.7647C15.4359 17.5586 15.6678 17.2369 15.7611 16.8653L13.8213 16.3782C13.8524 16.2544 13.9297 16.1471 14.0374 16.0784L15.1129 17.7647ZM9.27558 12.9288C9.32976 12.9792 9.37313 13.0195 9.41015 13.0546C9.4474 13.0898 9.47205 13.1138 9.48894 13.131C9.50664 13.1489 9.50674 13.1503 9.49845 13.1401C9.49076 13.1307 9.46056 13.0929 9.42867 13.0315L11.2041 12.1107C11.1098 11.9289 10.9795 11.7942 10.9142 11.7279C10.8369 11.6493 10.7376 11.5573 10.638 11.4646L9.27558 12.9288ZM11.2171 13.5109C11.2488 13.4158 11.2859 13.3058 11.3122 13.2093C11.3391 13.1108 11.3761 12.9546 11.3722 12.7695L9.37265 12.8118C9.37156 12.7605 9.37639 12.7211 9.37996 12.6993C9.38326 12.6791 9.38598 12.671 9.38291 12.6823C9.37987 12.6934 9.37402 12.7132 9.36274 12.7483C9.35148 12.7832 9.33788 12.8241 9.31975 12.8785L11.2171 13.5109ZM9.42867 13.0315C9.4312 13.0363 9.40802 12.9931 9.39044 12.9243C9.37287 12.8554 9.37253 12.8064 9.37265 12.8118L11.3722 12.7695C11.3704 12.6839 11.363 12.5655 11.3284 12.4298C11.2937 12.2941 11.2435 12.1866 11.2041 12.1107L9.42867 13.0315ZM8.40231 15.6308C8.34901 15.7907 8.28689 15.974 8.24893 16.1347C8.20981 16.3002 8.16351 16.5652 8.23888 16.8653L10.1787 16.3782C10.1987 16.458 10.2 16.5238 10.1977 16.5638C10.1957 16.5994 10.1907 16.6139 10.1953 16.5947C10.1998 16.5757 10.209 16.542 10.2277 16.4826C10.2463 16.4235 10.2693 16.3545 10.2997 16.2632L8.40231 15.6308ZM10.1099 16C10.0138 16 9.94103 16 9.87907 15.9989C9.8168 15.9979 9.78196 15.996 9.76254 15.9942C9.74279 15.9924 9.75817 15.9924 9.79258 16.0017C9.83123 16.0122 9.89329 16.0342 9.96259 16.0784L8.88709 17.7647C9.14799 17.9311 9.41402 17.9709 9.58343 17.9862C9.7478 18.001 9.94139 18 10.1099 18V16ZM8.23888 16.8653C8.33217 17.2369 8.5641 17.5586 8.88709 17.7647L9.96259 16.0784C10.0703 16.1471 10.1476 16.2544 10.1787 16.3782L8.23888 16.8653ZM13.362 11.4646C13.2624 11.5573 13.1631 11.6493 13.0858 11.7279C13.0205 11.7942 12.8902 11.9289 12.7959 12.1107L14.5713 13.0315C14.5394 13.0929 14.5092 13.1307 14.5016 13.1401C14.4933 13.1503 14.4934 13.1489 14.5111 13.131C14.528 13.1138 14.5526 13.0898 14.5899 13.0546C14.6269 13.0195 14.6702 12.9792 14.7244 12.9288L13.362 11.4646ZM14.6802 12.8785C14.6621 12.8241 14.6485 12.7832 14.6373 12.7483C14.626 12.7132 14.6201 12.6934 14.6171 12.6823C14.614 12.671 14.6167 12.6791 14.62 12.6993C14.6236 12.7211 14.6284 12.7605 14.6274 12.8118L12.6278 12.7695C12.6239 12.9546 12.6609 13.1108 12.6878 13.2093C12.7141 13.3058 12.7512 13.4158 12.7829 13.5109L14.6802 12.8785ZM12.7959 12.1107C12.7565 12.1866 12.7063 12.2941 12.6716 12.4298C12.637 12.5655 12.6296 12.6839 12.6278 12.7695L14.6274 12.8118C14.6275 12.8064 14.6271 12.8554 14.6096 12.9243C14.592 12.9931 14.5688 13.0363 14.5713 13.0315L12.7959 12.1107Z" fill="#172136"/>
</svg>
