<svg width="24" height="24" viewBox="0 0 24 24" fill="none" xmlns="http://www.w3.org/2000/svg">
<path d="M21 11C21 11.5523 21.4477 12 22 12C22.5523 12 23 11.5523 23 11H21ZM11 16C11.5523 16 12 15.5523 12 15C12 14.4477 11.5523 14 11 14V16ZM2.21799 13.908L3.10899 13.454L3.10899 13.454L2.21799 13.908ZM3.09202 14.782L3.54601 13.891H3.54601L3.09202 14.782ZM20.908 5.21799L21.362 4.32698V4.32698L20.908 5.21799ZM21.782 6.09202L20.891 6.54601L20.891 6.54601L21.782 6.09202ZM3.09202 5.21799L2.63803 4.32698L2.63803 4.32698L3.09202 5.21799ZM2.21799 6.09202L1.32698 5.63803L1.32698 5.63803L2.21799 6.09202ZM12 9C11.4477 9 11 9.44772 11 10C11 10.5523 11.4477 11 12 11V9ZM12.005 11C12.5573 11 13.005 10.5523 13.005 10C13.005 9.44772 12.5573 9 12.005 9V11ZM17 9C16.4477 9 16 9.44772 16 10C16 10.5523 16.4477 11 17 11V9ZM17.005 11C17.5573 11 18.005 10.5523 18.005 10C18.005 9.44772 17.5573 9 17.005 9V11ZM7 9C6.44772 9 6 9.44772 6 10C6 10.5523 6.44772 11 7 11V9ZM7.005 11C7.55728 11 8.005 10.5523 8.005 10C8.005 9.44772 7.55728 9 7.005 9V11ZM14.546 20.891L15 20L14.546 20.891ZM14.109 20.454L15 20L14.109 20.454ZM20.891 20.454L20 20L20.891 20.454ZM20.454 20.891L20 20L20.454 20.891ZM20.454 17.109L20 18L20.454 17.109ZM20.891 17.546L20 18L20.891 17.546ZM14.546 17.109L15 18L14.546 17.109ZM14.109 17.546L15 18L14.109 17.546ZM18.25 17C18.25 17.5523 18.6977 18 19.25 18C19.8023 18 20.25 17.5523 20.25 17H18.25ZM14.75 17C14.75 17.5523 15.1977 18 15.75 18C16.3023 18 16.75 17.5523 16.75 17H14.75ZM5.2 6H18.8V4H5.2V6ZM3 11.8V8.2H1V11.8H3ZM21 8.2V11H23V8.2H21ZM11 14H5.2V16H11V14ZM1 11.8C1 12.3436 0.999222 12.8114 1.03057 13.195C1.06287 13.5904 1.13419 13.9836 1.32698 14.362L3.10899 13.454C3.0838 13.4045 3.04612 13.3038 3.02393 13.0322C3.00078 12.7488 3 12.3766 3 11.8H1ZM5.2 14C4.62345 14 4.25117 13.9992 3.96784 13.9761C3.69617 13.9539 3.59545 13.9162 3.54601 13.891L2.63803 15.673C3.01641 15.8658 3.40963 15.9371 3.80497 15.9694C4.18864 16.0008 4.65645 16 5.2 16V14ZM1.32698 14.362C1.6146 14.9265 2.07354 15.3854 2.63803 15.673L3.54601 13.891C3.35785 13.7951 3.20487 13.6422 3.10899 13.454L1.32698 14.362ZM18.8 6C19.3766 6 19.7488 6.00078 20.0322 6.02393C20.3038 6.04612 20.4045 6.0838 20.454 6.10899L21.362 4.32698C20.9836 4.13419 20.5904 4.06287 20.195 4.03057C19.8114 3.99922 19.3436 4 18.8 4V6ZM23 8.2C23 7.65645 23.0008 7.18864 22.9694 6.80497C22.9371 6.40963 22.8658 6.01641 22.673 5.63803L20.891 6.54601C20.9162 6.59545 20.9539 6.69617 20.9761 6.96784C20.9992 7.25117 21 7.62345 21 8.2H23ZM20.454 6.10899C20.6422 6.20487 20.7951 6.35785 20.891 6.54601L22.673 5.63803C22.3854 5.07354 21.9265 4.6146 21.362 4.32698L20.454 6.10899ZM5.2 4C4.65645 4 4.18864 3.99922 3.80497 4.03057C3.40963 4.06287 3.01641 4.13419 2.63803 4.32698L3.54601 6.10899C3.59545 6.0838 3.69617 6.04612 3.96784 6.02393C4.25117 6.00078 4.62345 6 5.2 6V4ZM3 8.2C3 7.62345 3.00078 7.25117 3.02393 6.96784C3.04612 6.69617 3.0838 6.59545 3.10899 6.54601L1.32698 5.63803C1.13419 6.01641 1.06287 6.40963 1.03057 6.80497C0.999222 7.18864 1 7.65645 1 8.2H3ZM2.63803 4.32698C2.07354 4.6146 1.6146 5.07354 1.32698 5.63803L3.10899 6.54601C3.20487 6.35785 3.35785 6.20487 3.54601 6.10899L2.63803 4.32698ZM12 11H12.005V9H12V11ZM11.25 10C11.25 9.58579 11.5858 9.25 12 9.25V11.25C12.6904 11.25 13.25 10.6904 13.25 10H11.25ZM12 9.25C12.4142 9.25 12.75 9.58579 12.75 10H10.75C10.75 10.6904 11.3096 11.25 12 11.25V9.25ZM12.75 10C12.75 10.4142 12.4142 10.75 12 10.75V8.75C11.3096 8.75 10.75 9.30964 10.75 10H12.75ZM12 10.75C11.5858 10.75 11.25 10.4142 11.25 10H13.25C13.25 9.30964 12.6904 8.75 12 8.75V10.75ZM17 11H17.005V9H17V11ZM16.25 10C16.25 9.58579 16.5858 9.25 17 9.25V11.25C17.6904 11.25 18.25 10.6904 18.25 10H16.25ZM17 9.25C17.4142 9.25 17.75 9.58579 17.75 10H15.75C15.75 10.6904 16.3096 11.25 17 11.25V9.25ZM17.75 10C17.75 10.4142 17.4142 10.75 17 10.75V8.75C16.3096 8.75 15.75 9.30964 15.75 10H17.75ZM17 10.75C16.5858 10.75 16.25 10.4142 16.25 10H18.25C18.25 9.30964 17.6904 8.75 17 8.75V10.75ZM7 11H7.005V9H7V11ZM6.25 10C6.25 9.58579 6.58579 9.25 7 9.25V11.25C7.69036 11.25 8.25 10.6904 8.25 10H6.25ZM7 9.25C7.41421 9.25 7.75 9.58579 7.75 10H5.75C5.75 10.6904 6.30964 11.25 7 11.25V9.25ZM7.75 10C7.75 10.4142 7.41421 10.75 7 10.75V8.75C6.30964 8.75 5.75 9.30964 5.75 10H7.75ZM7 10.75C6.58579 10.75 6.25 10.4142 6.25 10H8.25C8.25 9.30964 7.69036 8.75 7 8.75V10.75ZM15.6 18H19.4V16H15.6V18ZM20 18.6V19.4H22V18.6H20ZM19.4 20H15.6V22H19.4V20ZM15 19.4V18.6H13V19.4H15ZM15.6 20C15.3035 20 15.1412 19.9992 15.0246 19.9897C14.9197 19.9811 14.9425 19.9707 15 20L14.092 21.782C14.3634 21.9203 14.6332 21.9644 14.8618 21.9831C15.0787 22.0008 15.3365 22 15.6 22V20ZM13 19.4C13 19.6635 12.9992 19.9213 13.0169 20.1382C13.0356 20.3668 13.0797 20.6366 13.218 20.908L15 20C15.0293 20.0575 15.0189 20.0803 15.0103 19.9754C15.0008 19.8588 15 19.6965 15 19.4H13ZM15 20L13.218 20.908C13.4097 21.2843 13.7157 21.5903 14.092 21.782L15 20ZM20 19.4C20 19.6965 19.9992 19.8588 19.9897 19.9754C19.9811 20.0803 19.9707 20.0575 20 20L21.782 20.908C21.9203 20.6366 21.9644 20.3668 21.9831 20.1382C22.0008 19.9213 22 19.6635 22 19.4H20ZM19.4 22C19.6635 22 19.9213 22.0008 20.1382 21.9831C20.3668 21.9644 20.6366 21.9203 20.908 21.782L20 20C20.0575 19.9707 20.0803 19.9811 19.9754 19.9897C19.8588 19.9992 19.6965 20 19.4 20V22ZM20 20L20.908 21.782C21.2843 21.5903 21.5903 21.2843 21.782 20.908L20 20ZM19.4 18C19.6965 18 19.8588 18.0008 19.9754 18.0103C20.0803 18.0189 20.0575 18.0293 20 18L20.908 16.218C20.6366 16.0797 20.3668 16.0356 20.1382 16.0169C19.9213 15.9992 19.6635 16 19.4 16V18ZM22 18.6C22 18.3365 22.0008 18.0787 21.9831 17.8618C21.9644 17.6332 21.9203 17.3634 21.782 17.092L20 18C19.9707 17.9425 19.9811 17.9197 19.9897 18.0246C19.9992 18.1412 20 18.3035 20 18.6H22ZM20 18L21.782 17.092C21.5903 16.7157 21.2843 16.4097 20.908 16.218L20 18ZM15.6 16C15.3365 16 15.0787 15.9992 14.8618 16.0169C14.6332 16.0356 14.3634 16.0797 14.092 16.218L15 18C14.9425 18.0293 14.9197 18.0189 15.0246 18.0103C15.1412 18.0008 15.3035 18 15.6 18V16ZM15 18.6C15 18.3035 15.0008 18.1412 15.0103 18.0246C15.0189 17.9197 15.0293 17.9425 15 18L13.218 17.092C13.0797 17.3634 13.0356 17.6332 13.0169 17.8618C12.9992 18.0787 13 18.3365 13 18.6H15ZM14.092 16.218C13.7157 16.4097 13.4097 16.7157 13.218 17.092L15 18L14.092 16.218ZM18.25 15.25V17H20.25V15.25H18.25ZM16.75 17V15.25H14.75V17H16.75ZM17.5 14.5C17.9142 14.5 18.25 14.8358 18.25 15.25H20.25C20.25 13.7312 19.0188 12.5 17.5 12.5V14.5ZM17.5 12.5C15.9812 12.5 14.75 13.7312 14.75 15.25H16.75C16.75 14.8358 17.0858 14.5 17.5 14.5V12.5Z" fill="#172136"/>
</svg>
