<svg width="24" height="24" viewBox="0 0 24 24" fill="none" xmlns="http://www.w3.org/2000/svg">
<path d="M20.908 16.782L21.362 17.673L20.908 16.782ZM21.782 15.908L20.891 15.454L20.891 15.454L21.782 15.908ZM2.21799 15.908L3.10899 15.454L3.10899 15.454L2.21799 15.908ZM3.09202 16.782L3.54601 15.891H3.54601L3.09202 16.782ZM20.908 7.21799L21.362 6.32698V6.32698L20.908 7.21799ZM21.782 8.09202L20.891 8.54601L20.891 8.54601L21.782 8.09202ZM3.09202 7.21799L2.63803 6.32698L2.63803 6.32698L3.09202 7.21799ZM2.21799 8.09202L1.32698 7.63803L1.32698 7.63803L2.21799 8.09202ZM12 11C11.4477 11 11 11.4477 11 12C11 12.5523 11.4477 13 12 13V11ZM12.005 13C12.5573 13 13.005 12.5523 13.005 12C13.005 11.4477 12.5573 11 12.005 11V13ZM17 11C16.4477 11 16 11.4477 16 12C16 12.5523 16.4477 13 17 13V11ZM17.005 13C17.5573 13 18.005 12.5523 18.005 12C18.005 11.4477 17.5573 11 17.005 11V13ZM7 11C6.44772 11 6 11.4477 6 12C6 12.5523 6.44772 13 7 13V11ZM7.005 13C7.55728 13 8.005 12.5523 8.005 12C8.005 11.4477 7.55728 11 7.005 11V13ZM5.2 8H18.8V6H5.2V8ZM3 13.8V10.2H1V13.8H3ZM18.8 16H5.2V18H18.8V16ZM21 10.2V13.8H23V10.2H21ZM18.8 18C19.3436 18 19.8114 18.0008 20.195 17.9694C20.5904 17.9371 20.9836 17.8658 21.362 17.673L20.454 15.891C20.4045 15.9162 20.3038 15.9539 20.0322 15.9761C19.7488 15.9992 19.3766 16 18.8 16V18ZM21 13.8C21 14.3766 20.9992 14.7488 20.9761 15.0322C20.9539 15.3038 20.9162 15.4045 20.891 15.454L22.673 16.362C22.8658 15.9836 22.9371 15.5904 22.9694 15.195C23.0008 14.8114 23 14.3436 23 13.8H21ZM21.362 17.673C21.9265 17.3854 22.3854 16.9265 22.673 16.362L20.891 15.454C20.7951 15.6422 20.6422 15.7951 20.454 15.891L21.362 17.673ZM1 13.8C1 14.3436 0.999222 14.8114 1.03057 15.195C1.06287 15.5904 1.13419 15.9836 1.32698 16.362L3.10899 15.454C3.0838 15.4045 3.04612 15.3038 3.02393 15.0322C3.00078 14.7488 3 14.3766 3 13.8H1ZM5.2 16C4.62345 16 4.25117 15.9992 3.96784 15.9761C3.69617 15.9539 3.59545 15.9162 3.54601 15.891L2.63803 17.673C3.01641 17.8658 3.40963 17.9371 3.80497 17.9694C4.18864 18.0008 4.65645 18 5.2 18V16ZM1.32698 16.362C1.6146 16.9265 2.07354 17.3854 2.63803 17.673L3.54601 15.891C3.35785 15.7951 3.20487 15.6422 3.10899 15.454L1.32698 16.362ZM18.8 8C19.3766 8 19.7488 8.00078 20.0322 8.02393C20.3038 8.04612 20.4045 8.0838 20.454 8.10899L21.362 6.32698C20.9836 6.13419 20.5904 6.06287 20.195 6.03057C19.8114 5.99922 19.3436 6 18.8 6V8ZM23 10.2C23 9.65645 23.0008 9.18864 22.9694 8.80497C22.9371 8.40963 22.8658 8.01641 22.673 7.63803L20.891 8.54601C20.9162 8.59545 20.9539 8.69617 20.9761 8.96784C20.9992 9.25117 21 9.62345 21 10.2H23ZM20.454 8.10899C20.6422 8.20487 20.7951 8.35785 20.891 8.54601L22.673 7.63803C22.3854 7.07354 21.9265 6.6146 21.362 6.32698L20.454 8.10899ZM5.2 6C4.65645 6 4.18864 5.99922 3.80497 6.03057C3.40963 6.06287 3.01641 6.13419 2.63803 6.32698L3.54601 8.10899C3.59545 8.0838 3.69617 8.04612 3.96784 8.02393C4.25117 8.00078 4.62345 8 5.2 8V6ZM3 10.2C3 9.62345 3.00078 9.25117 3.02393 8.96784C3.04612 8.69617 3.0838 8.59545 3.10899 8.54601L1.32698 7.63803C1.13419 8.01641 1.06287 8.40963 1.03057 8.80497C0.999222 9.18864 1 9.65645 1 10.2H3ZM2.63803 6.32698C2.07354 6.6146 1.6146 7.07354 1.32698 7.63803L3.10899 8.54601C3.20487 8.35785 3.35785 8.20487 3.54601 8.10899L2.63803 6.32698ZM12 13H12.005V11H12V13ZM11.25 12C11.25 11.5858 11.5858 11.25 12 11.25V13.25C12.6904 13.25 13.25 12.6904 13.25 12H11.25ZM12 11.25C12.4142 11.25 12.75 11.5858 12.75 12H10.75C10.75 12.6904 11.3096 13.25 12 13.25V11.25ZM12.75 12C12.75 12.4142 12.4142 12.75 12 12.75V10.75C11.3096 10.75 10.75 11.3096 10.75 12H12.75ZM12 12.75C11.5858 12.75 11.25 12.4142 11.25 12H13.25C13.25 11.3096 12.6904 10.75 12 10.75V12.75ZM17 13H17.005V11H17V13ZM16.25 12C16.25 11.5858 16.5858 11.25 17 11.25V13.25C17.6904 13.25 18.25 12.6904 18.25 12H16.25ZM17 11.25C17.4142 11.25 17.75 11.5858 17.75 12H15.75C15.75 12.6904 16.3096 13.25 17 13.25V11.25ZM17.75 12C17.75 12.4142 17.4142 12.75 17 12.75V10.75C16.3096 10.75 15.75 11.3096 15.75 12H17.75ZM17 12.75C16.5858 12.75 16.25 12.4142 16.25 12H18.25C18.25 11.3096 17.6904 10.75 17 10.75V12.75ZM7 13H7.005V11H7V13ZM6.25 12C6.25 11.5858 6.58579 11.25 7 11.25V13.25C7.69036 13.25 8.25 12.6904 8.25 12H6.25ZM7 11.25C7.41421 11.25 7.75 11.5858 7.75 12H5.75C5.75 12.6904 6.30964 13.25 7 13.25V11.25ZM7.75 12C7.75 12.4142 7.41421 12.75 7 12.75V10.75C6.30964 10.75 5.75 11.3096 5.75 12H7.75ZM7 12.75C6.58579 12.75 6.25 12.4142 6.25 12H8.25C8.25 11.3096 7.69036 10.75 7 10.75V12.75Z" fill="#172136"/>
</svg>
