<svg width="100%" height="100%" viewBox="0 0 24 24" fill="none" xmlns="http://www.w3.org/2000/svg">
<path d="M11.9932 5.13581L11.2332 5.78583C11.4232 6.00794 11.7009 6.13581 11.9932 6.13581C12.2854 6.13581 12.5631 6.00794 12.7531 5.78583L11.9932 5.13581ZM3.2642 12.5604L4.0538 11.9468L3.2642 12.5604ZM20.7221 12.5604L21.5117 13.174L20.7221 12.5604ZM10.948 20.0749L11.6138 19.3288L10.948 20.0749ZM11.7058 20.6251L11.9932 19.6673L11.7058 20.6251ZM13.0383 20.0749L13.7041 20.821L13.0383 20.0749ZM12.2805 20.6251L12.5678 21.5829L12.2805 20.6251ZM15.5 12.5C16.0523 12.5 16.5 12.0523 16.5 11.5C16.5 10.9477 16.0523 10.5 15.5 10.5V12.5ZM14.5 11.5V10.5C14.1212 10.5 13.775 10.714 13.6056 11.0528L14.5 11.5ZM13 14.5L12.0513 14.8162C12.1792 15.1999 12.5257 15.4688 12.9291 15.4975C13.3326 15.5262 13.7135 15.309 13.8944 14.9472L13 14.5ZM11 8.5L11.9487 8.18377C11.8208 7.80007 11.4743 7.53119 11.0709 7.50252C10.6674 7.47384 10.2865 7.69102 10.1056 8.05279L11 8.5ZM9.5 11.5V12.5C9.87877 12.5 10.225 12.286 10.3944 11.9472L9.5 11.5ZM8.5 10.5C7.94772 10.5 7.5 10.9477 7.5 11.5C7.5 12.0523 7.94772 12.5 8.5 12.5V10.5ZM12.7531 4.4858C10.4594 1.80434 6.50161 0.989451 3.5051 3.54974L4.80429 5.07029C6.81788 3.34983 9.52816 3.79246 11.2332 5.78583L12.7531 4.4858ZM3.5051 3.54974C0.598307 6.03336 0.175977 10.2162 2.4746 13.174L4.0538 11.9468C2.41796 9.84179 2.70098 6.86741 4.80429 5.07029L3.5051 3.54974ZM21.5117 13.174C23.8015 10.2275 23.4444 6.01246 20.4708 3.54097L19.1924 5.07906C21.315 6.84328 21.5772 9.83042 19.9325 11.9468L21.5117 13.174ZM20.4708 3.54097C17.4415 1.02319 13.5344 1.79553 11.2332 4.4858L12.7531 5.78583C14.4506 3.80127 17.1255 3.36113 19.1924 5.07906L20.4708 3.54097ZM2.4746 13.174C3.26965 14.1971 4.74903 15.6827 6.23191 17.0969C7.73142 18.5268 9.29008 19.9357 10.2822 20.821L11.6138 19.3288C10.6292 18.4502 9.08892 17.0578 7.61217 15.6495C6.1188 14.2254 4.74464 12.8357 4.0538 11.9468L2.4746 13.174ZM13.7041 20.821C14.6962 19.9357 16.2549 18.5268 17.7544 17.0969C19.2373 15.6827 20.7166 14.1971 21.5117 13.174L19.9325 11.9468C19.2417 12.8357 17.8675 14.2254 16.3741 15.6495C14.8974 17.0578 13.3571 18.4502 12.3725 19.3288L13.7041 20.821ZM10.2822 20.821C10.4521 20.9726 10.6226 21.1257 10.7792 21.2445C10.9477 21.3723 11.1546 21.5038 11.4185 21.5829L11.9932 19.6673C12.0443 19.6826 12.054 19.7011 11.9876 19.6508C11.9094 19.5915 11.8073 19.5014 11.6138 19.3288L10.2822 20.821ZM12.3725 19.3288C12.179 19.5014 12.0769 19.5915 11.9987 19.6508C11.9323 19.7011 11.942 19.6826 11.9932 19.6673L12.5678 21.5829C12.8317 21.5038 13.0386 21.3723 13.2071 21.2445C13.3637 21.1257 13.5342 20.9726 13.7041 20.821L12.3725 19.3288ZM11.4185 21.5829C11.7906 21.6946 12.1957 21.6946 12.5678 21.5829L11.9932 19.6673L11.4185 21.5829ZM15.5 10.5H14.5V12.5H15.5V10.5ZM13.6056 11.0528L12.1056 14.0528L13.8944 14.9472L15.3944 11.9472L13.6056 11.0528ZM13.9487 14.1838L11.9487 8.18377L10.0513 8.81623L12.0513 14.8162L13.9487 14.1838ZM10.1056 8.05279L8.60557 11.0528L10.3944 11.9472L11.8944 8.94721L10.1056 8.05279ZM9.5 10.5H8.5V12.5H9.5V10.5Z" fill="currentColor"/>
</svg>
