<svg width="100%" height="100%" viewBox="0 0 24 24" fill="none" xmlns="http://www.w3.org/2000/svg">
<path d="M4 8V7C3.44772 7 3 7.44772 3 8H4ZM20 8H21C21 7.44772 20.5523 7 20 7V8ZM5.63803 20.673L5.18404 21.564L5.63803 20.673ZM4.32698 19.362L3.43597 19.816L4.32698 19.362ZM19.673 19.362L20.564 19.816L19.673 19.362ZM18.362 20.673L18.816 21.564L18.362 20.673ZM2.03843 6.39018L3.01921 6.19509V6.19509L2.03843 6.39018ZM3.60982 7.96157L3.41473 8.94236H3.41473L3.60982 7.96157ZM21.9616 6.39018L22.9424 6.58527V6.58527L21.9616 6.39018ZM20.3902 7.96157L20.5853 8.94236L20.3902 7.96157ZM20.3902 3.03843L20.1951 4.01921V4.01921L20.3902 3.03843ZM21.9616 4.60982L22.9424 4.41473V4.41473L21.9616 4.60982ZM3.60982 3.03843L3.80491 4.01921H3.80491L3.60982 3.03843ZM2.03843 4.60982L3.01921 4.80491V4.80491L2.03843 4.60982ZM3.9742 8.99626C4.5263 9.01051 4.98542 8.57449 4.99967 8.02239C5.01391 7.47029 4.5779 7.01118 4.0258 6.99693L3.9742 8.99626ZM19.9742 6.99693C19.4221 7.01118 18.9861 7.47029 19.0003 8.02239C19.0146 8.57449 19.4737 9.01051 20.0258 8.99626L19.9742 6.99693ZM10 12C9.44772 12 9 12.4477 9 13C9 13.5523 9.44772 14 10 14V12ZM14 14C14.5523 14 15 13.5523 15 13C15 12.4477 14.5523 12 14 12V14ZM4 9H20V7H4V9ZM19 8V16.2H21V8H19ZM15.2 20H8.8V22H15.2V20ZM5 16.2V8H3V16.2H5ZM8.8 20C7.94342 20 7.36113 19.9992 6.91104 19.9624C6.47262 19.9266 6.24842 19.8617 6.09202 19.782L5.18404 21.564C5.66937 21.8113 6.18608 21.9099 6.74817 21.9558C7.2986 22.0008 7.97642 22 8.8 22V20ZM3 16.2C3 17.0236 2.99922 17.7014 3.04419 18.2518C3.09012 18.8139 3.18868 19.3306 3.43597 19.816L5.21799 18.908C5.1383 18.7516 5.07337 18.5274 5.03755 18.089C5.00078 17.6389 5 17.0566 5 16.2H3ZM6.09202 19.782C5.7157 19.5903 5.40973 19.2843 5.21799 18.908L3.43597 19.816C3.81947 20.5686 4.43139 21.1805 5.18404 21.564L6.09202 19.782ZM19 16.2C19 17.0566 18.9992 17.6389 18.9624 18.089C18.9266 18.5274 18.8617 18.7516 18.782 18.908L20.564 19.816C20.8113 19.3306 20.9099 18.8139 20.9558 18.2518C21.0008 17.7014 21 17.0236 21 16.2H19ZM15.2 22C16.0236 22 16.7014 22.0008 17.2518 21.9558C17.8139 21.9099 18.3306 21.8113 18.816 21.564L17.908 19.782C17.7516 19.8617 17.5274 19.9266 17.089 19.9624C16.6389 19.9992 16.0566 20 15.2 20V22ZM18.782 18.908C18.5903 19.2843 18.2843 19.5903 17.908 19.782L18.816 21.564C19.5686 21.1805 20.1805 20.5686 20.564 19.816L18.782 18.908ZM4.5 4H19.5V2H4.5V4ZM1 5.5C1 5.91672 0.995156 6.27112 1.05764 6.58527L3.01921 6.19509C3.00484 6.12284 3 6.01259 3 5.5H1ZM3.80491 6.98079C3.40822 6.90188 3.09812 6.59178 3.01921 6.19509L1.05764 6.58527C1.29436 7.77534 2.22466 8.70564 3.41473 8.94236L3.80491 6.98079ZM21 5.5C21 6.01259 20.9952 6.12284 20.9808 6.19509L22.9424 6.58527C23.0048 6.27112 23 5.91672 23 5.5H21ZM20.9808 6.19509C20.9019 6.59178 20.5918 6.90188 20.1951 6.98079L20.5853 8.94236C21.7753 8.70564 22.7056 7.77534 22.9424 6.58527L20.9808 6.19509ZM19.5 4C20.0126 4 20.1228 4.00484 20.1951 4.01921L20.5853 2.05764C20.2711 1.99516 19.9167 2 19.5 2V4ZM23 5.5C23 5.08328 23.0048 4.72888 22.9424 4.41473L20.9808 4.80491C20.9952 4.87716 21 4.98741 21 5.5H23ZM20.1951 4.01921C20.5918 4.09812 20.9019 4.40822 20.9808 4.80491L22.9424 4.41473C22.7056 3.22466 21.7753 2.29436 20.5853 2.05764L20.1951 4.01921ZM4.5 2C4.08328 2 3.72888 1.99516 3.41473 2.05764L3.80491 4.01921C3.87716 4.00484 3.98741 4 4.5 4V2ZM3 5.5C3 4.98741 3.00484 4.87716 3.01921 4.80491L1.05764 4.41473C0.995156 4.72888 1 5.08328 1 5.5H3ZM3.41473 2.05764C2.22466 2.29436 1.29436 3.22466 1.05764 4.41473L3.01921 4.80491C3.09812 4.40822 3.40822 4.09812 3.80491 4.01921L3.41473 2.05764ZM4.0258 6.99693C3.88225 6.99322 3.82923 6.98562 3.80491 6.98079L3.41473 8.94236C3.60456 8.98012 3.78974 8.9915 3.9742 8.99626L4.0258 6.99693ZM20.0258 8.99626C20.2103 8.9915 20.3954 8.98012 20.5853 8.94236L20.1951 6.98079C20.1708 6.98562 20.1178 6.99322 19.9742 6.99693L20.0258 8.99626ZM10 14H14V12H10V14Z" fill="currentColor"/>
</svg>
