<svg width="100%" height="100%" viewBox="0 0 24 24" fill="none" xmlns="http://www.w3.org/2000/svg">
<path d="M13 2C13 1.44772 12.5523 1 12 1C11.4477 1 11 1.44772 11 2H13ZM11 22C11 22.5523 11.4477 23 12 23C12.5523 23 13 22.5523 13 22H11ZM19.7782 5.63604C20.1687 5.24551 20.1687 4.61235 19.7782 4.22183C19.3876 3.8313 18.7545 3.8313 18.364 4.22183L19.7782 5.63604ZM4.22183 18.364C3.8313 18.7545 3.8313 19.3876 4.22183 19.7782C4.61235 20.1687 5.24551 20.1687 5.63604 19.7782L4.22183 18.364ZM22 13C22.5523 13 23 12.5523 23 12C23 11.4477 22.5523 11 22 11V13ZM2 11C1.44772 11 1 11.4477 1 12C1 12.5523 1.44772 13 2 13V11ZM18.364 19.7782C18.7545 20.1687 19.3876 20.1687 19.7782 19.7782C20.1687 19.3876 20.1687 18.7545 19.7782 18.364L18.364 19.7782ZM5.63604 4.22183C5.24551 3.8313 4.61235 3.8313 4.22183 4.22183C3.8313 4.61235 3.8313 5.24551 4.22183 5.63604L5.63604 4.22183ZM11 2V22H13V2H11ZM18.364 4.22183L4.22183 18.364L5.63604 19.7782L19.7782 5.63604L18.364 4.22183ZM22 11H2V13H22V11ZM19.7782 18.364L5.63604 4.22183L4.22183 5.63604L18.364 19.7782L19.7782 18.364Z" fill="currentColor"/>
</svg>
