<svg width="100%" height="100%" viewBox="0 0 24 24" fill="none" xmlns="http://www.w3.org/2000/svg">
<path d="M17 8.00011C17 7.44783 16.5523 7.00011 16 7.00011C15.4477 7.00011 15 7.44783 15 8.00011H17ZM16 13.0001H15H16ZM22 13.0001H23H22ZM22 12.0001H23V12L22 12.0001ZM18.688 20.7341C19.1265 20.3983 19.2097 19.7706 18.8739 19.3321C18.5382 18.8936 17.9105 18.8104 17.472 19.1462L18.688 20.7341ZM15 12.0001C15 13.657 13.6569 15.0001 12 15.0001V17.0001C14.7614 17.0001 17 14.7615 17 12.0001H15ZM12 15.0001C10.3432 15.0001 9.00001 13.657 9.00001 12.0001H7.00001C7.00001 14.7615 9.23859 17.0001 12 17.0001V15.0001ZM9.00001 12.0001C9.00001 10.3433 10.3432 9.00011 12 9.00011V7.00011C9.23859 7.00011 7.00001 9.23869 7.00001 12.0001H9.00001ZM12 9.00011C13.6569 9.00011 15 10.3433 15 12.0001H17C17 9.23869 14.7614 7.00011 12 7.00011V9.00011ZM15 8.00011V13.0001H17V8.00011H15ZM15 13.0001C15 14.061 15.4214 15.0784 16.1716 15.8285L17.5858 14.4143C17.2107 14.0393 17 13.5305 17 13.0001H15ZM16.1716 15.8285C16.9217 16.5787 17.9391 17.0001 19 17.0001V15.0001C18.4696 15.0001 17.9609 14.7894 17.5858 14.4143L16.1716 15.8285ZM19 17.0001C20.0609 17.0001 21.0783 16.5787 21.8284 15.8285L20.4142 14.4143C20.0392 14.7894 19.5304 15.0001 19 15.0001V17.0001ZM21.8284 15.8285C22.5786 15.0784 23 14.061 23 13.0001H21C21 13.5305 20.7893 14.0393 20.4142 14.4143L21.8284 15.8285ZM23 13.0001V12.0001H21V13.0001H23ZM23 12C22.9999 9.51738 22.1599 7.10777 20.6166 5.16303L19.05 6.40625C20.3126 7.9974 20.9999 9.9689 21 12.0002L23 12ZM20.6166 5.16303C19.0734 3.21829 16.9176 1.8528 14.4999 1.28858L14.0454 3.23624C16.0235 3.69788 17.7873 4.8151 19.05 6.40625L20.6166 5.16303ZM14.4999 1.28858C12.0822 0.724356 9.54474 0.994595 7.30009 2.05535L8.15462 3.86361C9.99115 2.99571 12.0673 2.77461 14.0454 3.23624L14.4999 1.28858ZM7.30009 2.05535C5.05545 3.11611 3.23565 4.905 2.13659 7.13114L3.92994 8.01653C4.82917 6.19513 6.3181 4.7315 8.15462 3.86361L7.30009 2.05535ZM2.13659 7.13114C1.03754 9.35729 0.723872 11.8898 1.24659 14.3168L3.20176 13.8957C2.77408 11.9099 3.03072 9.83792 3.92994 8.01653L2.13659 7.13114ZM1.24659 14.3168C1.76932 16.7438 3.09768 18.9226 5.0157 20.4989L6.28558 18.9538C4.71629 17.6641 3.62944 15.8814 3.20176 13.8957L1.24659 14.3168ZM5.0157 20.4989C6.93372 22.0753 9.32859 22.9564 11.8109 22.9991L11.8453 20.9994C9.8143 20.9645 7.85486 20.2435 6.28558 18.9538L5.0157 20.4989ZM11.8109 22.9991C14.2932 23.0418 16.7169 22.2435 18.688 20.7341L17.472 19.1462C15.8593 20.3812 13.8762 21.0343 11.8453 20.9994L11.8109 22.9991Z" fill="currentColor"/>
</svg>
