<svg width="100%" height="100%" viewBox="0 0 24 24" fill="none" xmlns="http://www.w3.org/2000/svg">
<path d="M19 21L18.5039 21.8682C18.8134 22.0451 19.1936 22.0438 19.5019 21.8649C19.8102 21.686 20 21.3565 20 21H19ZM5 21H4C4 21.3565 4.18976 21.686 4.49807 21.8649C4.80639 22.0438 5.18664 22.0451 5.49614 21.8682L5 21ZM12 17L12.4961 16.1318C12.1887 15.9561 11.8113 15.9561 11.5039 16.1318L12 17ZM17.362 3.32698L17.816 2.43597L17.362 3.32698ZM18.673 4.63803L19.564 4.18404L18.673 4.63803ZM6.63803 3.32698L6.18404 2.43597L6.63803 3.32698ZM5.32698 4.63803L4.43597 4.18404L5.32698 4.63803ZM9.8 4H14.2V2H9.8V4ZM18 7.8V21H20V7.8H18ZM6 21V7.8H4V21H6ZM19.4961 20.1318L12.4961 16.1318L11.5039 17.8682L18.5039 21.8682L19.4961 20.1318ZM11.5039 16.1318L4.50386 20.1318L5.49614 21.8682L12.4961 17.8682L11.5039 16.1318ZM14.2 4C15.0566 4 15.6389 4.00078 16.089 4.03755C16.5274 4.07337 16.7516 4.1383 16.908 4.21799L17.816 2.43597C17.3306 2.18868 16.8139 2.09012 16.2518 2.04419C15.7014 1.99922 15.0236 2 14.2 2V4ZM20 7.8C20 6.97642 20.0008 6.2986 19.9558 5.74817C19.9099 5.18608 19.8113 4.66937 19.564 4.18404L17.782 5.09202C17.8617 5.24842 17.9266 5.47262 17.9624 5.91104C17.9992 6.36113 18 6.94342 18 7.8H20ZM16.908 4.21799C17.2843 4.40973 17.5903 4.71569 17.782 5.09202L19.564 4.18404C19.1805 3.43139 18.5686 2.81947 17.816 2.43597L16.908 4.21799ZM9.8 2C8.97642 2 8.2986 1.99922 7.74817 2.04419C7.18608 2.09012 6.66937 2.18868 6.18404 2.43597L7.09202 4.21799C7.24842 4.1383 7.47262 4.07337 7.91104 4.03755C8.36113 4.00078 8.94342 4 9.8 4V2ZM6 7.8C6 6.94342 6.00078 6.36113 6.03755 5.91104C6.07337 5.47262 6.1383 5.24842 6.21799 5.09202L4.43597 4.18404C4.18868 4.66937 4.09012 5.18608 4.04419 5.74817C3.99922 6.2986 4 6.97642 4 7.8H6ZM6.18404 2.43597C5.43139 2.81947 4.81947 3.43139 4.43597 4.18404L6.21799 5.09202C6.40973 4.71569 6.71569 4.40973 7.09202 4.21799L6.18404 2.43597Z" fill="currentColor"/>
</svg>
