<svg width="100%" height="100%" viewBox="0 0 24 24" fill="none" xmlns="http://www.w3.org/2000/svg">
<path d="M14 21C14 21.5523 14.4477 22 15 22C15.5523 22 16 21.5523 16 21H14ZM8 21C8 21.5523 8.44772 22 9 22C9.55228 22 10 21.5523 10 21H8ZM14.454 14.109L14 15H14L14.454 14.109ZM14.891 14.546L14 15L14.891 14.546ZM9.54601 14.109L9.09202 13.218L9.54601 14.109ZM9.10899 14.546L8.21799 14.092L9.10899 14.546ZM10 7C10 6.44772 9.55228 6 9 6C8.44772 6 8 6.44772 8 7H10ZM4 7C4 6.44772 3.55228 6 3 6C2.44772 6 2 6.44772 2 7H4ZM16 7C16 6.44772 15.5523 6 15 6C14.4477 6 14 6.44772 14 7H16ZM22 7C22 6.44772 21.5523 6 21 6C20.4477 6 20 6.44772 20 7H22ZM4.09202 20.782L4.54601 19.891L4.09202 20.782ZM3.21799 19.908L4.10899 19.454L3.21799 19.908ZM20.782 19.908L19.891 19.454L20.782 19.908ZM19.908 20.782L19.454 19.891L19.908 20.782ZM19.908 3.21799L19.454 4.10899L19.908 3.21799ZM20.782 4.09202L19.891 4.54601L20.782 4.09202ZM4.09202 3.21799L4.54601 4.10899L4.09202 3.21799ZM3.21799 4.09202L4.10899 4.54601L3.21799 4.09202ZM10.6 15H13.4V13H10.6V15ZM14 15.6V21H16V15.6H14ZM10 21V15.6H8V21H10ZM13.4 15C13.6965 15 13.8588 15.0008 13.9754 15.0103C14.0803 15.0189 14.0575 15.0293 14 15L14.908 13.218C14.6366 13.0797 14.3668 13.0356 14.1382 13.0169C13.9213 12.9992 13.6635 13 13.4 13V15ZM16 15.6C16 15.3365 16.0008 15.0787 15.9831 14.8618C15.9644 14.6332 15.9203 14.3634 15.782 14.092L14 15C13.9707 14.9425 13.9811 14.9197 13.9897 15.0246C13.9992 15.1412 14 15.3035 14 15.6H16ZM14 15H14L15.782 14.092C15.5903 13.7157 15.2843 13.4097 14.908 13.218L14 15ZM10.6 13C10.3365 13 10.0787 12.9992 9.86177 13.0169C9.63318 13.0356 9.36344 13.0797 9.09202 13.218L10 15C9.94249 15.0293 9.91972 15.0189 10.0246 15.0103C10.1412 15.0008 10.3035 15 10.6 15V13ZM10 15.6C10 15.3035 10.0008 15.1412 10.0103 15.0246C10.0189 14.9197 10.0293 14.9425 10 15L8.21799 14.092C8.07969 14.3634 8.03562 14.6332 8.01695 14.8618C7.99922 15.0787 8 15.3365 8 15.6H10ZM9.09202 13.218C8.7157 13.4097 8.40973 13.7157 8.21799 14.092L10 15L9.09202 13.218ZM8 7C8 8.10457 7.10457 9 6 9V11C8.20914 11 10 9.20914 10 7H8ZM6 9C4.89543 9 4 8.10457 4 7H2C2 9.20914 3.79086 11 6 11V9ZM14 7C14 8.10457 13.1046 9 12 9V11C14.2091 11 16 9.20914 16 7H14ZM12 9C10.8954 9 10 8.10457 10 7H8C8 9.20914 9.79086 11 12 11V9ZM20 7C20 8.10457 19.1046 9 18 9V11C20.2091 11 22 9.20914 22 7H20ZM18 9C16.8954 9 16 8.10457 16 7H14C14 9.20914 15.7909 11 18 11V9ZM6.2 4H17.8V2H6.2V4ZM20 6.2V17.8H22V6.2H20ZM17.8 20H6.2V22H17.8V20ZM4 17.8V6.2H2V17.8H4ZM6.2 20C5.62345 20 5.25117 19.9992 4.96784 19.9761C4.69617 19.9539 4.59545 19.9162 4.54601 19.891L3.63803 21.673C4.01641 21.8658 4.40963 21.9371 4.80497 21.9694C5.18864 22.0008 5.65645 22 6.2 22V20ZM2 17.8C2 18.3436 1.99922 18.8114 2.03057 19.195C2.06287 19.5904 2.13419 19.9836 2.32698 20.362L4.10899 19.454C4.0838 19.4045 4.04612 19.3038 4.02393 19.0322C4.00078 18.7488 4 18.3766 4 17.8H2ZM4.54601 19.891C4.35785 19.7951 4.20487 19.6422 4.10899 19.454L2.32698 20.362C2.6146 20.9265 3.07354 21.3854 3.63803 21.673L4.54601 19.891ZM20 17.8C20 18.3766 19.9992 18.7488 19.9761 19.0322C19.9539 19.3038 19.9162 19.4045 19.891 19.454L21.673 20.362C21.8658 19.9836 21.9371 19.5904 21.9694 19.195C22.0008 18.8114 22 18.3436 22 17.8H20ZM17.8 22C18.3436 22 18.8114 22.0008 19.195 21.9694C19.5904 21.9371 19.9836 21.8658 20.362 21.673L19.454 19.891C19.4045 19.9162 19.3038 19.9539 19.0322 19.9761C18.7488 19.9992 18.3766 20 17.8 20V22ZM19.891 19.454C19.7951 19.6422 19.6422 19.7951 19.454 19.891L20.362 21.673C20.9265 21.3854 21.3854 20.9265 21.673 20.362L19.891 19.454ZM17.8 4C18.3766 4 18.7488 4.00078 19.0322 4.02393C19.3038 4.04612 19.4045 4.0838 19.454 4.10899L20.362 2.32698C19.9836 2.13419 19.5904 2.06287 19.195 2.03057C18.8114 1.99922 18.3436 2 17.8 2V4ZM22 6.2C22 5.65645 22.0008 5.18864 21.9694 4.80497C21.9371 4.40963 21.8658 4.01641 21.673 3.63803L19.891 4.54601C19.9162 4.59545 19.9539 4.69617 19.9761 4.96784C19.9992 5.25117 20 5.62345 20 6.2H22ZM19.454 4.10899C19.6422 4.20487 19.7951 4.35785 19.891 4.54601L21.673 3.63803C21.3854 3.07354 20.9265 2.6146 20.362 2.32698L19.454 4.10899ZM6.2 2C5.65645 2 5.18864 1.99922 4.80497 2.03057C4.40963 2.06287 4.01641 2.13419 3.63803 2.32698L4.54601 4.10899C4.59545 4.0838 4.69617 4.04612 4.96784 4.02393C5.25117 4.00078 5.62345 4 6.2 4V2ZM4 6.2C4 5.62345 4.00078 5.25117 4.02393 4.96784C4.04612 4.69617 4.0838 4.59545 4.10899 4.54601L2.32698 3.63803C2.13419 4.01641 2.06287 4.40963 2.03057 4.80497C1.99922 5.18864 2 5.65645 2 6.2H4ZM3.63803 2.32698C3.07354 2.6146 2.6146 3.07354 2.32698 3.63803L4.10899 4.54601C4.20487 4.35785 4.35785 4.20487 4.54601 4.10899L3.63803 2.32698Z" fill="currentColor"/>
</svg>
