<svg width="100%" height="100%" viewBox="0 0 24 24" fill="none" xmlns="http://www.w3.org/2000/svg">
<path d="M7.5 12C8.05228 12 8.5 11.5523 8.5 11C8.5 10.4477 8.05228 10 7.5 10V12ZM2 21C2 21.5523 2.44772 22 3 22C3.55228 22 4 21.5523 4 21H2ZM3.54601 11.109L3.09202 10.218H3.09202L3.54601 11.109ZM3.10899 11.546L2.21799 11.092H2.21799L3.10899 11.546ZM16.5 10C15.9477 10 15.5 10.4477 15.5 11C15.5 11.5523 15.9477 12 16.5 12V10ZM20 21C20 21.5523 20.4477 22 21 22C21.5523 22 22 21.5523 22 21H20ZM20.454 11.109L20 12L20.454 11.109ZM20.891 11.546L20 12L20.891 11.546ZM15.5 21C15.5 21.5523 15.9477 22 16.5 22C17.0523 22 17.5 21.5523 17.5 21H15.5ZM6.5 21C6.5 21.5523 6.94772 22 7.5 22C8.05228 22 8.5 21.5523 8.5 21H6.5ZM15.408 3.21799L14.954 4.10899L14.954 4.10899L15.408 3.21799ZM16.282 4.09202L15.391 4.54601V4.54601L16.282 4.09202ZM8.59202 3.21799L8.13803 2.32698V2.32698L8.59202 3.21799ZM7.71799 4.09202L6.82698 3.63803V3.63803L7.71799 4.09202ZM22 22C22.5523 22 23 21.5523 23 21C23 20.4477 22.5523 20 22 20V22ZM2 20C1.44772 20 1 20.4477 1 21C1 21.5523 1.44772 22 2 22V20ZM11 6C10.4477 6 10 6.44772 10 7C10 7.55228 10.4477 8 11 8V6ZM13 8C13.5523 8 14 7.55228 14 7C14 6.44772 13.5523 6 13 6V8ZM11 10C10.4477 10 10 10.4477 10 11C10 11.5523 10.4477 12 11 12V10ZM13 12C13.5523 12 14 11.5523 14 11C14 10.4477 13.5523 10 13 10V12ZM11 14C10.4477 14 10 14.4477 10 15C10 15.5523 10.4477 16 11 16V14ZM13 16C13.5523 16 14 15.5523 14 15C14 14.4477 13.5523 14 13 14V16ZM4.6 12H7.5V10H4.6V12ZM4 21V12.6H2V21H4ZM4.6 10C4.33647 10 4.07869 9.99922 3.86177 10.0169C3.63318 10.0356 3.36344 10.0797 3.09202 10.218L4 12C3.94249 12.0293 3.91972 12.0189 4.02463 12.0103C4.14122 12.0008 4.30347 12 4.6 12V10ZM4 12.6C4 12.3035 4.00078 12.1412 4.0103 12.0246C4.01887 11.9197 4.0293 11.9425 4 12L2.21799 11.092C2.07969 11.3634 2.03562 11.6332 2.01695 11.8618C1.99922 12.0787 2 12.3365 2 12.6H4ZM3.09202 10.218C2.7157 10.4097 2.40973 10.7157 2.21799 11.092L4 12L3.09202 10.218ZM16.5 12H19.4V10H16.5V12ZM20 12.6V21H22V12.6H20ZM19.4 12C19.6965 12 19.8588 12.0008 19.9754 12.0103C20.0803 12.0189 20.0575 12.0293 20 12L20.908 10.218C20.6366 10.0797 20.3668 10.0356 20.1382 10.0169C19.9213 9.99922 19.6635 10 19.4 10V12ZM22 12.6C22 12.3365 22.0008 12.0787 21.9831 11.8618C21.9644 11.6332 21.9203 11.3634 21.782 11.092L20 12C19.9707 11.9425 19.9811 11.9197 19.9897 12.0246C19.9992 12.1412 20 12.3035 20 12.6H22ZM20 12L21.782 11.092C21.5903 10.7157 21.2843 10.4097 20.908 10.218L20 12ZM10.7 4H13.3V2H10.7V4ZM15.5 6.2V21H17.5V6.2H15.5ZM8.5 21V6.2H6.5V21H8.5ZM13.3 4C13.8766 4 14.2488 4.00078 14.5322 4.02393C14.8038 4.04612 14.9045 4.0838 14.954 4.10899L15.862 2.32698C15.4836 2.13419 15.0904 2.06287 14.695 2.03057C14.3114 1.99922 13.8436 2 13.3 2V4ZM17.5 6.2C17.5 5.65645 17.5008 5.18864 17.4694 4.80497C17.4371 4.40963 17.3658 4.01641 17.173 3.63803L15.391 4.54601C15.4162 4.59545 15.4539 4.69617 15.4761 4.96784C15.4992 5.25117 15.5 5.62345 15.5 6.2H17.5ZM14.954 4.10899C15.1422 4.20487 15.2951 4.35785 15.391 4.54601L17.173 3.63803C16.8854 3.07354 16.4265 2.6146 15.862 2.32698L14.954 4.10899ZM10.7 2C10.1564 2 9.68864 1.99922 9.30497 2.03057C8.90963 2.06287 8.51641 2.13419 8.13803 2.32698L9.04601 4.10899C9.09545 4.0838 9.19617 4.04612 9.46784 4.02393C9.75117 4.00078 10.1234 4 10.7 4V2ZM8.5 6.2C8.5 5.62345 8.50078 5.25117 8.52393 4.96784C8.54612 4.69617 8.5838 4.59545 8.60899 4.54601L6.82698 3.63803C6.63419 4.01641 6.56287 4.40963 6.53057 4.80497C6.49922 5.18864 6.5 5.65645 6.5 6.2H8.5ZM8.13803 2.32698C7.57354 2.6146 7.1146 3.07354 6.82698 3.63803L8.60899 4.54601C8.70487 4.35785 8.85785 4.20487 9.04601 4.10899L8.13803 2.32698ZM22 20H2V22H22V20ZM11 8H13V6H11V8ZM11 12H13V10H11V12ZM11 16H13V14H11V16Z" fill="currentColor"/>
</svg>
