<svg width="100%" height="100%" viewBox="0 0 24 24" fill="none" xmlns="http://www.w3.org/2000/svg">
<path d="M3 20C2.44772 20 2 20.4477 2 21C2 21.5523 2.44772 22 3 22V20ZM21 22C21.5523 22 22 21.5523 22 21C22 20.4477 21.5523 20 21 20V22ZM5 18C5 18.5523 5.44772 19 6 19C6.55228 19 7 18.5523 7 18H5ZM7 9.99998C7 9.44769 6.55228 8.99998 6 8.99998C5.44772 8.99998 5 9.44769 5 9.99998H7ZM9 18C9 18.5523 9.44772 19 10 19C10.5523 19 11 18.5523 11 18H9ZM11 9.99998C11 9.44769 10.5523 8.99998 10 8.99998C9.44772 8.99998 9 9.44769 9 9.99998H11ZM13 18C13 18.5523 13.4477 19 14 19C14.5523 19 15 18.5523 15 18H13ZM15 9.99998C15 9.44769 14.5523 8.99998 14 8.99998C13.4477 8.99998 13 9.44769 13 9.99998H15ZM17 18C17 18.5523 17.4477 19 18 19C18.5523 19 19 18.5523 19 18H17ZM19 9.99998C19 9.44769 18.5523 8.99998 18 8.99998C17.4477 8.99998 17 9.44769 17 9.99998H19ZM20 6.99998V7.99998C20.4461 7.99998 20.8383 7.70448 20.9612 7.27566C21.0842 6.84684 20.9083 6.38841 20.53 6.15198L20 6.99998ZM4 6.99998L3.47 6.15198C3.0917 6.38841 2.91577 6.84684 3.03875 7.27566C3.16174 7.70448 3.55389 7.99998 4 7.99998V6.99998ZM12.424 2.26498L11.894 3.11297L12.424 2.26498ZM12.1108 2.10203L12.3324 1.12689L12.1108 2.10203ZM11.576 2.26498L12.106 3.11297L11.576 2.26498ZM11.8892 2.10203L11.6676 1.12689L11.8892 2.10203ZM3 22H21V20H3V22ZM7 18V9.99998H5V18H7ZM11 18V9.99998H9V18H11ZM15 18V9.99998H13V18H15ZM19 18V9.99998H17V18H19ZM11.894 3.11297L19.47 7.84797L20.53 6.15198L12.954 1.41698L11.894 3.11297ZM20 5.99998H4V7.99998H20V5.99998ZM4.53 7.84797L12.106 3.11297L11.046 1.41698L3.47 6.15198L4.53 7.84797ZM12.954 1.41698C12.8624 1.35972 12.6192 1.19207 12.3324 1.12689L11.8892 3.07717C11.8706 3.07294 11.8531 3.06808 11.8368 3.06287C11.8206 3.05769 11.8068 3.05251 11.7955 3.04794C11.7738 3.0391 11.7622 3.0326 11.7649 3.03405C11.766 3.03464 11.7694 3.03653 11.7759 3.04033C11.7824 3.04412 11.791 3.0492 11.8023 3.05606C11.8136 3.06293 11.8265 3.07093 11.8421 3.08058C11.8577 3.09028 11.8745 3.10079 11.894 3.11297L12.954 1.41698ZM12.106 3.11297C12.1255 3.10079 12.1423 3.09028 12.1579 3.08058C12.1735 3.07093 12.1864 3.06293 12.1977 3.05606C12.209 3.0492 12.2176 3.04412 12.2241 3.04033C12.2306 3.03653 12.234 3.03464 12.2351 3.03405C12.2378 3.0326 12.2262 3.0391 12.2045 3.04794C12.1932 3.05251 12.1794 3.05769 12.1632 3.06287C12.1469 3.06808 12.1294 3.07294 12.1108 3.07717L11.6676 1.12689C11.3808 1.19207 11.1376 1.35972 11.046 1.41698L12.106 3.11297ZM12.3324 1.12689C12.1136 1.07717 11.8864 1.07717 11.6676 1.12689L12.1108 3.07717C12.0379 3.09374 11.9621 3.09374 11.8892 3.07717L12.3324 1.12689Z" fill="currentColor"/>
</svg>
