<svg width="100%" height="100%" viewBox="0 0 24 24" fill="none" xmlns="http://www.w3.org/2000/svg">
<path d="M7.5 6C6.94772 6 6.5 6.44772 6.5 7C6.5 7.55228 6.94772 8 7.5 8V6ZM10.25 8C10.8023 8 11.25 7.55228 11.25 7C11.25 6.44772 10.8023 6 10.25 6V8ZM7.5 10C6.94772 10 6.5 10.4477 6.5 11C6.5 11.5523 6.94772 12 7.5 12V10ZM10.25 12C10.8023 12 11.25 11.5523 11.25 11C11.25 10.4477 10.8023 10 10.25 10V12ZM7.5 14C6.94772 14 6.5 14.4477 6.5 15C6.5 15.5523 6.94772 16 7.5 16V14ZM10.25 16C10.8023 16 11.25 15.5523 11.25 15C11.25 14.4477 10.8023 14 10.25 14V16ZM13.75 6C13.1977 6 12.75 6.44772 12.75 7C12.75 7.55228 13.1977 8 13.75 8V6ZM16.5 8C17.0523 8 17.5 7.55228 17.5 7C17.5 6.44772 17.0523 6 16.5 6V8ZM13.75 10C13.1977 10 12.75 10.4477 12.75 11C12.75 11.5523 13.1977 12 13.75 12V10ZM16.5 12C17.0523 12 17.5 11.5523 17.5 11C17.5 10.4477 17.0523 10 16.5 10V12ZM13.75 14C13.1977 14 12.75 14.4477 12.75 15C12.75 15.5523 13.1977 16 13.75 16V14ZM16.5 16C17.0523 16 17.5 15.5523 17.5 15C17.5 14.4477 17.0523 14 16.5 14V16ZM19 21C19 21.5523 19.4477 22 20 22C20.5523 22 21 21.5523 21 21H19ZM3 21C3 21.5523 3.44772 22 4 22C4.55228 22 5 21.5523 5 21H3ZM18.908 3.21799L18.454 4.10899V4.10899L18.908 3.21799ZM19.782 4.09202L18.891 4.54601V4.54601L19.782 4.09202ZM5.09202 3.21799L4.63803 2.32698V2.32698L5.09202 3.21799ZM4.21799 4.09202L3.32698 3.63803L3.32698 3.63803L4.21799 4.09202ZM22 22C22.5523 22 23 21.5523 23 21C23 20.4477 22.5523 20 22 20V22ZM2 20C1.44772 20 1 20.4477 1 21C1 21.5523 1.44772 22 2 22V20ZM7.5 8H10.25V6H7.5V8ZM7.5 12H10.25V10H7.5V12ZM7.5 16H10.25V14H7.5V16ZM13.75 8H16.5V6H13.75V8ZM13.75 12H16.5V10H13.75V12ZM13.75 16H16.5V14H13.75V16ZM7.2 4H16.8V2H7.2V4ZM19 6.2V21H21V6.2H19ZM5 21V6.2H3V21H5ZM16.8 4C17.3766 4 17.7488 4.00078 18.0322 4.02393C18.3038 4.04612 18.4045 4.0838 18.454 4.10899L19.362 2.32698C18.9836 2.13419 18.5904 2.06287 18.195 2.03057C17.8114 1.99922 17.3436 2 16.8 2V4ZM21 6.2C21 5.65645 21.0008 5.18864 20.9694 4.80497C20.9371 4.40963 20.8658 4.01641 20.673 3.63803L18.891 4.54601C18.9162 4.59545 18.9539 4.69617 18.9761 4.96784C18.9992 5.25117 19 5.62345 19 6.2H21ZM18.454 4.10899C18.6422 4.20487 18.7951 4.35785 18.891 4.54601L20.673 3.63803C20.3854 3.07354 19.9265 2.6146 19.362 2.32698L18.454 4.10899ZM7.2 2C6.65645 2 6.18864 1.99922 5.80497 2.03057C5.40963 2.06287 5.01641 2.13419 4.63803 2.32698L5.54601 4.10899C5.59545 4.0838 5.69617 4.04612 5.96784 4.02393C6.25117 4.00078 6.62345 4 7.2 4V2ZM5 6.2C5 5.62345 5.00078 5.25117 5.02393 4.96784C5.04612 4.69617 5.0838 4.59545 5.10899 4.54601L3.32698 3.63803C3.13419 4.01641 3.06287 4.40963 3.03057 4.80497C2.99922 5.18864 3 5.65645 3 6.2H5ZM4.63803 2.32698C4.07354 2.6146 3.6146 3.07354 3.32698 3.63803L5.10899 4.54601C5.20487 4.35785 5.35785 4.20487 5.54601 4.10899L4.63803 2.32698ZM22 20H2V22H22V20Z" fill="currentColor"/>
</svg>
