<svg width="100%" height="100%" viewBox="0 0 24 24" fill="none" xmlns="http://www.w3.org/2000/svg">
<path d="M9.5 6C8.94772 6 8.5 6.44772 8.5 7C8.5 7.55228 8.94772 8 9.5 8V6ZM14.5 8C15.0523 8 15.5 7.55228 15.5 7C15.5 6.44772 15.0523 6 14.5 6V8ZM9.5 10C8.94772 10 8.5 10.4477 8.5 11C8.5 11.5523 8.94772 12 9.5 12V10ZM14.5 12C15.0523 12 15.5 11.5523 15.5 11C15.5 10.4477 15.0523 10 14.5 10V12ZM9.5 14C8.94772 14 8.5 14.4477 8.5 15C8.5 15.5523 8.94772 16 9.5 16V14ZM14.5 16C15.0523 16 15.5 15.5523 15.5 15C15.5 14.4477 15.0523 14 14.5 14V16ZM17 21C17 21.5523 17.4477 22 18 22C18.5523 22 19 21.5523 19 21H17ZM5 21C5 21.5523 5.44772 22 6 22C6.55228 22 7 21.5523 7 21H5ZM16.908 3.21799L16.454 4.10899L16.454 4.10899L16.908 3.21799ZM17.782 4.09202L16.891 4.54601V4.54601L17.782 4.09202ZM7.09202 3.21799L6.63803 2.32698V2.32698L7.09202 3.21799ZM6.21799 4.09202L5.32698 3.63803L5.32698 3.63803L6.21799 4.09202ZM20 22C20.5523 22 21 21.5523 21 21C21 20.4477 20.5523 20 20 20V22ZM4 20C3.44772 20 3 20.4477 3 21C3 21.5523 3.44772 22 4 22V20ZM9.5 8H14.5V6H9.5V8ZM9.5 12H14.5V10H9.5V12ZM9.5 16H14.5V14H9.5V16ZM9.2 4H14.8V2H9.2V4ZM17 6.2V21H19V6.2H17ZM7 21V6.2H5V21H7ZM14.8 4C15.3766 4 15.7488 4.00078 16.0322 4.02393C16.3038 4.04612 16.4045 4.0838 16.454 4.10899L17.362 2.32698C16.9836 2.13419 16.5904 2.06287 16.195 2.03057C15.8114 1.99922 15.3436 2 14.8 2V4ZM19 6.2C19 5.65645 19.0008 5.18864 18.9694 4.80497C18.9371 4.40963 18.8658 4.01641 18.673 3.63803L16.891 4.54601C16.9162 4.59545 16.9539 4.69617 16.9761 4.96784C16.9992 5.25117 17 5.62345 17 6.2H19ZM16.454 4.10899C16.6422 4.20487 16.7951 4.35785 16.891 4.54601L18.673 3.63803C18.3854 3.07354 17.9265 2.6146 17.362 2.32698L16.454 4.10899ZM9.2 2C8.65645 2 8.18864 1.99922 7.80497 2.03057C7.40963 2.06287 7.01641 2.13419 6.63803 2.32698L7.54601 4.10899C7.59545 4.0838 7.69617 4.04612 7.96784 4.02393C8.25117 4.00078 8.62345 4 9.2 4V2ZM7 6.2C7 5.62345 7.00078 5.25117 7.02393 4.96784C7.04612 4.69617 7.0838 4.59545 7.10899 4.54601L5.32698 3.63803C5.13419 4.01641 5.06287 4.40963 5.03057 4.80497C4.99922 5.18864 5 5.65645 5 6.2H7ZM6.63803 2.32698C6.07354 2.6146 5.6146 3.07354 5.32698 3.63803L7.10899 4.54601C7.20487 4.35785 7.35785 4.20487 7.54601 4.10899L6.63803 2.32698ZM20 20H4V22H20V20Z" fill="currentColor"/>
</svg>
