<svg width="100%" height="100%" viewBox="0 0 24 24" fill="none" xmlns="http://www.w3.org/2000/svg">
<path d="M13 10C12.4477 10 12 10.4477 12 11C12 11.5523 12.4477 12 13 12V10ZM20 21C20 21.5523 20.4477 22 21 22C21.5523 22 22 21.5523 22 21H20ZM19.908 11.218L20.362 10.327L19.908 11.218ZM20.782 12.092L19.891 12.546L20.782 12.092ZM12 21C12 21.5523 12.4477 22 13 22C13.5523 22 14 21.5523 14 21H12ZM2 21C2 21.5523 2.44772 22 3 22C3.55228 22 4 21.5523 4 21H2ZM11.908 3.21799L11.454 4.10899L11.454 4.10899L11.908 3.21799ZM12.782 4.09202L11.891 4.54601V4.54601L12.782 4.09202ZM4.09202 3.21799L3.63803 2.32698L3.63803 2.32698L4.09202 3.21799ZM3.21799 4.09202L2.32698 3.63803L2.32698 3.63803L3.21799 4.09202ZM22 22C22.5523 22 23 21.5523 23 21C23 20.4477 22.5523 20 22 20V22ZM2 20C1.44772 20 1 20.4477 1 21C1 21.5523 1.44772 22 2 22V20ZM6.5 6C5.94772 6 5.5 6.44772 5.5 7C5.5 7.55228 5.94772 8 6.5 8V6ZM9.5 8C10.0523 8 10.5 7.55228 10.5 7C10.5 6.44772 10.0523 6 9.5 6V8ZM6.5 10C5.94772 10 5.5 10.4477 5.5 11C5.5 11.5523 5.94772 12 6.5 12V10ZM9.5 12C10.0523 12 10.5 11.5523 10.5 11C10.5 10.4477 10.0523 10 9.5 10V12ZM6.5 14C5.94772 14 5.5 14.4477 5.5 15C5.5 15.5523 5.94772 16 6.5 16V14ZM9.5 16C10.0523 16 10.5 15.5523 10.5 15C10.5 14.4477 10.0523 14 9.5 14V16ZM13 12H17.8V10H13V12ZM20 14.2V21H22V14.2H20ZM17.8 12C18.3766 12 18.7488 12.0008 19.0322 12.0239C19.3038 12.0461 19.4045 12.0838 19.454 12.109L20.362 10.327C19.9836 10.1342 19.5904 10.0629 19.195 10.0306C18.8114 9.99922 18.3436 10 17.8 10V12ZM22 14.2C22 13.6564 22.0008 13.1886 21.9694 12.805C21.9371 12.4096 21.8658 12.0164 21.673 11.638L19.891 12.546C19.9162 12.5955 19.9539 12.6962 19.9761 12.9678C19.9992 13.2512 20 13.6234 20 14.2H22ZM19.454 12.109C19.6422 12.2049 19.7951 12.3578 19.891 12.546L21.673 11.638C21.3854 11.0735 20.9265 10.6146 20.362 10.327L19.454 12.109ZM6.2 4H9.8V2H6.2V4ZM12 6.2V21H14V6.2H12ZM4 21V6.2H2V21H4ZM9.8 4C10.3766 4 10.7488 4.00078 11.0322 4.02393C11.3038 4.04612 11.4045 4.0838 11.454 4.10899L12.362 2.32698C11.9836 2.13419 11.5904 2.06287 11.195 2.03057C10.8114 1.99922 10.3436 2 9.8 2V4ZM14 6.2C14 5.65645 14.0008 5.18864 13.9694 4.80497C13.9371 4.40963 13.8658 4.01641 13.673 3.63803L11.891 4.54601C11.9162 4.59545 11.9539 4.69617 11.9761 4.96784C11.9992 5.25117 12 5.62345 12 6.2H14ZM11.454 4.10899C11.6422 4.20487 11.7951 4.35785 11.891 4.54601L13.673 3.63803C13.3854 3.07354 12.9265 2.6146 12.362 2.32698L11.454 4.10899ZM6.2 2C5.65645 2 5.18864 1.99922 4.80497 2.03057C4.40963 2.06287 4.01641 2.13419 3.63803 2.32698L4.54601 4.10899C4.59545 4.0838 4.69617 4.04612 4.96784 4.02393C5.25117 4.00078 5.62345 4 6.2 4V2ZM4 6.2C4 5.62345 4.00078 5.25117 4.02393 4.96784C4.04612 4.69617 4.0838 4.59545 4.10899 4.54601L2.32698 3.63803C2.13419 4.01641 2.06287 4.40963 2.03057 4.80497C1.99922 5.18864 2 5.65645 2 6.2H4ZM3.63803 2.32698C3.07354 2.6146 2.6146 3.07354 2.32698 3.63803L4.10899 4.54601C4.20487 4.35785 4.35785 4.20487 4.54601 4.10899L3.63803 2.32698ZM22 20H2V22H22V20ZM6.5 8H9.5V6H6.5V8ZM6.5 12H9.5V10H6.5V12ZM6.5 16H9.5V14H6.5V16Z" fill="currentColor"/>
</svg>
