<svg width="100%" height="100%" viewBox="0 0 24 24" fill="none" xmlns="http://www.w3.org/2000/svg">
<path d="M14 21C14 21.5523 14.4477 22 15 22C15.5523 22 16 21.5523 16 21H14ZM8 21C8 21.5523 8.44772 22 9 22C9.55228 22 10 21.5523 10 21H8ZM14.454 14.109L14 15H14L14.454 14.109ZM14.891 14.546L14 15L14.891 14.546ZM9.54601 14.109L9.09202 13.218L9.54601 14.109ZM9.10899 14.546L8.21799 14.092L9.10899 14.546ZM18 21C18 21.5523 18.4477 22 19 22C19.5523 22 20 21.5523 20 21H18ZM4 21C4 21.5523 4.44772 22 5 22C5.55228 22 6 21.5523 6 21H4ZM17.908 3.21799L17.454 4.10899L17.454 4.10899L17.908 3.21799ZM18.782 4.09202L17.891 4.54601V4.54601L18.782 4.09202ZM6.09202 3.21799L5.63803 2.32698V2.32698L6.09202 3.21799ZM5.21799 4.09202L4.32698 3.63803L4.32698 3.63803L5.21799 4.09202ZM21 22C21.5523 22 22 21.5523 22 21C22 20.4477 21.5523 20 21 20V22ZM3 20C2.44772 20 2 20.4477 2 21C2 21.5523 2.44772 22 3 22V20ZM9.5 7C8.94772 7 8.5 7.44772 8.5 8C8.5 8.55228 8.94772 9 9.5 9V7ZM9.51 9C10.0623 9 10.51 8.55228 10.51 8C10.51 7.44772 10.0623 7 9.51 7V9ZM14.5 7C13.9477 7 13.5 7.44772 13.5 8C13.5 8.55228 13.9477 9 14.5 9V7ZM14.51 9C15.0623 9 15.51 8.55228 15.51 8C15.51 7.44772 15.0623 7 14.51 7V9ZM10.6 15H13.4V13H10.6V15ZM14 15.6V21H16V15.6H14ZM10 21V15.6H8V21H10ZM13.4 15C13.6965 15 13.8588 15.0008 13.9754 15.0103C14.0803 15.0189 14.0575 15.0293 14 15L14.908 13.218C14.6366 13.0797 14.3668 13.0356 14.1382 13.0169C13.9213 12.9992 13.6635 13 13.4 13V15ZM16 15.6C16 15.3365 16.0008 15.0787 15.9831 14.8618C15.9644 14.6332 15.9203 14.3634 15.782 14.092L14 15C13.9707 14.9425 13.9811 14.9197 13.9897 15.0246C13.9992 15.1412 14 15.3035 14 15.6H16ZM14 15H14L15.782 14.092C15.5903 13.7157 15.2843 13.4097 14.908 13.218L14 15ZM10.6 13C10.3365 13 10.0787 12.9992 9.86177 13.0169C9.63318 13.0356 9.36344 13.0797 9.09202 13.218L10 15C9.94249 15.0293 9.91972 15.0189 10.0246 15.0103C10.1412 15.0008 10.3035 15 10.6 15V13ZM10 15.6C10 15.3035 10.0008 15.1412 10.0103 15.0246C10.0189 14.9197 10.0293 14.9425 10 15L8.21799 14.092C8.07969 14.3634 8.03562 14.6332 8.01695 14.8618C7.99922 15.0787 8 15.3365 8 15.6H10ZM9.09202 13.218C8.7157 13.4097 8.40973 13.7157 8.21799 14.092L10 15L9.09202 13.218ZM8.2 4H15.8V2H8.2V4ZM18 6.2V21H20V6.2H18ZM6 21V6.2H4V21H6ZM15.8 4C16.3766 4 16.7488 4.00078 17.0322 4.02393C17.3038 4.04612 17.4045 4.0838 17.454 4.10899L18.362 2.32698C17.9836 2.13419 17.5904 2.06287 17.195 2.03057C16.8114 1.99922 16.3436 2 15.8 2V4ZM20 6.2C20 5.65645 20.0008 5.18864 19.9694 4.80497C19.9371 4.40963 19.8658 4.01641 19.673 3.63803L17.891 4.54601C17.9162 4.59545 17.9539 4.69617 17.9761 4.96784C17.9992 5.25117 18 5.62345 18 6.2H20ZM17.454 4.10899C17.6422 4.20487 17.7951 4.35785 17.891 4.54601L19.673 3.63803C19.3854 3.07354 18.9265 2.6146 18.362 2.32698L17.454 4.10899ZM8.2 2C7.65645 2 7.18864 1.99922 6.80497 2.03057C6.40963 2.06287 6.01641 2.13419 5.63803 2.32698L6.54601 4.10899C6.59545 4.0838 6.69617 4.04612 6.96784 4.02393C7.25117 4.00078 7.62345 4 8.2 4V2ZM6 6.2C6 5.62345 6.00078 5.25117 6.02393 4.96784C6.04612 4.69617 6.0838 4.59545 6.10899 4.54601L4.32698 3.63803C4.13419 4.01641 4.06287 4.40963 4.03057 4.80497C3.99922 5.18864 4 5.65645 4 6.2H6ZM5.63803 2.32698C5.07354 2.6146 4.6146 3.07354 4.32698 3.63803L6.10899 4.54601C6.20487 4.35785 6.35785 4.20487 6.54601 4.10899L5.63803 2.32698ZM21 20H3V22H21V20ZM9.5 9H9.51V7H9.5V9ZM9 8C9 7.72386 9.22386 7.5 9.5 7.5V9.5C10.3284 9.5 11 8.82843 11 8H9ZM9.5 7.5C9.77614 7.5 10 7.72386 10 8H8C8 8.82843 8.67157 9.5 9.5 9.5V7.5ZM10 8C10 8.27614 9.77614 8.5 9.5 8.5V6.5C8.67157 6.5 8 7.17157 8 8H10ZM9.5 8.5C9.22386 8.5 9 8.27614 9 8H11C11 7.17157 10.3284 6.5 9.5 6.5V8.5ZM14.5 9H14.51V7H14.5V9ZM14 8C14 7.72386 14.2239 7.5 14.5 7.5V9.5C15.3284 9.5 16 8.82843 16 8H14ZM14.5 7.5C14.7761 7.5 15 7.72386 15 8H13C13 8.82843 13.6716 9.5 14.5 9.5V7.5ZM15 8C15 8.27614 14.7761 8.5 14.5 8.5V6.5C13.6716 6.5 13 7.17157 13 8H15ZM14.5 8.5C14.2239 8.5 14 8.27614 14 8H16C16 7.17157 15.3284 6.5 14.5 6.5V8.5Z" fill="currentColor"/>
</svg>
