<svg width="100%" height="100%" viewBox="0 0 24 24" fill="none" xmlns="http://www.w3.org/2000/svg">
<path d="M11 12C11.5523 12 12 11.5523 12 11C12 10.4477 11.5523 10 11 10V12ZM2 21C2 21.5523 2.44772 22 3 22C3.55228 22 4 21.5523 4 21H2ZM4.09202 11.218L3.63803 10.327H3.63803L4.09202 11.218ZM3.21799 12.092L2.32698 11.638H2.32698L3.21799 12.092ZM20 21C20 21.5523 20.4477 22 21 22C21.5523 22 22 21.5523 22 21H20ZM10 21C10 21.5523 10.4477 22 11 22C11.5523 22 12 21.5523 12 21H10ZM19.908 3.21799L19.454 4.10899V4.10899L19.908 3.21799ZM20.782 4.09202L19.891 4.54601V4.54601L20.782 4.09202ZM12.092 3.21799L11.638 2.32698V2.32698L12.092 3.21799ZM11.218 4.09202L10.327 3.63803V3.63803L11.218 4.09202ZM22 22C22.5523 22 23 21.5523 23 21C23 20.4477 22.5523 20 22 20V22ZM2 20C1.44772 20 1 20.4477 1 21C1 21.5523 1.44772 22 2 22V20ZM14.5 6C13.9477 6 13.5 6.44772 13.5 7C13.5 7.55228 13.9477 8 14.5 8V6ZM17.5 8C18.0523 8 18.5 7.55228 18.5 7C18.5 6.44772 18.0523 6 17.5 6V8ZM14.5 10C13.9477 10 13.5 10.4477 13.5 11C13.5 11.5523 13.9477 12 14.5 12V10ZM17.5 12C18.0523 12 18.5 11.5523 18.5 11C18.5 10.4477 18.0523 10 17.5 10V12ZM14.5 14C13.9477 14 13.5 14.4477 13.5 15C13.5 15.5523 13.9477 16 14.5 16V14ZM17.5 16C18.0523 16 18.5 15.5523 18.5 15C18.5 14.4477 18.0523 14 17.5 14V16ZM6.2 12H11V10H6.2V12ZM4 21V14.2H2V21H4ZM6.2 10C5.65645 10 5.18864 9.99922 4.80497 10.0306C4.40963 10.0629 4.01641 10.1342 3.63803 10.327L4.54601 12.109C4.59545 12.0838 4.69617 12.0461 4.96784 12.0239C5.25117 12.0008 5.62345 12 6.2 12V10ZM4 14.2C4 13.6234 4.00078 13.2512 4.02393 12.9678C4.04612 12.6962 4.0838 12.5955 4.10899 12.546L2.32698 11.638C2.13419 12.0164 2.06287 12.4096 2.03057 12.805C1.99922 13.1886 2 13.6564 2 14.2H4ZM3.63803 10.327C3.07354 10.6146 2.6146 11.0735 2.32698 11.638L4.10899 12.546C4.20487 12.3578 4.35785 12.2049 4.54601 12.109L3.63803 10.327ZM14.2 4H17.8V2H14.2V4ZM20 6.2V21H22V6.2H20ZM12 21V6.2H10V21H12ZM17.8 4C18.3766 4 18.7488 4.00078 19.0322 4.02393C19.3038 4.04612 19.4045 4.0838 19.454 4.10899L20.362 2.32698C19.9836 2.13419 19.5904 2.06287 19.195 2.03057C18.8114 1.99922 18.3436 2 17.8 2V4ZM22 6.2C22 5.65645 22.0008 5.18864 21.9694 4.80497C21.9371 4.40963 21.8658 4.01641 21.673 3.63803L19.891 4.54601C19.9162 4.59545 19.9539 4.69617 19.9761 4.96784C19.9992 5.25117 20 5.62345 20 6.2H22ZM19.454 4.10899C19.6422 4.20487 19.7951 4.35785 19.891 4.54601L21.673 3.63803C21.3854 3.07354 20.9265 2.6146 20.362 2.32698L19.454 4.10899ZM14.2 2C13.6564 2 13.1886 1.99922 12.805 2.03057C12.4096 2.06287 12.0164 2.13419 11.638 2.32698L12.546 4.10899C12.5955 4.0838 12.6962 4.04612 12.9678 4.02393C13.2512 4.00078 13.6234 4 14.2 4V2ZM12 6.2C12 5.62345 12.0008 5.25117 12.0239 4.96784C12.0461 4.69617 12.0838 4.59545 12.109 4.54601L10.327 3.63803C10.1342 4.01641 10.0629 4.40963 10.0306 4.80497C9.99922 5.18864 10 5.65645 10 6.2H12ZM11.638 2.32698C11.0735 2.6146 10.6146 3.07354 10.327 3.63803L12.109 4.54601C12.2049 4.35785 12.3578 4.20487 12.546 4.10899L11.638 2.32698ZM22 20H2V22H22V20ZM14.5 8H17.5V6H14.5V8ZM14.5 12H17.5V10H14.5V12ZM14.5 16H17.5V14H14.5V16Z" fill="currentColor"/>
</svg>
