<svg width="100%" height="100%" viewBox="0 0 24 24" fill="none" xmlns="http://www.w3.org/2000/svg">
<path d="M11.9932 5.13581L11.2332 5.78583C11.4232 6.00794 11.7009 6.13581 11.9932 6.13581C12.2854 6.13581 12.5631 6.00794 12.7531 5.78583L11.9932 5.13581ZM3.2642 12.5604L4.0538 11.9468L3.2642 12.5604ZM20.7221 12.5604L21.5117 13.174L20.7221 12.5604ZM10.948 20.0749L11.6138 19.3288L10.948 20.0749ZM11.7058 20.6251L11.9932 19.6673L11.7058 20.6251ZM13.0383 20.0749L13.7041 20.821L13.0383 20.0749ZM12.2805 20.6251L12.5678 21.5829L12.2805 20.6251ZM9.70711 10.2929C9.31658 9.90237 8.68342 9.90237 8.29289 10.2929C7.90237 10.6834 7.90237 11.3166 8.29289 11.7071L9.70711 10.2929ZM11 13L10.2929 13.7071C10.6834 14.0976 11.3166 14.0976 11.7071 13.7071L11 13ZM16.2071 9.20711C16.5976 8.81658 16.5976 8.18342 16.2071 7.79289C15.8166 7.40237 15.1834 7.40237 14.7929 7.79289L16.2071 9.20711ZM12.7531 4.4858C10.4594 1.80434 6.50161 0.989451 3.5051 3.54974L4.80429 5.07029C6.81788 3.34983 9.52816 3.79246 11.2332 5.78583L12.7531 4.4858ZM3.5051 3.54974C0.598307 6.03336 0.175977 10.2162 2.4746 13.174L4.0538 11.9468C2.41796 9.84179 2.70098 6.86741 4.80429 5.07029L3.5051 3.54974ZM21.5117 13.174C23.8015 10.2275 23.4444 6.01246 20.4708 3.54097L19.1924 5.07906C21.315 6.84328 21.5772 9.83042 19.9325 11.9468L21.5117 13.174ZM20.4708 3.54097C17.4415 1.02319 13.5344 1.79553 11.2332 4.4858L12.7531 5.78583C14.4506 3.80127 17.1255 3.36113 19.1924 5.07906L20.4708 3.54097ZM2.4746 13.174C3.26965 14.1971 4.74903 15.6827 6.23191 17.0969C7.73142 18.5268 9.29008 19.9357 10.2822 20.821L11.6138 19.3288C10.6292 18.4502 9.08892 17.0578 7.61217 15.6495C6.1188 14.2254 4.74464 12.8357 4.0538 11.9468L2.4746 13.174ZM13.7041 20.821C14.6962 19.9357 16.2549 18.5268 17.7544 17.0969C19.2373 15.6827 20.7166 14.1971 21.5117 13.174L19.9325 11.9468C19.2417 12.8357 17.8675 14.2254 16.3741 15.6495C14.8974 17.0578 13.3571 18.4502 12.3725 19.3288L13.7041 20.821ZM10.2822 20.821C10.4521 20.9726 10.6226 21.1257 10.7792 21.2445C10.9477 21.3723 11.1546 21.5038 11.4185 21.5829L11.9932 19.6673C12.0443 19.6826 12.054 19.7011 11.9876 19.6508C11.9094 19.5915 11.8073 19.5014 11.6138 19.3288L10.2822 20.821ZM12.3725 19.3288C12.179 19.5014 12.0769 19.5915 11.9987 19.6508C11.9323 19.7011 11.942 19.6826 11.9932 19.6673L12.5678 21.5829C12.8317 21.5038 13.0386 21.3723 13.2071 21.2445C13.3637 21.1257 13.5342 20.9726 13.7041 20.821L12.3725 19.3288ZM11.4185 21.5829C11.7906 21.6946 12.1957 21.6946 12.5678 21.5829L11.9932 19.6673L11.4185 21.5829ZM8.29289 11.7071L10.2929 13.7071L11.7071 12.2929L9.70711 10.2929L8.29289 11.7071ZM11.7071 13.7071L16.2071 9.20711L14.7929 7.79289L10.2929 12.2929L11.7071 13.7071Z" fill="currentColor"/>
</svg>
