<svg width="100%" height="100%" viewBox="0 0 24 24" fill="none" xmlns="http://www.w3.org/2000/svg">
<path d="M9.2019 20.6009L9.33297 21.5922H9.33297L9.2019 20.6009ZM10.1218 20.8475L9.5116 21.6398L9.51305 21.6409L10.1218 20.8475ZM11.3251 21.7708L11.9343 20.9778L11.9338 20.9775L11.3251 21.7708ZM12.6727 21.7708L12.0637 20.9777L12.0625 20.9786L12.6727 21.7708ZM13.9215 20.812L13.3131 20.0184L13.3125 20.0188L13.9215 20.812ZM14.7403 20.5931L14.6079 21.5843L14.6099 21.5845L14.7403 20.5931ZM16.3024 20.7986L16.4333 19.8072L16.4329 19.8072L16.3024 20.7986ZM17.4701 20.1242L18.3938 20.5074L18.3942 20.5064L17.4701 20.1242ZM18.0712 18.6709L18.9952 19.0531L18.9957 19.052L18.0712 18.6709ZM18.6711 18.0709L19.0523 18.9955L19.0533 18.995L18.6711 18.0709ZM20.1243 17.4698L19.743 16.5454L19.7421 16.5458L20.1243 17.4698ZM20.7987 16.3021L19.8072 16.4323L19.8073 16.433L20.7987 16.3021ZM20.601 14.7966L21.5924 14.6664L21.5923 14.6655L20.601 14.7966ZM20.8476 13.8766L21.6399 14.4868L21.641 14.4853L20.8476 13.8766ZM21.7709 12.6733L20.9778 12.0642L20.9775 12.0646L21.7709 12.6733ZM21.7709 11.3256L20.9777 11.9345L20.9786 11.9358L21.7709 11.3256ZM20.812 10.0767L20.0184 10.6851L20.0189 10.6857L20.812 10.0767ZM20.5932 9.25785L21.5844 9.39026L21.5846 9.3883L20.5932 9.25785ZM20.7987 7.69568L19.8073 7.56483L19.8073 7.56523L20.7987 7.69568ZM20.1243 6.52793L20.5075 5.60427L20.5065 5.60386L20.1243 6.52793ZM18.6711 5.92684L19.0533 5.00277L19.0523 5.00232L18.6711 5.92684ZM18.0712 5.32685L18.9957 4.94574L18.9952 4.94466L18.0712 5.32685ZM17.4701 3.87356L16.5456 4.25485L16.546 4.25575L17.4701 3.87356ZM16.3024 3.19913L16.4329 4.19059L16.4333 4.19053L16.3024 3.19913ZM14.7403 3.40468L14.6099 2.41321L14.6042 2.41399L14.7403 3.40468ZM13.9226 3.18802L13.3136 3.98118L13.3147 3.98204L13.9226 3.18802ZM12.6738 2.22916L12.0646 3.02218L12.0648 3.02232L12.6738 2.22916ZM11.3262 2.22916L11.9352 3.02232L11.9364 3.02136L11.3262 2.22916ZM10.0774 3.18802L10.6835 3.98344L10.6864 3.98118L10.0774 3.18802ZM9.25856 3.40691L9.1281 4.39836L9.12986 4.39859L9.25856 3.40691ZM7.69647 3.20136L7.56561 4.19276L7.56601 4.19281L7.69647 3.20136ZM6.52879 3.87578L5.60511 3.4926L5.60446 3.4942L6.52879 3.87578ZM5.92884 5.32907L6.85148 5.71475L6.85317 5.71066L5.92884 5.32907ZM5.32889 5.92906L5.71051 6.85339L5.7146 6.85168L5.32889 5.92906ZM3.87568 6.52904L3.49406 5.60472L3.49246 5.60538L3.87568 6.52904ZM3.20129 7.69679L4.19274 7.56634L4.19269 7.56594L3.20129 7.69679ZM3.40683 9.25897L4.39851 9.13028L4.39828 9.12852L3.40683 9.25897ZM3.18796 10.0767L3.98115 10.6857L3.98201 10.6846L3.18796 10.0767ZM2.22915 11.3256L3.0222 11.9347L3.02234 11.9345L2.22915 11.3256ZM2.22915 12.6733L3.02234 12.0643L3.02138 12.0631L2.22915 12.6733ZM3.18796 13.9222L3.98158 13.3138L3.98115 13.3132L3.18796 13.9222ZM3.40683 14.741L2.41563 14.6086L2.41537 14.6106L3.40683 14.741ZM3.20129 16.3032L4.19269 16.4341L4.19274 16.4337L3.20129 16.3032ZM3.87568 17.471L3.49246 18.3946L3.49345 18.395L3.87568 17.471ZM5.32889 18.0721L4.94666 18.9961L4.94774 18.9966L5.32889 18.0721ZM5.92884 18.672L5.00431 19.0531L5.00475 19.0542L5.92884 18.672ZM6.5299 20.1253L7.45436 19.744L7.45399 19.7431L6.5299 20.1253ZM7.69758 20.7998L7.82844 21.7912L7.82865 21.7911L7.69758 20.7998ZM9.70711 11.2929C9.31658 10.9024 8.68342 10.9024 8.29289 11.2929C7.90237 11.6834 7.90237 12.3166 8.29289 12.7071L9.70711 11.2929ZM11 14L10.2929 14.7071C10.6834 15.0976 11.3166 15.0976 11.7071 14.7071L11 14ZM16.2071 10.2071C16.5976 9.81658 16.5976 9.18342 16.2071 8.79289C15.8166 8.40237 15.1834 8.40237 14.7929 8.79289L16.2071 10.2071ZM9.33297 21.5922C9.39753 21.5837 9.46173 21.6013 9.5116 21.6398L10.732 20.0553C10.2597 19.6915 9.66177 19.5314 9.07083 19.6095L9.33297 21.5922ZM9.51305 21.6409L10.7163 22.5642L11.9338 20.9775L10.7306 20.0542L9.51305 21.6409ZM10.7159 22.5639C11.4723 23.145 12.5262 23.146 13.283 22.563L12.0625 20.9786C12.026 21.0067 11.9733 21.0078 11.9343 20.9778L10.7159 22.5639ZM13.2817 22.564L14.5305 21.6051L13.3125 20.0188L12.0637 20.9777L13.2817 22.564ZM14.53 21.6056C14.5532 21.5877 14.5812 21.5807 14.6079 21.5843L14.8727 19.6019C14.3172 19.5277 13.7564 19.6784 13.3131 20.0184L14.53 21.6056ZM14.6099 21.5845L16.172 21.7901L16.4329 19.8072L14.8708 19.6016L14.6099 21.5845ZM16.1716 21.79C17.1179 21.915 18.0286 21.3877 18.3938 20.5074L16.5464 19.741C16.5272 19.7874 16.4802 19.8134 16.4333 19.8072L16.1716 21.79ZM18.3942 20.5064L18.9952 19.0531L17.1471 18.2887L16.546 19.742L18.3942 20.5064ZM18.9957 19.052C19.0064 19.0261 19.0263 19.0061 19.0523 18.9955L18.29 17.1464C17.7715 17.3602 17.3604 17.7713 17.1466 18.2898L18.9957 19.052ZM19.0533 18.995L20.5065 18.3939L19.7421 16.5458L18.2889 17.1469L19.0533 18.995ZM20.5056 18.3943C21.3891 18.0299 21.9148 17.1161 21.7901 16.1713L19.8073 16.433C19.8137 16.4814 19.7862 16.5276 19.743 16.5454L20.5056 18.3943ZM21.7902 16.1719L21.5924 14.6664L19.6095 14.9268L19.8072 16.4323L21.7902 16.1719ZM21.5923 14.6655C21.5838 14.6009 21.6014 14.5367 21.6399 14.4868L20.0553 13.2664C19.6916 13.7388 19.5315 14.3367 19.6096 14.9276L21.5923 14.6655ZM21.641 14.4853L22.5642 13.282L20.9775 12.0646L20.0542 13.2679L21.641 14.4853ZM22.5639 13.2825C23.145 12.526 23.146 11.4722 22.5631 10.7153L20.9786 11.9358C21.0067 11.9723 21.0078 12.0251 20.9778 12.0642L22.5639 13.2825ZM22.564 10.7166L21.6052 9.46775L20.0189 10.6857L20.9777 11.9345L22.564 10.7166ZM21.6057 9.46831C21.5878 9.44506 21.5808 9.41698 21.5844 9.39026L19.602 9.12545C19.5278 9.68093 19.6785 10.2417 20.0184 10.6851L21.6057 9.46831ZM21.5846 9.3883L21.7902 7.82612L19.8073 7.56523L19.6017 9.12741L21.5846 9.3883ZM21.7901 7.82652C21.915 6.88023 21.3878 5.9695 20.5075 5.60427L19.7411 7.45159C19.7874 7.47079 19.8135 7.51782 19.8073 7.56483L21.7901 7.82652ZM20.5065 5.60386L19.0533 5.00277L18.2889 6.8509L19.7421 7.452L20.5065 5.60386ZM19.0523 5.00232C19.0263 4.99164 19.0064 4.97169 18.9957 4.94574L17.1466 5.70796C17.3604 6.22644 17.7715 6.63759 18.29 6.85135L19.0523 5.00232ZM18.9952 4.94466L18.3942 3.49137L16.546 4.25575L17.1471 5.70904L18.9952 4.94466ZM18.3946 3.49227C18.0302 2.60886 17.1165 2.08301 16.1716 2.20773L16.4333 4.19053C16.4816 4.18415 16.5278 4.21161 16.5456 4.25485L18.3946 3.49227ZM16.172 2.20768L14.6099 2.41323L14.8708 4.39614L16.4329 4.19059L16.172 2.20768ZM14.6042 2.41399C14.5793 2.41741 14.5524 2.41075 14.5305 2.394L13.3147 3.98204C13.7573 4.32084 14.3192 4.47195 14.8765 4.39537L14.6042 2.41399ZM14.5316 2.39486L13.2828 1.436L12.0648 3.02232L13.3136 3.98118L14.5316 2.39486ZM13.283 1.43614C12.5265 0.855006 11.4727 0.853958 10.7159 1.43697L11.9364 3.02136C11.9729 2.99327 12.0256 2.99222 12.0646 3.02218L13.283 1.43614ZM10.7172 1.436L9.46837 2.39486L10.6864 3.98118L11.9352 3.02232L10.7172 1.436ZM9.47132 2.39261C9.44713 2.41104 9.41665 2.41904 9.38726 2.41522L9.12986 4.39859C9.68264 4.47033 10.241 4.32055 10.6834 3.98344L9.47132 2.39261ZM9.38902 2.41545L7.82693 2.2099L7.56601 4.19281L9.1281 4.39836L9.38902 2.41545ZM7.82733 2.20995C6.88098 2.08504 5.97031 2.6123 5.60512 3.4926L7.45246 4.25896C7.47169 4.21262 7.5187 4.18656 7.56561 4.19276L7.82733 2.20995ZM5.60446 3.4942L5.00451 4.94749L6.85317 5.71066L7.45312 4.25737L5.60446 3.4942ZM5.0062 4.9434C4.99429 4.9719 4.97165 4.99454 4.94318 5.00644L5.7146 6.85168C6.22831 6.63692 6.63674 6.22846 6.85148 5.71474L5.0062 4.9434ZM4.94727 5.00474L3.49406 5.60472L4.2573 7.45336L5.71051 6.85338L4.94727 5.00474ZM3.49246 5.60538C2.61215 5.97061 2.08499 6.88134 2.20989 7.82763L4.19269 7.56594C4.18649 7.51893 4.21261 7.4719 4.25889 7.4527L3.49246 5.60538ZM2.20983 7.82723L2.41537 9.38941L4.39828 9.12852L4.19274 7.56634L2.20983 7.82723ZM2.41514 9.38765C2.41903 9.41759 2.41059 9.44708 2.39391 9.46887L3.98201 10.6846C4.32085 10.2419 4.47018 9.68254 4.39851 9.13028L2.41514 9.38765ZM2.39477 9.46775L1.43596 10.7166L3.02234 11.9345L3.98115 10.6857L2.39477 9.46775ZM1.4361 10.7164C0.855021 11.4729 0.853973 12.5267 1.43692 13.2835L3.02138 12.0631C2.99326 12.0266 2.99221 11.9738 3.0222 11.9347L1.4361 10.7164ZM1.43596 13.2823L2.39477 14.5311L3.98115 13.3132L3.02234 12.0643L1.43596 13.2823ZM2.39433 14.5306C2.41216 14.5538 2.4192 14.5819 2.41563 14.6086L4.39802 14.8734C4.47222 14.318 4.3215 13.7572 3.98158 13.3138L2.39433 14.5306ZM2.41537 14.6106L2.20983 16.1728L4.19274 16.4337L4.39828 14.8715L2.41537 14.6106ZM2.20989 16.1724C2.08499 17.1187 2.61215 18.0294 3.49246 18.3946L4.25889 16.5473C4.21261 16.5281 4.18649 16.4811 4.19269 16.4341L2.20989 16.1724ZM3.49345 18.395L4.94666 18.9961L5.71111 17.148L4.2579 16.5469L3.49345 18.395ZM4.94774 18.9966C4.97366 19.0073 4.99361 19.0272 5.00431 19.0531L6.85337 18.2909C6.63964 17.7724 6.22852 17.3613 5.71004 17.1475L4.94774 18.9966ZM5.00475 19.0542L5.60582 20.5075L7.45399 19.7431L6.85292 18.2898L5.00475 19.0542ZM5.60544 20.5066C5.9698 21.39 6.88353 21.9159 7.82844 21.7912L7.56672 19.8084C7.51838 19.8147 7.47219 19.7873 7.45436 19.744L5.60544 20.5066ZM7.82865 21.7911L9.33297 21.5922L9.07083 19.6095L7.56651 19.8084L7.82865 21.7911ZM8.29289 12.7071L10.2929 14.7071L11.7071 13.2929L9.70711 11.2929L8.29289 12.7071ZM11.7071 14.7071L16.2071 10.2071L14.7929 8.79289L10.2929 13.2929L11.7071 14.7071Z" fill="currentColor"/>
</svg>
