<svg width="100%" height="100%" viewBox="0 0 24 24" fill="none" xmlns="http://www.w3.org/2000/svg">
<path d="M7.33377 3.8187L7.25422 2.82186L7.33377 3.8187ZM9.51447 2.91542L10.1631 3.67653L9.51447 2.91542ZM3.8187 7.33377L2.82186 7.25422L3.8187 7.33377ZM2.91542 9.51447L3.67653 10.1631L2.91542 9.51447ZM2.91542 14.4855L2.1543 15.1341L2.1543 15.1341L2.91542 14.4855ZM3.8187 16.6662L4.81553 16.5867L3.8187 16.6662ZM7.33377 20.1813L7.25422 21.1781H7.25422L7.33377 20.1813ZM9.51447 21.0846L8.86585 21.8457H8.86585L9.51447 21.0846ZM14.4855 21.0846L15.1341 21.8457L15.1341 21.8457L14.4855 21.0846ZM16.6662 20.1813L16.7458 21.1781H16.7458L16.6662 20.1813ZM20.1813 16.6662L21.1781 16.7458V16.7458L20.1813 16.6662ZM21.0846 14.4855L21.8457 15.1341L21.8457 15.1341L21.0846 14.4855ZM21.0846 9.51447L21.8457 8.86585V8.86585L21.0846 9.51447ZM20.1813 7.33377L21.1781 7.25422V7.25422L20.1813 7.33377ZM16.6662 3.8187L16.5867 4.81553L16.6662 3.8187ZM14.4855 2.91542L15.1341 2.1543L15.1341 2.1543L14.4855 2.91542ZM9.70711 11.2929C9.31658 10.9024 8.68342 10.9024 8.29289 11.2929C7.90237 11.6834 7.90237 12.3166 8.29289 12.7071L9.70711 11.2929ZM11 14L10.2929 14.7071C10.6834 15.0976 11.3166 15.0976 11.7071 14.7071L11 14ZM16.2071 10.2071C16.5976 9.81658 16.5976 9.18342 16.2071 8.79289C15.8166 8.40237 15.1834 8.40237 14.7929 8.79289L16.2071 10.2071ZM7.41332 4.81553C8.42692 4.73464 9.38917 4.33606 10.1631 3.67653L8.86585 2.1543C8.41226 2.54085 7.84829 2.77446 7.25422 2.82186L7.41332 4.81553ZM4.81553 7.41332C4.92616 6.027 6.027 4.92616 7.41332 4.81553L7.25422 2.82186C4.88889 3.01062 3.01062 4.88889 2.82186 7.25422L4.81553 7.41332ZM3.67653 10.1631C4.33606 9.38917 4.73464 8.42692 4.81553 7.41332L2.82186 7.25422C2.77446 7.84829 2.54085 8.41226 2.1543 8.86585L3.67653 10.1631ZM3.67653 13.8369C2.77449 12.7784 2.77449 11.2216 3.67653 10.1631L2.1543 8.86585C0.615232 10.6719 0.615232 13.3281 2.1543 15.1341L3.67653 13.8369ZM4.81553 16.5867C4.73464 15.5731 4.33606 14.6108 3.67653 13.8369L2.1543 15.1341C2.54085 15.5877 2.77446 16.1517 2.82186 16.7458L4.81553 16.5867ZM7.41332 19.1845C6.027 19.0738 4.92616 17.973 4.81553 16.5867L2.82186 16.7458C3.01062 19.1111 4.88889 20.9894 7.25422 21.1781L7.41332 19.1845ZM10.1631 20.3235C9.38917 19.6639 8.42692 19.2654 7.41332 19.1845L7.25422 21.1781C7.84829 21.2255 8.41226 21.4591 8.86585 21.8457L10.1631 20.3235ZM13.8369 20.3235C12.7784 21.2255 11.2216 21.2255 10.1631 20.3235L8.86585 21.8457C10.6719 23.3848 13.3281 23.3848 15.1341 21.8457L13.8369 20.3235ZM16.5867 19.1845C15.5731 19.2654 14.6108 19.6639 13.8369 20.3235L15.1341 21.8457C15.5877 21.4591 16.1517 21.2255 16.7458 21.1781L16.5867 19.1845ZM19.1845 16.5867C19.0738 17.973 17.973 19.0738 16.5867 19.1845L16.7458 21.1781C19.1111 20.9894 20.9894 19.1111 21.1781 16.7458L19.1845 16.5867ZM20.3235 13.8369C19.6639 14.6108 19.2654 15.5731 19.1845 16.5867L21.1781 16.7458C21.2255 16.1517 21.4591 15.5877 21.8457 15.1341L20.3235 13.8369ZM20.3235 10.1631C21.2255 11.2216 21.2255 12.7784 20.3235 13.8369L21.8457 15.1341C23.3848 13.3281 23.3848 10.6719 21.8457 8.86585L20.3235 10.1631ZM19.1845 7.41332C19.2654 8.42692 19.6639 9.38917 20.3235 10.1631L21.8457 8.86585C21.4591 8.41226 21.2255 7.84829 21.1781 7.25422L19.1845 7.41332ZM16.5867 4.81553C17.973 4.92616 19.0738 6.027 19.1845 7.41332L21.1781 7.25422C20.9894 4.88889 19.1111 3.01062 16.7458 2.82186L16.5867 4.81553ZM13.8369 3.67653C14.6108 4.33606 15.5731 4.73464 16.5867 4.81553L16.7458 2.82186C16.1517 2.77446 15.5877 2.54085 15.1341 2.1543L13.8369 3.67653ZM15.1341 2.1543C13.3281 0.615232 10.6719 0.615232 8.86585 2.1543L10.1631 3.67653C11.2216 2.77449 12.7784 2.77449 13.8369 3.67653L15.1341 2.1543ZM8.29289 12.7071L10.2929 14.7071L11.7071 13.2929L9.70711 11.2929L8.29289 12.7071ZM11.7071 14.7071L16.2071 10.2071L14.7929 8.79289L10.2929 13.2929L11.7071 14.7071Z" fill="currentColor"/>
</svg>
