<svg width="100%" height="100%" viewBox="0 0 24 24" fill="none" xmlns="http://www.w3.org/2000/svg">
<path d="M17.9012 4.99851L18.8253 4.61641C18.6379 4.16307 18.1493 3.91264 17.6718 4.02517C17.1943 4.13771 16.869 4.57998 16.9037 5.06931L17.9012 4.99851ZM19.0001 6.09907L18.6165 7.02261L18.6174 7.02295L19.0001 6.09907ZM20.7452 6.82198L20.3625 7.74585L20.7452 6.82198ZM21.8453 9.47781L22.7692 9.86048L22.7692 9.86048L21.8453 9.47781ZM21.1229 11.2218L20.199 10.8391L20.199 10.8391L21.1229 11.2218ZM21.1236 12.7783L22.0476 12.3961L22.0468 12.394L21.1236 12.7783ZM21.8447 14.5218L20.9206 14.904L20.9209 14.9048L21.8447 14.5218ZM20.7443 17.1785L20.3619 16.2545L20.3616 16.2546L20.7443 17.1785ZM19.0004 17.9009L19.3825 18.825L19.383 18.8247L19.0004 17.9009ZM17.8998 18.9998L16.9763 18.6163L16.9759 18.6171L17.8998 18.9998ZM17.1769 20.745L16.2531 20.3624L17.1769 20.745ZM14.5212 21.8451L14.9039 20.9212L14.5212 21.8451ZM12.7773 21.1227L13.16 20.1988L13.1592 20.1985L12.7773 21.1227ZM11.2221 21.1239L11.6043 22.048L11.6053 22.0475L11.2221 21.1239ZM9.47689 21.8458L9.85901 22.7699L9.85912 22.7698L9.47689 21.8458ZM6.82281 20.7464L5.89893 21.129L5.89917 21.1296L6.82281 20.7464ZM6.09972 19.0006L5.1756 19.3827L5.17583 19.3833L6.09972 19.0006ZM5.00085 17.9L5.38436 16.9765L5.38354 16.9762L5.00085 17.9ZM3.25566 17.1771L3.63836 16.2532H3.63836L3.25566 17.1771ZM2.1551 14.5225L1.23122 14.1399L1.23096 14.1405L2.1551 14.5225ZM2.87746 12.7786L3.80135 13.1612L3.80168 13.1604L2.87746 12.7786ZM2.8763 11.2233L1.95202 11.605L1.95265 11.6065L2.8763 11.2233ZM2.15497 9.47678L3.07925 9.09505L3.07873 9.09382L2.15497 9.47678ZM3.25537 6.8201L3.63776 7.7441L3.63806 7.74398L3.25537 6.8201ZM4.9993 6.09772L4.61718 5.1736L4.6166 5.17384L4.9993 6.09772ZM6.0993 5.00006L7.0226 5.38416L7.02319 5.38273L6.0993 5.00006ZM6.82218 3.25481L7.74607 3.63748L6.82218 3.25481ZM9.47792 2.15473L9.86061 1.23085L9.86061 1.23085L9.47792 2.15473ZM11.2218 2.87712L10.8391 3.80099L10.84 3.80133L11.2218 2.87712ZM12.7771 2.87595L12.3958 1.95149L12.3938 1.95231L12.7771 2.87595ZM14.523 2.15585L14.9043 3.08031L14.9055 3.07978L14.523 2.15585ZM17.1783 3.25576L18.1022 2.87309L18.1021 2.87295L17.1783 3.25576ZM17.9014 5.00153L16.9775 5.3842C17.1652 5.83731 17.6538 6.08745 18.1311 5.97479C18.6084 5.86213 18.9336 5.41994 18.8989 4.93073L17.9014 5.00153ZM9.70711 11.2929C9.31658 10.9024 8.68342 10.9024 8.29289 11.2929C7.90237 11.6834 7.90237 12.3166 8.29289 12.7071L9.70711 11.2929ZM11 14L10.2929 14.7071C10.6834 15.0976 11.3166 15.0976 11.7071 14.7071L11 14ZM16.2071 10.2071C16.5976 9.81658 16.5976 9.18342 16.2071 8.79289C15.8166 8.40237 15.1834 8.40237 14.7929 8.79289L16.2071 10.2071ZM16.9771 5.3806C17.2843 6.12363 17.874 6.71425 18.6165 7.02261L19.3836 5.17554C19.1307 5.07054 18.9299 4.86943 18.8253 4.61641L16.9771 5.3806ZM18.6174 7.02295L20.3625 7.74585L21.1279 5.8981L19.3827 5.1752L18.6174 7.02295ZM20.3625 7.74585C20.6156 7.85066 20.8166 8.05169 20.9214 8.30473L22.7692 7.53939C22.4614 6.7963 21.871 6.20591 21.1279 5.8981L20.3625 7.74585ZM20.9214 8.30473C21.0262 8.55777 21.0262 8.84209 20.9214 9.09514L22.7692 9.86048C23.0769 9.11739 23.0769 8.28247 22.7692 7.53939L20.9214 8.30473ZM20.9214 9.09514L20.199 10.8391L22.0468 11.6045L22.7692 9.86048L20.9214 9.09514ZM20.199 10.8391C19.8913 11.582 19.8905 12.4182 20.2004 13.1626L22.0468 12.394C21.942 12.1423 21.9417 11.8581 22.0468 11.6045L20.199 10.8391ZM20.1995 13.1605L20.9206 14.904L22.7688 14.1396L22.0476 12.3961L20.1995 13.1605ZM20.9209 14.9048C20.9729 15.0301 20.9996 15.1644 20.9996 15.3001L22.9996 15.2998C22.9996 14.9014 22.921 14.5069 22.7684 14.1388L20.9209 14.9048ZM20.9996 15.3001C20.9997 15.4358 20.973 15.5701 20.921 15.6955L22.7688 16.4608C22.9213 16.0927 22.9997 15.6982 22.9996 15.2998L20.9996 15.3001ZM20.921 15.6955C20.8691 15.8208 20.793 15.9347 20.6971 16.0306L22.1111 17.445C22.3929 17.1634 22.6163 16.8289 22.7688 16.4608L20.921 15.6955ZM20.6971 16.0306C20.6011 16.1265 20.4872 16.2026 20.3619 16.2545L21.1267 18.1025C21.4948 17.9501 21.8293 17.7267 22.1111 17.445L20.6971 16.0306ZM20.3616 16.2546L18.6177 16.977L19.383 18.8247L21.127 18.1024L20.3616 16.2546ZM18.6182 16.9768C17.8752 17.284 17.2846 17.8737 16.9763 18.6163L18.8234 19.3833C18.9284 19.1304 19.1295 18.9296 19.3825 18.825L18.6182 16.9768ZM16.9759 18.6171L16.2531 20.3624L18.1008 21.1277L18.8237 19.3824L16.9759 18.6171ZM16.2531 20.3624C16.1483 20.6154 15.9472 20.8164 15.6942 20.9212L16.4596 22.769C17.2027 22.4612 17.793 21.8708 18.1008 21.1277L16.2531 20.3624ZM15.6942 20.9212C15.4412 21.026 15.1569 21.026 14.9039 20.9212L14.1385 22.769C14.8816 23.0768 15.7165 23.0768 16.4596 22.769L15.6942 20.9212ZM14.9039 20.9212L13.16 20.1988L12.3946 22.0466L14.1385 22.769L14.9039 20.9212ZM13.1592 20.1985C12.4161 19.8915 11.5814 19.8921 10.8388 20.2002L11.6053 22.0475C11.8582 21.9426 12.1424 21.9424 12.3954 22.0469L13.1592 20.1985ZM10.8398 20.1998L9.09466 20.9217L9.85912 22.7698L11.6043 22.048L10.8398 20.1998ZM9.09477 20.9216C8.8419 21.0262 8.55787 21.0261 8.30506 20.9214L7.53967 22.7691C8.28215 23.0767 9.11634 23.077 9.85901 22.7699L9.09477 20.9216ZM8.30506 20.9214C8.05226 20.8167 7.85134 20.6159 7.74646 20.3631L5.89917 21.1296C6.20716 21.8719 6.7972 22.4616 7.53967 22.7691L8.30506 20.9214ZM7.7467 20.3637L7.0236 18.6179L5.17583 19.3833L5.89893 21.129L7.7467 20.3637ZM7.02384 18.6185C6.71662 17.8755 6.12691 17.2848 5.38436 16.9765L4.61734 18.8236C4.87017 18.9286 5.07098 19.1297 5.1756 19.3827L7.02384 18.6185ZM5.38354 16.9762L3.63836 16.2532L2.87297 18.101L4.61815 18.8239L5.38354 16.9762ZM3.63836 16.2532C3.38546 16.1485 3.18449 15.9476 3.07964 15.6947L1.23213 16.4606C1.54002 17.2033 2.13021 17.7933 2.87297 18.101L3.63836 16.2532ZM3.07964 15.6947C2.97479 15.4418 2.97465 15.1576 3.07924 14.9046L1.23096 14.1405C0.923809 14.8835 0.924227 15.718 1.23213 16.4606L3.07964 15.6947ZM3.07899 14.9052L3.80135 13.1612L1.95358 12.3959L1.23122 14.1399L3.07899 14.9052ZM3.80168 13.1604C4.10871 12.4173 4.10809 11.5827 3.79994 10.84L1.95265 11.6065C2.05758 11.8594 2.0578 12.1436 1.95324 12.3967L3.80168 13.1604ZM3.80057 10.8415L3.07924 9.09505L1.2307 9.85852L1.95202 11.605L3.80057 10.8415ZM3.07873 9.09382C3.02678 8.96849 3.00002 8.83415 3 8.69847L1 8.69879C1.00006 9.09721 1.07863 9.49171 1.23121 9.85975L3.07873 9.09382ZM3 8.69847C2.99998 8.5628 3.02669 8.42845 3.07861 8.3031L1.23084 7.53776C1.07838 7.90585 0.999936 8.30038 1 8.69879L3 8.69847ZM3.07861 8.3031C3.13052 8.17776 3.20663 8.06388 3.30257 7.96796L1.88856 6.55355C1.6068 6.83523 1.3833 7.16967 1.23084 7.53776L3.07861 8.3031ZM3.30257 7.96796C3.39852 7.87204 3.51242 7.79598 3.63776 7.7441L2.87297 5.89611C2.50483 6.04846 2.17032 6.27186 1.88856 6.55355L3.30257 7.96796ZM3.63806 7.74398L5.38199 7.02159L4.6166 5.17384L2.87267 5.89623L3.63806 7.74398ZM5.38142 7.02183C6.12379 6.71486 6.71403 6.12587 7.02259 5.38416L5.17601 4.61596C5.07094 4.86853 4.86995 5.06908 4.61718 5.1736L5.38142 7.02183ZM7.02319 5.38273L7.74607 3.63748L5.8983 2.87214L5.17542 4.61738L7.02319 5.38273ZM7.74607 3.63748C7.85088 3.38444 8.05191 3.18341 8.30492 3.0786L7.53953 1.23085C6.79645 1.53866 6.20608 2.12905 5.8983 2.87214L7.74607 3.63748ZM8.30492 3.0786C8.55793 2.9738 8.84221 2.9738 9.09522 3.0786L9.86061 1.23085C9.11753 0.923048 8.28261 0.923049 7.53953 1.23085L8.30492 3.0786ZM9.09522 3.0786L10.8392 3.80099L11.6045 1.95324L9.86061 1.23085L9.09522 3.0786ZM10.84 3.80133C11.5831 4.10837 12.4177 4.10775 13.1603 3.79958L12.3938 1.95231C12.1409 2.05724 11.8567 2.05745 11.6037 1.9529L10.84 3.80133ZM13.1583 3.8004L14.9043 3.08031L14.1417 1.23139L12.3958 1.95149L13.1583 3.8004ZM14.9055 3.07978C15.1585 2.97504 15.4427 2.97506 15.6957 3.07984L16.4611 1.23209C15.7181 0.924347 14.8834 0.924284 14.1404 1.23192L14.9055 3.07978ZM15.6957 3.07984C15.9486 3.18463 16.1496 3.3856 16.2545 3.63857L18.1021 2.87295C17.7943 2.13006 17.204 1.53984 16.4611 1.23209L15.6957 3.07984ZM16.2544 3.63844L16.9775 5.3842L18.8253 4.61886L18.1022 2.87309L16.2544 3.63844ZM18.8989 4.93073L18.8987 4.92771L16.9037 5.06931L16.9039 5.07233L18.8989 4.93073ZM8.29289 12.7071L10.2929 14.7071L11.7071 13.2929L9.70711 11.2929L8.29289 12.7071ZM11.7071 14.7071L16.2071 10.2071L14.7929 8.79289L10.2929 13.2929L11.7071 14.7071Z" fill="currentColor"/>
</svg>
