<svg width="100%" height="100%" viewBox="0 0 24 24" fill="none" xmlns="http://www.w3.org/2000/svg">
<path d="M16.141 8.01153L15.2561 8.47732C15.4399 8.82639 15.8117 9.03482 16.2053 9.00946L16.141 8.01153ZM9.5 18C5.91015 18 3 15.0899 3 11.5H1C1 16.1944 4.80558 20 9.5 20V18ZM3 11.5C3 7.91015 5.91015 5 9.5 5V3C4.80558 3 1 6.80558 1 11.5H3ZM9.5 5C11.9969 5 14.1667 6.40763 15.2561 8.47732L17.0259 7.54574C15.6044 4.84505 12.7684 3 9.5 3V5ZM16.2053 9.00946C16.3026 9.00319 16.4009 9 16.5 9V7C16.3579 7 16.2168 7.00458 16.0767 7.0136L16.2053 9.00946ZM16.5 9C18.9853 9 21 11.0147 21 13.5H23C23 9.91015 20.0898 7 16.5 7V9ZM21 13.5C21 15.9853 18.9853 18 16.5 18V20C20.0898 20 23 17.0899 23 13.5H21ZM16.5 18C16.495 18 16.49 18 16.4851 18C16.4801 18 16.4751 18 16.4701 18C16.4652 18 16.4602 18 16.4552 18C16.4503 18 16.4453 18 16.4403 18C16.4354 18 16.4304 18 16.4255 18C16.4205 18 16.4155 18 16.4106 18C16.4056 18 16.4007 18 16.3958 18C16.3908 18 16.3859 18 16.3809 18C16.376 18 16.371 18 16.3661 18C16.3612 18 16.3562 18 16.3513 18C16.3464 18 16.3415 18 16.3365 18C16.3316 18 16.3267 18 16.3218 18C16.3169 18 16.3119 18 16.307 18C16.3021 18 16.2972 18 16.2923 18C16.2874 18 16.2825 18 16.2776 18C16.2727 18 16.2678 18 16.2629 18C16.258 18 16.2531 18 16.2482 18C16.2433 18 16.2384 18 16.2335 18C16.2286 18 16.2237 18 16.2189 18C16.214 18 16.2091 18 16.2042 18C16.1993 18 16.1945 18 16.1896 18C16.1847 18 16.1799 18 16.175 18C16.1701 18 16.1653 18 16.1604 18C16.1555 18 16.1507 18 16.1458 18C16.141 18 16.1361 18 16.1313 18C16.1264 18 16.1216 18 16.1167 18C16.1119 18 16.107 18 16.1022 18C16.0973 18 16.0925 18 16.0877 18C16.0828 18 16.078 18 16.0731 18C16.0683 18 16.0635 18 16.0587 18C16.0538 18 16.049 18 16.0442 18C16.0394 18 16.0345 18 16.0297 18C16.0249 18 16.0201 18 16.0153 18C16.0105 18 16.0057 18 16.0008 18C15.996 18 15.9912 18 15.9864 18C15.9816 18 15.9768 18 15.972 18C15.9672 18 15.9624 18 15.9576 18C15.9528 18 15.948 18 15.9433 18C15.9385 18 15.9337 18 15.9289 18C15.9241 18 15.9193 18 15.9145 18C15.9098 18 15.905 18 15.9002 18C15.8954 18 15.8907 18 15.8859 18C15.8811 18 15.8764 18 15.8716 18C15.8668 18 15.8621 18 15.8573 18C15.8525 18 15.8478 18 15.843 18C15.8383 18 15.8335 18 15.8288 18C15.824 18 15.8192 18 15.8145 18C15.8098 18 15.805 18 15.8003 18C15.7955 18 15.7908 18 15.786 18C15.7813 18 15.7766 18 15.7718 18C15.7671 18 15.7624 18 15.7576 18C15.7529 18 15.7482 18 15.7434 18C15.7387 18 15.734 18 15.7293 18C15.7245 18 15.7198 18 15.7151 18C15.7104 18 15.7057 18 15.701 18C15.6962 18 15.6915 18 15.6868 18C15.6821 18 15.6774 18 15.6727 18C15.668 18 15.6633 18 15.6586 18C15.6539 18 15.6492 18 15.6445 18C15.6398 18 15.6351 18 15.6304 18C15.6257 18 15.621 18 15.6164 18C15.6117 18 15.607 18 15.6023 18C15.5976 18 15.5929 18 15.5882 18C15.5836 18 15.5789 18 15.5742 18C15.5695 18 15.5649 18 15.5602 18C15.5555 18 15.5509 18 15.5462 18C15.5415 18 15.5369 18 15.5322 18C15.5275 18 15.5229 18 15.5182 18C15.5135 18 15.5089 18 15.5042 18C15.4996 18 15.4949 18 15.4903 18C15.4856 18 15.481 18 15.4763 18C15.4717 18 15.467 18 15.4624 18C15.4577 18 15.4531 18 15.4485 18C15.4438 18 15.4392 18 15.4345 18C15.4299 18 15.4253 18 15.4206 18C15.416 18 15.4114 18 15.4068 18C15.4021 18 15.3975 18 15.3929 18C15.3882 18 15.3836 18 15.379 18C15.3744 18 15.3698 18 15.3651 18C15.3605 18 15.3559 18 15.3513 18C15.3467 18 15.3421 18 15.3375 18C15.3329 18 15.3283 18 15.3236 18C15.319 18 15.3144 18 15.3098 18C15.3052 18 15.3006 18 15.296 18C15.2914 18 15.2868 18 15.2822 18C15.2776 18 15.2731 18 15.2685 18C15.2639 18 15.2593 18 15.2547 18C15.2501 18 15.2455 18 15.2409 18C15.2364 18 15.2318 18 15.2272 18C15.2226 18 15.218 18 15.2135 18C15.2089 18 15.2043 18 15.1997 18C15.1952 18 15.1906 18 15.186 18C15.1814 18 15.1769 18 15.1723 18C15.1677 18 15.1632 18 15.1586 18C15.154 18 15.1495 18 15.1449 18C15.1404 18 15.1358 18 15.1313 18C15.1267 18 15.1221 18 15.1176 18C15.113 18 15.1085 18 15.1039 18C15.0994 18 15.0948 18 15.0903 18C15.0857 18 15.0812 18 15.0767 18C15.0721 18 15.0676 18 15.063 18C15.0585 18 15.0539 18 15.0494 18C15.0449 18 15.0403 18 15.0358 18C15.0313 18 15.0267 18 15.0222 18C15.0177 18 15.0132 18 15.0086 18C15.0041 18 14.9996 18 14.995 18C14.9905 18 14.986 18 14.9815 18C14.977 18 14.9724 18 14.9679 18C14.9634 18 14.9589 18 14.9544 18C14.9499 18 14.9453 18 14.9408 18C14.9363 18 14.9318 18 14.9273 18C14.9228 18 14.9183 18 14.9138 18C14.9093 18 14.9048 18 14.9003 18C14.8958 18 14.8913 18 14.8868 18C14.8823 18 14.8778 18 14.8733 18C14.8688 18 14.8643 18 14.8598 18C14.8553 18 14.8508 18 14.8463 18C14.8418 18 14.8373 18 14.8328 18C14.8283 18 14.8239 18 14.8194 18C14.8149 18 14.8104 18 14.8059 18C14.8014 18 14.797 18 14.7925 18C14.788 18 14.7835 18 14.779 18C14.7746 18 14.7701 18 14.7656 18C14.7611 18 14.7567 18 14.7522 18C14.7477 18 14.7433 18 14.7388 18C14.7343 18 14.7298 18 14.7254 18C14.7209 18 14.7165 18 14.712 18C14.7075 18 14.7031 18 14.6986 18C14.6941 18 14.6897 18 14.6852 18C14.6808 18 14.6763 18 14.6719 18C14.6674 18 14.6629 18 14.6585 18C14.654 18 14.6496 18 14.6451 18C14.6407 18 14.6362 18 14.6318 18C14.6273 18 14.6229 18 14.6184 18C14.614 18 14.6096 18 14.6051 18C14.6007 18 14.5962 18 14.5918 18C14.5874 18 14.5829 18 14.5785 18C14.574 18 14.5696 18 14.5652 18C14.5607 18 14.5563 18 14.5519 18C14.5474 18 14.543 18 14.5386 18C14.5341 18 14.5297 18 14.5253 18C14.5208 18 14.5164 18 14.512 18C14.5076 18 14.5031 18 14.4987 18C14.4943 18 14.4899 18 14.4854 18C14.481 18 14.4766 18 14.4722 18C14.4678 18 14.4634 18 14.4589 18C14.4545 18 14.4501 18 14.4457 18C14.4413 18 14.4369 18 14.4324 18C14.428 18 14.4236 18 14.4192 18C14.4148 18 14.4104 18 14.406 18C14.4016 18 14.3972 18 14.3928 18C14.3884 18 14.3839 18 14.3795 18C14.3751 18 14.3707 18 14.3663 18C14.3619 18 14.3575 18 14.3531 18C14.3487 18 14.3443 18 14.3399 18C14.3355 18 14.3311 18 14.3267 18C14.3223 18 14.318 18 14.3136 18C14.3092 18 14.3048 18 14.3004 18C14.296 18 14.2916 18 14.2872 18C14.2828 18 14.2784 18 14.274 18C14.2697 18 14.2653 18 14.2609 18C14.2565 18 14.2521 18 14.2477 18C14.2433 18 14.239 18 14.2346 18C14.2302 18 14.2258 18 14.2214 18C14.217 18 14.2127 18 14.2083 18C14.2039 18 14.1995 18 14.1952 18C14.1908 18 14.1864 18 14.182 18C14.1776 18 14.1733 18 14.1689 18C14.1645 18 14.1602 18 14.1558 18C14.1514 18 14.147 18 14.1427 18C14.1383 18 14.1339 18 14.1296 18C14.1252 18 14.1208 18 14.1165 18C14.1121 18 14.1077 18 14.1034 18C14.099 18 14.0946 18 14.0903 18C14.0859 18 14.0815 18 14.0772 18C14.0728 18 14.0685 18 14.0641 18C14.0597 18 14.0554 18 14.051 18C14.0467 18 14.0423 18 14.0379 18C14.0336 18 14.0292 18 14.0249 18C14.0205 18 14.0162 18 14.0118 18C14.0074 18 14.0031 18 13.9987 18C13.9944 18 13.99 18 13.9857 18C13.9813 18 13.977 18 13.9726 18C13.9683 18 13.9639 18 13.9596 18C13.9552 18 13.9509 18 13.9465 18C13.9422 18 13.9378 18 13.9335 18C13.9292 18 13.9248 18 13.9205 18C13.9161 18 13.9118 18 13.9074 18C13.9031 18 13.8987 18 13.8944 18C13.8901 18 13.8857 18 13.8814 18C13.877 18 13.8727 18 13.8684 18C13.864 18 13.8597 18 13.8553 18C13.851 18 13.8467 18 13.8423 18C13.838 18 13.8336 18 13.8293 18C13.825 18 13.8206 18 13.8163 18C13.812 18 13.8076 18 13.8033 18C13.799 18 13.7946 18 13.7903 18C13.786 18 13.7816 18 13.7773 18C13.773 18 13.7686 18 13.7643 18C13.76 18 13.7556 18 13.7513 18C13.747 18 13.7427 18 13.7383 18C13.734 18 13.7297 18 13.7253 18C13.721 18 13.7167 18 13.7124 18C13.708 18 13.7037 18 13.6994 18C13.695 18 13.6907 18 13.6864 18C13.6821 18 13.6777 18 13.6734 18C13.6691 18 13.6648 18 13.6604 18C13.6561 18 13.6518 18 13.6475 18C13.6432 18 13.6388 18 13.6345 18C13.6302 18 13.6259 18 13.6215 18C13.6172 18 13.6129 18 13.6086 18C13.6043 18 13.5999 18 13.5956 18C13.5913 18 13.587 18 13.5827 18C13.5783 18 13.574 18 13.5697 18C13.5654 18 13.5611 18 13.5568 18C13.5524 18 13.5481 18 13.5438 18C13.5395 18 13.5352 18 13.5309 18C13.5265 18 13.5222 18 13.5179 18C13.5136 18 13.5093 18 13.505 18C13.5006 18 13.4963 18 13.492 18C13.4877 18 13.4834 18 13.4791 18C13.4748 18 13.4704 18 13.4661 18C13.4618 18 13.4575 18 13.4532 18C13.4489 18 13.4446 18 13.4403 18C13.4359 18 13.4316 18 13.4273 18C13.423 18 13.4187 18 13.4144 18C13.4101 18 13.4058 18 13.4014 18C13.3971 18 13.3928 18 13.3885 18C13.3842 18 13.3799 18 13.3756 18C13.3713 18 13.367 18 13.3626 18C13.3583 18 13.354 18 13.3497 18C13.3454 18 13.3411 18 13.3368 18C13.3325 18 13.3282 18 13.3239 18C13.3196 18 13.3152 18 13.3109 18C13.3066 18 13.3023 18 13.298 18C13.2937 18 13.2894 18 13.2851 18C13.2808 18 13.2765 18 13.2722 18C13.2678 18 13.2635 18 13.2592 18C13.2549 18 13.2506 18 13.2463 18C13.242 18 13.2377 18 13.2334 18C13.2291 18 13.2248 18 13.2205 18C13.2161 18 13.2118 18 13.2075 18C13.2032 18 13.1989 18 13.1946 18C13.1903 18 13.186 18 13.1817 18C13.1774 18 13.1731 18 13.1688 18C13.1644 18 13.1601 18 13.1558 18C13.1515 18 13.1472 18 13.1429 18C13.1386 18 13.1343 18 13.13 18C13.1257 18 13.1214 18 13.1171 18C13.1128 18 13.1084 18 13.1041 18C13.0998 18 13.0955 18 13.0912 18C13.0869 18 13.0826 18 13.0783 18C13.074 18 13.0697 18 13.0654 18C13.061 18 13.0567 18 13.0524 18C13.0481 18 13.0438 18 13.0395 18C13.0352 18 13.0309 18 13.0266 18C13.0223 18 13.018 18 13.0136 18C13.0093 18 13.005 18 13.0007 18C12.9964 18 12.9921 18 12.9878 18C12.9835 18 12.9792 18 12.9749 18C12.9705 18 12.9662 18 12.9619 18C12.9576 18 12.9533 18 12.949 18C12.9447 18 12.9404 18 12.936 18C12.9317 18 12.9274 18 12.9231 18C12.9188 18 12.9145 18 12.9102 18C12.9059 18 12.9015 18 12.8972 18C12.8929 18 12.8886 18 12.8843 18C12.88 18 12.8757 18 12.8713 18C12.867 18 12.8627 18 12.8584 18C12.8541 18 12.8498 18 12.8455 18C12.8411 18 12.8368 18 12.8325 18C12.8282 18 12.8239 18 12.8196 18C12.8152 18 12.8109 18 12.8066 18C12.8023 18 12.798 18 12.7937 18C12.7893 18 12.785 18 12.7807 18C12.7764 18 12.7721 18 12.7677 18C12.7634 18 12.7591 18 12.7548 18C12.7505 18 12.7461 18 12.7418 18C12.7375 18 12.7332 18 12.7289 18C12.7245 18 12.7202 18 12.7159 18C12.7116 18 12.7072 18 12.7029 18C12.6986 18 12.6943 18 12.6899 18C12.6856 18 12.6813 18 12.677 18C12.6726 18 12.6683 18 12.664 18C12.6597 18 12.6553 18 12.651 18C12.6467 18 12.6424 18 12.638 18C12.6337 18 12.6294 18 12.6251 18C12.6207 18 12.6164 18 12.6121 18C12.6077 18 12.6034 18 12.5991 18C12.5947 18 12.5904 18 12.5861 18C12.5817 18 12.5774 18 12.5731 18C12.5687 18 12.5644 18 12.5601 18C12.5557 18 12.5514 18 12.5471 18C12.5427 18 12.5384 18 12.5341 18C12.5297 18 12.5254 18 12.5211 18C12.5167 18 12.5124 18 12.508 18C12.5037 18 12.4994 18 12.495 18C12.4907 18 12.4863 18 12.482 18C12.4777 18 12.4733 18 12.469 18C12.4646 18 12.4603 18 12.456 18C12.4516 18 12.4473 18 12.4429 18C12.4386 18 12.4342 18 12.4299 18C12.4255 18 12.4212 18 12.4168 18C12.4125 18 12.4081 18 12.4038 18C12.3995 18 12.3951 18 12.3908 18C12.3864 18 12.382 18 12.3777 18C12.3733 18 12.369 18 12.3646 18C12.3603 18 12.3559 18 12.3516 18C12.3472 18 12.3429 18 12.3385 18C12.3342 18 12.3298 18 12.3254 18C12.3211 18 12.3167 18 12.3124 18C12.308 18 12.3037 18 12.2993 18C12.2949 18 12.2906 18 12.2862 18C12.2818 18 12.2775 18 12.2731 18C12.2688 18 12.2644 18 12.26 18C12.2557 18 12.2513 18 12.2469 18C12.2426 18 12.2382 18 12.2338 18C12.2295 18 12.2251 18 12.2207 18C12.2164 18 12.212 18 12.2076 18C12.2032 18 12.1989 18 12.1945 18C12.1901 18 12.1857 18 12.1814 18C12.177 18 12.1726 18 12.1682 18C12.1639 18 12.1595 18 12.1551 18C12.1507 18 12.1463 18 12.142 18C12.1376 18 12.1332 18 12.1288 18C12.1244 18 12.1201 18 12.1157 18C12.1113 18 12.1069 18 12.1025 18C12.0981 18 12.0937 18 12.0894 18C12.085 18 12.0806 18 12.0762 18C12.0718 18 12.0674 18 12.063 18C12.0586 18 12.0542 18 12.0498 18C12.0455 18 12.0411 18 12.0367 18C12.0323 18 12.0279 18 12.0235 18C12.0191 18 12.0147 18 12.0103 18C12.0059 18 12.0015 18 11.9971 18C11.9927 18 11.9883 18 11.9839 18C11.9795 18 11.9751 18 11.9706 18C11.9662 18 11.9618 18 11.9574 18C11.953 18 11.9486 18 11.9442 18C11.9398 18 11.9354 18 11.931 18C11.9266 18 11.9221 18 11.9177 18C11.9133 18 11.9089 18 11.9045 18C11.9001 18 11.8956 18 11.8912 18C11.8868 18 11.8824 18 11.878 18C11.8735 18 11.8691 18 11.8647 18C11.8603 18 11.8559 18 11.8514 18C11.847 18 11.8426 18 11.8381 18C11.8337 18 11.8293 18 11.8249 18C11.8204 18 11.816 18 11.8116 18C11.8071 18 11.8027 18 11.7983 18C11.7938 18 11.7894 18 11.785 18C11.7805 18 11.7761 18 11.7716 18C11.7672 18 11.7628 18 11.7583 18C11.7539 18 11.7494 18 11.745 18C11.7405 18 11.7361 18 11.7316 18C11.7272 18 11.7227 18 11.7183 18C11.7138 18 11.7094 18 11.7049 18C11.7005 18 11.696 18 11.6916 18C11.6871 18 11.6827 18 11.6782 18C11.6738 18 11.6693 18 11.6648 18C11.6604 18 11.6559 18 11.6514 18C11.647 18 11.6425 18 11.6381 18C11.6336 18 11.6291 18 11.6247 18C11.6202 18 11.6157 18 11.6112 18C11.6068 18 11.6023 18 11.5978 18C11.5934 18 11.5889 18 11.5844 18C11.5799 18 11.5754 18 11.571 18C11.5665 18 11.562 18 11.5575 18C11.553 18 11.5486 18 11.5441 18C11.5396 18 11.5351 18 11.5306 18C11.5261 18 11.5216 18 11.5171 18C11.5127 18 11.5082 18 11.5037 18C11.4992 18 11.4947 18 11.4902 18C11.4857 18 11.4812 18 11.4767 18C11.4722 18 11.4677 18 11.4632 18C11.4587 18 11.4542 18 11.4497 18C11.4452 18 11.4407 18 11.4362 18C11.4316 18 11.4271 18 11.4226 18C11.4181 18 11.4136 18 11.4091 18C11.4046 18 11.4001 18 11.3955 18C11.391 18 11.3865 18 11.382 18C11.3775 18 11.3729 18 11.3684 18C11.3639 18 11.3594 18 11.3548 18C11.3503 18 11.3458 18 11.3413 18C11.3367 18 11.3322 18 11.3277 18C11.3231 18 11.3186 18 11.3141 18C11.3095 18 11.305 18 11.3004 18C11.2959 18 11.2914 18 11.2868 18C11.2823 18 11.2777 18 11.2732 18C11.2686 18 11.2641 18 11.2595 18C11.255 18 11.2504 18 11.2459 18C11.2413 18 11.2368 18 11.2322 18C11.2277 18 11.2231 18 11.2186 18C11.214 18 11.2094 18 11.2049 18C11.2003 18 11.1957 18 11.1912 18C11.1866 18 11.182 18 11.1775 18C11.1729 18 11.1683 18 11.1638 18C11.1592 18 11.1546 18 11.15 18C11.1455 18 11.1409 18 11.1363 18C11.1317 18 11.1271 18 11.1226 18C11.118 18 11.1134 18 11.1088 18C11.1042 18 11.0996 18 11.095 18C11.0904 18 11.0858 18 11.0813 18C11.0767 18 11.0721 18 11.0675 18C11.0629 18 11.0583 18 11.0537 18C11.0491 18 11.0445 18 11.0399 18C11.0352 18 11.0306 18 11.026 18C11.0214 18 11.0168 18 11.0122 18C11.0076 18 11.003 18 10.9984 18C10.9937 18 10.9891 18 10.9845 18C10.9799 18 10.9753 18 10.9706 18C10.966 18 10.9614 18 10.9568 18C10.9521 18 10.9475 18 10.9429 18C10.9382 18 10.9336 18 10.929 18C10.9243 18 10.9197 18 10.9151 18C10.9104 18 10.9058 18 10.9011 18C10.8965 18 10.8918 18 10.8872 18C10.8826 18 10.8779 18 10.8733 18C10.8686 18 10.8639 18 10.8593 18C10.8546 18 10.85 18 10.8453 18C10.8407 18 10.836 18 10.8313 18C10.8267 18 10.822 18 10.8173 18C10.8127 18 10.808 18 10.8033 18C10.7987 18 10.794 18 10.7893 18C10.7846 18 10.78 18 10.7753 18C10.7706 18 10.7659 18 10.7612 18C10.7566 18 10.7519 18 10.7472 18C10.7425 18 10.7378 18 10.7331 18C10.7284 18 10.7237 18 10.719 18C10.7143 18 10.7096 18 10.7049 18C10.7002 18 10.6955 18 10.6908 18C10.6861 18 10.6814 18 10.6767 18C10.672 18 10.6673 18 10.6626 18C10.6579 18 10.6532 18 10.6484 18C10.6437 18 10.639 18 10.6343 18C10.6296 18 10.6248 18 10.6201 18C10.6154 18 10.6107 18 10.6059 18C10.6012 18 10.5965 18 10.5917 18C10.587 18 10.5823 18 10.5775 18C10.5728 18 10.568 18 10.5633 18C10.5586 18 10.5538 18 10.5491 18C10.5443 18 10.5396 18 10.5348 18C10.5301 18 10.5253 18 10.5206 18C10.5158 18 10.511 18 10.5063 18C10.5015 18 10.4968 18 10.492 18C10.4872 18 10.4825 18 10.4777 18C10.4729 18 10.4681 18 10.4634 18C10.4586 18 10.4538 18 10.449 18C10.4443 18 10.4395 18 10.4347 18C10.4299 18 10.4251 18 10.4203 18C10.4155 18 10.4108 18 10.406 18C10.4012 18 10.3964 18 10.3916 18C10.3868 18 10.382 18 10.3772 18C10.3724 18 10.3676 18 10.3628 18C10.3579 18 10.3531 18 10.3483 18C10.3435 18 10.3387 18 10.3339 18C10.3291 18 10.3242 18 10.3194 18C10.3146 18 10.3098 18 10.3049 18C10.3001 18 10.2953 18 10.2905 18C10.2856 18 10.2808 18 10.276 18C10.2711 18 10.2663 18 10.2614 18C10.2566 18 10.2518 18 10.2469 18C10.2421 18 10.2372 18 10.2324 18C10.2275 18 10.2227 18 10.2178 18C10.2129 18 10.2081 18 10.2032 18C10.1984 18 10.1935 18 10.1886 18C10.1838 18 10.1789 18 10.174 18C10.1692 18 10.1643 18 10.1594 18C10.1545 18 10.1496 18 10.1448 18C10.1399 18 10.135 18 10.1301 18C10.1252 18 10.1203 18 10.1154 18C10.1106 18 10.1057 18 10.1008 18C10.0959 18 10.091 18 10.0861 18C10.0812 18 10.0763 18 10.0714 18C10.0664 18 10.0615 18 10.0566 18C10.0517 18 10.0468 18 10.0419 18C10.037 18 10.032 18 10.0271 18C10.0222 18 10.0173 18 10.0123 18C10.0074 18 10.0025 18 9.99754 18C9.99261 18 9.98767 18 9.98274 18C9.9778 18 9.97285 18 9.96791 18C9.96297 18 9.95802 18 9.95307 18C9.94812 18 9.94317 18 9.93821 18C9.93326 18 9.9283 18 9.92334 18C9.91838 18 9.91341 18 9.90845 18C9.90348 18 9.89851 18 9.89354 18C9.88857 18 9.8836 18 9.87862 18C9.87364 18 9.86866 18 9.86368 18C9.8587 18 9.85371 18 9.84872 18C9.84374 18 9.83874 18 9.83375 18C9.82876 18 9.82376 18 9.81876 18C9.81376 18 9.80876 18 9.80375 18C9.79875 18 9.79374 18 9.78873 18C9.78372 18 9.77871 18 9.77369 18C9.76868 18 9.76366 18 9.75864 18C9.75361 18 9.74859 18 9.74356 18C9.73853 18 9.7335 18 9.72847 18C9.72344 18 9.7184 18 9.71336 18C9.70832 18 9.70328 18 9.69824 18C9.69319 18 9.68814 18 9.68309 18C9.67804 18 9.67299 18 9.66793 18C9.66288 18 9.65782 18 9.65275 18C9.64769 18 9.64263 18 9.63756 18C9.63249 18 9.62742 18 9.62235 18C9.61727 18 9.6122 18 9.60712 18C9.60204 18 9.59695 18 9.59187 18C9.58678 18 9.58169 18 9.5766 18C9.57151 18 9.56641 18 9.56132 18C9.55622 18 9.55112 18 9.54601 18C9.54091 18 9.5358 18 9.53069 18C9.52558 18 9.52047 18 9.51536 18C9.51024 18 9.50512 18 9.5 18V20C9.50512 20 9.51024 20 9.51536 20C9.52047 20 9.52558 20 9.53069 20C9.5358 20 9.54091 20 9.54601 20C9.55112 20 9.55622 20 9.56132 20C9.56641 20 9.57151 20 9.5766 20C9.58169 20 9.58678 20 9.59187 20C9.59695 20 9.60204 20 9.60712 20C9.6122 20 9.61727 20 9.62235 20C9.62742 20 9.63249 20 9.63756 20C9.64263 20 9.64769 20 9.65275 20C9.65782 20 9.66288 20 9.66793 20C9.67299 20 9.67804 20 9.68309 20C9.68814 20 9.69319 20 9.69824 20C9.70328 20 9.70832 20 9.71336 20C9.7184 20 9.72344 20 9.72847 20C9.7335 20 9.73853 20 9.74356 20C9.74859 20 9.75361 20 9.75864 20C9.76366 20 9.76868 20 9.77369 20C9.77871 20 9.78372 20 9.78873 20C9.79374 20 9.79875 20 9.80375 20C9.80876 20 9.81376 20 9.81876 20C9.82376 20 9.82876 20 9.83375 20C9.83874 20 9.84374 20 9.84872 20C9.85371 20 9.8587 20 9.86368 20C9.86866 20 9.87364 20 9.87862 20C9.8836 20 9.88857 20 9.89354 20C9.89851 20 9.90348 20 9.90845 20C9.91341 20 9.91838 20 9.92334 20C9.9283 20 9.93326 20 9.93821 20C9.94317 20 9.94812 20 9.95307 20C9.95802 20 9.96297 20 9.96791 20C9.97285 20 9.9778 20 9.98274 20C9.98767 20 9.99261 20 9.99754 20C10.0025 20 10.0074 20 10.0123 20C10.0173 20 10.0222 20 10.0271 20C10.032 20 10.037 20 10.0419 20C10.0468 20 10.0517 20 10.0566 20C10.0615 20 10.0664 20 10.0714 20C10.0763 20 10.0812 20 10.0861 20C10.091 20 10.0959 20 10.1008 20C10.1057 20 10.1106 20 10.1154 20C10.1203 20 10.1252 20 10.1301 20C10.135 20 10.1399 20 10.1448 20C10.1496 20 10.1545 20 10.1594 20C10.1643 20 10.1692 20 10.174 20C10.1789 20 10.1838 20 10.1886 20C10.1935 20 10.1984 20 10.2032 20C10.2081 20 10.2129 20 10.2178 20C10.2227 20 10.2275 20 10.2324 20C10.2372 20 10.2421 20 10.2469 20C10.2518 20 10.2566 20 10.2614 20C10.2663 20 10.2711 20 10.276 20C10.2808 20 10.2856 20 10.2905 20C10.2953 20 10.3001 20 10.3049 20C10.3098 20 10.3146 20 10.3194 20C10.3242 20 10.3291 20 10.3339 20C10.3387 20 10.3435 20 10.3483 20C10.3531 20 10.3579 20 10.3628 20C10.3676 20 10.3724 20 10.3772 20C10.382 20 10.3868 20 10.3916 20C10.3964 20 10.4012 20 10.406 20C10.4108 20 10.4155 20 10.4203 20C10.4251 20 10.4299 20 10.4347 20C10.4395 20 10.4443 20 10.449 20C10.4538 20 10.4586 20 10.4634 20C10.4681 20 10.4729 20 10.4777 20C10.4825 20 10.4872 20 10.492 20C10.4968 20 10.5015 20 10.5063 20C10.511 20 10.5158 20 10.5206 20C10.5253 20 10.5301 20 10.5348 20C10.5396 20 10.5443 20 10.5491 20C10.5538 20 10.5586 20 10.5633 20C10.568 20 10.5728 20 10.5775 20C10.5823 20 10.587 20 10.5917 20C10.5965 20 10.6012 20 10.6059 20C10.6107 20 10.6154 20 10.6201 20C10.6248 20 10.6296 20 10.6343 20C10.639 20 10.6437 20 10.6484 20C10.6532 20 10.6579 20 10.6626 20C10.6673 20 10.672 20 10.6767 20C10.6814 20 10.6861 20 10.6908 20C10.6955 20 10.7002 20 10.7049 20C10.7096 20 10.7143 20 10.719 20C10.7237 20 10.7284 20 10.7331 20C10.7378 20 10.7425 20 10.7472 20C10.7519 20 10.7566 20 10.7612 20C10.7659 20 10.7706 20 10.7753 20C10.78 20 10.7846 20 10.7893 20C10.794 20 10.7987 20 10.8033 20C10.808 20 10.8127 20 10.8173 20C10.822 20 10.8267 20 10.8313 20C10.836 20 10.8407 20 10.8453 20C10.85 20 10.8546 20 10.8593 20C10.8639 20 10.8686 20 10.8733 20C10.8779 20 10.8826 20 10.8872 20C10.8918 20 10.8965 20 10.9011 20C10.9058 20 10.9104 20 10.9151 20C10.9197 20 10.9243 20 10.929 20C10.9336 20 10.9382 20 10.9429 20C10.9475 20 10.9521 20 10.9568 20C10.9614 20 10.966 20 10.9706 20C10.9753 20 10.9799 20 10.9845 20C10.9891 20 10.9937 20 10.9984 20C11.003 20 11.0076 20 11.0122 20C11.0168 20 11.0214 20 11.026 20C11.0306 20 11.0352 20 11.0399 20C11.0445 20 11.0491 20 11.0537 20C11.0583 20 11.0629 20 11.0675 20C11.0721 20 11.0767 20 11.0813 20C11.0858 20 11.0904 20 11.095 20C11.0996 20 11.1042 20 11.1088 20C11.1134 20 11.118 20 11.1226 20C11.1271 20 11.1317 20 11.1363 20C11.1409 20 11.1455 20 11.15 20C11.1546 20 11.1592 20 11.1638 20C11.1683 20 11.1729 20 11.1775 20C11.182 20 11.1866 20 11.1912 20C11.1957 20 11.2003 20 11.2049 20C11.2094 20 11.214 20 11.2186 20C11.2231 20 11.2277 20 11.2322 20C11.2368 20 11.2413 20 11.2459 20C11.2504 20 11.255 20 11.2595 20C11.2641 20 11.2686 20 11.2732 20C11.2777 20 11.2823 20 11.2868 20C11.2914 20 11.2959 20 11.3004 20C11.305 20 11.3095 20 11.3141 20C11.3186 20 11.3231 20 11.3277 20C11.3322 20 11.3367 20 11.3413 20C11.3458 20 11.3503 20 11.3548 20C11.3594 20 11.3639 20 11.3684 20C11.3729 20 11.3775 20 11.382 20C11.3865 20 11.391 20 11.3955 20C11.4001 20 11.4046 20 11.4091 20C11.4136 20 11.4181 20 11.4226 20C11.4271 20 11.4316 20 11.4362 20C11.4407 20 11.4452 20 11.4497 20C11.4542 20 11.4587 20 11.4632 20C11.4677 20 11.4722 20 11.4767 20C11.4812 20 11.4857 20 11.4902 20C11.4947 20 11.4992 20 11.5037 20C11.5082 20 11.5127 20 11.5171 20C11.5216 20 11.5261 20 11.5306 20C11.5351 20 11.5396 20 11.5441 20C11.5486 20 11.553 20 11.5575 20C11.562 20 11.5665 20 11.571 20C11.5754 20 11.5799 20 11.5844 20C11.5889 20 11.5934 20 11.5978 20C11.6023 20 11.6068 20 11.6112 20C11.6157 20 11.6202 20 11.6247 20C11.6291 20 11.6336 20 11.6381 20C11.6425 20 11.647 20 11.6514 20C11.6559 20 11.6604 20 11.6648 20C11.6693 20 11.6738 20 11.6782 20C11.6827 20 11.6871 20 11.6916 20C11.696 20 11.7005 20 11.7049 20C11.7094 20 11.7138 20 11.7183 20C11.7227 20 11.7272 20 11.7316 20C11.7361 20 11.7405 20 11.745 20C11.7494 20 11.7539 20 11.7583 20C11.7628 20 11.7672 20 11.7716 20C11.7761 20 11.7805 20 11.785 20C11.7894 20 11.7938 20 11.7983 20C11.8027 20 11.8071 20 11.8116 20C11.816 20 11.8204 20 11.8249 20C11.8293 20 11.8337 20 11.8381 20C11.8426 20 11.847 20 11.8514 20C11.8559 20 11.8603 20 11.8647 20C11.8691 20 11.8735 20 11.878 20C11.8824 20 11.8868 20 11.8912 20C11.8956 20 11.9001 20 11.9045 20C11.9089 20 11.9133 20 11.9177 20C11.9221 20 11.9266 20 11.931 20C11.9354 20 11.9398 20 11.9442 20C11.9486 20 11.953 20 11.9574 20C11.9618 20 11.9662 20 11.9706 20C11.9751 20 11.9795 20 11.9839 20C11.9883 20 11.9927 20 11.9971 20C12.0015 20 12.0059 20 12.0103 20C12.0147 20 12.0191 20 12.0235 20C12.0279 20 12.0323 20 12.0367 20C12.0411 20 12.0455 20 12.0498 20C12.0542 20 12.0586 20 12.063 20C12.0674 20 12.0718 20 12.0762 20C12.0806 20 12.085 20 12.0894 20C12.0937 20 12.0981 20 12.1025 20C12.1069 20 12.1113 20 12.1157 20C12.1201 20 12.1244 20 12.1288 20C12.1332 20 12.1376 20 12.142 20C12.1463 20 12.1507 20 12.1551 20C12.1595 20 12.1639 20 12.1682 20C12.1726 20 12.177 20 12.1814 20C12.1857 20 12.1901 20 12.1945 20C12.1989 20 12.2032 20 12.2076 20C12.212 20 12.2164 20 12.2207 20C12.2251 20 12.2295 20 12.2338 20C12.2382 20 12.2426 20 12.2469 20C12.2513 20 12.2557 20 12.26 20C12.2644 20 12.2688 20 12.2731 20C12.2775 20 12.2818 20 12.2862 20C12.2906 20 12.2949 20 12.2993 20C12.3037 20 12.308 20 12.3124 20C12.3167 20 12.3211 20 12.3254 20C12.3298 20 12.3342 20 12.3385 20C12.3429 20 12.3472 20 12.3516 20C12.3559 20 12.3603 20 12.3646 20C12.369 20 12.3733 20 12.3777 20C12.382 20 12.3864 20 12.3908 20C12.3951 20 12.3995 20 12.4038 20C12.4081 20 12.4125 20 12.4168 20C12.4212 20 12.4255 20 12.4299 20C12.4342 20 12.4386 20 12.4429 20C12.4473 20 12.4516 20 12.456 20C12.4603 20 12.4646 20 12.469 20C12.4733 20 12.4777 20 12.482 20C12.4863 20 12.4907 20 12.495 20C12.4994 20 12.5037 20 12.508 20C12.5124 20 12.5167 20 12.5211 20C12.5254 20 12.5297 20 12.5341 20C12.5384 20 12.5427 20 12.5471 20C12.5514 20 12.5557 20 12.5601 20C12.5644 20 12.5687 20 12.5731 20C12.5774 20 12.5817 20 12.5861 20C12.5904 20 12.5947 20 12.5991 20C12.6034 20 12.6077 20 12.6121 20C12.6164 20 12.6207 20 12.6251 20C12.6294 20 12.6337 20 12.638 20C12.6424 20 12.6467 20 12.651 20C12.6553 20 12.6597 20 12.664 20C12.6683 20 12.6726 20 12.677 20C12.6813 20 12.6856 20 12.6899 20C12.6943 20 12.6986 20 12.7029 20C12.7072 20 12.7116 20 12.7159 20C12.7202 20 12.7245 20 12.7289 20C12.7332 20 12.7375 20 12.7418 20C12.7461 20 12.7505 20 12.7548 20C12.7591 20 12.7634 20 12.7677 20C12.7721 20 12.7764 20 12.7807 20C12.785 20 12.7893 20 12.7937 20C12.798 20 12.8023 20 12.8066 20C12.8109 20 12.8152 20 12.8196 20C12.8239 20 12.8282 20 12.8325 20C12.8368 20 12.8411 20 12.8455 20C12.8498 20 12.8541 20 12.8584 20C12.8627 20 12.867 20 12.8713 20C12.8757 20 12.88 20 12.8843 20C12.8886 20 12.8929 20 12.8972 20C12.9015 20 12.9059 20 12.9102 20C12.9145 20 12.9188 20 12.9231 20C12.9274 20 12.9317 20 12.936 20C12.9404 20 12.9447 20 12.949 20C12.9533 20 12.9576 20 12.9619 20C12.9662 20 12.9705 20 12.9749 20C12.9792 20 12.9835 20 12.9878 20C12.9921 20 12.9964 20 13.0007 20C13.005 20 13.0093 20 13.0136 20C13.018 20 13.0223 20 13.0266 20C13.0309 20 13.0352 20 13.0395 20C13.0438 20 13.0481 20 13.0524 20C13.0567 20 13.061 20 13.0654 20C13.0697 20 13.074 20 13.0783 20C13.0826 20 13.0869 20 13.0912 20C13.0955 20 13.0998 20 13.1041 20C13.1084 20 13.1128 20 13.1171 20C13.1214 20 13.1257 20 13.13 20C13.1343 20 13.1386 20 13.1429 20C13.1472 20 13.1515 20 13.1558 20C13.1601 20 13.1644 20 13.1688 20C13.1731 20 13.1774 20 13.1817 20C13.186 20 13.1903 20 13.1946 20C13.1989 20 13.2032 20 13.2075 20C13.2118 20 13.2161 20 13.2205 20C13.2248 20 13.2291 20 13.2334 20C13.2377 20 13.242 20 13.2463 20C13.2506 20 13.2549 20 13.2592 20C13.2635 20 13.2678 20 13.2722 20C13.2765 20 13.2808 20 13.2851 20C13.2894 20 13.2937 20 13.298 20C13.3023 20 13.3066 20 13.3109 20C13.3152 20 13.3196 20 13.3239 20C13.3282 20 13.3325 20 13.3368 20C13.3411 20 13.3454 20 13.3497 20C13.354 20 13.3583 20 13.3626 20C13.367 20 13.3713 20 13.3756 20C13.3799 20 13.3842 20 13.3885 20C13.3928 20 13.3971 20 13.4014 20C13.4058 20 13.4101 20 13.4144 20C13.4187 20 13.423 20 13.4273 20C13.4316 20 13.4359 20 13.4403 20C13.4446 20 13.4489 20 13.4532 20C13.4575 20 13.4618 20 13.4661 20C13.4704 20 13.4748 20 13.4791 20C13.4834 20 13.4877 20 13.492 20C13.4963 20 13.5006 20 13.505 20C13.5093 20 13.5136 20 13.5179 20C13.5222 20 13.5265 20 13.5309 20C13.5352 20 13.5395 20 13.5438 20C13.5481 20 13.5524 20 13.5568 20C13.5611 20 13.5654 20 13.5697 20C13.574 20 13.5783 20 13.5827 20C13.587 20 13.5913 20 13.5956 20C13.5999 20 13.6043 20 13.6086 20C13.6129 20 13.6172 20 13.6215 20C13.6259 20 13.6302 20 13.6345 20C13.6388 20 13.6432 20 13.6475 20C13.6518 20 13.6561 20 13.6604 20C13.6648 20 13.6691 20 13.6734 20C13.6777 20 13.6821 20 13.6864 20C13.6907 20 13.695 20 13.6994 20C13.7037 20 13.708 20 13.7124 20C13.7167 20 13.721 20 13.7253 20C13.7297 20 13.734 20 13.7383 20C13.7427 20 13.747 20 13.7513 20C13.7556 20 13.76 20 13.7643 20C13.7686 20 13.773 20 13.7773 20C13.7816 20 13.786 20 13.7903 20C13.7946 20 13.799 20 13.8033 20C13.8076 20 13.812 20 13.8163 20C13.8206 20 13.825 20 13.8293 20C13.8336 20 13.838 20 13.8423 20C13.8467 20 13.851 20 13.8553 20C13.8597 20 13.864 20 13.8684 20C13.8727 20 13.877 20 13.8814 20C13.8857 20 13.8901 20 13.8944 20C13.8987 20 13.9031 20 13.9074 20C13.9118 20 13.9161 20 13.9205 20C13.9248 20 13.9292 20 13.9335 20C13.9378 20 13.9422 20 13.9465 20C13.9509 20 13.9552 20 13.9596 20C13.9639 20 13.9683 20 13.9726 20C13.977 20 13.9813 20 13.9857 20C13.99 20 13.9944 20 13.9987 20C14.0031 20 14.0074 20 14.0118 20C14.0162 20 14.0205 20 14.0249 20C14.0292 20 14.0336 20 14.0379 20C14.0423 20 14.0467 20 14.051 20C14.0554 20 14.0597 20 14.0641 20C14.0685 20 14.0728 20 14.0772 20C14.0815 20 14.0859 20 14.0903 20C14.0946 20 14.099 20 14.1034 20C14.1077 20 14.1121 20 14.1165 20C14.1208 20 14.1252 20 14.1296 20C14.1339 20 14.1383 20 14.1427 20C14.147 20 14.1514 20 14.1558 20C14.1602 20 14.1645 20 14.1689 20C14.1733 20 14.1776 20 14.182 20C14.1864 20 14.1908 20 14.1952 20C14.1995 20 14.2039 20 14.2083 20C14.2127 20 14.217 20 14.2214 20C14.2258 20 14.2302 20 14.2346 20C14.239 20 14.2433 20 14.2477 20C14.2521 20 14.2565 20 14.2609 20C14.2653 20 14.2697 20 14.274 20C14.2784 20 14.2828 20 14.2872 20C14.2916 20 14.296 20 14.3004 20C14.3048 20 14.3092 20 14.3136 20C14.318 20 14.3223 20 14.3267 20C14.3311 20 14.3355 20 14.3399 20C14.3443 20 14.3487 20 14.3531 20C14.3575 20 14.3619 20 14.3663 20C14.3707 20 14.3751 20 14.3795 20C14.3839 20 14.3884 20 14.3928 20C14.3972 20 14.4016 20 14.406 20C14.4104 20 14.4148 20 14.4192 20C14.4236 20 14.428 20 14.4324 20C14.4369 20 14.4413 20 14.4457 20C14.4501 20 14.4545 20 14.4589 20C14.4634 20 14.4678 20 14.4722 20C14.4766 20 14.481 20 14.4854 20C14.4899 20 14.4943 20 14.4987 20C14.5031 20 14.5076 20 14.512 20C14.5164 20 14.5208 20 14.5253 20C14.5297 20 14.5341 20 14.5386 20C14.543 20 14.5474 20 14.5519 20C14.5563 20 14.5607 20 14.5652 20C14.5696 20 14.574 20 14.5785 20C14.5829 20 14.5874 20 14.5918 20C14.5962 20 14.6007 20 14.6051 20C14.6096 20 14.614 20 14.6184 20C14.6229 20 14.6273 20 14.6318 20C14.6362 20 14.6407 20 14.6451 20C14.6496 20 14.654 20 14.6585 20C14.6629 20 14.6674 20 14.6719 20C14.6763 20 14.6808 20 14.6852 20C14.6897 20 14.6941 20 14.6986 20C14.7031 20 14.7075 20 14.712 20C14.7165 20 14.7209 20 14.7254 20C14.7298 20 14.7343 20 14.7388 20C14.7433 20 14.7477 20 14.7522 20C14.7567 20 14.7611 20 14.7656 20C14.7701 20 14.7746 20 14.779 20C14.7835 20 14.788 20 14.7925 20C14.797 20 14.8014 20 14.8059 20C14.8104 20 14.8149 20 14.8194 20C14.8239 20 14.8283 20 14.8328 20C14.8373 20 14.8418 20 14.8463 20C14.8508 20 14.8553 20 14.8598 20C14.8643 20 14.8688 20 14.8733 20C14.8778 20 14.8823 20 14.8868 20C14.8913 20 14.8958 20 14.9003 20C14.9048 20 14.9093 20 14.9138 20C14.9183 20 14.9228 20 14.9273 20C14.9318 20 14.9363 20 14.9408 20C14.9453 20 14.9499 20 14.9544 20C14.9589 20 14.9634 20 14.9679 20C14.9724 20 14.977 20 14.9815 20C14.986 20 14.9905 20 14.995 20C14.9996 20 15.0041 20 15.0086 20C15.0132 20 15.0177 20 15.0222 20C15.0267 20 15.0313 20 15.0358 20C15.0403 20 15.0449 20 15.0494 20C15.0539 20 15.0585 20 15.063 20C15.0676 20 15.0721 20 15.0767 20C15.0812 20 15.0857 20 15.0903 20C15.0948 20 15.0994 20 15.1039 20C15.1085 20 15.113 20 15.1176 20C15.1221 20 15.1267 20 15.1313 20C15.1358 20 15.1404 20 15.1449 20C15.1495 20 15.154 20 15.1586 20C15.1632 20 15.1677 20 15.1723 20C15.1769 20 15.1814 20 15.186 20C15.1906 20 15.1952 20 15.1997 20C15.2043 20 15.2089 20 15.2135 20C15.218 20 15.2226 20 15.2272 20C15.2318 20 15.2364 20 15.2409 20C15.2455 20 15.2501 20 15.2547 20C15.2593 20 15.2639 20 15.2685 20C15.2731 20 15.2776 20 15.2822 20C15.2868 20 15.2914 20 15.296 20C15.3006 20 15.3052 20 15.3098 20C15.3144 20 15.319 20 15.3236 20C15.3283 20 15.3329 20 15.3375 20C15.3421 20 15.3467 20 15.3513 20C15.3559 20 15.3605 20 15.3651 20C15.3698 20 15.3744 20 15.379 20C15.3836 20 15.3882 20 15.3929 20C15.3975 20 15.4021 20 15.4068 20C15.4114 20 15.416 20 15.4206 20C15.4253 20 15.4299 20 15.4345 20C15.4392 20 15.4438 20 15.4485 20C15.4531 20 15.4577 20 15.4624 20C15.467 20 15.4717 20 15.4763 20C15.481 20 15.4856 20 15.4903 20C15.4949 20 15.4996 20 15.5042 20C15.5089 20 15.5135 20 15.5182 20C15.5229 20 15.5275 20 15.5322 20C15.5369 20 15.5415 20 15.5462 20C15.5509 20 15.5555 20 15.5602 20C15.5649 20 15.5695 20 15.5742 20C15.5789 20 15.5836 20 15.5882 20C15.5929 20 15.5976 20 15.6023 20C15.607 20 15.6117 20 15.6164 20C15.621 20 15.6257 20 15.6304 20C15.6351 20 15.6398 20 15.6445 20C15.6492 20 15.6539 20 15.6586 20C15.6633 20 15.668 20 15.6727 20C15.6774 20 15.6821 20 15.6868 20C15.6915 20 15.6962 20 15.701 20C15.7057 20 15.7104 20 15.7151 20C15.7198 20 15.7245 20 15.7293 20C15.734 20 15.7387 20 15.7434 20C15.7482 20 15.7529 20 15.7576 20C15.7624 20 15.7671 20 15.7718 20C15.7766 20 15.7813 20 15.786 20C15.7908 20 15.7955 20 15.8003 20C15.805 20 15.8098 20 15.8145 20C15.8192 20 15.824 20 15.8288 20C15.8335 20 15.8383 20 15.843 20C15.8478 20 15.8525 20 15.8573 20C15.8621 20 15.8668 20 15.8716 20C15.8764 20 15.8811 20 15.8859 20C15.8907 20 15.8954 20 15.9002 20C15.905 20 15.9098 20 15.9145 20C15.9193 20 15.9241 20 15.9289 20C15.9337 20 15.9385 20 15.9433 20C15.948 20 15.9528 20 15.9576 20C15.9624 20 15.9672 20 15.972 20C15.9768 20 15.9816 20 15.9864 20C15.9912 20 15.996 20 16.0008 20C16.0057 20 16.0105 20 16.0153 20C16.0201 20 16.0249 20 16.0297 20C16.0345 20 16.0394 20 16.0442 20C16.049 20 16.0538 20 16.0587 20C16.0635 20 16.0683 20 16.0731 20C16.078 20 16.0828 20 16.0877 20C16.0925 20 16.0973 20 16.1022 20C16.107 20 16.1119 20 16.1167 20C16.1216 20 16.1264 20 16.1313 20C16.1361 20 16.141 20 16.1458 20C16.1507 20 16.1555 20 16.1604 20C16.1653 20 16.1701 20 16.175 20C16.1799 20 16.1847 20 16.1896 20C16.1945 20 16.1993 20 16.2042 20C16.2091 20 16.214 20 16.2189 20C16.2237 20 16.2286 20 16.2335 20C16.2384 20 16.2433 20 16.2482 20C16.2531 20 16.258 20 16.2629 20C16.2678 20 16.2727 20 16.2776 20C16.2825 20 16.2874 20 16.2923 20C16.2972 20 16.3021 20 16.307 20C16.3119 20 16.3169 20 16.3218 20C16.3267 20 16.3316 20 16.3365 20C16.3415 20 16.3464 20 16.3513 20C16.3562 20 16.3612 20 16.3661 20C16.371 20 16.376 20 16.3809 20C16.3859 20 16.3908 20 16.3958 20C16.4007 20 16.4056 20 16.4106 20C16.4155 20 16.4205 20 16.4255 20C16.4304 20 16.4354 20 16.4403 20C16.4453 20 16.4503 20 16.4552 20C16.4602 20 16.4652 20 16.4701 20C16.4751 20 16.4801 20 16.4851 20C16.49 20 16.495 20 16.5 20V18Z" fill="currentColor"/>
</svg>
