<svg width="100%" height="100%" viewBox="0 0 24 24" fill="none" xmlns="http://www.w3.org/2000/svg">
<path d="M9 16C9 15.4477 8.55228 15 8 15C7.44772 15 7 15.4477 7 16H9ZM16 7C15.4477 7 15 7.44772 15 8C15 8.55228 15.4477 9 16 9V7ZM20.908 8.21799L20.454 9.10899V9.10899L20.908 8.21799ZM21.782 9.09202L20.891 9.54601L21.782 9.09202ZM20.908 21.782L20.454 20.891H20.454L20.908 21.782ZM21.782 20.908L20.891 20.454V20.454L21.782 20.908ZM9.09202 21.782L9.54601 20.891L9.09202 21.782ZM8.21799 20.908L9.10899 20.454H9.10899L8.21799 20.908ZM3.09202 15.782L3.54601 14.891L3.09202 15.782ZM2.21799 14.908L3.10899 14.454L2.21799 14.908ZM15.782 14.908L14.891 14.454L15.782 14.908ZM14.908 15.782L14.454 14.891L14.908 15.782ZM14.908 2.21799L14.454 3.10899L14.908 2.21799ZM15.782 3.09202L14.891 3.54601L15.782 3.09202ZM3.09202 2.21799L3.54601 3.10899L3.09202 2.21799ZM2.21799 3.09202L3.10899 3.54601L2.21799 3.09202ZM11.2 23H18.8V21H11.2V23ZM7 16V18.8H9V16H7ZM18.8 7H16V9H18.8V7ZM23 18.8V11.2H21V18.8H23ZM18.8 9C19.3766 9 19.7488 9.00078 20.0322 9.02393C20.3038 9.04612 20.4045 9.0838 20.454 9.10899L21.362 7.32698C20.9836 7.13419 20.5904 7.06287 20.195 7.03057C19.8114 6.99922 19.3436 7 18.8 7V9ZM23 11.2C23 10.6564 23.0008 10.1886 22.9694 9.80497C22.9371 9.40963 22.8658 9.01641 22.673 8.63803L20.891 9.54601C20.9162 9.59545 20.9539 9.69617 20.9761 9.96784C20.9992 10.2512 21 10.6234 21 11.2H23ZM20.454 9.10899C20.6422 9.20487 20.7951 9.35785 20.891 9.54601L22.673 8.63803C22.3854 8.07354 21.9265 7.6146 21.362 7.32698L20.454 9.10899ZM18.8 23C19.3436 23 19.8114 23.0008 20.195 22.9694C20.5904 22.9371 20.9836 22.8658 21.362 22.673L20.454 20.891C20.4045 20.9162 20.3038 20.9539 20.0322 20.9761C19.7488 20.9992 19.3766 21 18.8 21V23ZM21 18.8C21 19.3766 20.9992 19.7488 20.9761 20.0322C20.9539 20.3038 20.9162 20.4045 20.891 20.454L22.673 21.362C22.8658 20.9836 22.9371 20.5904 22.9694 20.195C23.0008 19.8114 23 19.3436 23 18.8H21ZM21.362 22.673C21.9265 22.3854 22.3854 21.9265 22.673 21.362L20.891 20.454C20.7951 20.6422 20.6422 20.7951 20.454 20.891L21.362 22.673ZM11.2 21C10.6234 21 10.2512 20.9992 9.96784 20.9761C9.69617 20.9539 9.59545 20.9162 9.54601 20.891L8.63803 22.673C9.01641 22.8658 9.40963 22.9371 9.80497 22.9694C10.1886 23.0008 10.6564 23 11.2 23V21ZM7 18.8C7 19.3436 6.99922 19.8114 7.03057 20.195C7.06287 20.5904 7.13419 20.9836 7.32698 21.362L9.10899 20.454C9.0838 20.4045 9.04612 20.3038 9.02393 20.0322C9.00078 19.7488 9 19.3766 9 18.8H7ZM9.54601 20.891C9.35785 20.7951 9.20487 20.6422 9.10899 20.454L7.32698 21.362C7.6146 21.9265 8.07354 22.3854 8.63803 22.673L9.54601 20.891ZM5.2 3H12.8V1H5.2V3ZM15 5.2V12.8H17V5.2H15ZM12.8 15H5.2V17H12.8V15ZM3 12.8V5.2H1V12.8H3ZM5.2 15C4.62345 15 4.25117 14.9992 3.96784 14.9761C3.69617 14.9539 3.59545 14.9162 3.54601 14.891L2.63803 16.673C3.01641 16.8658 3.40963 16.9371 3.80497 16.9694C4.18864 17.0008 4.65645 17 5.2 17V15ZM1 12.8C1 13.3436 0.999222 13.8114 1.03057 14.195C1.06287 14.5904 1.13419 14.9836 1.32698 15.362L3.10899 14.454C3.0838 14.4045 3.04612 14.3038 3.02393 14.0322C3.00078 13.7488 3 13.3766 3 12.8H1ZM3.54601 14.891C3.35785 14.7951 3.20487 14.6422 3.10899 14.454L1.32698 15.362C1.6146 15.9265 2.07354 16.3854 2.63803 16.673L3.54601 14.891ZM15 12.8C15 13.3766 14.9992 13.7488 14.9761 14.0322C14.9539 14.3038 14.9162 14.4045 14.891 14.454L16.673 15.362C16.8658 14.9836 16.9371 14.5904 16.9694 14.195C17.0008 13.8114 17 13.3436 17 12.8H15ZM12.8 17C13.3436 17 13.8114 17.0008 14.195 16.9694C14.5904 16.9371 14.9836 16.8658 15.362 16.673L14.454 14.891C14.4045 14.9162 14.3038 14.9539 14.0322 14.9761C13.7488 14.9992 13.3766 15 12.8 15V17ZM14.891 14.454C14.7951 14.6422 14.6422 14.7951 14.454 14.891L15.362 16.673C15.9265 16.3854 16.3854 15.9265 16.673 15.362L14.891 14.454ZM12.8 3C13.3766 3 13.7488 3.00078 14.0322 3.02393C14.3038 3.04612 14.4045 3.0838 14.454 3.10899L15.362 1.32698C14.9836 1.13419 14.5904 1.06287 14.195 1.03057C13.8114 0.999222 13.3436 1 12.8 1V3ZM17 5.2C17 4.65645 17.0008 4.18864 16.9694 3.80497C16.9371 3.40963 16.8658 3.01641 16.673 2.63803L14.891 3.54601C14.9162 3.59545 14.9539 3.69617 14.9761 3.96784C14.9992 4.25117 15 4.62345 15 5.2H17ZM14.454 3.10899C14.6422 3.20487 14.7951 3.35785 14.891 3.54601L16.673 2.63803C16.3854 2.07354 15.9265 1.6146 15.362 1.32698L14.454 3.10899ZM5.2 1C4.65645 1 4.18864 0.999222 3.80497 1.03057C3.40963 1.06287 3.01641 1.13419 2.63803 1.32698L3.54601 3.10899C3.59545 3.0838 3.69617 3.04612 3.96784 3.02393C4.25117 3.00078 4.62345 3 5.2 3V1ZM3 5.2C3 4.62345 3.00078 4.25117 3.02393 3.96784C3.04612 3.69617 3.0838 3.59545 3.10899 3.54601L1.32698 2.63803C1.13419 3.01641 1.06287 3.40963 1.03057 3.80497C0.999222 4.18864 1 4.65645 1 5.2H3ZM2.63803 1.32698C2.07354 1.6146 1.6146 2.07354 1.32698 2.63803L3.10899 3.54601C3.20487 3.35785 3.35785 3.20487 3.54601 3.10899L2.63803 1.32698Z" fill="currentColor"/>
</svg>
