<svg width="100%" height="100%" viewBox="0 0 24 24" fill="none" xmlns="http://www.w3.org/2000/svg">
<path d="M4.09202 20.782L4.54601 19.891L4.09202 20.782ZM3.21799 19.908L4.10899 19.454L3.21799 19.908ZM17.282 19.908L16.391 19.454L17.282 19.908ZM16.408 20.782L15.954 19.891L16.408 20.782ZM16.408 6.71799L15.954 7.60899L16.408 6.71799ZM17.282 7.59202L16.391 8.04601L17.282 7.59202ZM4.09202 6.71799L4.54601 7.60899L4.09202 6.71799ZM3.21799 7.59202L4.10899 8.04601L3.21799 7.59202ZM7.5 2C6.94772 2 6.5 2.44772 6.5 3C6.5 3.55228 6.94772 4 7.5 4V2ZM20 16.5C20 17.0523 20.4477 17.5 21 17.5C21.5523 17.5 22 17.0523 22 16.5H20ZM18.816 3.43597L19.27 2.54497L18.816 3.43597ZM20.564 5.18404L19.673 5.63803V5.63803L20.564 5.18404ZM6.2 7.5H14.3V5.5H6.2V7.5ZM16.5 9.7V17.8H18.5V9.7H16.5ZM14.3 20H6.2V22H14.3V20ZM4 17.8V9.7H2V17.8H4ZM6.2 20C5.62345 20 5.25117 19.9992 4.96784 19.9761C4.69617 19.9539 4.59545 19.9162 4.54601 19.891L3.63803 21.673C4.01641 21.8658 4.40963 21.9371 4.80497 21.9694C5.18864 22.0008 5.65645 22 6.2 22V20ZM2 17.8C2 18.3436 1.99922 18.8114 2.03057 19.195C2.06287 19.5904 2.13419 19.9836 2.32698 20.362L4.10899 19.454C4.0838 19.4045 4.04612 19.3038 4.02393 19.0322C4.00078 18.7488 4 18.3766 4 17.8H2ZM4.54601 19.891C4.35785 19.7951 4.20487 19.6422 4.10899 19.454L2.32698 20.362C2.6146 20.9265 3.07354 21.3854 3.63803 21.673L4.54601 19.891ZM16.5 17.8C16.5 18.3766 16.4992 18.7488 16.4761 19.0322C16.4539 19.3038 16.4162 19.4045 16.391 19.454L18.173 20.362C18.3658 19.9836 18.4371 19.5904 18.4694 19.195C18.5008 18.8114 18.5 18.3436 18.5 17.8H16.5ZM14.3 22C14.8436 22 15.3114 22.0008 15.695 21.9694C16.0904 21.9371 16.4836 21.8658 16.862 21.673L15.954 19.891C15.9045 19.9162 15.8038 19.9539 15.5322 19.9761C15.2488 19.9992 14.8766 20 14.3 20V22ZM16.391 19.454C16.2951 19.6422 16.1422 19.7951 15.954 19.891L16.862 21.673C17.4265 21.3854 17.8854 20.9265 18.173 20.362L16.391 19.454ZM14.3 7.5C14.8766 7.5 15.2488 7.50078 15.5322 7.52393C15.8038 7.54612 15.9045 7.5838 15.954 7.60899L16.862 5.82698C16.4836 5.63419 16.0904 5.56287 15.695 5.53057C15.3114 5.49922 14.8436 5.5 14.3 5.5V7.5ZM18.5 9.7C18.5 9.15645 18.5008 8.68864 18.4694 8.30497C18.4371 7.90963 18.3658 7.51641 18.173 7.13803L16.391 8.04601C16.4162 8.09545 16.4539 8.19617 16.4761 8.46784C16.4992 8.75117 16.5 9.12345 16.5 9.7H18.5ZM15.954 7.60899C16.1422 7.70487 16.2951 7.85785 16.391 8.04601L18.173 7.13803C17.8854 6.57354 17.4265 6.1146 16.862 5.82698L15.954 7.60899ZM6.2 5.5C5.65645 5.5 5.18864 5.49922 4.80497 5.53057C4.40963 5.56287 4.01641 5.63419 3.63803 5.82698L4.54601 7.60899C4.59545 7.5838 4.69617 7.54612 4.96784 7.52393C5.25117 7.50078 5.62345 7.5 6.2 7.5V5.5ZM4 9.7C4 9.12345 4.00078 8.75117 4.02393 8.46784C4.04612 8.19617 4.0838 8.09545 4.10899 8.04601L2.32698 7.13803C2.13419 7.51641 2.06287 7.90963 2.03057 8.30497C1.99922 8.68864 2 9.15645 2 9.7H4ZM3.63803 5.82698C3.07354 6.1146 2.6146 6.57354 2.32698 7.13803L4.10899 8.04601C4.20487 7.85785 4.35785 7.70487 4.54601 7.60899L3.63803 5.82698ZM7.5 4H14.6V2H7.5V4ZM20 9.4V16.5H22V9.4H20ZM14.6 4C15.7366 4 16.5289 4.00078 17.1458 4.05118C17.7509 4.10062 18.0986 4.19279 18.362 4.32698L19.27 2.54497C18.6777 2.24318 18.0375 2.11737 17.3086 2.05782C16.5914 1.99922 15.7036 2 14.6 2V4ZM22 9.4C22 8.2964 22.0008 7.40855 21.9422 6.69138C21.8826 5.96253 21.7568 5.32234 21.455 4.73005L19.673 5.63803C19.8072 5.90138 19.8994 6.24907 19.9488 6.85424C19.9992 7.47108 20 8.26339 20 9.4H22ZM18.362 4.32698C18.9265 4.6146 19.3854 5.07354 19.673 5.63803L21.455 4.73005C20.9757 3.78924 20.2108 3.02433 19.27 2.54497L18.362 4.32698Z" fill="currentColor"/>
</svg>
