<svg width="100%" height="100%" viewBox="0 0 24 24" fill="none" xmlns="http://www.w3.org/2000/svg">
<path d="M3.09202 21.782L3.54601 20.891L3.09202 21.782ZM2.21799 20.908L3.10899 20.454L2.21799 20.908ZM15.782 20.908L14.891 20.454L15.782 20.908ZM14.908 21.782L14.454 20.891L14.908 21.782ZM14.908 8.21799L14.454 9.10899L14.908 8.21799ZM15.782 9.09202L14.891 9.54601L15.782 9.09202ZM3.09202 8.21799L3.54601 9.10899L3.09202 8.21799ZM2.21799 9.09202L3.10899 9.54601L2.21799 9.09202ZM20.908 15.782L20.454 14.891H20.454L20.908 15.782ZM21.782 14.908L20.891 14.454V14.454L21.782 14.908ZM20.908 2.21799L20.454 3.10899V3.10899L20.908 2.21799ZM21.782 3.09202L20.891 3.54601V3.54601L21.782 3.09202ZM9.09202 2.21799L8.63803 1.32698L9.09202 2.21799ZM8.21799 3.09202L7.32698 2.63803V2.63803L8.21799 3.09202ZM10.5136 3.0027C11.0658 2.99522 11.5074 2.54148 11.4999 1.98925C11.4924 1.43701 11.0387 0.995404 10.4864 1.00289L10.5136 3.0027ZM7.00289 4.48645C6.9954 5.03868 7.43701 5.49242 7.98925 5.49991C8.54148 5.50739 8.99522 5.06578 9.0027 4.51355L7.00289 4.48645ZM19.5135 1.00289C18.9613 0.995404 18.5076 1.43701 18.5001 1.98925C18.4926 2.54148 18.9342 2.99522 19.4865 3.0027L19.5135 1.00289ZM20.9973 4.51354C21.0048 5.06577 21.4585 5.50738 22.0108 5.4999C22.563 5.49241 23.0046 5.03867 22.9971 4.48644L20.9973 4.51354ZM22.9971 13.5135C23.0046 12.9613 22.563 12.5076 22.0108 12.5001C21.4585 12.4926 21.0048 12.9342 20.9973 13.4864L22.9971 13.5135ZM19.4865 14.9973C18.9342 15.0048 18.4926 15.4585 18.5001 16.0108C18.5076 16.563 18.9613 17.0046 19.5135 16.9971L19.4865 14.9973ZM23 7.99999C23 7.44771 22.5523 6.99999 22 6.99999C21.4477 6.99999 21 7.44771 21 7.99999H23ZM21 9.99999C21 10.5523 21.4477 11 22 11C22.5523 11 23 10.5523 23 9.99999H21ZM14.0001 1C13.4478 1 13.0001 1.44772 13.0001 2C13.0001 2.55228 13.4478 3 14.0001 3V1ZM16 3C16.5522 3 17 2.55228 17 2C17 1.44772 16.5522 1 16 1V3ZM5.2 9H12.8V7H5.2V9ZM15 11.2V18.8H17V11.2H15ZM12.8 21H5.2V23H12.8V21ZM3 18.8V11.2H1V18.8H3ZM5.2 21C4.62345 21 4.25117 20.9992 3.96784 20.9761C3.69617 20.9539 3.59545 20.9162 3.54601 20.891L2.63803 22.673C3.01641 22.8658 3.40963 22.9371 3.80497 22.9694C4.18864 23.0008 4.65645 23 5.2 23V21ZM1 18.8C1 19.3436 0.999222 19.8114 1.03057 20.195C1.06287 20.5904 1.13419 20.9836 1.32698 21.362L3.10899 20.454C3.0838 20.4045 3.04612 20.3038 3.02393 20.0322C3.00078 19.7488 3 19.3766 3 18.8H1ZM3.54601 20.891C3.35785 20.7951 3.20487 20.6422 3.10899 20.454L1.32698 21.362C1.6146 21.9265 2.07354 22.3854 2.63803 22.673L3.54601 20.891ZM15 18.8C15 19.3766 14.9992 19.7488 14.9761 20.0322C14.9539 20.3038 14.9162 20.4045 14.891 20.454L16.673 21.362C16.8658 20.9836 16.9371 20.5904 16.9694 20.195C17.0008 19.8114 17 19.3436 17 18.8H15ZM12.8 23C13.3436 23 13.8114 23.0008 14.195 22.9694C14.5904 22.9371 14.9836 22.8658 15.362 22.673L14.454 20.891C14.4045 20.9162 14.3038 20.9539 14.0322 20.9761C13.7488 20.9992 13.3766 21 12.8 21V23ZM14.891 20.454C14.7951 20.6422 14.6422 20.7951 14.454 20.891L15.362 22.673C15.9265 22.3854 16.3854 21.9265 16.673 21.362L14.891 20.454ZM12.8 9C13.3766 9 13.7488 9.00078 14.0322 9.02393C14.3038 9.04612 14.4045 9.0838 14.454 9.10899L15.362 7.32698C14.9836 7.13419 14.5904 7.06287 14.195 7.03057C13.8114 6.99922 13.3436 7 12.8 7V9ZM17 11.2C17 10.6564 17.0008 10.1886 16.9694 9.80497C16.9371 9.40963 16.8658 9.01641 16.673 8.63803L14.891 9.54601C14.9162 9.59545 14.9539 9.69617 14.9761 9.96784C14.9992 10.2512 15 10.6234 15 11.2H17ZM14.454 9.10899C14.6422 9.20487 14.7951 9.35785 14.891 9.54601L16.673 8.63803C16.3854 8.07354 15.9265 7.6146 15.362 7.32698L14.454 9.10899ZM5.2 7C4.65645 7 4.18864 6.99922 3.80497 7.03057C3.40963 7.06287 3.01641 7.13419 2.63803 7.32698L3.54601 9.10899C3.59545 9.0838 3.69617 9.04612 3.96784 9.02393C4.25117 9.00078 4.62345 9 5.2 9V7ZM3 11.2C3 10.6234 3.00078 10.2512 3.02393 9.96784C3.04612 9.69617 3.0838 9.59545 3.10899 9.54601L1.32698 8.63803C1.13419 9.01641 1.06287 9.40963 1.03057 9.80497C0.999222 10.1886 1 10.6564 1 11.2H3ZM2.63803 7.32698C2.07354 7.6146 1.6146 8.07354 1.32698 8.63803L3.10899 9.54601C3.20487 9.35785 3.35785 9.20487 3.54601 9.10899L2.63803 7.32698ZM21.362 16.673C21.9265 16.3854 22.3854 15.9265 22.673 15.362L20.891 14.454C20.7951 14.6422 20.6422 14.7951 20.454 14.891L21.362 16.673ZM20.454 3.10899C20.6422 3.20487 20.7951 3.35785 20.891 3.54601L22.673 2.63803C22.3854 2.07354 21.9265 1.6146 21.362 1.32698L20.454 3.10899ZM8.63803 1.32698C8.07354 1.6146 7.6146 2.07354 7.32698 2.63803L9.10899 3.54601C9.20487 3.35785 9.35785 3.20487 9.54601 3.10899L8.63803 1.32698ZM10.4864 1.00289C9.83022 1.01178 9.19995 1.04067 8.63803 1.32698L9.54601 3.10899C9.63945 3.06138 9.81968 3.01211 10.5136 3.0027L10.4864 1.00289ZM9.0027 4.51355C9.01211 3.81968 9.06139 3.63945 9.10899 3.54601L7.32698 2.63803C7.04067 3.19995 7.01178 3.83022 7.00289 4.48645L9.0027 4.51355ZM19.4865 3.0027C20.1803 3.01211 20.3606 3.06138 20.454 3.10899L21.362 1.32698C20.8001 1.04067 20.1698 1.01178 19.5135 1.00289L19.4865 3.0027ZM22.9971 4.48644C22.9882 3.83021 22.9593 3.19995 22.673 2.63803L20.891 3.54601C20.9386 3.63945 20.9879 3.81968 20.9973 4.51354L22.9971 4.48644ZM20.9973 13.4864C20.9879 14.1803 20.9386 14.3606 20.891 14.454L22.673 15.362C22.9593 14.8 22.9882 14.1698 22.9971 13.5135L20.9973 13.4864ZM19.5135 16.9971C20.1698 16.9882 20.8001 16.9593 21.362 16.673L20.454 14.891C20.3606 14.9386 20.1803 14.9879 19.4865 14.9973L19.5135 16.9971ZM21 7.99999V9.99999H23V7.99999H21ZM14.0001 3H16V1H14.0001V3Z" fill="currentColor"/>
</svg>
