<svg width="100%" height="100%" viewBox="0 0 24 24" fill="none" xmlns="http://www.w3.org/2000/svg">
<path d="M12 7C11.4477 7 11 7.44772 11 8C11 8.55228 11.4477 9 12 9V7ZM12.01 9C12.5623 9 13.01 8.55228 13.01 8C13.01 7.44772 12.5623 7 12.01 7V9ZM12 15C11.4477 15 11 15.4477 11 16C11 16.5523 11.4477 17 12 17V15ZM12.01 17C12.5623 17 13.01 16.5523 13.01 16C13.01 15.4477 12.5623 15 12.01 15V17ZM7 11C6.44772 11 6 11.4477 6 12C6 12.5523 6.44772 13 7 13V11ZM17 13C17.5523 13 18 12.5523 18 12C18 11.4477 17.5523 11 17 11V13ZM12 9H12.01V7H12V9ZM11.5 8C11.5 7.72386 11.7239 7.5 12 7.5V9.5C12.8284 9.5 13.5 8.82843 13.5 8H11.5ZM12 7.5C12.2761 7.5 12.5 7.72386 12.5 8H10.5C10.5 8.82843 11.1716 9.5 12 9.5V7.5ZM12.5 8C12.5 8.27614 12.2761 8.5 12 8.5V6.5C11.1716 6.5 10.5 7.17157 10.5 8H12.5ZM12 8.5C11.7239 8.5 11.5 8.27614 11.5 8H13.5C13.5 7.17157 12.8284 6.5 12 6.5V8.5ZM12 17H12.01V15H12V17ZM11.5 16C11.5 15.7239 11.7239 15.5 12 15.5V17.5C12.8284 17.5 13.5 16.8284 13.5 16H11.5ZM12 15.5C12.2761 15.5 12.5 15.7239 12.5 16H10.5C10.5 16.8284 11.1716 17.5 12 17.5V15.5ZM12.5 16C12.5 16.2761 12.2761 16.5 12 16.5V14.5C11.1716 14.5 10.5 15.1716 10.5 16H12.5ZM12 16.5C11.7239 16.5 11.5 16.2761 11.5 16H13.5C13.5 15.1716 12.8284 14.5 12 14.5V16.5ZM7 13H17V11H7V13ZM21 12C21 16.9706 16.9706 21 12 21V23C18.0751 23 23 18.0751 23 12H21ZM12 21C7.02944 21 3 16.9706 3 12H1C1 18.0751 5.92487 23 12 23V21ZM3 12C3 7.02944 7.02944 3 12 3V1C5.92487 1 1 5.92487 1 12H3ZM12 3C16.9706 3 21 7.02944 21 12H23C23 5.92487 18.0751 1 12 1V3Z" fill="currentColor"/>
</svg>
