<svg width="100%" height="100%" viewBox="0 0 24 24" fill="none" xmlns="http://www.w3.org/2000/svg">
<path d="M4 11C3.44772 11 3 11.4477 3 12C3 12.5523 3.44772 13 4 13V11ZM20 13C20.5523 13 21 12.5523 21 12C21 11.4477 20.5523 11 20 11V13ZM13 6C13 6.55228 12.5523 7 12 7V9C13.6569 9 15 7.65685 15 6H13ZM12 7C11.4477 7 11 6.55228 11 6H9C9 7.65685 10.3431 9 12 9V7ZM11 6C11 5.44772 11.4477 5 12 5V3C10.3431 3 9 4.34315 9 6H11ZM12 5C12.5523 5 13 5.44772 13 6H15C15 4.34315 13.6569 3 12 3V5ZM4 13H20V11H4V13ZM13 18C13 18.5523 12.5523 19 12 19V21C13.6569 21 15 19.6569 15 18H13ZM12 19C11.4477 19 11 18.5523 11 18H9C9 19.6569 10.3431 21 12 21V19ZM11 18C11 17.4477 11.4477 17 12 17V15C10.3431 15 9 16.3431 9 18H11ZM12 17C12.5523 17 13 17.4477 13 18H15C15 16.3431 13.6569 15 12 15V17Z" fill="currentColor"/>
</svg>
