<svg width="100%" height="100%" viewBox="0 0 24 24" fill="none" xmlns="http://www.w3.org/2000/svg">
<path d="M4 11C3.44772 11 3 11.4477 3 12C3 12.5523 3.44772 13 4 13V11ZM20 13C20.5523 13 21 12.5523 21 12C21 11.4477 20.5523 11 20 11V13ZM4 13H20V11H4V13ZM12 6V8C13.1046 8 14 7.10457 14 6H12ZM12 6H10C10 7.10457 10.8954 8 12 8V6ZM12 6V4C10.8954 4 10 4.89543 10 6H12ZM12 6H14C14 4.89543 13.1046 4 12 4V6ZM12 18V20C13.1046 20 14 19.1046 14 18H12ZM12 18H10C10 19.1046 10.8954 20 12 20V18ZM12 18V16C10.8954 16 10 16.8954 10 18H12ZM12 18H14C14 16.8954 13.1046 16 12 16V18Z" fill="currentColor"/>
</svg>
