<svg width="100%" height="100%" viewBox="0 0 24 24" fill="none" xmlns="http://www.w3.org/2000/svg">
<path d="M12 5V7C13.1046 7 14 6.10457 14 5H12ZM12 5H10C10 6.10457 10.8954 7 12 7V5ZM12 5V3C10.8954 3 10 3.89543 10 5H12ZM12 5H14C14 3.89543 13.1046 3 12 3V5ZM12 12V14C13.1046 14 14 13.1046 14 12H12ZM12 12H10C10 13.1046 10.8954 14 12 14V12ZM12 12V10C10.8954 10 10 10.8954 10 12H12ZM12 12H14C14 10.8954 13.1046 10 12 10V12ZM12 19V21C13.1046 21 14 20.1046 14 19H12ZM12 19H10C10 20.1046 10.8954 21 12 21V19ZM12 19V17C10.8954 17 10 17.8954 10 19H12ZM12 19H14C14 17.8954 13.1046 17 12 17V19ZM19 5V7C20.1046 7 21 6.10457 21 5H19ZM19 5H17C17 6.10457 17.8954 7 19 7V5ZM19 5V3C17.8954 3 17 3.89543 17 5H19ZM19 5H21C21 3.89543 20.1046 3 19 3V5ZM19 12V14C20.1046 14 21 13.1046 21 12H19ZM19 12H17C17 13.1046 17.8954 14 19 14V12ZM19 12V10C17.8954 10 17 10.8954 17 12H19ZM19 12H21C21 10.8954 20.1046 10 19 10V12ZM19 19V21C20.1046 21 21 20.1046 21 19H19ZM19 19H17C17 20.1046 17.8954 21 19 21V19ZM19 19V17C17.8954 17 17 17.8954 17 19H19ZM19 19H21C21 17.8954 20.1046 17 19 17V19ZM5 5V7C6.10457 7 7 6.10457 7 5H5ZM5 5H3C3 6.10457 3.89543 7 5 7V5ZM5 5V3C3.89543 3 3 3.89543 3 5H5ZM5 5H7C7 3.89543 6.10457 3 5 3V5ZM5 12V14C6.10457 14 7 13.1046 7 12H5ZM5 12H3C3 13.1046 3.89543 14 5 14V12ZM5 12V10C3.89543 10 3 10.8954 3 12H5ZM5 12H7C7 10.8954 6.10457 10 5 10V12ZM5 19V21C6.10457 21 7 20.1046 7 19H5ZM5 19H3C3 20.1046 3.89543 21 5 21V19ZM5 19V17C3.89543 17 3 17.8954 3 19H5ZM5 19H7C7 17.8954 6.10457 17 5 17V19Z" fill="currentColor"/>
</svg>
