<svg width="100%" height="100%" viewBox="0 0 24 24" fill="none" xmlns="http://www.w3.org/2000/svg">
<path d="M8.70711 16.2929C8.31658 15.9024 7.68342 15.9024 7.29289 16.2929C6.90237 16.6834 6.90237 17.3166 7.29289 17.7071L8.70711 16.2929ZM12 21L11.2929 21.7071C11.6834 22.0976 12.3166 22.0976 12.7071 21.7071L12 21ZM16.7071 17.7071C17.0976 17.3166 17.0976 16.6834 16.7071 16.2929C16.3166 15.9024 15.6834 15.9024 15.2929 16.2929L16.7071 17.7071ZM13 12C13 11.4477 12.5523 11 12 11C11.4477 11 11 11.4477 11 12H13ZM15.9661 6.69774L16.8277 6.19004L16.8277 6.19004L15.9661 6.69774ZM19.3632 15.9718C18.9374 16.3235 18.8773 16.9538 19.229 17.3796C19.5806 17.8055 20.2109 17.8656 20.6368 17.5139L19.3632 15.9718ZM3.47855 16.4993C3.86836 16.8906 4.50152 16.8917 4.89276 16.5019C5.284 16.1121 5.28516 15.479 4.89535 15.0877L3.47855 16.4993ZM7.29289 17.7071L11.2929 21.7071L12.7071 20.2929L8.70711 16.2929L7.29289 17.7071ZM12.7071 21.7071L16.7071 17.7071L15.2929 16.2929L11.2929 20.2929L12.7071 21.7071ZM11 12V21H13V12H11ZM3 10.5C3 6.91015 5.91015 4 9.5 4V2C4.80558 2 1 5.80558 1 10.5H3ZM9.5 4C11.8859 4 13.9729 5.28498 15.1046 7.20544L16.8277 6.19004C15.3513 3.6847 12.6229 2 9.5 2V4ZM16.5 8C18.9853 8 21 10.0147 21 12.5H23C23 8.91015 20.0898 6 16.5 6V8ZM21 12.5C21 13.897 20.3646 15.1448 19.3632 15.9718L20.6368 17.5139C22.0784 16.3233 23 14.5188 23 12.5H21ZM4.89535 15.0877C3.72297 13.911 3 12.2909 3 10.5H1C1 12.8413 1.94793 14.9631 3.47855 16.4993L4.89535 15.0877ZM15.1046 7.20544C15.3998 7.70633 15.9363 8 16.5 8V6C16.6267 6 16.7544 6.06566 16.8277 6.19004L15.1046 7.20544Z" fill="currentColor"/>
</svg>
