<svg width="100%" height="100%" viewBox="0 0 24 24" fill="none" xmlns="http://www.w3.org/2000/svg">
<path d="M21 22C21.5523 22 22 21.5523 22 21C22 20.4477 21.5523 20 21 20V22ZM3 20C2.44772 20 2 20.4477 2 21C2 21.5523 2.44772 22 3 22V20ZM18.7071 11.7071C19.0976 11.3166 19.0976 10.6834 18.7071 10.2929C18.3166 9.90237 17.6834 9.90237 17.2929 10.2929L18.7071 11.7071ZM12 17L11.2929 17.7071C11.6834 18.0976 12.3166 18.0976 12.7071 17.7071L12 17ZM6.70711 10.2929C6.31658 9.90237 5.68342 9.90237 5.29289 10.2929C4.90237 10.6834 4.90237 11.3166 5.29289 11.7071L6.70711 10.2929ZM13 3C13 2.44772 12.5523 2 12 2C11.4477 2 11 2.44772 11 3H13ZM21 20H3V22H21V20ZM17.2929 10.2929L11.2929 16.2929L12.7071 17.7071L18.7071 11.7071L17.2929 10.2929ZM12.7071 16.2929L6.70711 10.2929L5.29289 11.7071L11.2929 17.7071L12.7071 16.2929ZM11 3V17H13V3H11Z" fill="currentColor"/>
</svg>
