<svg width="100%" height="100%" viewBox="0 0 24 24" fill="none" xmlns="http://www.w3.org/2000/svg">
<path d="M8.70711 11.293C8.31658 10.9024 7.68342 10.9024 7.29289 11.293C6.90237 11.6835 6.90237 12.3166 7.29289 12.7072L8.70711 11.293ZM12 16.0001L11.2929 16.7072C11.6834 17.0977 12.3166 17.0977 12.7071 16.7072L12 16.0001ZM16.7071 12.7072C17.0976 12.3166 17.0976 11.6835 16.7071 11.293C16.3166 10.9024 15.6834 10.9024 15.2929 11.293L16.7071 12.7072ZM7.38143 3.1282L6.91892 2.24159V2.24159L7.38143 3.1282ZM17.5007 2.47228C17.0227 2.19574 16.4109 2.3591 16.1344 2.83716C15.8579 3.31522 16.0212 3.92695 16.4993 4.20349L17.5007 2.47228ZM9.40278 2.69468L9.26852 3.68563L9.40278 2.69468ZM11.4495 3.93546L10.633 4.51281V4.51281L11.4495 3.93546ZM7.29289 12.7072L11.2929 16.7072L12.7071 15.293L8.70711 11.293L7.29289 12.7072ZM12.7071 16.7072L16.7071 12.7072L15.2929 11.293L11.2929 15.293L12.7071 16.7072ZM21 12.0001C21 16.9706 16.9706 21.0001 12 21.0001V23.0001C18.0751 23.0001 23 18.0752 23 12.0001H21ZM12 21.0001C7.02944 21.0001 3 16.9706 3 12.0001H1C1 18.0752 5.92487 23.0001 12 23.0001V21.0001ZM3 12.0001C3 8.53039 4.96314 5.51759 7.84393 4.01482L6.91892 2.24159C3.40353 4.0754 1 7.75622 1 12.0001H3ZM16.4993 4.20349C19.192 5.76114 21 8.67005 21 12.0001H23C23 7.92725 20.786 4.37272 17.5007 2.47228L16.4993 4.20349ZM11 6.80006V16.0001H13V6.80006H11ZM7.84393 4.01482C8.227 3.81499 8.3921 3.73427 8.55923 3.69069C8.69433 3.65546 8.88196 3.63326 9.26852 3.68563L9.53704 1.70374C8.97871 1.62809 8.51449 1.63547 8.05455 1.75541C7.62663 1.867 7.2535 2.06705 6.91892 2.24159L7.84393 4.01482ZM13 6.80006C13 5.46991 13.0298 4.43837 12.266 3.3581L10.633 4.51281C10.9702 4.98964 11 5.3488 11 6.80006H13ZM9.26852 3.68563C9.38386 3.70125 9.66608 3.80206 10.006 4.00812C10.3459 4.21418 10.5658 4.41778 10.633 4.51281L12.266 3.3581C11.9674 2.93586 11.4779 2.5616 11.0428 2.29785C10.6077 2.03411 10.0495 1.77317 9.53704 1.70374L9.26852 3.68563Z" fill="currentColor"/>
</svg>
