<svg width="100%" height="100%" viewBox="0 0 24 24" fill="none" xmlns="http://www.w3.org/2000/svg">
<path d="M21.7381 18.6747C22.1107 18.2671 22.0823 17.6345 21.6747 17.2619C21.2671 16.8893 20.6345 16.9177 20.2619 17.3253L21.7381 18.6747ZM19.9999 19.094L20.7379 19.7688L20.738 19.7687L19.9999 19.094ZM16.0004 19.094L16.7384 18.4192L16.7372 18.418L16.0004 19.094ZM14.0002 18.1901V19.1901V18.1901ZM11.2631 18.418C10.8897 18.8249 10.917 19.4575 11.3239 19.8309C11.7309 20.2043 12.3634 20.177 12.7368 19.7701L11.2631 18.418ZM3 20H2C2 20.5523 2.44772 21 3 21V20ZM6.93729 19.0627L6.23018 18.3556L6.93729 19.0627ZM6.2166 19.7053L6.7391 20.5579L6.2166 19.7053ZM5.63849 19.9447L5.87194 20.9171L5.63849 19.9447ZM3.93726 16.0627L3.23015 15.3556H3.23015L3.93726 16.0627ZM3.29472 16.7834L4.14736 17.3059L3.29472 16.7834ZM3.05526 17.3615L4.02763 17.595L3.05526 17.3615ZM19.5 6.49998L20.2071 7.20709L19.5 6.49998ZM16.5 3.49998L17.2071 4.20709L16.5 3.49998ZM20.2619 17.3253L19.2618 18.4193L20.738 19.7687L21.7381 18.6747L20.2619 17.3253ZM19.2619 18.4192C18.9106 18.8034 18.4545 19 18.0001 19V21C19.0458 21 20.0283 20.5449 20.7379 19.7688L19.2619 18.4192ZM18.0001 19C17.5457 19 17.0896 18.8034 16.7384 18.4192L15.2624 19.7688C15.972 20.5449 16.9545 21 18.0001 21V19ZM16.7372 18.418C16.0269 17.6438 15.0449 17.1901 14.0002 17.1901V19.1901C14.455 19.1901 14.9115 19.3864 15.2635 19.7701L16.7372 18.418ZM14.0002 17.1901C12.9554 17.1901 11.9735 17.6438 11.2631 18.418L12.7368 19.7701C13.0888 19.3864 13.5453 19.1901 14.0002 19.1901V17.1901ZM4.64437 16.7698L17.2071 4.20709L15.7929 2.79287L3.23015 15.3556L4.64437 16.7698ZM18.7929 5.79288L6.23018 18.3556L7.64439 19.7698L20.2071 7.20709L18.7929 5.79288ZM4.67454 19H3V21H4.67454V19ZM4 20V18.3255H2V20H4ZM6.23018 18.3556C5.85062 18.7352 5.77154 18.8052 5.6941 18.8526L6.7391 20.5579C7.06532 20.358 7.33215 20.0821 7.64439 19.7698L6.23018 18.3556ZM4.67454 21C5.11612 21 5.4999 21.0064 5.87194 20.9171L5.40505 18.9724C5.31673 18.9936 5.21132 19 4.67454 19V21ZM5.6941 18.8526C5.60462 18.9075 5.50708 18.9479 5.40505 18.9724L5.87194 20.9171C6.17805 20.8436 6.47068 20.7224 6.7391 20.5579L5.6941 18.8526ZM3.23015 15.3556C2.91791 15.6679 2.64199 15.9347 2.44208 16.2609L4.14736 17.3059C4.19482 17.2285 4.2648 17.1494 4.64437 16.7698L3.23015 15.3556ZM4 18.3255C4 17.7887 4.00643 17.6833 4.02763 17.595L2.08289 17.1281C1.99357 17.5001 2 17.8839 2 18.3255H4ZM2.44208 16.2609C2.27759 16.5293 2.15638 16.822 2.08289 17.1281L4.02763 17.595C4.05213 17.4929 4.09253 17.3954 4.14736 17.3059L2.44208 16.2609ZM18.7929 4.20709C19.2308 4.64499 19.2308 5.35497 18.7929 5.79288L20.2071 7.20709C21.4261 5.98814 21.4261 4.01183 20.2071 2.79287L18.7929 4.20709ZM20.2071 2.79287C18.9882 1.57392 17.0119 1.57393 15.7929 2.79287L17.2071 4.20709C17.645 3.76919 18.355 3.76919 18.7929 4.20709L20.2071 2.79287Z" fill="currentColor"/>
</svg>
