<svg width="100%" height="100%" viewBox="0 0 24 24" fill="none" xmlns="http://www.w3.org/2000/svg">
<path d="M12 19C11.4477 19 11 19.4477 11 20C11 20.5523 11.4477 21 12 21V19ZM21 21C21.5523 21 22 20.5523 22 20C22 19.4477 21.5523 19 21 19V21ZM3 20H2C2 20.5523 2.44772 21 3 21V20ZM6.93729 19.0627L6.23018 18.3556L6.93729 19.0627ZM6.2166 19.7053L6.7391 20.5579L6.2166 19.7053ZM5.63849 19.9447L5.87194 20.9171L5.63849 19.9447ZM3.93726 16.0627L3.23015 15.3556H3.23015L3.93726 16.0627ZM3.29472 16.7834L4.14736 17.3059L3.29472 16.7834ZM3.05526 17.3615L4.02763 17.595L3.05526 17.3615ZM19.5 6.49998L20.2071 7.20709L19.5 6.49998ZM16.5 3.49998L17.2071 4.20709L16.5 3.49998ZM12 21H21V19H12V21ZM4.64437 16.7698L17.2071 4.20709L15.7929 2.79287L3.23015 15.3556L4.64437 16.7698ZM18.7929 5.79288L6.23018 18.3556L7.64439 19.7698L20.2071 7.20709L18.7929 5.79288ZM4.67454 19H3V21H4.67454V19ZM4 20V18.3255H2V20H4ZM6.23018 18.3556C5.85062 18.7352 5.77154 18.8052 5.6941 18.8526L6.7391 20.5579C7.06532 20.358 7.33215 20.0821 7.64439 19.7698L6.23018 18.3556ZM4.67454 21C5.11612 21 5.4999 21.0064 5.87194 20.9171L5.40505 18.9724C5.31673 18.9936 5.21132 19 4.67454 19V21ZM5.6941 18.8526C5.60462 18.9075 5.50708 18.9479 5.40505 18.9724L5.87194 20.9171C6.17805 20.8436 6.47068 20.7224 6.7391 20.5579L5.6941 18.8526ZM3.23015 15.3556C2.91791 15.6679 2.64199 15.9347 2.44208 16.2609L4.14736 17.3059C4.19482 17.2285 4.2648 17.1494 4.64437 16.7698L3.23015 15.3556ZM4 18.3255C4 17.7887 4.00643 17.6833 4.02763 17.595L2.08289 17.1281C1.99357 17.5001 2 17.8839 2 18.3255H4ZM2.44208 16.2609C2.27759 16.5293 2.15638 16.822 2.08289 17.1281L4.02763 17.595C4.05213 17.4929 4.09253 17.3954 4.14736 17.3059L2.44208 16.2609ZM18.7929 4.20709C19.2308 4.64499 19.2308 5.35497 18.7929 5.79288L20.2071 7.20709C21.4261 5.98814 21.4261 4.01183 20.2071 2.79287L18.7929 4.20709ZM20.2071 2.79287C18.9882 1.57392 17.0119 1.57393 15.7929 2.79287L17.2071 4.20709C17.645 3.76919 18.355 3.76919 18.7929 4.20709L20.2071 2.79287Z" fill="currentColor"/>
</svg>
