<svg width="100%" height="100%" viewBox="0 0 24 24" fill="none" xmlns="http://www.w3.org/2000/svg">
<path d="M11 4.99998C11.5523 4.99998 12 4.55227 12 3.99998C12 3.4477 11.5523 2.99998 11 2.99998V4.99998ZM21 13C21 12.4477 20.5523 12 20 12C19.4477 12 19 12.4477 19 13H21ZM3.63803 21.673L3.18404 22.564H3.18404L3.63803 21.673ZM2.32698 20.362L3.21799 19.908L3.21799 19.908L2.32698 20.362ZM18.362 21.673L17.908 20.782H17.908L18.362 21.673ZM19.673 20.362L18.782 19.908L19.673 20.362ZM2.32698 5.63801L3.21799 6.092L2.32698 5.63801ZM3.63803 4.32696L4.09202 5.21797L3.63803 4.32696ZM7.99997 16H6.99997C6.99997 16.5523 7.44769 17 7.99997 17V16ZM11.9373 15.0627L11.2302 14.3556L11.9373 15.0627ZM11.2166 15.7053L11.7391 16.5579L11.2166 15.7053ZM10.6385 15.9447L10.8719 16.9171L10.6385 15.9447ZM8.93723 12.0627L9.64434 12.7698L8.93723 12.0627ZM8.29469 12.7834L7.44205 12.2609L8.29469 12.7834ZM8.05523 13.3615L7.08286 13.1281L8.05523 13.3615ZM21.5 5.49998L22.2071 6.20709V6.20709L21.5 5.49998ZM18.5 2.49998L17.7929 1.79287L18.5 2.49998ZM15.2 21H6.8V23H15.2V21ZM3 17.2V8.79998H1V17.2H3ZM6.8 4.99998H11V2.99998H6.8V4.99998ZM19 13V17.2H21V13H19ZM6.8 21C5.94342 21 5.36113 20.9992 4.91104 20.9624C4.47262 20.9266 4.24842 20.8617 4.09202 20.782L3.18404 22.564C3.66937 22.8113 4.18608 22.9099 4.74817 22.9558C5.2986 23.0008 5.97642 23 6.8 23V21ZM1 17.2C1 18.0236 0.999222 18.7014 1.04419 19.2518C1.09012 19.8139 1.18868 20.3306 1.43597 20.8159L3.21799 19.908C3.1383 19.7516 3.07337 19.5274 3.03755 19.0889C3.00078 18.6389 3 18.0566 3 17.2H1ZM4.09202 20.782C3.71569 20.5902 3.40973 20.2843 3.21799 19.908L1.43597 20.8159C1.81947 21.5686 2.43139 22.1805 3.18404 22.564L4.09202 20.782ZM15.2 23C16.0236 23 16.7014 23.0008 17.2518 22.9558C17.8139 22.9099 18.3306 22.8113 18.816 22.564L17.908 20.782C17.7516 20.8617 17.5274 20.9266 17.089 20.9624C16.6389 20.9992 16.0566 21 15.2 21V23ZM19 17.2C19 18.0566 18.9992 18.6389 18.9624 19.0889C18.9266 19.5274 18.8617 19.7516 18.782 19.908L20.564 20.8159C20.8113 20.3306 20.9099 19.8139 20.9558 19.2518C21.0008 18.7014 21 18.0236 21 17.2H19ZM18.816 22.564C19.5686 22.1805 20.1805 21.5686 20.564 20.8159L18.782 19.908C18.5903 20.2843 18.2843 20.5902 17.908 20.782L18.816 22.564ZM3 8.79998C3 7.9434 3.00078 7.36111 3.03755 6.91102C3.07337 6.47261 3.1383 6.2484 3.21799 6.092L1.43597 5.18402C1.18868 5.66936 1.09012 6.18606 1.04419 6.74816C0.999222 7.29858 1 7.97641 1 8.79998H3ZM6.8 2.99998C5.97642 2.99998 5.2986 2.99921 4.74817 3.04418C4.18608 3.0901 3.66937 3.18867 3.18404 3.43596L4.09202 5.21797C4.24842 5.13828 4.47262 5.07335 4.91104 5.03754C5.36113 5.00076 5.94342 4.99998 6.8 4.99998V2.99998ZM3.21799 6.092C3.40973 5.71568 3.71569 5.40972 4.09202 5.21797L3.18404 3.43596C2.43139 3.81945 1.81947 4.43137 1.43597 5.18402L3.21799 6.092ZM9.64434 12.7698L19.2071 3.20709L17.7929 1.79287L8.23013 11.3556L9.64434 12.7698ZM20.7929 4.79288L11.2302 14.3556L12.6444 15.7698L22.2071 6.20709L20.7929 4.79288ZM9.67452 15H7.99997V17H9.67452V15ZM8.99997 16V14.3255H6.99997V16H8.99997ZM11.2302 14.3556C10.8506 14.7352 10.7715 14.8052 10.6941 14.8526L11.7391 16.5579C12.0653 16.358 12.3321 16.0821 12.6444 15.7698L11.2302 14.3556ZM9.67452 17C10.1161 17 10.4999 17.0064 10.8719 16.9171L10.405 14.9724C10.3167 14.9936 10.2113 15 9.67452 15V17ZM10.6941 14.8526C10.6046 14.9075 10.5071 14.9479 10.405 14.9724L10.8719 16.9171C11.178 16.8436 11.4707 16.7224 11.7391 16.5579L10.6941 14.8526ZM8.23013 11.3556C7.91788 11.6679 7.64196 11.9347 7.44205 12.2609L9.14733 13.3059C9.19479 13.2285 9.26478 13.1494 9.64434 12.7698L8.23013 11.3556ZM8.99997 14.3255C8.99997 13.7887 9.0064 13.6833 9.0276 13.595L7.08286 13.1281C6.99355 13.5001 6.99997 13.8839 6.99997 14.3255H8.99997ZM7.44205 12.2609C7.27757 12.5293 7.15635 12.822 7.08286 13.1281L9.0276 13.595C9.0521 13.4929 9.0925 13.3954 9.14733 13.3059L7.44205 12.2609ZM20.7929 3.20709C21.2308 3.64499 21.2308 4.35497 20.7929 4.79288L22.2071 6.20709C23.4261 4.98814 23.4261 3.01183 22.2071 1.79288L20.7929 3.20709ZM22.2071 1.79288C20.9882 0.573926 19.0118 0.573924 17.7929 1.79287L19.2071 3.20709C19.645 2.76919 20.355 2.76919 20.7929 3.20709L22.2071 1.79288Z" fill="currentColor"/>
</svg>
