<svg width="100%" height="100%" viewBox="0 0 24 24" fill="none" xmlns="http://www.w3.org/2000/svg">
<path d="M5 8C4.44772 8 4 8.44772 4 9C4 9.55228 4.44772 10 5 10V8ZM19 10C19.5523 10 20 9.55228 20 9C20 8.44772 19.5523 8 19 8V10ZM5 14C4.44772 14 4 14.4477 4 15C4 15.5523 4.44772 16 5 16V14ZM19 16C19.5523 16 20 15.5523 20 15C20 14.4477 19.5523 14 19 14V16ZM19.7071 5.70711C20.0976 5.31658 20.0976 4.68342 19.7071 4.29289C19.3166 3.90237 18.6834 3.90237 18.2929 4.29289L19.7071 5.70711ZM4.29289 18.2929C3.90237 18.6834 3.90237 19.3166 4.29289 19.7071C4.68342 20.0976 5.31658 20.0976 5.70711 19.7071L4.29289 18.2929ZM5 10H19V8H5V10ZM5 16H19V14H5V16ZM18.2929 4.29289L4.29289 18.2929L5.70711 19.7071L19.7071 5.70711L18.2929 4.29289Z" fill="currentColor"/>
</svg>
