<svg width="100%" height="100%" viewBox="0 0 24 24" fill="none" xmlns="http://www.w3.org/2000/svg">
<path d="M21.5807 11.2868L22.4262 10.7528V10.7528L21.5807 11.2868ZM10.5967 4.10307C10.0503 4.18385 9.67292 4.69223 9.7537 5.23858C9.83448 5.78492 10.3429 6.16234 10.8892 6.08156L10.5967 4.10307ZM21.5792 12.7156L22.4246 13.2497V13.2497L21.5792 12.7156ZM19.4498 13.9385C19.0952 14.3619 19.1511 14.9926 19.5745 15.3472C19.998 15.7017 20.6287 15.6459 20.9832 15.2224L19.4498 13.9385ZM21.8231 11.7767L20.8484 12V12L21.8231 11.7767ZM21.8231 12.2236L22.7978 12.4471L22.7978 12.4471L21.8231 12.2236ZM2.42013 12.7132L3.26563 12.1792L2.42013 12.7132ZM2.42111 11.2853L1.57567 10.7512H1.57567L2.42111 11.2853ZM7.2857 7.54259C7.74275 7.23255 7.86192 6.6107 7.55188 6.15366C7.24184 5.69661 6.61999 5.57744 6.16294 5.88748L7.2857 7.54259ZM17.8512 18.1035C18.3079 17.7928 18.4263 17.1708 18.1157 16.7142C17.8051 16.2575 17.1831 16.1391 16.7264 16.4497L17.8512 18.1035ZM2.17771 12.2234L3.15244 12H3.15244L2.17771 12.2234ZM2.17774 11.7765L1.20303 11.553H1.20303L2.17774 11.7765ZM3.70752 2.29289C3.317 1.90237 2.68383 1.90237 2.29331 2.29289C1.90278 2.68342 1.90278 3.31658 2.29331 3.70711L3.70752 2.29289ZM20.2933 21.7071C20.6838 22.0976 21.317 22.0976 21.7075 21.7071C22.098 21.3166 22.098 20.6834 21.7075 20.2929L20.2933 21.7071ZM10.5862 10.5858C10.9767 10.1953 10.9767 9.5621 10.5862 9.17157C10.1957 8.78105 9.56251 8.78105 9.17199 9.17157L10.5862 10.5858ZM14.8288 14.8284C15.2194 14.4379 15.2194 13.8047 14.8288 13.4142C14.4383 13.0237 13.8052 13.0237 13.4146 13.4142L14.8288 14.8284ZM12.0004 6C14.2437 6 16.1382 6.9877 17.6421 8.24291C19.1484 9.50007 20.2025 10.9774 20.7352 11.8208L22.4262 10.7528C21.8335 9.81429 20.6499 8.14818 18.9237 6.70743C17.1951 5.26472 14.8621 4 12.0004 4V6ZM10.8892 6.08156C11.2482 6.02849 11.6186 6 12.0004 6V4C11.5187 4 11.0505 4.03597 10.5967 4.10307L10.8892 6.08156ZM20.7338 12.1814C20.4524 12.6267 20.0211 13.2561 19.4498 13.9385L20.9832 15.2224C21.6232 14.4581 22.1063 13.7536 22.4246 13.2497L20.7338 12.1814ZM20.7352 11.8208C20.7705 11.8768 20.7953 11.916 20.8159 11.95C20.836 11.9831 20.8461 12.0012 20.8513 12.0113C20.8558 12.0198 20.8549 12.0191 20.8524 12.0125C20.8512 12.0094 20.8502 12.0064 20.8494 12.0036C20.8486 12.0009 20.8483 11.9995 20.8484 12L22.7979 11.5533C22.7153 11.1929 22.5462 10.9429 22.4262 10.7528L20.7352 11.8208ZM22.4246 13.2497C22.5451 13.0589 22.7151 12.8078 22.7978 12.4471L20.8484 12C20.8483 12.0004 20.8486 11.999 20.8495 11.9962C20.8503 11.9933 20.8514 11.9902 20.8525 11.9872C20.855 11.9807 20.8558 11.9801 20.8512 11.9889C20.8458 11.9993 20.8355 12.0177 20.8152 12.0512C20.7943 12.0855 20.7694 12.1251 20.7338 12.1814L22.4246 13.2497ZM20.8484 12C20.8457 11.9883 20.8444 11.9805 20.844 11.9774C20.8435 11.9742 20.8435 11.9734 20.8436 11.9753C20.8438 11.9772 20.8441 11.9804 20.8443 11.985C20.8445 11.9895 20.8446 11.9946 20.8446 12C20.8446 12.0054 20.8445 12.0105 20.8443 12.0151C20.8441 12.0196 20.8438 12.0229 20.8436 12.0247C20.8434 12.0266 20.8435 12.0259 20.844 12.0226C20.8444 12.0196 20.8457 12.0118 20.8484 12L22.7978 12.4471C22.8602 12.1751 22.8602 11.8253 22.7979 11.5533L20.8484 12ZM12.0004 18C9.75708 18 7.86263 17.0123 6.35869 15.7571C4.8524 14.4999 3.7983 13.0226 3.26563 12.1792L1.57463 13.2472C2.16738 14.1857 3.35091 15.8518 5.07716 17.2926C6.80576 18.7353 9.13874 20 12.0004 20V18ZM3.26654 11.8194C3.90818 10.8036 5.28809 8.8977 7.2857 7.54259L6.16294 5.88748C3.83641 7.46571 2.28072 9.63512 1.57567 10.7512L3.26654 11.8194ZM16.7264 16.4497C15.3913 17.3579 13.8109 18 12.0004 18V20C14.3067 20 16.2724 19.1773 17.8512 18.1035L16.7264 16.4497ZM3.26563 12.1792C3.23029 12.1232 3.20556 12.084 3.1849 12.05C3.16479 12.0169 3.15476 11.9988 3.14951 11.9887C3.14508 11.9802 3.14597 11.9809 3.14845 11.9876C3.14959 11.9906 3.15062 11.9937 3.15145 11.9964C3.15227 11.9992 3.15256 12.0005 3.15244 12L1.20298 12.4467C1.28557 12.8071 1.45461 13.0571 1.57463 13.2472L3.26563 12.1792ZM1.57567 10.7512C1.45532 10.9417 1.28571 11.1924 1.20303 11.553L3.15244 12C3.15254 11.9995 3.15223 12.001 3.1514 12.0037C3.15055 12.0065 3.14951 12.0096 3.14838 12.0126C3.14591 12.0192 3.14507 12.0199 3.14961 12.0111C3.15496 12.0008 3.16512 11.9826 3.18537 11.9492C3.20617 11.915 3.23105 11.8755 3.26654 11.8194L1.57567 10.7512ZM3.15244 12C3.15514 12.0118 3.15641 12.0195 3.15688 12.0226C3.15738 12.0258 3.15739 12.0266 3.15721 12.0247C3.15704 12.0228 3.15678 12.0196 3.15658 12.015C3.15637 12.0105 3.15625 12.0054 3.15625 12C3.15625 11.9946 3.15637 11.9895 3.15658 11.9849C3.15678 11.9804 3.15704 11.9771 3.15721 11.9753C3.15739 11.9734 3.15738 11.9741 3.15688 11.9774C3.15641 11.9804 3.15514 11.9882 3.15244 12L1.20303 11.553C1.14067 11.825 1.14065 12.1748 1.20298 12.4467L3.15244 12ZM2.29331 3.70711L20.2933 21.7071L21.7075 20.2929L3.70752 2.29289L2.29331 3.70711ZM12.0004 14C10.8958 14 10.0004 13.1046 10.0004 12H8.00042C8.00042 14.2091 9.79128 16 12.0004 16V14ZM10.0004 12C10.0004 11.4474 10.2232 10.9488 10.5862 10.5858L9.17199 9.17157C8.44923 9.89434 8.00042 10.8957 8.00042 12H10.0004ZM13.4146 13.4142C13.0516 13.7772 12.553 14 12.0004 14V16C13.1047 16 14.1061 15.5512 14.8288 14.8284L13.4146 13.4142Z" fill="currentColor"/>
</svg>
