<svg width="100%" height="100%" viewBox="0 0 24 24" fill="none" xmlns="http://www.w3.org/2000/svg">
<path d="M6 11C5.44772 11 5 11.4477 5 12C5 12.5523 5.44772 13 6 13V11ZM18 13C18.5523 13 19 12.5523 19 12C19 11.4477 18.5523 11 18 11V13ZM3 5C2.44772 5 2 5.44772 2 6C2 6.55228 2.44772 7 3 7V5ZM21 7C21.5523 7 22 6.55228 22 6C22 5.44772 21.5523 5 21 5V7ZM9 17C8.44772 17 8 17.4477 8 18C8 18.5523 8.44772 19 9 19V17ZM15 19C15.5523 19 16 18.5523 16 18C16 17.4477 15.5523 17 15 17V19ZM6 13H18V11H6V13ZM3 7H21V5H3V7ZM9 19H15V17H9V19Z" fill="currentColor"/>
</svg>
