<svg width="100%" height="100%" viewBox="0 0 24 24" fill="none" xmlns="http://www.w3.org/2000/svg">
<path d="M14.4682 18.8363L13.5313 18.4867L14.4682 18.8363ZM13.9969 19.2012L13.6255 18.2727H13.6255L13.9969 19.2012ZM14.336 19.0315L15.0085 19.7716L14.336 19.0315ZM9.583 20.5377L10.4165 19.9852L9.583 20.5377ZM10.5969 20.5612L10.9682 21.4896H10.9683L10.5969 20.5612ZM9.89802 20.751L9.69456 21.7301L9.89802 20.751ZM9.47587 12.6648L10.452 12.4476L9.47587 12.6648ZM9.09213 12.0444L8.34689 12.7112L9.09213 12.0444ZM9.37204 12.3931L10.2443 11.9041L9.37204 12.3931ZM14.5236 12.6648L13.5475 12.4476L14.5236 12.6648ZM14.9074 12.0444L14.1621 11.3776L14.9074 12.0444ZM14.6275 12.3931L13.7552 11.9041L14.6275 12.3931ZM21.3999 3.22889L22.0366 2.45777L21.3999 3.22889ZM20.6136 5.66687L21.3588 6.33367V6.33367L20.6136 5.66687ZM21.7624 4.03968L22.7616 4.07936L21.7624 4.03968ZM2.59963 3.22889L1.96293 2.45777H1.96293L2.59963 3.22889ZM3.38589 5.66687L4.13113 5.00008L3.38589 5.66687ZM2.23712 4.03968L1.2379 4.07936L2.23712 4.03968ZM4.57828 4H19.4212V2H4.57828V4ZM10.4997 19.8184V13.1113H8.49975V19.8184H10.4997ZM13.4997 13.1113V18.4584H15.4997V13.1113H13.4997ZM13.6255 18.2727L10.2255 19.6327L10.9683 21.4896L14.3682 20.1296L13.6255 18.2727ZM9.83737 11.3776L4.13113 5.00008L2.64065 6.33366L8.34689 12.7112L9.83737 11.3776ZM19.8684 5.00008L14.1621 11.3776L15.6526 12.7112L21.3588 6.33367L19.8684 5.00008ZM13.4997 18.4584C13.4997 18.4831 13.4997 18.5046 13.4997 18.5244C13.4996 18.5442 13.4995 18.5607 13.4993 18.5751C13.4992 18.5894 13.4989 18.6002 13.4986 18.6085C13.4984 18.6168 13.4981 18.6212 13.498 18.6228C13.4977 18.6265 13.4984 18.6126 13.5029 18.5881C13.5078 18.5616 13.5165 18.5265 13.5313 18.4867L15.4051 19.1858C15.5149 18.8915 15.4997 18.5741 15.4997 18.4584H13.4997ZM14.3682 20.1296C14.4757 20.0867 14.776 19.9829 15.0085 19.7716L13.6635 18.2914C13.6949 18.2629 13.7243 18.2418 13.7471 18.2275C13.7682 18.2142 13.7809 18.2084 13.7775 18.21C13.7761 18.2107 13.7721 18.2125 13.7645 18.2159C13.7569 18.2192 13.7469 18.2235 13.7337 18.229C13.7204 18.2345 13.7051 18.2407 13.6868 18.2481C13.6684 18.2555 13.6485 18.2635 13.6255 18.2727L14.3682 20.1296ZM13.5313 18.4867C13.5592 18.412 13.6045 18.3451 13.6635 18.2914L15.0085 19.7716C15.1855 19.6108 15.3215 19.4099 15.4051 19.1858L13.5313 18.4867ZM8.49975 19.8184C8.49975 19.9972 8.49877 20.1993 8.51425 20.3698C8.52997 20.543 8.57128 20.8214 8.7495 21.0903L10.4165 19.9852C10.4646 20.0577 10.488 20.1228 10.4988 20.1619C10.5084 20.1966 10.5081 20.2114 10.5061 20.189C10.5041 20.1672 10.502 20.1293 10.5009 20.063C10.4998 19.9972 10.4997 19.9198 10.4997 19.8184H8.49975ZM10.2255 19.6327C10.1312 19.6704 10.0595 19.699 9.99787 19.7225C9.93591 19.746 9.89997 19.7582 9.87898 19.7645C9.85749 19.7709 9.87108 19.7651 9.90688 19.7611C9.94722 19.7566 10.0163 19.7542 10.1015 19.7719L9.69456 21.7301C10.0104 21.7957 10.2842 21.7307 10.4509 21.681C10.6149 21.632 10.8022 21.556 10.9682 21.4896L10.2255 19.6327ZM8.7495 21.0903C8.96791 21.4197 9.30754 21.6497 9.69456 21.7301L10.1015 19.7719C10.2305 19.7987 10.3437 19.8754 10.4165 19.9852L8.7495 21.0903ZM10.4997 13.1113C10.4997 12.929 10.5053 12.6871 10.452 12.4476L8.49975 12.8821C8.49458 12.8589 8.49617 12.851 8.49767 12.8862C8.49954 12.9299 8.49975 12.9901 8.49975 13.1113H10.4997ZM8.34689 12.7112C8.42768 12.8015 8.46768 12.8465 8.49547 12.8804C8.51779 12.9076 8.51137 12.9028 8.49975 12.8821L10.2443 11.9041C10.1244 11.6901 9.95896 11.5135 9.83737 11.3776L8.34689 12.7112ZM10.452 12.4476C10.4096 12.2573 10.3397 12.0742 10.2443 11.9041L8.49975 12.8821H8.49975L10.452 12.4476ZM15.4997 13.1113C15.4997 12.9901 15.5 12.9299 15.5018 12.8862C15.5033 12.851 15.5049 12.8589 15.4997 12.8821L13.5475 12.4476C13.4942 12.6871 13.4997 12.929 13.4997 13.1113H15.4997ZM14.1621 11.3776C14.0405 11.5135 13.8751 11.6901 13.7552 11.9041L15.4997 12.8821C15.4881 12.9028 15.4817 12.9076 15.504 12.8804C15.5318 12.8465 15.5718 12.8015 15.6526 12.7112L14.1621 11.3776ZM15.4997 12.8821L13.7552 11.9041C13.6598 12.0742 13.5899 12.2573 13.5475 12.4476L15.4997 12.8821ZM19.4212 4C20.0083 4 20.3797 4.00098 20.6424 4.02459C20.9301 4.05046 20.8737 4.09129 20.7632 4L22.0366 2.45777C21.6488 2.13759 21.1702 2.06398 20.8215 2.03263C20.4477 1.99902 19.9685 2 19.4212 2V4ZM21.3588 6.33367C21.7237 5.92584 22.044 5.56933 22.2682 5.26837C22.4774 4.98756 22.7416 4.58184 22.7616 4.07936L20.7632 4C20.7689 3.85673 20.8369 3.84194 20.6643 4.0736C20.5068 4.2851 20.2598 4.56258 19.8684 5.00008L21.3588 6.33367ZM20.7632 4V4L22.7616 4.07936C22.7864 3.45527 22.5182 2.85544 22.0366 2.45777L20.7632 4ZM4.57828 2C4.03104 2 3.55178 1.99902 3.178 2.03263C2.82926 2.06398 2.35071 2.13759 1.96293 2.45777L3.23633 4C3.12576 4.09129 3.06939 4.05046 3.3571 4.02459C3.61977 4.00098 3.99123 4 4.57828 4V2ZM4.13113 5.00008C3.73969 4.56258 3.49273 4.2851 3.33518 4.0736C3.16262 3.84194 3.23064 3.85673 3.23633 4L1.2379 4.07936C1.25786 4.58184 1.5221 4.98756 1.73127 5.26836C1.95546 5.56932 2.27575 5.92584 2.64065 6.33366L4.13113 5.00008ZM1.96293 2.45777C1.48131 2.85544 1.21312 3.45527 1.2379 4.07936L3.23633 4V4L1.96293 2.45777Z" fill="currentColor"/>
</svg>
