<svg width="100%" height="100%" viewBox="0 0 24 24" fill="none" xmlns="http://www.w3.org/2000/svg">
<path d="M21.17 9C21.7223 9 22.17 8.55228 22.17 8C22.17 7.44772 21.7223 7 21.17 7V9ZM4.81575 5.55952C4.53934 5.08138 3.92766 4.91784 3.44952 5.19425C2.97138 5.47066 2.80784 6.08234 3.08425 6.56048L4.81575 5.55952ZM7.67425 14.5005C7.95066 14.9786 8.56234 15.1422 9.04048 14.8657C9.51862 14.5893 9.68216 13.9777 9.40575 13.4995L7.67425 14.5005ZM10.0138 21.4403C9.73782 21.9187 9.90194 22.5303 10.3803 22.8062C10.8587 23.0822 11.4703 22.9181 11.7462 22.4397L10.0138 21.4403ZM16.3262 14.4997C16.6022 14.0213 16.4381 13.4097 15.9597 13.1338C15.4813 12.8578 14.8697 13.0219 14.5938 13.5003L16.3262 14.4997ZM21 12C21 16.9706 16.9706 21 12 21V23C18.0751 23 23 18.0751 23 12H21ZM12 21C7.02944 21 3 16.9706 3 12H1C1 18.0751 5.92487 23 12 23V21ZM3 12C3 7.02944 7.02944 3 12 3V1C5.92487 1 1 5.92487 1 12H3ZM12 3C16.9706 3 21 7.02944 21 12H23C23 5.92487 18.0751 1 12 1V3ZM15 12C15 13.6569 13.6569 15 12 15V17C14.7614 17 17 14.7614 17 12H15ZM12 15C10.3431 15 9 13.6569 9 12H7C7 14.7614 9.23858 17 12 17V15ZM9 12C9 10.3431 10.3431 9 12 9V7C9.23858 7 7 9.23858 7 12H9ZM12 9C13.6569 9 15 10.3431 15 12H17C17 9.23858 14.7614 7 12 7V9ZM21.17 7H12V9H21.17V7ZM3.08425 6.56048L7.67425 14.5005L9.40575 13.4995L4.81575 5.55952L3.08425 6.56048ZM11.7462 22.4397L16.3262 14.4997L14.5938 13.5003L10.0138 21.4403L11.7462 22.4397Z" fill="currentColor"/>
</svg>
