<svg width="100%" height="100%" viewBox="0 0 24 24" fill="none" xmlns="http://www.w3.org/2000/svg">
<path d="M2 14.6H1H2ZM2.10899 13.546L1.21799 13.092L2.10899 13.546ZM3.6 13L3.6 14H3.6V13ZM2.54601 13.109L2.09202 12.218H2.09202L2.54601 13.109ZM3.6 22L3.6 23H3.6V22ZM2.54601 21.891L3 21H3L2.54601 21.891ZM2 20.4H3H2ZM2.10899 21.454L1.21799 21.908L2.10899 21.454ZM5.89101 21.454L6.78201 21.908L5.89101 21.454ZM4.4 22L4.4 21H4.4V22ZM5.45399 21.891L5.90798 22.782L5.45399 21.891ZM5.89101 13.546L6.78201 13.092L5.89101 13.546ZM4.4 13L4.4 12H4.4V13ZM5.45399 13.109L5 14L5.45399 13.109ZM13.2855 17.0498L13.2855 16.0498C12.7332 16.0499 12.2855 16.4976 12.2855 17.0499C12.2855 17.6021 12.7332 18.0498 13.2855 18.0498V17.0498ZM16.9626 16.6449L16.3732 15.837L16.3725 15.8376L16.9626 16.6449ZM19.4771 14.8103L18.888 14.0023L18.8877 14.0025L19.4771 14.8103ZM21.5379 14.9531L20.8406 15.6699L21.5379 14.9531ZM21.5379 17.1217L20.8412 16.4043L20.8406 16.4049L21.5379 17.1217ZM19.3803 19.2205L20.0776 19.9373L19.3803 19.2205ZM17.253 20.3281L17.4439 21.3097L17.4442 21.3097L17.253 20.3281ZM14.2035 20.9214L14.3941 21.9031L14.3944 21.903L14.2035 20.9214ZM12.3769 20.8789L12.6136 19.9073L12.613 19.9072L12.3769 20.8789ZM9.61881 20.2087L9.3804 21.1798L9.38268 21.1804L9.61881 20.2087ZM6 19.0872C5.44772 19.0872 5 19.5349 5 20.0872C5 20.6395 5.44772 21.0872 6 21.0872V19.0872ZM14.8311 17.0498V16.0498H14.831L14.8311 17.0498ZM15.2141 13.7219L14.9778 14.6936L14.9784 14.6937L15.2141 13.7219ZM12.8286 13.1418L13.0649 12.1701L13.0643 12.1699L12.8286 13.1418ZM8.93189 13.7988L9.3177 14.7214C9.32782 14.7172 9.33787 14.7128 9.34784 14.7082L8.93189 13.7988ZM5.61419 14.1023C5.10467 14.3154 4.86435 14.9012 5.07742 15.4107C5.2905 15.9202 5.87628 16.1606 6.38581 15.9475L5.61419 14.1023ZM17.1914 3.59227L16.2891 4.02346C16.4151 4.28717 16.6502 4.48255 16.9326 4.5582C17.2149 4.63385 17.5162 4.58219 17.7572 4.41682L17.1914 3.59227ZM12.5325 5.80284L13.454 5.4145L12.5325 5.80284ZM20.1208 7.83614L20.7247 8.63321L20.1208 7.83614ZM14.5781 9.31905L15.419 8.77784L14.5781 9.31905ZM15.161 10.0469L14.6326 10.896L15.161 10.0469ZM16.5911 9.85845L17.0488 10.7476L16.5911 9.85845ZM15.7224 10.1974L15.6893 9.19792L15.7224 10.1974ZM5 14.6V20.4H7V14.6H5ZM4.4 21H3.6V23H4.4V21ZM3 20.4V14.6H1L1 20.4H3ZM3.6 14H4.4V12H3.6V14ZM3 14.6C3 14.3035 3.00078 14.1412 3.0103 14.0247C3.01887 13.9197 3.0293 13.9425 3 14L1.21799 13.092C1.07969 13.3635 1.03562 13.6332 1.01695 13.8618C0.999222 14.0787 1 14.3365 1 14.6H3ZM3.6 12C3.33648 12 3.07869 11.9992 2.86177 12.017C2.63318 12.0356 2.36344 12.0797 2.09202 12.218L3 14C2.94249 14.0293 2.91972 14.0189 3.02463 14.0103C3.14122 14.0008 3.30347 14 3.6 14L3.6 12ZM3 14H3L2.09202 12.218C1.7157 12.4097 1.40973 12.7157 1.21799 13.092L3 14ZM3.6 21C3.30347 21 3.14122 20.9992 3.02463 20.9897C2.91972 20.9811 2.94249 20.9707 3 21L2.09202 22.782C2.36344 22.9203 2.63318 22.9644 2.86177 22.9831C3.07869 23.0008 3.33647 23 3.6 23L3.6 21ZM1 20.4C1 20.6635 0.999222 20.9213 1.01695 21.1382C1.03562 21.3668 1.07969 21.6366 1.21799 21.908L3 21C3.0293 21.0575 3.01887 21.0803 3.0103 20.9754C3.00078 20.8588 3 20.6965 3 20.4H1ZM3 21H3L1.21799 21.908C1.40973 22.2843 1.7157 22.5903 2.09202 22.782L3 21ZM5 20.4C5 20.6965 4.99922 20.8588 4.9897 20.9754C4.98113 21.0803 4.9707 21.0575 5 21L6.78201 21.908C6.92031 21.6366 6.96438 21.3668 6.98305 21.1382C7.00078 20.9213 7 20.6635 7 20.4H5ZM4.4 23C4.66352 23 4.92131 23.0008 5.13823 22.9831C5.36682 22.9644 5.63655 22.9203 5.90798 22.782L5 21C5.05751 20.9707 5.08028 20.9811 4.97537 20.9897C4.85878 20.9992 4.69653 21 4.4 21L4.4 23ZM5 21V21L5.90798 22.782C6.28431 22.5903 6.59027 22.2843 6.78201 21.908L5 21ZM7 14.6C7 14.3365 7.00078 14.0787 6.98305 13.8618C6.96438 13.6332 6.92031 13.3635 6.78201 13.092L5 14C4.9707 13.9425 4.98113 13.9197 4.9897 14.0247C4.99922 14.1412 5 14.3035 5 14.6H7ZM4.4 14C4.69653 14 4.85878 14.0008 4.97537 14.0103C5.08028 14.0189 5.05751 14.0293 5 14L5.90798 12.218C5.63656 12.0797 5.36683 12.0356 5.13823 12.017C4.92131 11.9992 4.66353 12 4.4 12L4.4 14ZM6.78201 13.092C6.59027 12.7157 6.2843 12.4098 5.90798 12.218L5 14V14L6.78201 13.092ZM13.2855 18.0498H15.7137V16.0498H13.2855V18.0498ZM15.7137 18.0498C16.3733 18.0498 17.0188 17.8425 17.5527 17.4522L16.3725 15.8376C16.1862 15.9737 15.9553 16.0498 15.7137 16.0498V18.0498ZM17.552 17.4527L20.0665 15.6182L18.8877 14.0025L16.3732 15.837L17.552 17.4527ZM20.0663 15.6183C20.3025 15.4461 20.6372 15.4721 20.8406 15.6699L22.2352 14.2363C21.3291 13.3548 19.907 13.2593 18.888 14.0023L20.0663 15.6183ZM20.8406 15.6699C21.0535 15.8769 21.0526 16.1991 20.8412 16.4043L22.2346 17.8391C23.2555 16.8477 23.2546 15.228 22.2352 14.2363L20.8406 15.6699ZM20.8406 16.4049L18.6831 18.5037L20.0776 19.9373L22.2352 17.8385L20.8406 16.4049ZM18.6831 18.5037C18.2436 18.9312 17.6792 19.2263 17.0618 19.3466L17.4442 21.3097C18.4379 21.1161 19.3555 20.6398 20.0776 19.9373L18.6831 18.5037ZM17.062 19.3465L14.0125 19.9398L14.3944 21.903L17.4439 21.3097L17.062 19.3465ZM14.0128 19.9398C13.5491 20.0298 13.0714 20.0188 12.6136 19.9073L12.1402 21.8505C12.8793 22.0305 13.6485 22.0479 14.3941 21.9031L14.0128 19.9398ZM12.613 19.9072L9.85495 19.2369L9.38268 21.1804L12.1408 21.8506L12.613 19.9072ZM9.85723 19.2375C9.44842 19.1371 9.03008 19.0872 8.61029 19.0872V21.0872C8.87117 21.0872 9.12935 21.1182 9.3804 21.1798L9.85723 19.2375ZM8.61029 19.0872H6V21.0872H8.61029V19.0872ZM13.2855 18.0498L14.8311 18.0498L14.831 16.0498L13.2855 16.0498L13.2855 18.0498ZM14.8311 18.0498C16.2283 18.0498 17.4079 16.9415 17.4079 15.5159H15.4079C15.4079 15.7852 15.1761 16.0498 14.8311 16.0498V18.0498ZM17.4079 15.5159V15.2092H15.4079V15.5159H17.4079ZM17.4079 15.2092C17.4079 14.0274 16.5834 13.0249 15.4497 12.75L14.9784 14.6937C15.2477 14.759 15.4079 14.9836 15.4079 15.2092H17.4079ZM15.4504 12.7502L13.0649 12.1701L12.5923 14.1134L14.9778 14.6936L15.4504 12.7502ZM13.0643 12.1699C12.599 12.0571 12.1223 12 11.6431 12V14C11.9633 14 12.2818 14.0381 12.5929 14.1136L13.0643 12.1699ZM11.6431 12C10.9678 12 10.1413 12.2599 9.58833 12.4581C9.28912 12.5653 9.02385 12.6719 8.83353 12.7517C8.73803 12.7917 8.66052 12.8252 8.60606 12.8492C8.5788 12.8612 8.55725 12.8708 8.54204 12.8776C8.53443 12.8811 8.5284 12.8838 8.52403 12.8858C8.52184 12.8868 8.52007 12.8876 8.51872 12.8882C8.51804 12.8885 8.51747 12.8887 8.51701 12.889C8.51678 12.8891 8.51657 12.8892 8.5164 12.8892C8.51631 12.8893 8.51619 12.8893 8.51615 12.8894C8.51604 12.8894 8.51594 12.8894 8.93189 13.7988C9.34784 14.7082 9.34776 14.7083 9.34768 14.7083C9.34766 14.7083 9.34759 14.7083 9.34755 14.7084C9.34748 14.7084 9.34743 14.7084 9.34742 14.7084C9.34738 14.7084 9.34744 14.7084 9.34761 14.7083C9.34795 14.7082 9.34869 14.7078 9.34984 14.7073C9.35213 14.7063 9.35603 14.7045 9.36144 14.7021C9.37228 14.6972 9.3892 14.6897 9.41158 14.6798C9.45639 14.6601 9.52287 14.6313 9.60617 14.5964C9.77345 14.5263 10.0051 14.4333 10.2631 14.3408C10.8245 14.1396 11.3537 14 11.6431 14V12ZM8.54609 12.8763L5.61419 14.1023L6.38581 15.9475L9.3177 14.7214L8.54609 12.8763ZM18.0936 3.16109C17.3016 1.50374 15.3713 0.500895 13.4497 1.41789L14.3111 3.22289C15.0659 2.86271 15.8875 3.18309 16.2891 4.02346L18.0936 3.16109ZM13.4497 1.41789C11.6347 2.28406 10.841 4.36407 11.6109 6.19119L13.454 5.4145C13.1034 4.58272 13.4499 3.6339 14.3111 3.22289L13.4497 1.41789ZM20.7247 8.63321C22.2936 7.44457 22.6915 5.2379 21.5111 3.56885L19.8782 4.72366C20.4197 5.48929 20.2479 6.4853 19.5169 7.03907L20.7247 8.63321ZM21.5111 3.56885C20.2889 1.84068 18.1497 1.72187 16.6256 2.76772L17.7572 4.41682C18.5156 3.8964 19.3786 4.01716 19.8782 4.72366L21.5111 3.56885ZM11.6109 6.19119C11.9983 7.1103 13.0462 8.78663 13.7372 9.86025L15.419 8.77784C14.6953 7.65341 13.7591 6.13865 13.454 5.4145L11.6109 6.19119ZM17.0488 10.7476C18.184 10.1633 19.9297 9.23552 20.7247 8.63321L19.5169 7.03907C18.8906 7.51361 17.3225 8.35736 16.1335 8.9693L17.0488 10.7476ZM13.7372 9.86025C13.8591 10.0497 13.9823 10.2426 14.1023 10.3991C14.2323 10.5686 14.3978 10.7498 14.6326 10.896L15.6893 9.19792C15.7333 9.22527 15.7381 9.24555 15.6896 9.18238C15.6312 9.10617 15.5584 8.99449 15.419 8.77784L13.7372 9.86025ZM16.1335 8.9693C15.9044 9.08721 15.7856 9.14752 15.6969 9.18431C15.6233 9.21481 15.6376 9.19963 15.6893 9.19792L15.7554 11.1968C16.0319 11.1877 16.2658 11.1135 16.4632 11.0317C16.6453 10.9561 16.8485 10.8507 17.0488 10.7476L16.1335 8.9693ZM14.6326 10.896C14.9645 11.1025 15.3648 11.2097 15.7554 11.1968L15.6893 9.19792L15.6893 9.19792L14.6326 10.896Z" fill="currentColor"/>
</svg>
