<svg width="100%" height="100%" viewBox="0 0 24 24" fill="none" xmlns="http://www.w3.org/2000/svg">
<path d="M12 4.92375L11.2388 5.57222C11.4288 5.79526 11.707 5.92375 12 5.92375C12.293 5.92375 12.5712 5.79526 12.7612 5.57222L12 4.92375ZM16.1111 4C18.9244 4 21 6.73389 21 9.48H23C23 5.97111 20.3423 2 16.1111 2V4ZM21 9.48C21 10.8014 20.4869 12.1206 19.632 13.395C18.778 14.6682 17.6187 15.8421 16.4222 16.8505C15.2295 17.8557 14.0269 18.6738 13.1114 19.2403C12.6543 19.5231 12.273 19.7405 12.0057 19.8848C11.8712 19.9574 11.7704 20.0089 11.7061 20.04C11.6904 20.0476 11.6782 20.0534 11.6692 20.0575C11.6597 20.0618 11.6559 20.0634 11.6567 20.0631C11.6573 20.0629 11.6604 20.0616 11.6656 20.0596C11.6703 20.0577 11.6802 20.0539 11.6938 20.0493C11.7056 20.0453 11.7315 20.0368 11.7663 20.0282C11.7854 20.0235 11.8779 20 12 20V22C12.1249 22 12.2213 21.9759 12.2456 21.9699C12.2854 21.9601 12.3177 21.9496 12.3368 21.9431C12.3759 21.9299 12.4098 21.9161 12.4319 21.9068C12.4787 21.8871 12.5289 21.8637 12.5771 21.8404C12.6762 21.7924 12.8047 21.7263 12.9558 21.6447C13.2596 21.4807 13.6749 21.2435 14.1636 20.9411C15.1397 20.3372 16.4261 19.4629 17.7111 18.3798C18.9924 17.2999 20.2998 15.9897 21.293 14.5091C22.2854 13.0297 23 11.3254 23 9.48H21ZM12 20C12.1221 20 12.2146 20.0235 12.2337 20.0282C12.2685 20.0368 12.2944 20.0453 12.3062 20.0493C12.3198 20.0539 12.3297 20.0577 12.3344 20.0596C12.3396 20.0616 12.3427 20.0629 12.3433 20.0631C12.3441 20.0634 12.3403 20.0618 12.3308 20.0575C12.3218 20.0534 12.3096 20.0476 12.2939 20.04C12.2296 20.0089 12.1288 19.9574 11.9943 19.8848C11.727 19.7405 11.3457 19.5231 10.8886 19.2403C9.97307 18.6738 8.7705 17.8557 7.57778 16.8505C6.38131 15.8421 5.222 14.6682 4.36797 13.395C3.51314 12.1206 3 10.8014 3 9.48H1C1 11.3254 1.71464 13.0297 2.70703 14.5091C3.70022 15.9897 5.00758 17.2999 6.28889 18.3798C7.57395 19.4629 8.86027 20.3372 9.83637 20.9411C10.3251 21.2435 10.7404 21.4807 11.0442 21.6447C11.1953 21.7263 11.3238 21.7924 11.4229 21.8404C11.4711 21.8637 11.5213 21.8871 11.5681 21.9068C11.5902 21.9161 11.6241 21.9299 11.6632 21.9431C11.6823 21.9496 11.7146 21.9601 11.7544 21.9699C11.7787 21.9759 11.8751 22 12 22V20ZM3 9.48C3 6.73389 5.0756 4 7.88889 4V2C3.65774 2 1 5.97111 1 9.48H3ZM7.88889 4C9.53014 4 10.5965 4.81824 11.2388 5.57222L12.7612 4.27528C11.8702 3.22926 10.2921 2 7.88889 2V4ZM12.7612 5.57222C13.4035 4.81824 14.4699 4 16.1111 4V2C13.7079 2 12.1298 3.22926 11.2388 4.27528L12.7612 5.57222Z" fill="currentColor"/>
</svg>
