<svg width="100%" height="100%" viewBox="0 0 24 24" fill="none" xmlns="http://www.w3.org/2000/svg">
<path d="M8.65871 4.52093L8.09292 5.34547C8.33392 5.51084 8.63521 5.5625 8.91753 5.48685C9.19985 5.4112 9.43495 5.21583 9.56098 4.95211L8.65871 4.52093ZM16.4236 8.20521L17.3451 8.59356V8.59356L16.4236 8.20521ZM14.6741 9.43496C14.4032 9.91625 14.5738 10.526 15.0551 10.7969C15.5364 11.0678 16.1461 10.8972 16.417 10.4159L14.6741 9.43496ZM3.77629 11.594L4.38017 10.797H4.38017L3.77629 11.594ZM7.51517 14.9707C8.00243 15.2307 8.6082 15.0465 8.86821 14.5592C9.12821 14.072 8.94399 13.4662 8.45674 13.2062L7.51517 14.9707ZM16.2972 11.7499L15.3141 11.9329C15.3675 12.2203 15.5441 12.4698 15.7972 12.616C16.0503 12.7621 16.3547 12.7902 16.6303 12.6928L16.2972 11.7499ZM7.84335 13.299L8.83397 13.1624L7.84335 13.299ZM19.1826 19.8457L18.8056 18.9195L19.1826 19.8457ZM10.1264 21.394L11.0753 21.0784L10.1264 21.394ZM10.3175 21.8206L9.59045 22.5072L10.3175 21.8206ZM11.0306 21.916L11.2317 22.8956L11.0306 21.916ZM10.5655 21.9638L10.3345 22.9368L10.5655 21.9638ZM9.2245 3.69638C6.94905 2.135 3.76097 2.30834 1.99565 4.87799L3.64412 6.01048C4.67739 4.50644 6.56408 4.29641 8.09292 5.34547L9.2245 3.69638ZM14.5953 1.49285C11.77 0.191441 8.95135 1.58936 7.75645 4.08974L9.56098 4.95211C10.3555 3.28963 12.0698 2.53152 13.7586 3.3094L14.5953 1.49285ZM17.3451 8.59356C18.483 5.89341 17.3549 2.76396 14.5953 1.49285L13.7586 3.3094C15.5131 4.11758 16.2317 6.08553 15.5021 7.81687L17.3451 8.59356ZM16.417 10.4159C16.7957 9.74299 17.1301 9.10364 17.3451 8.59356L15.5021 7.81687C15.3324 8.21939 15.0432 8.77907 14.6741 9.43496L16.417 10.4159ZM3.17241 12.3911C4.11635 13.1063 5.90881 14.1135 7.51517 14.9707L8.45674 13.2062C6.82391 12.3349 5.17586 11.3998 4.38017 10.797L3.17241 12.3911ZM1.99565 4.87799C0.297145 7.35037 0.825409 10.613 3.17241 12.3911L4.38017 10.797C2.8941 9.67109 2.54404 7.61179 3.64412 6.01048L1.99565 4.87799ZM17.2803 11.567C16.7754 8.85393 14.3985 6.72219 11.3332 7.29093L11.6981 9.25737C13.4922 8.92448 14.9748 10.1101 15.3141 11.9329L17.2803 11.567ZM11.3332 7.29093C8.38395 7.83815 6.45048 10.5187 6.85272 13.4356L8.83397 13.1624C8.57928 11.3155 9.78789 9.61179 11.6981 9.25737L11.3332 7.29093ZM19.5596 20.7719C22.2735 19.6673 23.6887 16.6567 22.6362 13.8066L20.76 14.4994C21.4292 16.3115 20.5457 18.2112 18.8056 18.9195L19.5596 20.7719ZM22.6362 13.8066C21.5586 10.8885 18.577 9.88395 15.9641 10.8071L16.6303 12.6928C18.3676 12.0791 20.1159 12.7552 20.76 14.4994L22.6362 13.8066ZM6.85272 13.4356C6.99665 14.4793 7.44964 16.151 7.91434 17.7148C8.38618 19.3026 8.89475 20.8594 9.17751 21.7096L11.0753 21.0784C10.7956 20.2373 10.2946 18.7034 9.83148 17.1451C9.36124 15.5626 8.95395 14.0324 8.83397 13.1624L6.85272 13.4356ZM11.2317 22.8956C12.1094 22.7154 13.7119 22.3774 15.3229 21.9921C16.9096 21.6127 18.5838 21.1691 19.5596 20.7719L18.8056 18.9195C17.9921 19.2506 16.4633 19.663 14.8577 20.047C13.2766 20.4251 11.6977 20.7582 10.8295 20.9365L11.2317 22.8956ZM9.17751 21.7096C9.21092 21.81 9.25361 21.9407 9.30139 22.0536C9.35488 22.1799 9.43976 22.3476 9.59045 22.5072L11.0446 21.1341C11.0804 21.172 11.1062 21.2085 11.1233 21.2371C11.139 21.2632 11.1453 21.2789 11.1431 21.2738C11.1407 21.2681 11.1343 21.2521 11.1219 21.2165C11.1094 21.1807 11.0952 21.1382 11.0753 21.0784L9.17751 21.7096ZM10.8295 20.9365C10.7677 20.9491 10.7238 20.9581 10.6866 20.9652C10.6495 20.9722 10.6325 20.9747 10.6263 20.9754C10.6209 20.9761 10.6376 20.9736 10.668 20.9742C10.7013 20.9748 10.7458 20.9788 10.7966 20.9909L10.3345 22.9368C10.548 22.9875 10.7357 22.9771 10.8719 22.9603C10.9935 22.9453 11.128 22.9169 11.2317 22.8956L10.8295 20.9365ZM9.59045 22.5072C9.79054 22.7191 10.051 22.8694 10.3345 22.9368L10.7966 20.9909C10.8925 21.0137 10.9769 21.0624 11.0446 21.1341L9.59045 22.5072Z" fill="currentColor"/>
</svg>
