<svg width="100%" height="100%" viewBox="0 0 24 24" fill="none" xmlns="http://www.w3.org/2000/svg">
<path d="M11.9966 9.06791L11.2367 9.71792C11.4266 9.94003 11.7043 10.0679 11.9966 10.0679C12.2889 10.0679 12.5665 9.94003 12.7565 9.71792L11.9966 9.06791ZM7.6321 12.7802L8.4217 12.1666L7.6321 12.7802ZM16.3611 12.7802L15.5714 12.1666L16.3611 12.7802ZM10.9542 16.0704L11.6252 15.3289L10.9542 16.0704ZM11.7066 16.622L11.9966 15.6649L11.7066 16.622ZM13.0389 16.0704L12.3679 15.3289L13.0389 16.0704ZM12.2866 16.622L12.5766 17.579L12.2866 16.622ZM21 12C21 16.9706 16.9706 21 12 21V23C18.0751 23 23 18.0751 23 12H21ZM12 21C7.02944 21 3 16.9706 3 12H1C1 18.0751 5.92487 23 12 23V21ZM3 12C3 7.02944 7.02944 3 12 3V1C5.92487 1 1 5.92487 1 12H3ZM12 3C16.9706 3 21 7.02944 21 12H23C23 5.92487 18.0751 1 12 1V3ZM12.7565 8.41789C11.4625 6.90514 9.17173 6.40463 7.42775 7.89473L8.72695 9.41528C9.48801 8.76501 10.5313 8.89326 11.2367 9.71792L12.7565 8.41789ZM7.42775 7.89473C5.77348 9.30817 5.52749 11.7017 6.8425 13.3938L8.4217 12.1666C7.76947 11.3273 7.87616 10.1422 8.72695 9.41528L7.42775 7.89473ZM17.1507 13.3938C18.4568 11.713 18.2545 9.29853 16.555 7.88596L15.2766 9.42405C16.1252 10.1293 16.2325 11.3159 15.5714 12.1666L17.1507 13.3938ZM16.555 7.88596C14.7998 6.42711 12.5382 6.89633 11.2367 8.41789L12.7565 9.71792C13.4544 8.90207 14.4837 8.76505 15.2766 9.42405L16.555 7.88596ZM6.8425 13.3938C7.53827 14.2891 9.22841 15.8573 10.2832 16.8118L11.6252 15.3289C10.5228 14.3312 8.98595 12.8927 8.4217 12.1666L6.8425 13.3938ZM13.7099 16.8118C14.7647 15.8573 16.4549 14.2891 17.1507 13.3938L15.5714 12.1666C15.0072 12.8927 13.4704 14.3312 12.3679 15.3289L13.7099 16.8118ZM10.2832 16.8118C10.4505 16.9632 10.6197 17.1173 10.7761 17.2372C10.9454 17.3669 11.1521 17.4989 11.4166 17.579L11.9966 15.6649C12.0464 15.68 12.0562 15.6984 11.9925 15.6496C11.9161 15.591 11.8164 15.5019 11.6252 15.3289L10.2832 16.8118ZM12.3679 15.3289C12.1768 15.5019 12.0771 15.591 12.0006 15.6496C11.937 15.6984 11.9468 15.68 11.9966 15.6649L12.5766 17.579C12.841 17.4989 13.0478 17.3669 13.217 17.2372C13.3735 17.1173 13.5426 16.9632 13.7099 16.8118L12.3679 15.3289ZM11.4166 17.579C11.7902 17.6922 12.2029 17.6922 12.5766 17.579L11.9966 15.6649H11.9966L11.4166 17.579Z" fill="currentColor"/>
</svg>
