<svg width="100%" height="100%" viewBox="0 0 24 24" fill="none" xmlns="http://www.w3.org/2000/svg">
<path d="M2.02763 8.04077L1.05526 7.80732L2.02763 8.04077ZM2.46863 7.39137L1.76152 6.68426H1.76152L2.46863 7.39137ZM2.14736 7.75172L1.29472 7.22922L2.14736 7.75172ZM2.46863 16.6086L1.76152 17.3157H1.76152L2.46863 16.6086ZM2.14736 16.2483L3 15.7258L2.14736 16.2483ZM2.02763 15.9592L1.05526 16.1927L2.02763 15.9592ZM8.04077 21.9724L7.80732 22.9447L8.04077 21.9724ZM7.39137 21.5314L8.09848 20.8243L7.39137 21.5314ZM7.75172 21.8526L7.22922 22.7053L7.75172 21.8526ZM16.2483 21.8526L16.7708 22.7053L16.2483 21.8526ZM15.9592 21.9724L16.1927 22.9447L15.9592 21.9724ZM21.9724 15.9592L22.9447 16.1927L21.9724 15.9592ZM21.8526 16.2483L22.7053 16.7708L21.8526 16.2483ZM21.5314 7.39137L20.8243 8.09848L21.5314 7.39137ZM21.8526 7.75172L22.7053 7.22922L21.8526 7.75172ZM21.9724 8.04077L22.9447 7.80732L21.9724 8.04077ZM15.9592 2.02763L16.1927 1.05526L15.9592 2.02763ZM16.6086 2.46863L17.3157 1.76152V1.76152L16.6086 2.46863ZM16.2483 2.14736L15.7258 3L16.2483 2.14736ZM8.04077 2.02763L7.80732 1.05526L8.04077 2.02763ZM7.39137 2.46863L8.09848 3.17574V3.17574L7.39137 2.46863ZM7.75172 2.14736L7.22922 1.29472L7.75172 2.14736ZM11.9966 9.06791L11.2367 9.71792C11.4266 9.94003 11.7043 10.0679 11.9966 10.0679C12.2889 10.0679 12.5665 9.94003 12.7565 9.71792L11.9966 9.06791ZM7.6321 12.7802L8.4217 12.1666L7.6321 12.7802ZM16.3611 12.7802L15.5714 12.1666L16.3611 12.7802ZM10.9542 16.0704L11.6252 15.3289L10.9542 16.0704ZM11.7066 16.622L11.9966 15.6649L11.7066 16.622ZM13.0389 16.0704L12.3679 15.3289L13.0389 16.0704ZM12.2866 16.622L12.5766 17.579L12.2866 16.622ZM8.52274 3H15.4773V1H8.52274V3ZM15.9015 3.17574L20.8243 8.09848L22.2385 6.68426L17.3157 1.76152L15.9015 3.17574ZM21 8.52274V15.4773H23V8.52274H21ZM20.8243 15.9015L15.9015 20.8243L17.3157 22.2385L22.2385 17.3157L20.8243 15.9015ZM15.4773 21H8.52274V23H15.4773V21ZM8.09848 20.8243L3.17574 15.9015L1.76152 17.3157L6.68426 22.2385L8.09848 20.8243ZM3 15.4773V8.52274H1V15.4773H3ZM3.17574 8.09848L8.09848 3.17574L6.68426 1.76152L1.76152 6.68426L3.17574 8.09848ZM3 8.52274C3 8.39174 3.00024 8.32636 3.00241 8.27887C3.00416 8.24056 3.00602 8.24912 3 8.27421L1.05526 7.80732C0.993573 8.06427 1 8.32575 1 8.52274H3ZM1.76152 6.68426C1.62223 6.82356 1.43279 7.00391 1.29472 7.22922L3 8.27421C2.98652 8.29622 2.97915 8.30095 3.005 8.27263C3.03704 8.23751 3.08311 8.19111 3.17574 8.09848L1.76152 6.68426ZM3 8.27421V8.27421L1.29472 7.22922C1.18506 7.40816 1.10425 7.60325 1.05526 7.80732L3 8.27421ZM3.17574 15.9015C3.08311 15.8089 3.03704 15.7625 3.005 15.7274C2.97915 15.699 2.98652 15.7038 3 15.7258L1.29472 16.7708C1.43279 16.9961 1.62223 17.1764 1.76152 17.3157L3.17574 15.9015ZM1 15.4773C1 15.6743 0.993573 15.9357 1.05526 16.1927L3 15.7258C3.00602 15.7509 3.00416 15.7594 3.00241 15.7211C3.00024 15.6736 3 15.6083 3 15.4773H1ZM3 15.7258L1.05526 16.1927C1.10425 16.3967 1.18506 16.5918 1.29472 16.7708L3 15.7258ZM8.52274 21C8.39174 21 8.32636 20.9998 8.27887 20.9976C8.24056 20.9958 8.24912 20.994 8.27421 21L7.80732 22.9447C8.06427 23.0064 8.32575 23 8.52274 23V21ZM6.68426 22.2385C6.82356 22.3778 7.00391 22.5672 7.22922 22.7053L8.27421 21C8.29622 21.0135 8.30095 21.0209 8.27263 20.995C8.23751 20.963 8.19111 20.9169 8.09848 20.8243L6.68426 22.2385ZM8.27421 21H8.27421L7.22922 22.7053C7.40816 22.8149 7.60325 22.8957 7.80732 22.9447L8.27421 21ZM15.9015 20.8243C15.8089 20.9169 15.7625 20.963 15.7274 20.995C15.699 21.0209 15.7038 21.0135 15.7258 21L16.7708 22.7053C16.9961 22.5672 17.1764 22.3778 17.3157 22.2385L15.9015 20.8243ZM15.4773 23C15.6742 23 15.9357 23.0064 16.1927 22.9447L15.7258 21C15.7509 20.994 15.7594 20.9958 15.7211 20.9976C15.6736 20.9998 15.6083 21 15.4773 21V23ZM15.7258 21L16.1927 22.9447C16.3968 22.8957 16.5918 22.8149 16.7708 22.7053L15.7258 21ZM21 15.4773C21 15.6083 20.9998 15.6736 20.9976 15.7211C20.9958 15.7594 20.994 15.7509 21 15.7258L22.9447 16.1927C23.0064 15.9357 23 15.6742 23 15.4773H21ZM22.2385 17.3157C22.3778 17.1764 22.5672 16.9961 22.7053 16.7708L21 15.7258C21.0135 15.7038 21.0209 15.699 20.995 15.7274C20.963 15.7625 20.9169 15.8089 20.8243 15.9015L22.2385 17.3157ZM21 15.7258L22.7053 16.7708C22.8149 16.5918 22.8957 16.3968 22.9447 16.1927L21 15.7258ZM20.8243 8.09848C20.9169 8.19111 20.963 8.23751 20.995 8.27263C21.0209 8.30095 21.0135 8.29622 21 8.27421L22.7053 7.22922C22.5672 7.00391 22.3778 6.82356 22.2385 6.68426L20.8243 8.09848ZM23 8.52274C23 8.32575 23.0064 8.06427 22.9447 7.80732L21 8.27421C20.994 8.24912 20.9958 8.24056 20.9976 8.27887C20.9998 8.32636 21 8.39174 21 8.52274H23ZM21 8.27421V8.27421L22.9447 7.80732C22.8957 7.60325 22.8149 7.40816 22.7053 7.22922L21 8.27421ZM15.4773 3C15.6083 3 15.6736 3.00024 15.7211 3.00241C15.7594 3.00416 15.7509 3.00602 15.7258 3L16.1927 1.05526C15.9357 0.993573 15.6743 1 15.4773 1V3ZM17.3157 1.76152C17.1764 1.62223 16.9961 1.43279 16.7708 1.29472L15.7258 3C15.7038 2.98652 15.699 2.97915 15.7274 3.005C15.7625 3.03704 15.8089 3.0831 15.9015 3.17574L17.3157 1.76152ZM15.7258 3L16.7708 1.29472C16.5918 1.18506 16.3967 1.10425 16.1927 1.05526L15.7258 3ZM8.52274 1C8.32575 1 8.06427 0.993573 7.80732 1.05526L8.27421 3C8.24912 3.00602 8.24056 3.00416 8.27887 3.00241C8.32636 3.00024 8.39174 3 8.52274 3V1ZM8.09848 3.17574C8.19111 3.0831 8.23751 3.03704 8.27263 3.005C8.30095 2.97915 8.29622 2.98652 8.27421 3L7.22922 1.29472C7.00391 1.43279 6.82356 1.62223 6.68426 1.76152L8.09848 3.17574ZM7.80732 1.05526C7.60325 1.10425 7.40816 1.18506 7.22922 1.29472L8.27421 3H8.27421L7.80732 1.05526ZM12.7565 8.41789C11.4625 6.90514 9.17173 6.40463 7.42775 7.89473L8.72695 9.41528C9.48801 8.76501 10.5313 8.89326 11.2367 9.71792L12.7565 8.41789ZM7.42775 7.89473C5.77348 9.30817 5.52749 11.7017 6.8425 13.3938L8.4217 12.1666C7.76947 11.3273 7.87616 10.1422 8.72695 9.41528L7.42775 7.89473ZM17.1507 13.3938C18.4568 11.713 18.2545 9.29853 16.555 7.88596L15.2766 9.42405C16.1252 10.1293 16.2325 11.3159 15.5714 12.1666L17.1507 13.3938ZM16.555 7.88596C14.7998 6.42711 12.5382 6.89633 11.2367 8.41789L12.7565 9.71792C13.4544 8.90207 14.4837 8.76505 15.2766 9.42405L16.555 7.88596ZM6.8425 13.3938C7.53827 14.2891 9.22841 15.8573 10.2832 16.8118L11.6252 15.3289C10.5228 14.3312 8.98595 12.8927 8.4217 12.1666L6.8425 13.3938ZM13.7099 16.8118C14.7647 15.8573 16.4549 14.2891 17.1507 13.3938L15.5714 12.1666C15.0072 12.8927 13.4704 14.3312 12.3679 15.3289L13.7099 16.8118ZM10.2832 16.8118C10.4505 16.9632 10.6197 17.1173 10.7761 17.2372C10.9454 17.3669 11.1521 17.4989 11.4166 17.579L11.9966 15.6649C12.0464 15.68 12.0562 15.6984 11.9925 15.6496C11.9161 15.591 11.8164 15.5019 11.6252 15.3289L10.2832 16.8118ZM12.3679 15.3289C12.1768 15.5019 12.0771 15.591 12.0006 15.6496C11.937 15.6984 11.9468 15.68 11.9966 15.6649L12.5766 17.579C12.841 17.4989 13.0478 17.3669 13.217 17.2372C13.3735 17.1173 13.5426 16.9632 13.7099 16.8118L12.3679 15.3289ZM11.4166 17.579C11.7902 17.6922 12.2029 17.6922 12.5766 17.579L11.9966 15.6649H11.9966L11.4166 17.579Z" fill="currentColor"/>
</svg>
