<svg width="100%" height="100%" viewBox="0 0 24 24" fill="none" xmlns="http://www.w3.org/2000/svg">
<path d="M8.14663 8.66811C7.96336 9.1891 8.23713 9.76001 8.75812 9.94329C9.27911 10.1266 9.85003 9.85278 10.0333 9.3318L8.14663 8.66811ZM14.92 9.99995L13.92 9.99846V9.99995H14.92ZM11.6037 12.0513C11.0798 12.2259 10.7966 12.7922 10.9713 13.3162C11.1459 13.8401 11.7122 14.1233 12.2362 13.9486L11.6037 12.0513ZM12 16C11.4477 16 11 16.4477 11 17C11 17.5522 11.4477 18 12 18V16ZM12.01 18C12.5623 18 13.01 17.5522 13.01 17C13.01 16.4477 12.5623 16 12.01 16V18ZM3.05048 7.27464L2.10097 6.96092L3.05048 7.27464ZM3.82297 6.54276L3.33733 5.6686L3.82297 6.54276ZM3.26463 6.9107L4 7.58837L3.26463 6.9107ZM3.82297 17.4572L3.33733 18.3313H3.33733L3.82297 17.4572ZM3.26463 17.0892L4 16.4116L3.26463 17.0892ZM3.05048 16.7253L2.10097 17.039H2.10097L3.05048 16.7253ZM12.777 21.5683L12.2914 20.6941L12.777 21.5683ZM12.2015 21.8355L12 20.856L12.2015 21.8355ZM11.223 21.5683L11.7086 20.6941L11.223 21.5683ZM11.7985 21.8355L11.5971 22.815L11.7985 21.8355ZM20.9495 16.7253L21.899 17.039L20.9495 16.7253ZM20.177 17.4572L20.6627 18.3313L20.177 17.4572ZM20.7354 17.0892L20 16.4116L20.7354 17.0892ZM20.177 6.54276L20.6627 5.6686V5.6686L20.177 6.54276ZM20.7354 6.9107L20 7.58837L20.7354 6.9107ZM20.9495 7.27464L21.899 6.96092L20.9495 7.27464ZM12.777 2.43164L12.2914 3.3058L12.777 2.43164ZM12.2015 2.16442L12 3.14392L12.2015 2.16442ZM11.223 2.43164L10.7373 1.55749L11.223 2.43164ZM11.7985 2.16442L11.5971 1.18492L11.7985 2.16442ZM10.0333 9.3318C10.19 8.88624 10.4994 8.51053 10.9066 8.27122L9.89324 6.54695C9.07883 7.02558 8.4601 7.777 8.14663 8.66811L10.0333 9.3318ZM10.9066 8.27122C11.3138 8.0319 11.7926 7.94442 12.2581 8.02427L12.5962 6.05306C11.6652 5.89336 10.7076 6.06832 9.89324 6.54695L10.9066 8.27122ZM12.2581 8.02427C12.7236 8.10412 13.1458 8.34614 13.45 8.70748L14.9801 7.41948C14.3717 6.69681 13.5272 6.21276 12.5962 6.05306L12.2581 8.02427ZM13.45 8.70748C13.7542 9.06882 13.9207 9.52614 13.92 9.99846L15.92 10.0014C15.9214 9.0568 15.5884 8.14215 14.9801 7.41948L13.45 8.70748ZM13.92 9.99995C13.92 10.4691 13.5549 10.9582 12.8653 11.4179C12.5509 11.6275 12.2294 11.7889 11.9826 11.8986C11.8606 11.9529 11.7603 11.9929 11.6929 12.0186C11.6592 12.0314 11.634 12.0405 11.6186 12.046C11.611 12.0487 11.6058 12.0506 11.6032 12.0514C11.6019 12.0519 11.6013 12.0521 11.6014 12.052C11.6014 12.052 11.6017 12.052 11.602 12.0518C11.6022 12.0518 11.6025 12.0517 11.6028 12.0516C11.6029 12.0515 11.6031 12.0515 11.6032 12.0514C11.6035 12.0514 11.6037 12.0513 11.92 13C12.2362 13.9486 12.2365 13.9485 12.2368 13.9484C12.2369 13.9484 12.2372 13.9483 12.2374 13.9482C12.2379 13.9481 12.2384 13.9479 12.239 13.9477C12.2401 13.9473 12.2414 13.9469 12.2429 13.9464C12.2458 13.9454 12.2495 13.9441 12.2539 13.9426C12.2627 13.9396 12.2744 13.9355 12.2887 13.9304C12.3172 13.9203 12.3565 13.906 12.4049 13.8876C12.5015 13.8508 12.6356 13.797 12.7949 13.7263C13.1105 13.586 13.539 13.3724 13.9747 13.082C14.7851 12.5417 15.92 11.5308 15.92 9.99995H13.92ZM12 18H12.01V16H12V18ZM12.2914 3.3058L19.6914 7.41691L20.6627 5.6686L13.2627 1.55749L12.2914 3.3058ZM20 7.94141V16.0585H22V7.94141H20ZM19.6914 16.583L12.2914 20.6941L13.2627 22.4424L20.6627 18.3313L19.6914 16.583ZM11.7086 20.6941L4.30861 16.583L3.33733 18.3313L10.7373 22.4424L11.7086 20.6941ZM4 16.0585V7.94141H2V16.0585H4ZM4.30861 7.41691L11.7086 3.3058L10.7373 1.55749L3.33733 5.6686L4.30861 7.41691ZM4 7.94141C4 7.75843 4.00042 7.66478 4.0045 7.59696C4.00789 7.54068 4.01163 7.55318 4 7.58837L2.10097 6.96092C1.988 7.30285 2 7.66759 2 7.94141H4ZM3.33733 5.6686C3.09797 5.80158 2.7733 5.96822 2.52927 6.23303L4 7.58837C3.97489 7.61562 3.96214 7.61842 4.0097 7.58812C4.067 7.55162 4.14866 7.50578 4.30861 7.41691L3.33733 5.6686ZM4 7.58837V7.58837L2.52927 6.23303C2.33632 6.44241 2.19029 6.69057 2.10097 6.96092L4 7.58837ZM4.30861 16.583C4.14866 16.4941 4.067 16.4483 4.0097 16.4118C3.96214 16.3815 3.97489 16.3843 4 16.4116L2.52927 17.7669C2.7733 18.0317 3.09797 18.1983 3.33733 18.3313L4.30861 16.583ZM2 16.0585C2 16.3323 1.988 16.6971 2.10097 17.039L4 16.4116C4.01163 16.4467 4.00789 16.4592 4.0045 16.403C4.00042 16.3351 4 16.2415 4 16.0585H2ZM4 16.4116V16.4116L2.10097 17.039C2.19029 17.3094 2.33632 17.5575 2.52927 17.7669L4 16.4116ZM12.2914 20.6941C12.1398 20.7783 12.0625 20.8209 12.0048 20.8487C11.9572 20.8717 11.9658 20.863 12 20.856L12.4029 22.815C12.7388 22.7459 13.0357 22.5685 13.2627 22.4424L12.2914 20.6941ZM10.7373 22.4424C10.9643 22.5685 11.2612 22.7459 11.5971 22.815L12 20.856C12.0342 20.863 12.0428 20.8717 11.9952 20.8487C11.9375 20.8209 11.8602 20.7783 11.7086 20.6941L10.7373 22.4424ZM12 20.856L11.5971 22.815C11.8629 22.8697 12.1371 22.8697 12.4029 22.815L12 20.856ZM20 16.0585C20 16.2415 19.9996 16.3351 19.9955 16.403C19.9921 16.4593 19.9884 16.4467 20 16.4116L21.899 17.039C22.012 16.6971 22 16.3323 22 16.0585H20ZM20.6627 18.3313C20.902 18.1983 21.2267 18.0317 21.4707 17.7669L20 16.4116C20.0251 16.3843 20.0379 16.3815 19.9903 16.4118C19.933 16.4483 19.8513 16.4941 19.6914 16.583L20.6627 18.3313ZM20 16.4116L20 16.4116L21.4707 17.7669C21.6637 17.5575 21.8097 17.3094 21.899 17.039L20 16.4116ZM19.6914 7.41691C19.8513 7.50577 19.933 7.55162 19.9903 7.58812C20.0379 7.61842 20.0251 7.61561 20 7.58837L21.4707 6.23303C21.2267 5.96822 20.902 5.80158 20.6627 5.6686L19.6914 7.41691ZM22 7.94141C22 7.66759 22.012 7.30285 21.899 6.96092L20 7.58837C19.9884 7.55318 19.9921 7.54067 19.9955 7.59696C19.9996 7.66477 20 7.75843 20 7.94141H22ZM20 7.58837L20 7.58837L21.899 6.96092C21.8097 6.69057 21.6637 6.4424 21.4707 6.23303L20 7.58837ZM13.2627 1.55749C13.0357 1.43138 12.7388 1.25401 12.4029 1.18492L12 3.14392C11.9658 3.13689 11.9572 3.12827 12.0048 3.15124C12.0625 3.17907 12.1398 3.22161 12.2914 3.3058L13.2627 1.55749ZM11.7086 3.3058C11.8602 3.22161 11.9375 3.17907 11.9952 3.15124C12.0428 3.12827 12.0342 3.13689 12 3.14392L11.5971 1.18492C11.2612 1.25401 10.9643 1.43138 10.7373 1.55749L11.7086 3.3058ZM12.4029 1.18492C12.1371 1.13025 11.8629 1.13025 11.5971 1.18492L12 3.14392L12.4029 1.18492Z" fill="currentColor"/>
</svg>
