<svg width="100%" height="100%" viewBox="0 0 24 24" fill="none" xmlns="http://www.w3.org/2000/svg">
<path d="M3.05048 7.27464L2.10097 6.96092L3.05048 7.27464ZM3.82297 6.54276L3.33733 5.6686L3.82297 6.54276ZM3.26463 6.9107L4 7.58837L3.26463 6.9107ZM3.82297 17.4572L3.33733 18.3313H3.33733L3.82297 17.4572ZM3.26463 17.0892L4 16.4116L3.26463 17.0892ZM3.05048 16.7253L2.10097 17.039H2.10097L3.05048 16.7253ZM12.777 21.5683L12.2914 20.6941L12.777 21.5683ZM12.2015 21.8355L12 20.856L12.2015 21.8355ZM11.223 21.5683L11.7086 20.6941L11.223 21.5683ZM11.7985 21.8355L11.5971 22.815L11.7985 21.8355ZM20.9495 16.7253L21.899 17.039L20.9495 16.7253ZM20.177 17.4572L20.6627 18.3313L20.177 17.4572ZM20.7354 17.0892L20 16.4116L20.7354 17.0892ZM20.177 6.54276L20.6627 5.6686V5.6686L20.177 6.54276ZM20.7354 6.9107L20 7.58837L20.7354 6.9107ZM20.9495 7.27464L21.899 6.96092L20.9495 7.27464ZM12.777 2.43164L12.2914 3.3058L12.777 2.43164ZM12.2015 2.16442L12 3.14392L12.2015 2.16442ZM11.223 2.43164L10.7373 1.55749L11.223 2.43164ZM11.7985 2.16442L11.5971 1.18492L11.7985 2.16442ZM11.9966 9.06787L11.2367 9.71788C11.4266 9.94 11.7043 10.0679 11.9966 10.0679C12.2889 10.0679 12.5665 9.94 12.7565 9.71788L11.9966 9.06787ZM7.6321 12.7802L8.4217 12.1665L7.6321 12.7802ZM16.3611 12.7802L15.5714 12.1665L16.3611 12.7802ZM10.9542 16.0703L11.6252 15.3289L10.9542 16.0703ZM11.7066 16.6219L11.9966 15.6649L11.7066 16.6219ZM13.0389 16.0703L12.3679 15.3289L13.0389 16.0703ZM12.2866 16.6219L12.5766 17.579L12.2866 16.6219ZM12.2914 3.3058L19.6914 7.41691L20.6627 5.6686L13.2627 1.55749L12.2914 3.3058ZM20 7.94141V16.0585H22V7.94141H20ZM19.6914 16.583L12.2914 20.6941L13.2627 22.4424L20.6627 18.3313L19.6914 16.583ZM11.7086 20.6941L4.30861 16.583L3.33733 18.3313L10.7373 22.4424L11.7086 20.6941ZM4 16.0585V7.94141H2V16.0585H4ZM4.30861 7.41691L11.7086 3.3058L10.7373 1.55749L3.33733 5.6686L4.30861 7.41691ZM4 7.94141C4 7.75843 4.00042 7.66478 4.0045 7.59696C4.00789 7.54068 4.01163 7.55318 4 7.58837L2.10097 6.96092C1.988 7.30285 2 7.66759 2 7.94141H4ZM3.33733 5.6686C3.09797 5.80158 2.7733 5.96822 2.52927 6.23303L4 7.58837C3.97489 7.61562 3.96214 7.61842 4.0097 7.58812C4.067 7.55162 4.14866 7.50578 4.30861 7.41691L3.33733 5.6686ZM4 7.58837V7.58837L2.52927 6.23303C2.33632 6.44241 2.19029 6.69057 2.10097 6.96092L4 7.58837ZM4.30861 16.583C4.14866 16.4941 4.067 16.4483 4.0097 16.4118C3.96214 16.3815 3.97489 16.3843 4 16.4116L2.52927 17.7669C2.7733 18.0317 3.09797 18.1983 3.33733 18.3313L4.30861 16.583ZM2 16.0585C2 16.3323 1.988 16.6971 2.10097 17.039L4 16.4116C4.01163 16.4467 4.00789 16.4592 4.0045 16.403C4.00042 16.3351 4 16.2415 4 16.0585H2ZM4 16.4116V16.4116L2.10097 17.039C2.19029 17.3094 2.33632 17.5575 2.52927 17.7669L4 16.4116ZM12.2914 20.6941C12.1398 20.7783 12.0625 20.8209 12.0048 20.8487C11.9572 20.8717 11.9658 20.863 12 20.856L12.4029 22.815C12.7388 22.7459 13.0357 22.5685 13.2627 22.4424L12.2914 20.6941ZM10.7373 22.4424C10.9643 22.5685 11.2612 22.7459 11.5971 22.815L12 20.856C12.0342 20.863 12.0428 20.8717 11.9952 20.8487C11.9375 20.8209 11.8602 20.7783 11.7086 20.6941L10.7373 22.4424ZM12 20.856L11.5971 22.815C11.8629 22.8697 12.1371 22.8697 12.4029 22.815L12 20.856ZM20 16.0585C20 16.2415 19.9996 16.3351 19.9955 16.403C19.9921 16.4593 19.9884 16.4467 20 16.4116L21.899 17.039C22.012 16.6971 22 16.3323 22 16.0585H20ZM20.6627 18.3313C20.902 18.1983 21.2267 18.0317 21.4707 17.7669L20 16.4116C20.0251 16.3843 20.0379 16.3815 19.9903 16.4118C19.933 16.4483 19.8513 16.4941 19.6914 16.583L20.6627 18.3313ZM20 16.4116L20 16.4116L21.4707 17.7669C21.6637 17.5575 21.8097 17.3094 21.899 17.039L20 16.4116ZM19.6914 7.41691C19.8513 7.50577 19.933 7.55162 19.9903 7.58812C20.0379 7.61842 20.0251 7.61561 20 7.58837L21.4707 6.23303C21.2267 5.96822 20.902 5.80158 20.6627 5.6686L19.6914 7.41691ZM22 7.94141C22 7.66759 22.012 7.30285 21.899 6.96092L20 7.58837C19.9884 7.55318 19.9921 7.54067 19.9955 7.59696C19.9996 7.66477 20 7.75843 20 7.94141H22ZM20 7.58837L20 7.58837L21.899 6.96092C21.8097 6.69057 21.6637 6.4424 21.4707 6.23303L20 7.58837ZM13.2627 1.55749C13.0357 1.43138 12.7388 1.25401 12.4029 1.18492L12 3.14392C11.9658 3.13689 11.9572 3.12827 12.0048 3.15124C12.0625 3.17907 12.1398 3.22161 12.2914 3.3058L13.2627 1.55749ZM11.7086 3.3058C11.8602 3.22161 11.9375 3.17907 11.9952 3.15124C12.0428 3.12827 12.0342 3.13689 12 3.14392L11.5971 1.18492C11.2612 1.25401 10.9643 1.43138 10.7373 1.55749L11.7086 3.3058ZM12.4029 1.18492C12.1371 1.13025 11.8629 1.13025 11.5971 1.18492L12 3.14392L12.4029 1.18492ZM12.7565 8.41786C11.4625 6.9051 9.17173 6.40459 7.42775 7.89469L8.72695 9.41525C9.48801 8.76497 10.5313 8.89322 11.2367 9.71788L12.7565 8.41786ZM7.42775 7.89469C5.77348 9.30813 5.52749 11.7016 6.8425 13.3938L8.4217 12.1665C7.76947 11.3273 7.87616 10.1422 8.72695 9.41525L7.42775 7.89469ZM17.1507 13.3938C18.4568 11.713 18.2545 9.29849 16.555 7.88592L15.2766 9.42402C16.1252 10.1293 16.2325 11.3159 15.5714 12.1665L17.1507 13.3938ZM16.555 7.88592C14.7998 6.42707 12.5382 6.89629 11.2367 8.41786L12.7565 9.71788C13.4544 8.90203 14.4837 8.76501 15.2766 9.42402L16.555 7.88592ZM6.8425 13.3938C7.53827 14.2891 9.22841 15.8572 10.2832 16.8118L11.6252 15.3289C10.5228 14.3312 8.98595 12.8926 8.4217 12.1665L6.8425 13.3938ZM13.7099 16.8118C14.7647 15.8572 16.4549 14.2891 17.1507 13.3938L15.5714 12.1665C15.0072 12.8926 13.4704 14.3312 12.3679 15.3289L13.7099 16.8118ZM10.2832 16.8118C10.4505 16.9632 10.6197 17.1173 10.7761 17.2372C10.9454 17.3668 11.1521 17.4988 11.4166 17.579L11.9966 15.6649C12.0464 15.68 12.0562 15.6984 11.9925 15.6496C11.9161 15.591 11.8164 15.5019 11.6252 15.3289L10.2832 16.8118ZM12.3679 15.3289C12.1768 15.5019 12.0771 15.591 12.0006 15.6496C11.937 15.6984 11.9468 15.68 11.9966 15.6649L12.5766 17.579C12.841 17.4988 13.0478 17.3668 13.217 17.2372C13.3735 17.1173 13.5426 16.9632 13.7099 16.8118L12.3679 15.3289ZM11.4166 17.579C11.7902 17.6922 12.2029 17.6922 12.5766 17.579L11.9966 15.6649H11.9966L11.4166 17.579Z" fill="currentColor"/>
</svg>
