<svg width="100%" height="100%" viewBox="0 0 24 24" fill="none" xmlns="http://www.w3.org/2000/svg">
<path d="M8.14667 8.66816C7.96339 9.18915 8.23717 9.76006 8.75816 9.94333C9.27915 10.1266 9.85006 9.85283 10.0333 9.33184L8.14667 8.66816ZM14.92 10L13.92 9.99851V10H14.92ZM11.6038 12.0513C11.0798 12.226 10.7967 12.7923 10.9713 13.3162C11.146 13.8402 11.7123 14.1233 12.2362 13.9487L11.6038 12.0513ZM12 16C11.4477 16 11 16.4477 11 17C11 17.5523 11.4477 18 12 18V16ZM12.01 18C12.5623 18 13.01 17.5523 13.01 17C13.01 16.4477 12.5623 16 12.01 16V18ZM21 12C21 16.9706 16.9706 21 12 21V23C18.0751 23 23 18.0751 23 12H21ZM12 21C7.02944 21 3 16.9706 3 12H1C1 18.0751 5.92487 23 12 23V21ZM3 12C3 7.02944 7.02944 3 12 3V1C5.92487 1 1 5.92487 1 12H3ZM12 3C16.9706 3 21 7.02944 21 12H23C23 5.92487 18.0751 1 12 1V3ZM10.0333 9.33184C10.1901 8.88629 10.4994 8.51058 10.9066 8.27127L9.89327 6.547C9.07887 7.02563 8.46014 7.77705 8.14667 8.66816L10.0333 9.33184ZM10.9066 8.27127C11.3138 8.03195 11.7926 7.94447 12.2581 8.02432L12.5962 6.05311C11.6652 5.89341 10.7077 6.06837 9.89327 6.547L10.9066 8.27127ZM12.2581 8.02432C12.7236 8.10417 13.1459 8.34619 13.4501 8.70753L14.9801 7.41953C14.3718 6.69686 13.5273 6.2128 12.5962 6.05311L12.2581 8.02432ZM13.4501 8.70753C13.7542 9.06886 13.9207 9.52619 13.92 9.99851L15.92 10.0015C15.9214 9.05685 15.5884 8.1422 14.9801 7.41953L13.4501 8.70753ZM13.92 10C13.92 10.4691 13.5549 10.9582 12.8653 11.4179C12.5509 11.6275 12.2294 11.789 11.9826 11.8987C11.8606 11.9529 11.7603 11.9929 11.6929 12.0186C11.6593 12.0314 11.6341 12.0406 11.6187 12.0461C11.611 12.0488 11.6058 12.0506 11.6032 12.0515C11.602 12.0519 11.6014 12.0521 11.6014 12.0521C11.6015 12.0521 11.6017 12.052 11.6021 12.0519C11.6023 12.0518 11.6025 12.0517 11.6028 12.0516C11.6029 12.0516 11.6032 12.0515 11.6032 12.0515C11.6035 12.0514 11.6038 12.0513 11.92 13C12.2362 13.9487 12.2365 13.9486 12.2368 13.9485C12.2369 13.9484 12.2372 13.9483 12.2375 13.9483C12.2379 13.9481 12.2385 13.9479 12.239 13.9478C12.2401 13.9474 12.2414 13.9469 12.2429 13.9464C12.2459 13.9454 12.2496 13.9442 12.254 13.9427C12.2628 13.9396 12.2744 13.9356 12.2887 13.9305C12.3173 13.9203 12.3565 13.9061 12.4049 13.8876C12.5015 13.8508 12.6356 13.7971 12.7949 13.7263C13.1106 13.586 13.5391 13.3725 13.9747 13.0821C14.7851 12.5418 15.92 11.5309 15.92 10H13.92ZM12 18H12.01V16H12V18Z" fill="currentColor"/>
</svg>
