<svg width="100%" height="100%" viewBox="0 0 24 24" fill="none" xmlns="http://www.w3.org/2000/svg">
<path d="M8.14667 8.66816C7.96339 9.18915 8.23717 9.76006 8.75816 9.94333C9.27915 10.1266 9.85006 9.85283 10.0333 9.33184L8.14667 8.66816ZM14.92 10L13.92 9.99851V10H14.92ZM11.6038 12.0513C11.0798 12.226 10.7967 12.7923 10.9713 13.3162C11.146 13.8402 11.7123 14.1233 12.2362 13.9487L11.6038 12.0513ZM12 16C11.4477 16 11 16.4477 11 17C11 17.5523 11.4477 18 12 18V16ZM12.01 18C12.5623 18 13.01 17.5523 13.01 17C13.01 16.4477 12.5623 16 12.01 16V18ZM4.63803 20.673L4.18404 21.564L4.63803 20.673ZM3.32698 19.362L2.43597 19.816L3.32698 19.362ZM20.673 19.362L21.564 19.816L20.673 19.362ZM19.362 20.673L19.816 21.564L19.362 20.673ZM19.362 3.32698L19.816 2.43597L19.362 3.32698ZM20.673 4.63803L21.564 4.18404L20.673 4.63803ZM4.63803 3.32698L4.18404 2.43597L4.63803 3.32698ZM3.32698 4.63803L2.43597 4.18404L3.32698 4.63803ZM10.0333 9.33184C10.1901 8.88629 10.4994 8.51058 10.9066 8.27127L9.89327 6.547C9.07887 7.02563 8.46014 7.77705 8.14667 8.66816L10.0333 9.33184ZM10.9066 8.27127C11.3138 8.03195 11.7926 7.94447 12.2581 8.02432L12.5962 6.05311C11.6652 5.89341 10.7077 6.06837 9.89327 6.547L10.9066 8.27127ZM12.2581 8.02432C12.7236 8.10417 13.1459 8.34619 13.4501 8.70753L14.9801 7.41953C14.3718 6.69686 13.5273 6.2128 12.5962 6.05311L12.2581 8.02432ZM13.4501 8.70753C13.7542 9.06886 13.9207 9.52619 13.92 9.99851L15.92 10.0015C15.9214 9.05685 15.5884 8.1422 14.9801 7.41953L13.4501 8.70753ZM13.92 10C13.92 10.4691 13.5549 10.9582 12.8653 11.4179C12.5509 11.6275 12.2294 11.789 11.9826 11.8987C11.8606 11.9529 11.7603 11.9929 11.6929 12.0186C11.6593 12.0314 11.6341 12.0406 11.6187 12.0461C11.611 12.0488 11.6058 12.0506 11.6032 12.0515C11.602 12.0519 11.6014 12.0521 11.6014 12.0521C11.6015 12.0521 11.6017 12.052 11.6021 12.0519C11.6023 12.0518 11.6025 12.0517 11.6028 12.0516C11.6029 12.0516 11.6032 12.0515 11.6032 12.0515C11.6035 12.0514 11.6038 12.0513 11.92 13C12.2362 13.9487 12.2365 13.9486 12.2368 13.9485C12.2369 13.9484 12.2372 13.9483 12.2375 13.9483C12.2379 13.9481 12.2385 13.9479 12.239 13.9478C12.2401 13.9474 12.2414 13.9469 12.2429 13.9464C12.2459 13.9454 12.2496 13.9442 12.254 13.9427C12.2628 13.9396 12.2744 13.9356 12.2887 13.9305C12.3173 13.9203 12.3565 13.9061 12.4049 13.8876C12.5015 13.8508 12.6356 13.7971 12.7949 13.7263C13.1106 13.586 13.5391 13.3725 13.9747 13.0821C14.7851 12.5418 15.92 11.5309 15.92 10H13.92ZM12 18H12.01V16H12V18ZM7.8 4H16.2V2H7.8V4ZM20 7.8V16.2H22V7.8H20ZM16.2 20H7.8V22H16.2V20ZM4 16.2V7.8H2V16.2H4ZM7.8 20C6.94342 20 6.36113 19.9992 5.91104 19.9624C5.47262 19.9266 5.24842 19.8617 5.09202 19.782L4.18404 21.564C4.66937 21.8113 5.18608 21.9099 5.74817 21.9558C6.2986 22.0008 6.97642 22 7.8 22V20ZM2 16.2C2 17.0236 1.99922 17.7014 2.04419 18.2518C2.09012 18.8139 2.18868 19.3306 2.43597 19.816L4.21799 18.908C4.1383 18.7516 4.07337 18.5274 4.03755 18.089C4.00078 17.6389 4 17.0566 4 16.2H2ZM5.09202 19.782C4.7157 19.5903 4.40973 19.2843 4.21799 18.908L2.43597 19.816C2.81947 20.5686 3.43139 21.1805 4.18404 21.564L5.09202 19.782ZM20 16.2C20 17.0566 19.9992 17.6389 19.9624 18.089C19.9266 18.5274 19.8617 18.7516 19.782 18.908L21.564 19.816C21.8113 19.3306 21.9099 18.8139 21.9558 18.2518C22.0008 17.7014 22 17.0236 22 16.2H20ZM16.2 22C17.0236 22 17.7014 22.0008 18.2518 21.9558C18.8139 21.9099 19.3306 21.8113 19.816 21.564L18.908 19.782C18.7516 19.8617 18.5274 19.9266 18.089 19.9624C17.6389 19.9992 17.0566 20 16.2 20V22ZM19.782 18.908C19.5903 19.2843 19.2843 19.5903 18.908 19.782L19.816 21.564C20.5686 21.1805 21.1805 20.5686 21.564 19.816L19.782 18.908ZM16.2 4C17.0566 4 17.6389 4.00078 18.089 4.03755C18.5274 4.07337 18.7516 4.1383 18.908 4.21799L19.816 2.43597C19.3306 2.18868 18.8139 2.09012 18.2518 2.04419C17.7014 1.99922 17.0236 2 16.2 2V4ZM22 7.8C22 6.97642 22.0008 6.2986 21.9558 5.74817C21.9099 5.18608 21.8113 4.66937 21.564 4.18404L19.782 5.09202C19.8617 5.24842 19.9266 5.47262 19.9624 5.91104C19.9992 6.36113 20 6.94342 20 7.8H22ZM18.908 4.21799C19.2843 4.40973 19.5903 4.7157 19.782 5.09202L21.564 4.18404C21.1805 3.43139 20.5686 2.81947 19.816 2.43597L18.908 4.21799ZM7.8 2C6.97642 2 6.2986 1.99922 5.74817 2.04419C5.18608 2.09012 4.66937 2.18868 4.18404 2.43597L5.09202 4.21799C5.24842 4.1383 5.47262 4.07337 5.91104 4.03755C6.36113 4.00078 6.94342 4 7.8 4V2ZM4 7.8C4 6.94342 4.00078 6.36113 4.03755 5.91104C4.07337 5.47262 4.1383 5.24842 4.21799 5.09202L2.43597 4.18404C2.18868 4.66937 2.09012 5.18608 2.04419 5.74817C1.99922 6.2986 2 6.97642 2 7.8H4ZM4.18404 2.43597C3.43139 2.81947 2.81947 3.43139 2.43597 4.18404L4.21799 5.09202C4.40973 4.71569 4.71569 4.40973 5.09202 4.21799L4.18404 2.43597Z" fill="currentColor"/>
</svg>
