<svg width="100%" height="100%" viewBox="0 0 24 24" fill="none" xmlns="http://www.w3.org/2000/svg">
<path d="M11.0177 2.764L10.4038 1.97465L11.0177 2.764ZM11.7387 2.3016L11.4773 1.33636L11.7387 2.3016ZM12.9823 2.764L13.5962 1.97465V1.97465L12.9823 2.764ZM12.2613 2.3016L12.5227 1.33636L12.2613 2.3016ZM4.09202 20.782L4.54601 19.891L4.09202 20.782ZM3.21799 19.908L4.10899 19.454L3.21799 19.908ZM20.782 19.908L19.891 19.454L20.782 19.908ZM19.908 20.782L19.454 19.891L19.908 20.782ZM20.926 9.43905L19.963 9.7086L20.926 9.43905ZM19.7646 8.03913L19.1507 8.82848V8.82848L19.7646 8.03913ZM20.608 8.78886L19.804 9.3835L20.608 8.78886ZM3.07403 9.43905L4.03701 9.7086L3.07403 9.43905ZM4.23539 8.03912L3.62145 7.24977L4.23539 8.03912ZM3.39203 8.78886L4.19601 9.3835L3.39203 8.78886ZM20 10.5651V17.8H22V10.5651H20ZM17.8 20H6.2V22H17.8V20ZM4 17.8V10.5651H2V17.8H4ZM4.84933 8.82848L11.6316 3.55335L10.4038 1.97465L3.62145 7.24977L4.84933 8.82848ZM12.3684 3.55335L19.1507 8.82848L20.3786 7.24977L13.5962 1.97465L12.3684 3.55335ZM11.6316 3.55335C11.8185 3.40798 11.9175 3.33174 11.9927 3.28153C12.0574 3.23832 12.0479 3.25389 12 3.26685L11.4773 1.33636C11.042 1.45422 10.6821 1.75817 10.4038 1.97465L11.6316 3.55335ZM13.5962 1.97465C13.3179 1.75817 12.958 1.45422 12.5227 1.33636L12 3.26685C11.9521 3.25389 11.9426 3.23832 12.0073 3.28153C12.0825 3.33174 12.1815 3.40798 12.3684 3.55335L13.5962 1.97465ZM12 3.26685L12.5227 1.33636C12.1804 1.24368 11.8196 1.24368 11.4773 1.33636L12 3.26685ZM6.2 20C5.62345 20 5.25117 19.9992 4.96784 19.9761C4.69617 19.9539 4.59545 19.9162 4.54601 19.891L3.63803 21.673C4.01641 21.8658 4.40963 21.9371 4.80497 21.9694C5.18864 22.0008 5.65645 22 6.2 22V20ZM2 17.8C2 18.3435 1.99922 18.8113 2.03057 19.195C2.06287 19.5904 2.13419 19.9836 2.32698 20.362L4.10899 19.454C4.0838 19.4045 4.04612 19.3038 4.02393 19.0321C4.00078 18.7488 4 18.3765 4 17.8H2ZM4.54601 19.891C4.35785 19.7951 4.20487 19.6421 4.10899 19.454L2.32698 20.362C2.6146 20.9264 3.07354 21.3854 3.63803 21.673L4.54601 19.891ZM20 17.8C20 18.3765 19.9992 18.7488 19.9761 19.0321C19.9539 19.3038 19.9162 19.4045 19.891 19.454L21.673 20.362C21.8658 19.9836 21.9371 19.5904 21.9694 19.195C22.0008 18.8113 22 18.3435 22 17.8H20ZM17.8 22C18.3436 22 18.8114 22.0008 19.195 21.9694C19.5904 21.9371 19.9836 21.8658 20.362 21.673L19.454 19.891C19.4045 19.9162 19.3038 19.9539 19.0322 19.9761C18.7488 19.9992 18.3766 20 17.8 20V22ZM19.891 19.454C19.7951 19.6421 19.6422 19.7951 19.454 19.891L20.362 21.673C20.9265 21.3854 21.3854 20.9264 21.673 20.362L19.891 19.454ZM22 10.5651C22 10.0473 22.0087 9.59724 21.889 9.1695L19.963 9.7086C19.9913 9.8098 20 9.93406 20 10.5651H22ZM19.1507 8.82848C19.6487 9.21587 19.7415 9.29901 19.804 9.3835L21.412 8.19421C21.1478 7.8371 20.7872 7.56762 20.3786 7.24977L19.1507 8.82848ZM21.889 9.1695C21.7906 8.8181 21.629 8.48759 21.412 8.19421L19.804 9.3835C19.8763 9.4813 19.9302 9.59147 19.963 9.7086L21.889 9.1695ZM4 10.5651C4 9.93406 4.00869 9.8098 4.03701 9.7086L2.11104 9.1695C1.99131 9.59724 2 10.0473 2 10.5651H4ZM3.62145 7.24977C3.21279 7.56762 2.85217 7.8371 2.58804 8.19421L4.19601 9.3835C4.2585 9.29901 4.35126 9.21587 4.84933 8.82848L3.62145 7.24977ZM4.03701 9.7086C4.0698 9.59147 4.12368 9.4813 4.19601 9.3835L2.58804 8.19421C2.37105 8.48759 2.2094 8.8181 2.11104 9.1695L4.03701 9.7086Z" fill="currentColor"/>
</svg>
