<svg width="100%" height="100%" viewBox="0 0 24 24" fill="none" xmlns="http://www.w3.org/2000/svg">
<path d="M8 21C8 21.5523 8.44772 22 9 22C9.55229 22 10 21.5523 10 21H8ZM14 21C14 21.5523 14.4477 22 15 22C15.5523 22 16 21.5523 16 21H14ZM14.454 12.109L14 13L14.454 12.109ZM14.891 12.546L14 13L14.891 12.546ZM9.109 12.546L10 13L9.109 12.546ZM9.54601 12.109L10 13L9.54601 12.109ZM4 8L3.4 7.2C3.1482 7.38885 3 7.68524 3 8H4ZM20 8H21C21 7.68524 20.8518 7.38885 20.6 7.2L20 8ZM10.08 3.44L10.68 4.24L10.08 3.44ZM11.4909 2.56589L11.2363 1.59884L11.4909 2.56589ZM13.92 3.44L13.32 4.24L13.92 3.44ZM12.5091 2.56589L12.7637 1.59884L12.5091 2.56589ZM5.09202 20.782L5.54601 19.891L5.09202 20.782ZM4.21799 19.908L5.109 19.454L4.21799 19.908ZM19.782 19.908L18.891 19.454L19.782 19.908ZM18.908 20.782L18.454 19.891L18.908 20.782ZM1.4 8.7C0.958172 9.03137 0.868629 9.65817 1.2 10.1C1.53137 10.5418 2.15817 10.6314 2.6 10.3L1.4 8.7ZM11.04 2.72L11.64 3.52L11.64 3.52L11.04 2.72ZM12.96 2.72L12.36 3.52V3.52L12.96 2.72ZM21.4 10.3C21.8418 10.6314 22.4686 10.5418 22.8 10.1C23.1314 9.65817 23.0418 9.03137 22.6 8.7L21.4 10.3ZM11.7454 2.28294L12 3.25V3.25L11.7454 2.28294ZM12.2546 2.28295L12 3.25L12 3.25L12.2546 2.28295ZM10 21V13.6H8V21H10ZM10.6 13H13.4V11H10.6V13ZM14 13.6V21H16V13.6H14ZM13.4 13C13.6965 13 13.8588 13.0008 13.9754 13.0103C14.0803 13.0189 14.0575 13.0293 14 13L14.908 11.218C14.6366 11.0797 14.3668 11.0356 14.1382 11.0169C13.9213 10.9992 13.6635 11 13.4 11V13ZM16 13.6C16 13.3365 16.0008 13.0787 15.9831 12.8618C15.9644 12.6332 15.9203 12.3634 15.782 12.092L14 13C13.9707 12.9425 13.9811 12.9197 13.9897 13.0246C13.9992 13.1412 14 13.3035 14 13.6H16ZM14 13V13L15.782 12.092C15.5903 11.7157 15.2843 11.4097 14.908 11.218L14 13ZM10 13.6C10 13.3035 10.0008 13.1412 10.0103 13.0246C10.0189 12.9197 10.0293 12.9425 10 13L8.21799 12.092C8.07969 12.3634 8.03563 12.6332 8.01695 12.8618C7.99923 13.0787 8 13.3365 8 13.6H10ZM10.6 11C10.3365 11 10.0787 10.9992 9.86177 11.0169C9.63318 11.0356 9.36345 11.0797 9.09202 11.218L10 13C9.94249 13.0293 9.91973 13.0189 10.0246 13.0103C10.1412 13.0008 10.3035 13 10.6 13V11ZM10 13V13L9.09202 11.218C8.7157 11.4097 8.40974 11.7157 8.21799 12.092L10 13ZM19 8V17.8H21V8H19ZM16.8 20H7.2V22H16.8V20ZM5 17.8V8H3V17.8H5ZM4.6 8.8L10.68 4.24L9.48 2.64L3.4 7.2L4.6 8.8ZM13.32 4.24L19.4 8.8L20.6 7.2L14.52 2.64L13.32 4.24ZM10.68 4.24C11.4397 3.67022 11.6024 3.57061 11.7454 3.53295L11.2363 1.59884C10.6232 1.76023 10.0973 2.17701 9.48 2.64L10.68 4.24ZM14.52 2.64C13.9027 2.17701 13.3768 1.76023 12.7637 1.59884L12.2546 3.53295C12.3976 3.57061 12.5603 3.67022 13.32 4.24L14.52 2.64ZM11.7454 3.53295C11.9123 3.48902 12.0877 3.48902 12.2546 3.53295L12.7637 1.59884C12.2631 1.46706 11.7369 1.46706 11.2363 1.59884L11.7454 3.53295ZM7.2 20C6.62345 20 6.25118 19.9992 5.96784 19.9761C5.69618 19.9539 5.59546 19.9162 5.54601 19.891L4.63803 21.673C5.01641 21.8658 5.40963 21.9371 5.80498 21.9694C6.18865 22.0008 6.65645 22 7.2 22V20ZM3 17.8C3 18.3436 2.99923 18.8114 3.03057 19.195C3.06287 19.5904 3.13419 19.9836 3.32698 20.362L5.109 19.454C5.0838 19.4045 5.04613 19.3038 5.02393 19.0322C5.00078 18.7488 5 18.3766 5 17.8H3ZM5.54601 19.891C5.35785 19.7951 5.20487 19.6422 5.109 19.454L3.32698 20.362C3.61461 20.9265 4.07355 21.3854 4.63803 21.673L5.54601 19.891ZM19 17.8C19 18.3766 18.9992 18.7488 18.9761 19.0322C18.9539 19.3038 18.9162 19.4045 18.891 19.454L20.673 20.362C20.8658 19.9836 20.9371 19.5904 20.9694 19.195C21.0008 18.8114 21 18.3436 21 17.8H19ZM16.8 22C17.3436 22 17.8114 22.0008 18.195 21.9694C18.5904 21.9371 18.9836 21.8658 19.362 21.673L18.454 19.891C18.4046 19.9162 18.3038 19.9539 18.0322 19.9761C17.7488 19.9992 17.3766 20 16.8 20V22ZM18.891 19.454C18.7951 19.6422 18.6422 19.7951 18.454 19.891L19.362 21.673C19.9265 21.3854 20.3854 20.9265 20.673 20.362L18.891 19.454ZM2.6 10.3L11.64 3.52L10.44 1.92L1.4 8.7L2.6 10.3ZM12.36 3.52L21.4 10.3L22.6 8.7L13.56 1.92L12.36 3.52ZM11.64 3.52C11.8233 3.38256 11.9199 3.31082 11.993 3.26362C12.0557 3.22321 12.0462 3.23785 12 3.25L11.4909 1.31589C11.0668 1.42752 10.7131 1.7152 10.44 1.92L11.64 3.52ZM13.56 1.92C13.2869 1.7152 12.9332 1.42752 12.5091 1.31589L12 3.25C11.9538 3.23785 11.9443 3.22321 12.007 3.26362C12.0801 3.31082 12.1767 3.38256 12.36 3.52L13.56 1.92ZM12 3.25H12L12.5091 1.31589C12.1754 1.22804 11.8246 1.22804 11.4909 1.31589L12 3.25Z" fill="currentColor"/>
</svg>
