<svg width="100%" height="100%" viewBox="0 0 24 24" fill="none" xmlns="http://www.w3.org/2000/svg">
<path d="M3.05048 7.27464L2.10097 6.96092L3.05048 7.27464ZM3.82297 6.54276L3.33733 5.6686L3.82297 6.54276ZM3.26463 6.9107L4 7.58837L3.26463 6.9107ZM3.82297 17.4572L3.33733 18.3313H3.33733L3.82297 17.4572ZM3.26463 17.0892L4 16.4116L3.26463 17.0892ZM3.05048 16.7253L2.10097 17.039H2.10097L3.05048 16.7253ZM12.777 21.5683L12.2914 20.6941L12.777 21.5683ZM12.2015 21.8355L12 20.856L12.2015 21.8355ZM11.223 21.5683L11.7086 20.6941L11.223 21.5683ZM11.7985 21.8355L11.5971 22.815L11.7985 21.8355ZM20.9495 16.7253L21.899 17.039L20.9495 16.7253ZM20.177 17.4572L20.6627 18.3313L20.177 17.4572ZM20.7354 17.0892L20 16.4116L20.7354 17.0892ZM20.177 6.54276L20.6627 5.6686V5.6686L20.177 6.54276ZM20.7354 6.9107L20 7.58837L20.7354 6.9107ZM20.9495 7.27464L21.899 6.96092L20.9495 7.27464ZM12.777 2.43164L12.2914 3.3058L12.777 2.43164ZM12.2015 2.16442L12 3.14392L12.2015 2.16442ZM11.223 2.43164L10.7373 1.55749L11.223 2.43164ZM11.7985 2.16442L11.5971 1.18492L11.7985 2.16442ZM11 16C11 16.5522 11.4477 17 12 17C12.5523 17 13 16.5522 13 16H11ZM13 12C13 11.4477 12.5523 11 12 11C11.4477 11 11 11.4477 11 12H13ZM12 6.99996C11.4477 6.99996 11 7.44768 11 7.99996C11 8.55225 11.4477 8.99996 12 8.99996V6.99996ZM12.01 8.99996C12.5623 8.99996 13.01 8.55225 13.01 7.99996C13.01 7.44768 12.5623 6.99996 12.01 6.99996V8.99996ZM12.2914 3.3058L19.6914 7.41691L20.6627 5.6686L13.2627 1.55749L12.2914 3.3058ZM20 7.94141V16.0585H22V7.94141H20ZM19.6914 16.583L12.2914 20.6941L13.2627 22.4424L20.6627 18.3313L19.6914 16.583ZM11.7086 20.6941L4.30861 16.583L3.33733 18.3313L10.7373 22.4424L11.7086 20.6941ZM4 16.0585V7.94141H2V16.0585H4ZM4.30861 7.41691L11.7086 3.3058L10.7373 1.55749L3.33733 5.6686L4.30861 7.41691ZM4 7.94141C4 7.75843 4.00042 7.66478 4.0045 7.59696C4.00789 7.54068 4.01163 7.55318 4 7.58837L2.10097 6.96092C1.988 7.30285 2 7.66759 2 7.94141H4ZM3.33733 5.6686C3.09797 5.80158 2.7733 5.96822 2.52927 6.23303L4 7.58837C3.97489 7.61562 3.96214 7.61842 4.0097 7.58812C4.067 7.55162 4.14866 7.50578 4.30861 7.41691L3.33733 5.6686ZM4 7.58837V7.58837L2.52927 6.23303C2.33632 6.44241 2.19029 6.69057 2.10097 6.96092L4 7.58837ZM4.30861 16.583C4.14866 16.4941 4.067 16.4483 4.0097 16.4118C3.96214 16.3815 3.97489 16.3843 4 16.4116L2.52927 17.7669C2.7733 18.0317 3.09797 18.1983 3.33733 18.3313L4.30861 16.583ZM2 16.0585C2 16.3323 1.988 16.6971 2.10097 17.039L4 16.4116C4.01163 16.4467 4.00789 16.4592 4.0045 16.403C4.00042 16.3351 4 16.2415 4 16.0585H2ZM4 16.4116V16.4116L2.10097 17.039C2.19029 17.3094 2.33632 17.5575 2.52927 17.7669L4 16.4116ZM12.2914 20.6941C12.1398 20.7783 12.0625 20.8209 12.0048 20.8487C11.9572 20.8717 11.9658 20.863 12 20.856L12.4029 22.815C12.7388 22.7459 13.0357 22.5685 13.2627 22.4424L12.2914 20.6941ZM10.7373 22.4424C10.9643 22.5685 11.2612 22.7459 11.5971 22.815L12 20.856C12.0342 20.863 12.0428 20.8717 11.9952 20.8487C11.9375 20.8209 11.8602 20.7783 11.7086 20.6941L10.7373 22.4424ZM12 20.856L11.5971 22.815C11.8629 22.8697 12.1371 22.8697 12.4029 22.815L12 20.856ZM20 16.0585C20 16.2415 19.9996 16.3351 19.9955 16.403C19.9921 16.4593 19.9884 16.4467 20 16.4116L21.899 17.039C22.012 16.6971 22 16.3323 22 16.0585H20ZM20.6627 18.3313C20.902 18.1983 21.2267 18.0317 21.4707 17.7669L20 16.4116C20.0251 16.3843 20.0379 16.3815 19.9903 16.4118C19.933 16.4483 19.8513 16.4941 19.6914 16.583L20.6627 18.3313ZM20 16.4116L20 16.4116L21.4707 17.7669C21.6637 17.5575 21.8097 17.3094 21.899 17.039L20 16.4116ZM19.6914 7.41691C19.8513 7.50577 19.933 7.55162 19.9903 7.58812C20.0379 7.61842 20.0251 7.61561 20 7.58837L21.4707 6.23303C21.2267 5.96822 20.902 5.80158 20.6627 5.6686L19.6914 7.41691ZM22 7.94141C22 7.66759 22.012 7.30285 21.899 6.96092L20 7.58837C19.9884 7.55318 19.9921 7.54067 19.9955 7.59696C19.9996 7.66477 20 7.75843 20 7.94141H22ZM20 7.58837L20 7.58837L21.899 6.96092C21.8097 6.69057 21.6637 6.4424 21.4707 6.23303L20 7.58837ZM13.2627 1.55749C13.0357 1.43138 12.7388 1.25401 12.4029 1.18492L12 3.14392C11.9658 3.13689 11.9572 3.12827 12.0048 3.15124C12.0625 3.17907 12.1398 3.22161 12.2914 3.3058L13.2627 1.55749ZM11.7086 3.3058C11.8602 3.22161 11.9375 3.17907 11.9952 3.15124C12.0428 3.12827 12.0342 3.13689 12 3.14392L11.5971 1.18492C11.2612 1.25401 10.9643 1.43138 10.7373 1.55749L11.7086 3.3058ZM12.4029 1.18492C12.1371 1.13025 11.8629 1.13025 11.5971 1.18492L12 3.14392L12.4029 1.18492ZM13 16V12H11V16H13ZM12 8.99996H12.01V6.99996H12V8.99996Z" fill="currentColor"/>
</svg>
