<svg width="100%" height="100%" viewBox="0 0 24 24" fill="none" xmlns="http://www.w3.org/2000/svg">
<path d="M8.42915 9.84339C8.81968 10.2339 9.45284 10.2339 9.84337 9.84339C10.2339 9.45287 10.2339 8.8197 9.84337 8.42918L8.42915 9.84339ZM5.63604 4.22185C5.24551 3.83132 4.61235 3.83132 4.22183 4.22185C3.8313 4.61237 3.8313 5.24554 4.22183 5.63606L5.63604 4.22185ZM4.22183 18.364C3.8313 18.7545 3.8313 19.3877 4.22183 19.7782C4.61235 20.1687 5.24551 20.1687 5.63604 19.7782L4.22183 18.364ZM9.87508 15.5392C10.2656 15.1486 10.2656 14.5155 9.87508 14.1249C9.48455 13.7344 8.85139 13.7344 8.46086 14.1249L9.87508 15.5392ZM15.5682 14.1567C15.1777 13.7661 14.5445 13.7661 14.154 14.1567C13.7634 14.5472 13.7634 15.1803 14.154 15.5709L15.5682 14.1567ZM18.3613 19.7782C18.7518 20.1687 19.385 20.1687 19.7755 19.7782C20.166 19.3877 20.166 18.7545 19.7755 18.364L18.3613 19.7782ZM19.7755 5.63606C20.166 5.24554 20.166 4.61237 19.7755 4.22185C19.385 3.83132 18.7518 3.83132 18.3613 4.22185L19.7755 5.63606ZM14.1216 8.46151C13.7311 8.85203 13.7311 9.4852 14.1216 9.87572C14.5122 10.2662 15.1453 10.2662 15.5358 9.87572L14.1216 8.46151ZM9.84337 8.42918L5.63604 4.22185L4.22183 5.63606L8.42915 9.84339L9.84337 8.42918ZM5.63604 19.7782L9.87508 15.5392L8.46086 14.1249L4.22183 18.364L5.63604 19.7782ZM14.154 15.5709L18.3613 19.7782L19.7755 18.364L15.5682 14.1567L14.154 15.5709ZM18.3613 4.22185L14.1216 8.46151L15.5358 9.87572L19.7755 5.63606L18.3613 4.22185ZM21 12C21 16.9706 16.9706 21 12 21V23C18.0751 23 23 18.0751 23 12H21ZM12 21C7.02944 21 3 16.9706 3 12H1C1 18.0751 5.92487 23 12 23V21ZM3 12C3 7.02944 7.02944 3 12 3V1C5.92487 1 1 5.92487 1 12H3ZM12 3C16.9706 3 21 7.02944 21 12H23C23 5.92487 18.0751 1 12 1V3ZM15 12C15 13.6569 13.6569 15 12 15V17C14.7614 17 17 14.7614 17 12H15ZM12 15C10.3431 15 9 13.6569 9 12H7C7 14.7614 9.23858 17 12 17V15ZM9 12C9 10.3431 10.3431 9 12 9V7C9.23858 7 7 9.23858 7 12H9ZM12 9C13.6569 9 15 10.3431 15 12H17C17 9.23858 14.7614 7 12 7V9Z" fill="currentColor"/>
</svg>
