<svg width="100%" height="100%" viewBox="0 0 24 24" fill="none" xmlns="http://www.w3.org/2000/svg">
<path d="M7.75735 9.17158C8.14787 9.56211 8.78104 9.56211 9.17156 9.17158C9.56209 8.78106 9.56209 8.14789 9.17156 7.75737L7.75735 9.17158ZM5.63604 4.22185C5.24551 3.83132 4.61235 3.83132 4.22182 4.22185C3.8313 4.61237 3.8313 5.24554 4.22182 5.63606L5.63604 4.22185ZM4.22182 18.364C3.8313 18.7545 3.8313 19.3877 4.22182 19.7782C4.61235 20.1687 5.24551 20.1687 5.63604 19.7782L4.22182 18.364ZM9.17158 16.2427C9.56211 15.8521 9.56211 15.219 9.17158 14.8284C8.78106 14.4379 8.1479 14.4379 7.75737 14.8284L9.17158 16.2427ZM16.2427 14.8284C15.8521 14.4379 15.219 14.4379 14.8284 14.8284C14.4379 15.2189 14.4379 15.8521 14.8284 16.2426L16.2427 14.8284ZM18.364 19.7782C18.7545 20.1687 19.3876 20.1687 19.7782 19.7782C20.1687 19.3876 20.1687 18.7545 19.7782 18.3639L18.364 19.7782ZM19.7782 5.63602C20.1687 5.24549 20.1687 4.61233 19.7782 4.2218C19.3876 3.83128 18.7545 3.83128 18.364 4.2218L19.7782 5.63602ZM14.8284 7.75735C14.4379 8.14787 14.4379 8.78104 14.8284 9.17156C15.2189 9.56209 15.8521 9.56209 16.2426 9.17156L14.8284 7.75735ZM9.17156 7.75737L5.63604 4.22185L4.22182 5.63606L7.75735 9.17158L9.17156 7.75737ZM5.63604 19.7782L9.17158 16.2427L7.75737 14.8284L4.22182 18.364L5.63604 19.7782ZM14.8284 16.2426L18.364 19.7782L19.7782 18.3639L16.2427 14.8284L14.8284 16.2426ZM18.364 4.2218L14.8284 7.75735L16.2426 9.17156L19.7782 5.63602L18.364 4.2218ZM21 12C21 16.9706 16.9706 21 12 21V23C18.0751 23 23 18.0751 23 12H21ZM12 21C7.02944 21 3 16.9706 3 12H1C1 18.0751 5.92487 23 12 23V21ZM3 12C3 7.02944 7.02944 3 12 3V1C5.92487 1 1 5.92487 1 12H3ZM12 3C16.9706 3 21 7.02944 21 12H23C23 5.92487 18.0751 1 12 1V3ZM16 12C16 14.2091 14.2091 16 12 16V18C15.3137 18 18 15.3137 18 12H16ZM12 16C9.79086 16 8 14.2091 8 12H6C6 15.3137 8.68629 18 12 18V16ZM8 12C8 9.79086 9.79086 8 12 8V6C8.68629 6 6 8.68629 6 12H8ZM12 8C14.2091 8 16 9.79086 16 12H18C18 8.68629 15.3137 6 12 6V8Z" fill="currentColor"/>
</svg>
