<svg width="100%" height="100%" viewBox="0 0 24 24" fill="none" xmlns="http://www.w3.org/2000/svg">
<path d="M7.79289 14.7929C7.40237 15.1834 7.40237 15.8166 7.79289 16.2071C8.18342 16.5976 8.81658 16.5976 9.20711 16.2071L7.79289 14.7929ZM16.2071 9.20708C16.5976 8.81656 16.5976 8.1834 16.2071 7.79287C15.8166 7.40235 15.1834 7.40235 14.7929 7.79287L16.2071 9.20708ZM8 4C8 4.55228 8.44772 5 9 5C9.55228 5 10 4.55228 10 4H8ZM10 2C10 1.44772 9.55228 1 9 1C8.44772 1 8 1.44772 8 2H10ZM16 20C16 19.4477 15.5523 19 15 19C14.4477 19 14 19.4477 14 20H16ZM14 22C14 22.5523 14.4477 23 15 23C15.5523 23 16 22.5523 16 22H14ZM4 10C4.55228 10 5 9.55228 5 9C5 8.44772 4.55228 8 4 8V10ZM2 8C1.44772 8 1 8.44772 1 9C1 9.55228 1.44772 10 2 10V8ZM20 14C19.4477 14 19 14.4477 19 15C19 15.5523 19.4477 16 20 16V14ZM22 16C22.5523 16 23 15.5523 23 15C23 14.4477 22.5523 14 22 14V16ZM4.20711 5.62132C4.59763 6.01184 5.2308 6.01184 5.62132 5.62132C6.01184 5.2308 6.01184 4.59763 5.62132 4.20711L4.20711 5.62132ZM4.20711 2.79289C3.81658 2.40237 3.18342 2.40237 2.79289 2.79289C2.40237 3.18342 2.40237 3.81658 2.79289 4.20711L4.20711 2.79289ZM19.7929 18.3786C19.4024 17.9881 18.7692 17.9881 18.3787 18.3786C17.9882 18.7691 17.9882 19.4023 18.3787 19.7928L19.7929 18.3786ZM19.7929 21.207C20.1834 21.5975 20.8166 21.5975 21.2071 21.207C21.5977 20.8165 21.5977 20.1833 21.2071 19.7928L19.7929 21.207ZM12.7071 18.3639C13.0977 17.9733 13.0977 17.3402 12.7071 16.9497C12.3166 16.5591 11.6835 16.5591 11.2929 16.9497L12.7071 18.3639ZM9.87871 19.7781L9.17161 19.071L9.17161 19.071L9.87871 19.7781ZM4.22186 14.1212L4.92897 14.8283L4.22186 14.1212ZM7.05029 12.707C7.44081 12.3165 7.44081 11.6833 7.05029 11.2928C6.65976 10.9023 6.0266 10.9023 5.63607 11.2928L7.05029 12.707ZM16.9498 11.2928C16.5593 11.6833 16.5593 12.3165 16.9498 12.707C17.3403 13.0975 17.9735 13.0975 18.364 12.707L16.9498 11.2928ZM19.7782 9.87859L20.4853 10.5857L19.7782 9.87859ZM14.1214 4.22174L13.4142 3.51463V3.51463L14.1214 4.22174ZM11.2929 5.63595C10.9024 6.02648 10.9024 6.65964 11.2929 7.05017C11.6835 7.44069 12.3166 7.44069 12.7071 7.05016L11.2929 5.63595ZM19.7782 4.22174L20.4853 3.51463V3.51463L19.7782 4.22174ZM4.22186 19.7781L4.92897 19.071H4.92897L4.22186 19.7781ZM9.20711 16.2071L16.2071 9.20708L14.7929 7.79287L7.79289 14.7929L9.20711 16.2071ZM10 4V2H8V4H10ZM14 20V22H16V20H14ZM4 8H2V10H4V8ZM20 16H22V14H20V16ZM5.62132 4.20711L4.20711 2.79289L2.79289 4.20711L4.20711 5.62132L5.62132 4.20711ZM18.3787 19.7928L19.7929 21.207L21.2071 19.7928L19.7929 18.3786L18.3787 19.7928ZM11.2929 16.9497L9.17161 19.071L10.5858 20.4852L12.7071 18.3639L11.2929 16.9497ZM4.92897 14.8283L7.05029 12.707L5.63607 11.2928L3.51475 13.4141L4.92897 14.8283ZM18.364 12.707L20.4853 10.5857L19.0711 9.17148L16.9498 11.2928L18.364 12.707ZM13.4142 3.51463L11.2929 5.63595L12.7071 7.05016L14.8285 4.92884L13.4142 3.51463ZM20.4853 10.5857C22.4379 8.63308 22.4379 5.46725 20.4853 3.51463L19.0711 4.92884C20.2427 6.10042 20.2427 7.99991 19.0711 9.17148L20.4853 10.5857ZM4.92897 19.071C3.75739 17.8994 3.75739 15.9999 4.92897 14.8283L3.51475 13.4141C1.56213 15.3667 1.56213 18.5326 3.51475 20.4852L4.92897 19.071ZM20.4853 3.51463C18.5327 1.56201 15.3669 1.56201 13.4142 3.51463L14.8285 4.92884C16 3.75727 17.8995 3.75727 19.0711 4.92884L20.4853 3.51463ZM9.17161 19.071C8.00003 20.2426 6.10054 20.2426 4.92897 19.071L3.51475 20.4852C5.46737 22.4378 8.6332 22.4378 10.5858 20.4852L9.17161 19.071Z" fill="currentColor"/>
</svg>
