<svg width="100%" height="100%" viewBox="0 0 24 24" fill="none" xmlns="http://www.w3.org/2000/svg">
<path d="M13.4147 19.071C13.8052 18.6805 13.8052 18.0473 13.4147 17.6568C13.0241 17.2663 12.391 17.2663 12.0005 17.6568L13.4147 19.071ZM11.2933 19.7781L12.0005 20.4852V20.4852L11.2933 19.7781ZM4.22228 12.7071L4.92939 13.4142L4.22228 12.7071ZM6.3436 12C6.73412 11.6094 6.73412 10.9763 6.3436 10.5858C5.95307 10.1952 5.31991 10.1952 4.92939 10.5858L6.3436 12ZM4.22228 19.7781L4.92939 19.071L4.22228 19.7781ZM17.6573 12C17.2668 12.3905 17.2668 13.0237 17.6573 13.4142C18.0478 13.8047 18.681 13.8047 19.0715 13.4142L17.6573 12ZM12.7076 4.22179L13.4147 4.9289L12.7076 4.22179ZM10.5862 4.9289C10.1957 5.31942 10.1957 5.95259 10.5862 6.34311C10.9768 6.73363 11.6099 6.73363 12.0005 6.34311L10.5862 4.9289ZM19.7786 4.22179L19.0715 4.9289L19.7786 4.22179ZM7.79335 14.7928C7.40282 15.1834 7.40282 15.8165 7.79335 16.207C8.18387 16.5976 8.81704 16.5976 9.20756 16.207L7.79335 14.7928ZM16.2076 9.20705C16.5981 8.81653 16.5981 8.18336 16.2076 7.79284C15.817 7.40231 15.1839 7.40231 14.7933 7.79284L16.2076 9.20705ZM12.0005 17.6568L10.5862 19.071L12.0005 20.4852L13.4147 19.071L12.0005 17.6568ZM4.92939 13.4142L6.3436 12L4.92939 10.5858L3.51517 12L4.92939 13.4142ZM4.92939 19.071C3.36729 17.5089 3.36729 14.9763 4.92939 13.4142L3.51517 12C1.17203 14.3431 1.17203 18.1421 3.51517 20.4852L4.92939 19.071ZM10.5862 19.071C9.02414 20.6331 6.49148 20.6331 4.92939 19.071L3.51517 20.4852C5.85832 22.8284 9.65731 22.8284 12.0005 20.4852L10.5862 19.071ZM19.0715 13.4142L20.4857 12L19.0715 10.5858L17.6573 12L19.0715 13.4142ZM12.0005 3.51468L10.5862 4.9289L12.0005 6.34311L13.4147 4.9289L12.0005 3.51468ZM20.4857 3.51468C18.1426 1.17154 14.3436 1.17154 12.0005 3.51468L13.4147 4.9289C14.9768 3.3668 17.5094 3.3668 19.0715 4.9289L20.4857 3.51468ZM20.4857 12C22.8289 9.65682 22.8289 5.85783 20.4857 3.51468L19.0715 4.9289C20.6336 6.49099 20.6336 9.02365 19.0715 10.5858L20.4857 12ZM9.20756 16.207L16.2076 9.20705L14.7933 7.79284L7.79335 14.7928L9.20756 16.207Z" fill="currentColor"/>
</svg>
