<svg width="100%" height="100%" viewBox="0 0 24 24" fill="none" xmlns="http://www.w3.org/2000/svg">
<path d="M8 4C8 4.55228 8.44772 5 9 5C9.55228 5 10 4.55228 10 4H8ZM10 2C10 1.44772 9.55228 1 9 1C8.44772 1 8 1.44772 8 2H10ZM16 20C16 19.4477 15.5523 19 15 19C14.4477 19 14 19.4477 14 20H16ZM14 22C14 22.5523 14.4477 23 15 23C15.5523 23 16 22.5523 16 22H14ZM4 10C4.55228 10 5 9.55228 5 9C5 8.44772 4.55228 8 4 8V10ZM2 8C1.44772 8 1 8.44772 1 9C1 9.55228 1.44772 10 2 10V8ZM20 14C19.4477 14 19 14.4477 19 15C19 15.5523 19.4477 16 20 16V14ZM22 16C22.5523 16 23 15.5523 23 15C23 14.4477 22.5523 14 22 14V16ZM4.20711 5.62132C4.59763 6.01184 5.2308 6.01184 5.62132 5.62132C6.01184 5.2308 6.01184 4.59763 5.62132 4.20711L4.20711 5.62132ZM4.20711 2.79289C3.81658 2.40237 3.18342 2.40237 2.79289 2.79289C2.40237 3.18342 2.40237 3.81658 2.79289 4.20711L4.20711 2.79289ZM19.7929 18.3787C19.4024 17.9882 18.7692 17.9882 18.3787 18.3787C17.9882 18.7692 17.9882 19.4024 18.3787 19.7929L19.7929 18.3787ZM19.7929 21.2071C20.1834 21.5976 20.8166 21.5976 21.2071 21.2071C21.5976 20.8166 21.5976 20.1834 21.2071 19.7929L19.7929 21.2071ZM12.7071 18.364C13.0976 17.9734 13.0976 17.3403 12.7071 16.9497C12.3166 16.5592 11.6834 16.5592 11.2929 16.9497L12.7071 18.364ZM9.87868 19.7782L9.17157 19.0711L9.17157 19.0711L9.87868 19.7782ZM4.22183 14.1213L4.92893 14.8284L4.22183 14.1213ZM7.05025 12.7071C7.44078 12.3166 7.44078 11.6834 7.05025 11.2929C6.65973 10.9024 6.02656 10.9024 5.63604 11.2929L7.05025 12.7071ZM16.9497 11.2929C16.5592 11.6834 16.5592 12.3166 16.9497 12.7071C17.3403 13.0976 17.9734 13.0976 18.364 12.7071L16.9497 11.2929ZM19.7782 9.87868L20.4853 10.5858L19.7782 9.87868ZM14.1213 4.22183L13.4142 3.51472V3.51472L14.1213 4.22183ZM11.2929 5.63604C10.9024 6.02656 10.9024 6.65973 11.2929 7.05025C11.6834 7.44078 12.3166 7.44078 12.7071 7.05025L11.2929 5.63604ZM19.7782 4.22183L20.4853 3.51472V3.51472L19.7782 4.22183ZM4.22183 19.7782L4.92893 19.0711H4.92893L4.22183 19.7782ZM10 4V2H8V4H10ZM14 20V22H16V20H14ZM4 8H2V10H4V8ZM20 16H22V14H20V16ZM5.62132 4.20711L4.20711 2.79289L2.79289 4.20711L4.20711 5.62132L5.62132 4.20711ZM18.3787 19.7929L19.7929 21.2071L21.2071 19.7929L19.7929 18.3787L18.3787 19.7929ZM11.2929 16.9497L9.17157 19.0711L10.5858 20.4853L12.7071 18.364L11.2929 16.9497ZM4.92893 14.8284L7.05025 12.7071L5.63604 11.2929L3.51472 13.4142L4.92893 14.8284ZM18.364 12.7071L20.4853 10.5858L19.0711 9.17157L16.9497 11.2929L18.364 12.7071ZM13.4142 3.51472L11.2929 5.63604L12.7071 7.05025L14.8284 4.92893L13.4142 3.51472ZM20.4853 10.5858C22.4379 8.63316 22.4379 5.46734 20.4853 3.51472L19.0711 4.92893C20.2426 6.1005 20.2426 8 19.0711 9.17157L20.4853 10.5858ZM4.92893 19.0711C3.75736 17.8995 3.75736 16 4.92893 14.8284L3.51472 13.4142C1.5621 15.3668 1.5621 18.5327 3.51472 20.4853L4.92893 19.0711ZM20.4853 3.51472C18.5327 1.5621 15.3668 1.5621 13.4142 3.51472L14.8284 4.92893C16 3.75736 17.8995 3.75736 19.0711 4.92893L20.4853 3.51472ZM9.17157 19.0711C8 20.2426 6.1005 20.2426 4.92893 19.0711L3.51472 20.4853C5.46734 22.4379 8.63317 22.4379 10.5858 20.4853L9.17157 19.0711Z" fill="currentColor"/>
</svg>
