<svg width="100%" height="100%" viewBox="0 0 24 24" fill="none" xmlns="http://www.w3.org/2000/svg">
<path d="M7.5 8C8.05228 8 8.5 7.55229 8.5 7C8.5 6.44772 8.05228 6 7.5 6V8ZM15 12C15 11.4477 14.5523 11 14 11C13.4477 11 13 11.4477 13 12H15ZM17 17V18V17ZM16.5 16C15.9477 16 15.5 16.4477 15.5 17C15.5 17.5523 15.9477 18 16.5 18V16ZM9 12C9 12.5523 9.44772 13 10 13C10.5523 13 11 12.5523 11 12H9ZM9 16H7V18H9V16ZM7 8H7.5V6H7V8ZM9 18C12.3137 18 15 15.3137 15 12H13C13 14.2091 11.2091 16 9 16V18ZM3 12C3 9.79086 4.79086 8 7 8V6C3.68629 6 1 8.68629 1 12H3ZM7 16C4.79086 16 3 14.2091 3 12H1C1 15.3137 3.68629 18 7 18V16ZM15 8H17V6H15V8ZM17 16H16.5V18H17V16ZM15 6C11.6863 6 9 8.68629 9 12H11C11 9.79086 12.7909 8 15 8V6ZM21 12C21 14.2091 19.2091 16 17 16V18C20.3137 18 23 15.3137 23 12H21ZM17 8C19.2091 8 21 9.79086 21 12H23C23 8.68629 20.3137 6 17 6V8Z" fill="currentColor"/>
</svg>
