<svg width="100%" height="100%" viewBox="0 0 24 24" fill="none" xmlns="http://www.w3.org/2000/svg">
<path d="M9 18C9.55228 18 10 17.5523 10 17C10 16.4477 9.55228 16 9 16V18ZM9 8C9.55228 8 10 7.55228 10 7C10 6.44772 9.55228 6 9 6V8ZM8 11C7.44772 11 7 11.4477 7 12C7 12.5523 7.44772 13 8 13V11ZM18 13C18.5523 13 19 12.5523 19 12C19 11.4477 18.5523 11 18 11V13ZM9 16H7V18H9V16ZM7 8H9V6H7V8ZM7 16C4.79086 16 3 14.2091 3 12H1C1 15.3137 3.68629 18 7 18V16ZM3 12C3 9.79086 4.79086 8 7 8V6C3.68629 6 1 8.68629 1 12H3ZM15.7778 18H17V16H15.7778V18ZM17 6H15.7778V8H17V6ZM14 7.77778V16.2222H16V7.77778H14ZM15.7778 6C14.7959 6 14 6.79594 14 7.77778H16C16 7.90051 15.9005 8 15.7778 8V6ZM23 12C23 8.68629 20.3137 6 17 6V8C19.2091 8 21 9.79086 21 12H23ZM17 18C20.3137 18 23 15.3137 23 12H21C21 14.2091 19.2091 16 17 16V18ZM15.7778 16C15.9005 16 16 16.0995 16 16.2222H14C14 17.2041 14.7959 18 15.7778 18V16ZM8 13L18 13V11L8 11V13Z" fill="currentColor"/>
</svg>
