<svg width="100%" height="100%" viewBox="0 0 24 24" fill="none" xmlns="http://www.w3.org/2000/svg">
<path d="M10.8007 12.401C10.4699 11.9588 9.84323 11.8685 9.40098 12.1993C8.95873 12.5301 8.86838 13.1568 9.19919 13.599L10.8007 12.401ZM17.54 13.54L16.8328 12.8329L16.8327 12.833L17.54 13.54ZM20.54 10.54L21.2471 11.2471C21.2512 11.243 21.2552 11.2389 21.2592 11.2347L20.54 10.54ZM13.47 3.47003L12.7752 2.75074C12.7718 2.75409 12.7683 2.75746 12.7649 2.76086L13.47 3.47003ZM11.0449 4.47086C10.6533 4.86024 10.6514 5.49341 11.0408 5.88507C11.4302 6.27673 12.0633 6.27858 12.455 5.88919L11.0449 4.47086ZM13.1992 11.599C13.53 12.0413 14.1567 12.1316 14.5989 11.8008C15.0412 11.47 15.1315 10.8433 14.8007 10.401L13.1992 11.599ZM6.45996 10.46L7.16706 11.1671L7.16719 11.167L6.45996 10.46ZM3.45996 13.46L2.75285 12.7529C2.74875 12.757 2.74469 12.7611 2.74067 12.7653L3.45996 13.46ZM10.53 20.53L11.2247 21.2493C11.2288 21.2453 11.233 21.2412 11.2371 21.2371L10.53 20.53ZM12.9471 19.5271C13.3376 19.1366 13.3376 18.5034 12.9471 18.1129C12.5565 17.7224 11.9234 17.7224 11.5328 18.1129L12.9471 19.5271ZM9.19919 13.599C9.71453 14.288 10.372 14.858 11.1271 15.2705L12.086 13.5154C11.5826 13.2404 11.1443 12.8604 10.8007 12.401L9.19919 13.599ZM11.1271 15.2705C11.8821 15.683 12.717 15.9283 13.5752 15.9898L13.718 13.9949C13.1459 13.9539 12.5893 13.7904 12.086 13.5154L11.1271 15.2705ZM13.5752 15.9898C14.4333 16.0513 15.2947 15.9274 16.1008 15.6267L15.4018 13.7529C14.8644 13.9533 14.2902 14.0359 13.718 13.9949L13.5752 15.9898ZM16.1008 15.6267C16.9069 15.326 17.6389 14.8555 18.2472 14.247L16.8327 12.833C16.4272 13.2387 15.9392 13.5524 15.4018 13.7529L16.1008 15.6267ZM18.2471 14.2471L21.2471 11.2471L19.8328 9.83292L16.8328 12.8329L18.2471 14.2471ZM21.2592 11.2347C22.3522 10.1031 22.957 8.58751 22.9433 7.01433L20.9434 7.03171C20.9525 8.0805 20.5493 9.09091 19.8207 9.84531L21.2592 11.2347ZM22.9433 7.01433C22.9296 5.44115 22.2986 3.93628 21.1862 2.82383L19.7719 4.23804C20.5136 4.97967 20.9343 5.98292 20.9434 7.03171L22.9433 7.01433ZM21.1862 2.82383C20.0737 1.71138 18.5688 1.08036 16.9956 1.06669L16.9783 3.06662C18.0271 3.07573 19.0303 3.49641 19.7719 4.23804L21.1862 2.82383ZM16.9956 1.06669C15.4225 1.05302 13.9069 1.65779 12.7752 2.75074L14.1647 4.18931C14.9191 3.46068 15.9295 3.0575 16.9783 3.06662L16.9956 1.06669ZM12.7649 2.76086L11.0449 4.47086L12.455 5.88919L14.175 4.17919L12.7649 2.76086ZM14.8007 10.401C14.2854 9.71209 13.6279 9.14203 12.8729 8.72952L11.9139 10.4847C12.4173 10.7597 12.8556 11.1397 13.1992 11.599L14.8007 10.401ZM12.8729 8.72952C12.1178 8.31701 11.2829 8.07171 10.4247 8.01025L10.2819 10.0051C10.854 10.0461 11.4106 10.2096 11.9139 10.4847L12.8729 8.72952ZM10.4247 8.01025C9.56657 7.94879 8.70522 8.07261 7.89911 8.37331L8.59811 10.2472C9.13552 10.0467 9.70976 9.96416 10.2819 10.0051L10.4247 8.01025ZM7.89911 8.37331C7.093 8.67401 6.36098 9.14456 5.75272 9.75305L7.16719 11.167C7.5727 10.7613 8.06071 10.4476 8.59811 10.2472L7.89911 8.37331ZM5.75285 9.75292L2.75285 12.7529L4.16706 14.1671L7.16706 11.1671L5.75285 9.75292ZM2.74067 12.7653C1.64772 13.8969 1.04295 15.4125 1.05662 16.9857L3.05655 16.9683C3.04743 15.9196 3.45061 14.9091 4.17924 14.1547L2.74067 12.7653ZM1.05662 16.9857C1.07029 18.5589 1.70131 20.0638 2.81376 21.1762L4.22797 19.762C3.48634 19.0204 3.06566 18.0171 3.05655 16.9683L1.05662 16.9857ZM2.81376 21.1762C3.9262 22.2887 5.43108 22.9197 7.00426 22.9334L7.02164 20.9334C5.97285 20.9243 4.9696 20.5036 4.22797 19.762L2.81376 21.1762ZM7.00426 22.9334C8.57744 22.947 10.0931 22.3423 11.2247 21.2493L9.83524 19.8107C9.08083 20.5394 8.07043 20.9425 7.02164 20.9334L7.00426 22.9334ZM11.2371 21.2371L12.9471 19.5271L11.5328 18.1129L9.82285 19.8229L11.2371 21.2371Z" fill="currentColor"/>
</svg>
