<svg width="100%" height="100%" viewBox="0 0 24 24" fill="none" xmlns="http://www.w3.org/2000/svg">
<path d="M9 18C9.55228 18 10 17.5523 10 17C10 16.4477 9.55228 16 9 16V18ZM9 8C9.55228 8 10 7.55228 10 7C10 6.44772 9.55228 6 9 6V8ZM15 16C14.4477 16 14 16.4477 14 17C14 17.5523 14.4477 18 15 18V16ZM15 6C14.4477 6 14 6.44772 14 7C14 7.55228 14.4477 8 15 8V6ZM7 11C6.44772 11 6 11.4477 6 12C6 12.5523 6.44772 13 7 13V11ZM17 13C17.5523 13 18 12.5523 18 12C18 11.4477 17.5523 11 17 11V13ZM9 16H7V18H9V16ZM7 8H9V6H7V8ZM7 16C4.79086 16 3 14.2091 3 12H1C1 15.3137 3.68629 18 7 18V16ZM3 12C3 9.79086 4.79086 8 7 8V6C3.68629 6 1 8.68629 1 12H3ZM15 18H17V16H15V18ZM17 6H15V8H17V6ZM23 12C23 8.68629 20.3137 6 17 6V8C19.2091 8 21 9.79086 21 12H23ZM17 18C20.3137 18 23 15.3137 23 12H21C21 14.2091 19.2091 16 17 16V18ZM7 13L17 13V11L7 11V13Z" fill="currentColor"/>
</svg>
