<svg width="100%" height="100%" viewBox="0 0 24 24" fill="none" xmlns="http://www.w3.org/2000/svg">
<path d="M13 2.25C13 1.69772 12.5523 1.25 12 1.25C11.4477 1.25 11 1.69772 11 2.25H13ZM11 4.75C11 5.30228 11.4477 5.75 12 5.75C12.5523 5.75 13 5.30228 13 4.75H11ZM13 18C13 17.4477 12.5523 17 12 17C11.4477 17 11 17.4477 11 18H13ZM11 22C11 22.5523 11.4477 23 12 23C12.5523 23 13 22.5523 13 22H11ZM5.75 13C6.30228 13 6.75 12.5523 6.75 12C6.75 11.4477 6.30228 11 5.75 11V13ZM2.25 11C1.69772 11 1.25 11.4477 1.25 12C1.25 12.5523 1.69772 13 2.25 13V11ZM21.25 13C21.8023 13 22.25 12.5523 22.25 12C22.25 11.4477 21.8023 11 21.25 11V13ZM19.75 11C19.1977 11 18.75 11.4477 18.75 12C18.75 12.5523 19.1977 13 19.75 13V11ZM17.75 19.1642C18.1405 19.5547 18.7737 19.5547 19.1642 19.1642C19.5547 18.7737 19.5547 18.1405 19.1642 17.75L17.75 19.1642ZM18.4571 17.0429C18.0666 16.6524 17.4334 16.6524 17.0429 17.0429C16.6524 17.4334 16.6524 18.0666 17.0429 18.4571L18.4571 17.0429ZM19.3713 6.12289C19.7618 5.73237 19.7618 5.0992 19.3713 4.70868C18.9808 4.31816 18.3476 4.31816 17.9571 4.70868L19.3713 6.12289ZM16.5429 6.12289C16.1524 6.51342 16.1524 7.14658 16.5429 7.53711C16.9334 7.92763 17.5666 7.92763 17.9571 7.53711L16.5429 6.12289ZM4.21447 18.3713C3.82394 18.7618 3.82394 19.395 4.21447 19.7855C4.60499 20.1761 5.23815 20.1761 5.62868 19.7855L4.21447 18.3713ZM8.45711 16.9571C8.84763 16.5666 8.84763 15.9334 8.45711 15.5429C8.06658 15.1524 7.43342 15.1524 7.04289 15.5429L8.45711 16.9571ZM5.83579 4.50157C5.44526 4.11105 4.8121 4.11105 4.42157 4.50157C4.03105 4.8921 4.03105 5.52526 4.42157 5.91579L5.83579 4.50157ZM6.54289 8.03711C6.93342 8.42763 7.56658 8.42763 7.95711 8.03711C8.34763 7.64658 8.34763 7.01342 7.95711 6.62289L6.54289 8.03711ZM11 2.25V4.75H13V2.25H11ZM11 18V22H13V18H11ZM5.75 11H2.25V13H5.75V11ZM21.25 11H19.75V13H21.25V11ZM19.1642 17.75L18.4571 17.0429L17.0429 18.4571L17.75 19.1642L19.1642 17.75ZM17.9571 4.70868L16.5429 6.12289L17.9571 7.53711L19.3713 6.12289L17.9571 4.70868ZM5.62868 19.7855L8.45711 16.9571L7.04289 15.5429L4.21447 18.3713L5.62868 19.7855ZM4.42157 5.91579L6.54289 8.03711L7.95711 6.62289L5.83579 4.50157L4.42157 5.91579Z" fill="currentColor"/>
</svg>
