<svg width="100%" height="100%" viewBox="0 0 24 24" fill="none" xmlns="http://www.w3.org/2000/svg">
<path d="M2.47412 17.4995C2.75016 17.9779 3.36171 18.1419 3.84007 17.8659C4.31842 17.5898 4.48243 16.9783 4.20639 16.4999L2.47412 17.4995ZM4.79795 10.6601L5.35878 11.488C5.4112 11.4525 5.46013 11.4121 5.50491 11.3673L4.79795 10.6601ZM4.80018 10.6578L4.24026 9.8293C4.1875 9.86495 4.13826 9.90557 4.09322 9.95058L4.80018 10.6578ZM10.2843 10.7523L10.8724 9.94348L10.8722 9.94336L10.2843 10.7523ZM13.7164 13.2477L14.3045 12.439L14.3045 12.4389L13.7164 13.2477ZM19.2005 13.3421L19.7602 14.1709C19.8131 14.1351 19.8625 14.0944 19.9076 14.0493L19.2005 13.3421ZM19.2027 13.3399L18.6421 12.5119C18.5896 12.5474 18.5405 12.5879 18.4956 12.6328L19.2027 13.3399ZM21.526 6.4994C21.2494 6.02138 20.6376 5.85811 20.1596 6.13473C19.6816 6.41135 19.5183 7.0231 19.7949 7.50112L21.526 6.4994ZM17.5018 21.5254C17.9801 21.2494 18.1441 20.6378 17.8681 20.1595C17.592 19.6811 16.9805 19.5171 16.5021 19.7932L17.5018 21.5254ZM10.6623 19.2016L11.4902 18.6408C11.4547 18.5883 11.4142 18.5393 11.3694 18.4945L10.6623 19.2016ZM10.6601 19.1994L9.83152 19.7593C9.86721 19.8121 9.90788 19.8614 9.95296 19.9065L10.6601 19.1994ZM10.7545 13.7152L9.9457 13.1271L9.94558 13.1273L10.7545 13.7152ZM13.2499 10.2832L12.4412 9.695L12.4411 9.69509L13.2499 10.2832ZM13.3444 4.79901L14.1731 4.23935C14.0768 4.09682 13.9454 3.98153 13.7916 3.9046L13.3444 4.79901ZM13.3399 4.79679L12.5121 5.35783C12.6083 5.49973 12.7393 5.61453 12.8927 5.6912L13.3399 4.79679ZM6.4994 2.47467C6.02138 2.75129 5.85811 3.36304 6.13473 3.84106C6.41135 4.31908 7.0231 4.48235 7.50112 4.20573L6.4994 2.47467ZM18.3634 5.63612C21.8782 9.15094 21.8782 14.8486 18.3634 18.3634L19.7776 19.7776C24.0735 15.4817 24.0735 8.51778 19.7776 4.22191L18.3634 5.63612ZM18.3634 18.3634C14.8486 21.8782 9.15094 21.8782 5.63612 18.3634L4.22191 19.7776C8.51778 24.0735 15.4817 24.0735 19.7776 19.7776L18.3634 18.3634ZM5.63612 18.3634C2.12129 14.8486 2.12129 9.15094 5.63612 5.63612L4.22191 4.22191C-0.0739684 8.51778 -0.0739684 15.4817 4.22191 19.7776L5.63612 18.3634ZM5.63612 5.63612C9.15094 2.12129 14.8486 2.12129 18.3634 5.63612L19.7776 4.22191C15.4817 -0.0739684 8.51778 -0.0739684 4.22191 4.22191L5.63612 5.63612ZM4.20639 16.4999C3.21638 14.7843 3.71959 12.5984 5.35878 11.488L4.23713 9.83213C1.72987 11.5305 0.959812 14.8754 2.47412 17.4995L4.20639 16.4999ZM5.50491 11.3673L5.50713 11.3651L4.09322 9.95058L4.091 9.95281L5.50491 11.3673ZM5.3601 11.4864C6.67675 10.5966 8.41005 10.6263 9.69642 11.5612L10.8722 9.94336C8.90545 8.51394 6.25453 8.46808 4.24026 9.8293L5.3601 11.4864ZM9.69625 11.5611L13.1283 14.0565L14.3045 12.4389L10.8724 9.94348L9.69625 11.5611ZM13.1282 14.0564C15.0942 15.4863 17.7452 15.5317 19.7602 14.1709L18.6409 12.5134C17.3227 13.4036 15.5895 13.3735 14.3045 12.439L13.1282 14.0564ZM19.9076 14.0493L19.9099 14.047L18.4956 12.6328L18.4934 12.635L19.9076 14.0493ZM19.7634 14.168C22.2715 12.47 23.0438 9.12237 21.526 6.4994L19.7949 7.50112C20.7858 9.21347 20.2827 11.4011 18.6421 12.5119L19.7634 14.168ZM16.5021 19.7932C14.7865 20.7832 12.6006 20.2799 11.4902 18.6408L9.83435 19.7624C11.5327 22.2697 14.8776 23.0397 17.5018 21.5254L16.5021 19.7932ZM11.3694 18.4945L11.3672 18.4923L9.95296 19.9065L9.95518 19.9087L11.3694 18.4945ZM11.4886 18.6394C10.5988 17.3228 10.6285 15.5895 11.5634 14.3031L9.94558 13.1273C8.51616 15.0941 8.4703 17.745 9.83152 19.7593L11.4886 18.6394ZM11.5633 14.3033L14.0587 10.8712L12.4411 9.69509L9.9457 13.1271L11.5633 14.3033ZM14.0587 10.8713C15.4885 8.90532 15.5339 6.25439 14.1731 4.23935L12.5156 5.35868C13.4058 6.6768 13.3757 8.41007 12.4412 9.695L14.0587 10.8713ZM13.7916 3.9046L13.7872 3.90238L12.8927 5.6912L12.8971 5.69342L13.7916 3.9046ZM14.1677 4.23576C12.4698 1.73057 9.1226 0.956684 6.4994 2.47467L7.50112 4.20573C9.21324 3.21496 11.4013 3.71878 12.5121 5.35783L14.1677 4.23576Z" fill="currentColor"/>
</svg>
