<svg width="100%" height="100%" viewBox="0 0 24 24" fill="none" xmlns="http://www.w3.org/2000/svg">
<path d="M13 2C13 1.44772 12.5523 1 12 1C11.4477 1 11 1.44772 11 2H13ZM11 6C11 6.55228 11.4477 7 12 7C12.5523 7 13 6.55228 13 6H11ZM13 18C13 17.4477 12.5523 17 12 17C11.4477 17 11 17.4477 11 18H13ZM11 22C11 22.5523 11.4477 23 12 23C12.5523 23 13 22.5523 13 22H11ZM6 13C6.55228 13 7 12.5523 7 12C7 11.4477 6.55228 11 6 11V13ZM2 11C1.44772 11 1 11.4477 1 12C1 12.5523 1.44772 13 2 13V11ZM22 13C22.5523 13 23 12.5523 23 12C23 11.4477 22.5523 11 22 11V13ZM18 11C17.4477 11 17 11.4477 17 12C17 12.5523 17.4477 13 18 13V11ZM18.3713 19.7855C18.7618 20.1761 19.395 20.1761 19.7855 19.7855C20.1761 19.395 20.1761 18.7618 19.7855 18.3713L18.3713 19.7855ZM16.9571 15.5429C16.5666 15.1524 15.9334 15.1524 15.5429 15.5429C15.1524 15.9334 15.1524 16.5666 15.5429 16.9571L16.9571 15.5429ZM19.7855 5.70705C20.1761 5.31652 20.1761 4.68336 19.7855 4.29283C19.395 3.90231 18.7618 3.90231 18.3713 4.29284L19.7855 5.70705ZM15.5429 7.12126C15.1524 7.51179 15.1524 8.14495 15.5429 8.53548C15.9334 8.926 16.5666 8.926 16.9571 8.53548L15.5429 7.12126ZM4.21447 18.3713C3.82394 18.7618 3.82394 19.395 4.21447 19.7855C4.60499 20.1761 5.23815 20.1761 5.62868 19.7855L4.21447 18.3713ZM8.45711 16.9571C8.84763 16.5666 8.84763 15.9334 8.45711 15.5429C8.06658 15.1524 7.43342 15.1524 7.04289 15.5429L8.45711 16.9571ZM5.62868 4.29283C5.23816 3.90231 4.60499 3.90231 4.21447 4.29283C3.82394 4.68336 3.82394 5.31652 4.21447 5.70705L5.62868 4.29283ZM7.04289 8.53548C7.43342 8.926 8.06658 8.926 8.45711 8.53548C8.84763 8.14495 8.84763 7.51179 8.45711 7.12126L7.04289 8.53548ZM11 2V6H13V2H11ZM11 18V22H13V18H11ZM6 11H2V13H6V11ZM22 11H18V13H22V11ZM19.7855 18.3713L16.9571 15.5429L15.5429 16.9571L18.3713 19.7855L19.7855 18.3713ZM18.3713 4.29284L15.5429 7.12126L16.9571 8.53548L19.7855 5.70705L18.3713 4.29284ZM5.62868 19.7855L8.45711 16.9571L7.04289 15.5429L4.21447 18.3713L5.62868 19.7855ZM4.21447 5.70705L7.04289 8.53548L8.45711 7.12126L5.62868 4.29283L4.21447 5.70705Z" fill="currentColor"/>
</svg>
