<svg width="100%" height="100%" viewBox="0 0 24 24" fill="none" xmlns="http://www.w3.org/2000/svg">
<path d="M15.2929 16.293C14.9024 16.6835 14.9024 17.3166 15.2929 17.7072C15.6834 18.0977 16.3166 18.0977 16.7071 17.7072L15.2929 16.293ZM21 12.0001L21.7071 12.7072C22.0976 12.3166 22.0976 11.6835 21.7071 11.293L21 12.0001ZM16.7071 6.29296C16.3166 5.90243 15.6834 5.90243 15.2929 6.29296C14.9024 6.68348 14.9024 7.31665 15.2929 7.70717L16.7071 6.29296ZM9 11.0001C8.44772 11.0001 8 11.4478 8 12.0001C8 12.5523 8.44772 13.0001 9 13.0001V11.0001ZM9.01835 3.66877L8.90792 4.66265H8.90792L9.01835 3.66877ZM7.99694 3.55528L8.10737 2.5614V2.5614L7.99694 3.55528ZM7.99694 20.4448L8.10737 21.4387H8.10737L7.99694 20.4448ZM9.01835 20.3314L8.90792 19.3375H8.90792L9.01835 20.3314ZM9.58503 20.2573L9.39002 19.2765L9.39001 19.2765L9.58503 20.2573ZM13 17.0001C13 16.4478 12.5523 16.0001 12 16.0001C11.4477 16.0001 11 16.4478 11 17.0001H13ZM11.989 17.5715L12.9854 17.657V17.657L11.989 17.5715ZM9.58503 3.74279L9.39002 4.72359L9.58503 3.74279ZM11 7.00006C11 7.55235 11.4477 8.00006 12 8.00006C12.5523 8.00006 13 7.55235 13 7.00006H11ZM11.989 6.42867L12.9854 6.34316L11.989 6.42867ZM3.26118 18.8725L4.17412 18.4645H4.17412L3.26118 18.8725ZM5.08566 20.5055L5.39044 19.5531H5.39044L5.08566 20.5055ZM3.26118 5.12758L4.17412 5.53567L4.17412 5.53567L3.26118 5.12758ZM5.08566 3.49459L4.78089 2.54217L5.08566 3.49459ZM16.7071 17.7072L21.7071 12.7072L20.2929 11.293L15.2929 16.293L16.7071 17.7072ZM21.7071 11.293L16.7071 6.29296L15.2929 7.70717L20.2929 12.7072L21.7071 11.293ZM21 11.0001H9V13.0001H21V11.0001ZM2 8.02776V15.9724H4V8.02776H2ZM9.12878 2.67489L8.10737 2.5614L7.88651 4.54916L8.90792 4.66265L9.12878 2.67489ZM8.10737 21.4387L9.12878 21.3252L8.90792 19.3375L7.88651 19.451L8.10737 21.4387ZM9.12878 21.3252C9.40257 21.2948 9.6016 21.2736 9.78005 21.2381L9.39001 19.2765C9.31646 19.2912 9.22147 19.3026 8.90792 19.3375L9.12878 21.3252ZM11 17.0001C11 17.3156 10.9991 17.4112 10.9927 17.486L12.9854 17.657C13.0009 17.4757 13 17.2756 13 17.0001H11ZM9.78005 21.2381C11.5265 20.8909 12.8331 19.4311 12.9854 17.657L10.9927 17.4859C10.9165 18.373 10.2632 19.1029 9.39002 19.2765L9.78005 21.2381ZM8.90792 4.66265C9.22157 4.6975 9.31644 4.70896 9.39002 4.72359L9.78005 2.76199C9.60157 2.7265 9.40268 2.70532 9.12878 2.67489L8.90792 4.66265ZM13 7.00006C13 6.72448 13.0009 6.52446 12.9854 6.34316L10.9927 6.51418C10.9991 6.58893 11 6.68449 11 7.00006H13ZM9.39002 4.72359C10.2632 4.89721 10.9165 5.62713 10.9927 6.51418L12.9854 6.34316C12.8331 4.56907 11.5265 3.10923 9.78005 2.76199L9.39002 4.72359ZM2 15.9724C2 16.7299 1.99941 17.3505 2.03517 17.8533C2.07147 18.3637 2.14917 18.8353 2.34824 19.2806L4.17412 18.4645C4.112 18.3255 4.05912 18.119 4.03013 17.7114C4.00059 17.2961 4 16.7588 4 15.9724H2ZM7.88651 19.451C7.10495 19.5378 6.57082 19.5966 6.15481 19.6131C5.74652 19.6293 5.5354 19.5995 5.39044 19.5531L4.78088 21.458C5.24547 21.6066 5.72276 21.6318 6.2341 21.6115C6.73773 21.5915 7.35447 21.5224 8.10737 21.4387L7.88651 19.451ZM2.34824 19.2806C2.81255 20.3194 3.69724 21.1112 4.78088 21.458L5.39044 19.5531C4.84862 19.3797 4.40628 18.9838 4.17412 18.4645L2.34824 19.2806ZM4 8.02776C4 7.24137 4.00059 6.70403 4.03013 6.28875C4.05912 5.88117 4.112 5.67463 4.17412 5.53567L2.34824 4.71949C2.14917 5.16481 2.07147 5.6364 2.03517 6.14685C1.99941 6.64961 2 7.27021 2 8.02776H4ZM8.10737 2.5614C7.35446 2.47774 6.73772 2.40862 6.23409 2.38864C5.72275 2.36835 5.24547 2.3935 4.78089 2.54217L5.39044 4.44701C5.53541 4.40062 5.74652 4.37087 6.15481 4.38706C6.57081 4.40357 7.10494 4.46232 7.88651 4.54916L8.10737 2.5614ZM4.17412 5.53567C4.40628 5.01631 4.84862 4.6204 5.39044 4.44701L4.78089 2.54217C3.69724 2.88894 2.81255 3.68077 2.34824 4.71949L4.17412 5.53567Z" fill="currentColor"/>
</svg>
