<svg width="100%" height="100%" viewBox="0 0 24 24" fill="none" xmlns="http://www.w3.org/2000/svg">
<path d="M12.7071 7.29289C12.3166 6.90237 11.6834 6.90237 11.2929 7.29289C10.9024 7.68342 10.9024 8.31658 11.2929 8.70711L12.7071 7.29289ZM16 12L16.7071 12.7071C17.0976 12.3166 17.0976 11.6834 16.7071 11.2929L16 12ZM11.2929 15.2929C10.9024 15.6834 10.9024 16.3166 11.2929 16.7071C11.6834 17.0976 12.3166 17.0976 12.7071 16.7071L11.2929 15.2929ZM3 11C2.44772 11 2 11.4477 2 12C2 12.5523 2.44772 13 3 13V11ZM2.47222 6.49927C2.19567 6.97733 2.35904 7.58906 2.8371 7.86561C3.31516 8.14215 3.92688 7.97879 4.20343 7.50073L2.47222 6.49927ZM4.20343 16.4993C3.92688 16.0212 3.31516 15.8579 2.8371 16.1344C2.35904 16.4109 2.19567 17.0227 2.47222 17.5007L4.20343 16.4993ZM11.2929 8.70711L15.2929 12.7071L16.7071 11.2929L12.7071 7.29289L11.2929 8.70711ZM15.2929 11.2929L11.2929 15.2929L12.7071 16.7071L16.7071 12.7071L15.2929 11.2929ZM3 13H16V11H3V13ZM21 12C21 16.9706 16.9706 21 12 21V23C18.0751 23 23 18.0751 23 12H21ZM12 3C16.9706 3 21 7.02944 21 12H23C23 5.92487 18.0751 1 12 1V3ZM4.20343 7.50073C5.76108 4.80801 8.66999 3 12 3V1C7.92719 1 4.37266 3.21398 2.47222 6.49927L4.20343 7.50073ZM12 21C8.66999 21 5.76108 19.192 4.20343 16.4993L2.47222 17.5007C4.37266 20.786 7.92719 23 12 23V21Z" fill="currentColor"/>
</svg>
