<svg width="100%" height="100%" viewBox="0 0 24 24" fill="none" xmlns="http://www.w3.org/2000/svg">
<path d="M15.2929 16.2929C14.9024 16.6834 14.9024 17.3166 15.2929 17.7071C15.6834 18.0976 16.3166 18.0976 16.7071 17.7071L15.2929 16.2929ZM21 12L21.7071 12.7071C22.0976 12.3166 22.0976 11.6834 21.7071 11.2929L21 12ZM16.7071 6.29289C16.3166 5.90237 15.6834 5.90237 15.2929 6.29289C14.9024 6.68342 14.9024 7.31658 15.2929 7.70711L16.7071 6.29289ZM9 11C8.44772 11 8 11.4477 8 12C8 12.5523 8.44772 13 9 13V11ZM9 4C9.55229 4 10 3.55228 10 3C10 2.44772 9.55229 2 9 2V4ZM9 22C9.55229 22 10 21.5523 10 21C10 20.4477 9.55229 20 9 20V22ZM3.32698 19.362L4.21799 18.908L4.21799 18.908L3.32698 19.362ZM4.63803 20.673L4.18404 21.564H4.18404L4.63803 20.673ZM3.32698 4.63803L4.21799 5.09202L4.21799 5.09202L3.32698 4.63803ZM4.63803 3.32698L5.09202 4.21799H5.09202L4.63803 3.32698ZM16.7071 17.7071L21.7071 12.7071L20.2929 11.2929L15.2929 16.2929L16.7071 17.7071ZM21.7071 11.2929L16.7071 6.29289L15.2929 7.70711L20.2929 12.7071L21.7071 11.2929ZM21 11H9V13H21V11ZM2 7.8V16.2H4V7.8H2ZM9 2H7.8V4H9V2ZM7.8 22H9V20H7.8V22ZM2 16.2C2 17.0236 1.99922 17.7014 2.04419 18.2518C2.09012 18.8139 2.18868 19.3306 2.43597 19.816L4.21799 18.908C4.1383 18.7516 4.07337 18.5274 4.03755 18.089C4.00078 17.6389 4 17.0566 4 16.2H2ZM7.8 20C6.94342 20 6.36113 19.9992 5.91104 19.9624C5.47262 19.9266 5.24842 19.8617 5.09202 19.782L4.18404 21.564C4.66937 21.8113 5.18608 21.9099 5.74817 21.9558C6.2986 22.0008 6.97642 22 7.8 22V20ZM2.43597 19.816C2.81947 20.5686 3.43139 21.1805 4.18404 21.564L5.09202 19.782C4.71569 19.5903 4.40973 19.2843 4.21799 18.908L2.43597 19.816ZM4 7.8C4 6.94342 4.00078 6.36113 4.03755 5.91104C4.07337 5.47262 4.1383 5.24842 4.21799 5.09202L2.43598 4.18404C2.18868 4.66937 2.09012 5.18608 2.04419 5.74817C1.99922 6.2986 2 6.97642 2 7.8H4ZM7.8 2C6.97642 2 6.2986 1.99922 5.74817 2.04419C5.18608 2.09012 4.66937 2.18868 4.18404 2.43597L5.09202 4.21799C5.24842 4.1383 5.47262 4.07337 5.91104 4.03755C6.36113 4.00078 6.94342 4 7.8 4V2ZM4.21799 5.09202C4.40973 4.71569 4.7157 4.40973 5.09202 4.21799L4.18404 2.43597C3.43139 2.81947 2.81947 3.43139 2.43597 4.18404L4.21799 5.09202Z" fill="currentColor"/>
</svg>
