<svg width="100%" height="100%" viewBox="0 0 24 24" fill="none" xmlns="http://www.w3.org/2000/svg">
<path d="M18.7071 7.29289C18.3166 6.90237 17.6834 6.90237 17.2929 7.29289C16.9024 7.68342 16.9024 8.31658 17.2929 8.70711L18.7071 7.29289ZM22 12L22.7071 12.7071C23.0976 12.3166 23.0976 11.6834 22.7071 11.2929L22 12ZM17.2929 15.2929C16.9024 15.6834 16.9024 16.3166 17.2929 16.7071C17.6834 17.0976 18.3166 17.0976 18.7071 16.7071L17.2929 15.2929ZM9 11C8.44772 11 8 11.4477 8 12C8 12.5523 8.44772 13 9 13V11ZM14.4851 5.06126C14.9585 5.34566 15.5728 5.19242 15.8572 4.71899C16.1416 4.24556 15.9884 3.63122 15.5149 3.34682L14.4851 5.06126ZM15.5149 20.6532C15.9884 20.3688 16.1416 19.7544 15.8572 19.281C15.5728 18.8076 14.9585 18.6543 14.4851 18.9387L15.5149 20.6532ZM17.2929 8.70711L21.2929 12.7071L22.7071 11.2929L18.7071 7.29289L17.2929 8.70711ZM21.2929 11.2929L17.2929 15.2929L18.7071 16.7071L22.7071 12.7071L21.2929 11.2929ZM9 13H22V11H9V13ZM1 12C1 17.4869 5.29268 22 10.6667 22V20C6.46772 20 3 16.4542 3 12H1ZM10.6667 2C5.29268 2 1 6.51306 1 12H3C3 7.54581 6.46772 4 10.6667 4V2ZM15.5149 3.34682C14.0905 2.49112 12.4333 2 10.6667 2V4C12.0572 4 13.36 4.38543 14.4851 5.06126L15.5149 3.34682ZM10.6667 22C12.4333 22 14.0905 21.5089 15.5149 20.6532L14.4851 18.9387C13.36 19.6146 12.0572 20 10.6667 20V22Z" fill="currentColor"/>
</svg>
