<svg width="100%" height="100%" viewBox="0 0 24 24" fill="none" xmlns="http://www.w3.org/2000/svg">
<path d="M15.2929 16.2929C14.9024 16.6834 14.9024 17.3166 15.2929 17.7071C15.6834 18.0976 16.3166 18.0976 16.7071 17.7071L15.2929 16.2929ZM21 12L21.7071 12.7071C22.0976 12.3166 22.0976 11.6834 21.7071 11.2929L21 12ZM16.7071 6.29289C16.3166 5.90237 15.6834 5.90237 15.2929 6.29289C14.9024 6.68342 14.9024 7.31658 15.2929 7.70711L16.7071 6.29289ZM9 11C8.44772 11 8 11.4477 8 12C8 12.5523 8.44772 13 9 13V11ZM9.77646 20.8978L9.51764 19.9319L9.77646 20.8978ZM13 17C13 16.4477 12.5523 16 12 16C11.4477 16 11 16.4477 11 17H13ZM11.8978 18.7765L12.8637 19.0353L11.8978 18.7765ZM9.77646 3.10222L10.0353 2.1363V2.1363L9.77646 3.10222ZM11 7C11 7.55228 11.4477 8 12 8C12.5523 8 13 7.55228 13 7H11ZM11.8978 5.22354L12.8637 4.96472V4.96472L11.8978 5.22354ZM3.22836 19.1481L4.15224 18.7654H4.15224L3.22836 19.1481ZM4.85195 20.7716L4.46927 21.6955H4.46927L4.85195 20.7716ZM3.22836 4.85195L4.15224 5.23463L4.15224 5.23463L3.22836 4.85195ZM4.85195 3.22836L5.23463 4.15224L4.85195 3.22836ZM16.7071 17.7071L21.7071 12.7071L20.2929 11.2929L15.2929 16.2929L16.7071 17.7071ZM21.7071 11.2929L16.7071 6.29289L15.2929 7.70711L20.2929 12.7071L21.7071 11.2929ZM21 11H9V13H21V11ZM2 7.5V16.5H4V7.5H2ZM8 2H7.5V4H8V2ZM7.5 22H8V20H7.5V22ZM8 22C8.86559 22 9.49456 22.0086 10.0353 21.8637L9.51764 19.9319C9.29536 19.9914 8.99435 20 8 20V22ZM11 17C11 17.9944 10.9914 18.2954 10.9319 18.5176L12.8637 19.0353C13.0086 18.4946 13 17.8656 13 17H11ZM10.0353 21.8637C11.4156 21.4938 12.4938 20.4156 12.8637 19.0353L10.9319 18.5176C10.7469 19.2078 10.2078 19.7469 9.51764 19.9319L10.0353 21.8637ZM8 4C8.99435 4 9.29536 4.00859 9.51764 4.06815L10.0353 2.1363C9.49456 1.99141 8.86559 2 8 2V4ZM13 7C13 6.13441 13.0086 5.50545 12.8637 4.96472L10.9319 5.48236C10.9914 5.70464 11 6.00565 11 7H13ZM9.51764 4.06815C10.2078 4.25308 10.7469 4.79218 10.9319 5.48236L12.8637 4.96472C12.4938 3.58436 11.4156 2.50617 10.0353 2.1363L9.51764 4.06815ZM2 16.5C2 17.1852 1.99946 17.7492 2.03086 18.2095C2.06288 18.6788 2.13142 19.1129 2.30448 19.5307L4.15224 18.7654C4.09694 18.6319 4.0513 18.4409 4.02623 18.0734C4.00054 17.697 4 17.2126 4 16.5H2ZM7.5 20C6.78741 20 6.30304 19.9995 5.9266 19.9738C5.55915 19.9487 5.36813 19.9031 5.23463 19.8478L4.46927 21.6955C4.88708 21.8686 5.32118 21.9371 5.79046 21.9691C6.25077 22.0005 6.81477 22 7.5 22V20ZM2.30448 19.5307C2.71046 20.5108 3.48915 21.2895 4.46927 21.6955L5.23463 19.8478C4.74458 19.6448 4.35523 19.2554 4.15224 18.7654L2.30448 19.5307ZM4 7.5C4 6.7874 4.00054 6.30304 4.02623 5.9266C4.0513 5.55915 4.09694 5.36813 4.15224 5.23463L2.30448 4.46927C2.13142 4.88708 2.06288 5.32118 2.03086 5.79046C1.99946 6.25077 2 6.81477 2 7.5H4ZM7.5 2C6.81477 2 6.25077 1.99946 5.79046 2.03086C5.32118 2.06288 4.88708 2.13142 4.46927 2.30448L5.23463 4.15224C5.36813 4.09694 5.55915 4.0513 5.9266 4.02623C6.30304 4.00054 6.78741 4 7.5 4V2ZM4.15224 5.23463C4.35523 4.74458 4.74458 4.35523 5.23463 4.15224L4.46927 2.30448C3.48915 2.71046 2.71046 3.48915 2.30448 4.46927L4.15224 5.23463Z" fill="currentColor"/>
</svg>
