<svg width="100%" height="100%" viewBox="0 0 24 24" fill="none" xmlns="http://www.w3.org/2000/svg">
<path d="M8.22354 20.8978L8.48236 19.9319H8.48236L8.22354 20.8978ZM7 17C7 16.4477 6.55228 16 6 16C5.44771 16 5 16.4477 5 17H7ZM6.10222 18.7765L7.06815 18.5176L7.06815 18.5176L6.10222 18.7765ZM8.22354 3.10222L8.48236 4.06815L8.48236 4.06815L8.22354 3.10222ZM5 7C5 7.55228 5.44771 8 6 8C6.55228 8 7 7.55228 7 7H5ZM6.10222 5.22354L5.1363 4.96472L6.10222 5.22354ZM20.673 19.362L19.782 18.908V18.908L20.673 19.362ZM19.362 20.673L19.816 21.564L19.362 20.673ZM20.673 4.63803L19.782 5.09202V5.09202L20.673 4.63803ZM19.362 3.32698L19.816 2.43597V2.43597L19.362 3.32698ZM12.7071 7.29289C12.3166 6.90237 11.6834 6.90237 11.2929 7.29289C10.9024 7.68342 10.9024 8.31658 11.2929 8.70711L12.7071 7.29289ZM16 12L16.7071 12.7071C17.0976 12.3166 17.0976 11.6834 16.7071 11.2929L16 12ZM11.2929 15.2929C10.9024 15.6834 10.9024 16.3166 11.2929 16.7071C11.6834 17.0976 12.3166 17.0976 12.7071 16.7071L11.2929 15.2929ZM3 11C2.44772 11 2 11.4477 2 12C2 12.5523 2.44772 13 3 13V11ZM20 7.8V16.2H22V7.8H20ZM10 4H16.2V2H10V4ZM16.2 20H10V22H16.2V20ZM10 20C9.00565 20 8.70464 19.9914 8.48236 19.9319L7.96472 21.8637C8.50545 22.0086 9.13441 22 10 22V20ZM5 17C5 17.8656 4.99141 18.4946 5.1363 19.0353L7.06815 18.5176C7.00859 18.2954 7 17.9944 7 17H5ZM8.48236 19.9319C7.79218 19.7469 7.25308 19.2078 7.06815 18.5176L5.1363 19.0353C5.50617 20.4156 6.58436 21.4938 7.96472 21.8637L8.48236 19.9319ZM10 2C9.13441 2 8.50544 1.99141 7.96472 2.1363L8.48236 4.06815C8.70464 4.00859 9.00565 4 10 4V2ZM7 7C7 6.00565 7.00859 5.70464 7.06815 5.48236L5.1363 4.96472C4.99141 5.50545 5 6.13441 5 7H7ZM7.96472 2.1363C6.58435 2.50617 5.50616 3.58436 5.1363 4.96472L7.06815 5.48236C7.25308 4.79218 7.79218 4.25308 8.48236 4.06815L7.96472 2.1363ZM20 16.2C20 17.0566 19.9992 17.6389 19.9624 18.089C19.9266 18.5274 19.8617 18.7516 19.782 18.908L21.564 19.816C21.8113 19.3306 21.9099 18.8139 21.9558 18.2518C22.0008 17.7014 22 17.0236 22 16.2H20ZM16.2 22C17.0236 22 17.7014 22.0008 18.2518 21.9558C18.8139 21.9099 19.3306 21.8113 19.816 21.564L18.908 19.782C18.7516 19.8617 18.5274 19.9266 18.089 19.9624C17.6389 19.9992 17.0566 20 16.2 20V22ZM19.782 18.908C19.5903 19.2843 19.2843 19.5903 18.908 19.782L19.816 21.564C20.5686 21.1805 21.1805 20.5686 21.564 19.816L19.782 18.908ZM22 7.8C22 6.97642 22.0008 6.2986 21.9558 5.74817C21.9099 5.18608 21.8113 4.66937 21.564 4.18404L19.782 5.09202C19.8617 5.24842 19.9266 5.47262 19.9624 5.91104C19.9992 6.36113 20 6.94342 20 7.8H22ZM16.2 4C17.0566 4 17.6389 4.00078 18.089 4.03755C18.5274 4.07337 18.7516 4.1383 18.908 4.21799L19.816 2.43597C19.3306 2.18868 18.8139 2.09012 18.2518 2.04419C17.7014 1.99922 17.0236 2 16.2 2V4ZM21.564 4.18404C21.1805 3.43139 20.5686 2.81947 19.816 2.43597L18.908 4.21799C19.2843 4.40973 19.5903 4.7157 19.782 5.09202L21.564 4.18404ZM11.2929 8.70711L15.2929 12.7071L16.7071 11.2929L12.7071 7.29289L11.2929 8.70711ZM15.2929 11.2929L11.2929 15.2929L12.7071 16.7071L16.7071 12.7071L15.2929 11.2929ZM3 13H16V11H3V13Z" fill="currentColor"/>
</svg>
