<svg width="100%" height="100%" viewBox="0 0 24 24" fill="none" xmlns="http://www.w3.org/2000/svg">
<path d="M8.97368 3.60359L9.10585 4.59482L8.97368 3.60359ZM15.5656 2.72467L15.4335 1.73344L15.5656 2.72467ZM15.5656 21.2755L15.4334 22.2667H15.4334L15.5656 21.2755ZM8.97368 20.3966L8.84151 21.3878L8.84152 21.3878L8.97368 20.3966ZM8.30206 20.2912L8.53471 19.3187L8.53471 19.3187L8.30206 20.2912ZM7 17.0001C7 16.4478 6.55228 16.0001 6 16.0001C5.44771 16.0001 5 16.4478 5 17.0001H7ZM6.01567 17.6797L7.01045 17.5777L7.01044 17.5777L6.01567 17.6797ZM8.30206 3.70895L8.06941 2.73639L8.06941 2.73639L8.30206 3.70895ZM5 7.00008C5 7.55237 5.44771 8.00008 6 8.00008C6.55228 8.00008 7 7.55237 7 7.00008H5ZM6.01567 6.32043L5.02089 6.21836V6.21836L6.01567 6.32043ZM20.6168 20.0407L19.7445 19.5516V19.5516L20.6168 20.0407ZM19.1084 21.3612L18.739 20.432H18.739L19.1084 21.3612ZM20.6168 3.95947L19.7445 4.44853V4.44853L20.6168 3.95947ZM19.1084 2.63892L19.4779 1.70968V1.70968L19.1084 2.63892ZM12.7071 7.29298C12.3166 6.90245 11.6834 6.90245 11.2929 7.29298C10.9024 7.6835 10.9024 8.31667 11.2929 8.70719L12.7071 7.29298ZM16 12.0001L16.7071 12.7072C17.0976 12.3167 17.0976 11.6835 16.7071 11.293L16 12.0001ZM11.2929 15.293C10.9024 15.6835 10.9024 16.3167 11.2929 16.7072C11.6834 17.0977 12.3166 17.0977 12.7071 16.7072L11.2929 15.293ZM3 11.0001C2.44772 11.0001 2 11.4478 2 12.0001C2 12.5524 2.44772 13.0001 3 13.0001V11.0001ZM20 7.48256V16.5176H22V7.48256H20ZM9.10585 4.59482L15.6978 3.7159L15.4335 1.73344L8.84152 2.61236L9.10585 4.59482ZM15.6978 20.2843L9.10585 19.4053L8.84152 21.3878L15.4334 22.2667L15.6978 20.2843ZM9.10586 19.4053C8.73411 19.3558 8.6219 19.3395 8.53471 19.3187L8.06941 21.2638C8.28078 21.3143 8.51689 21.3445 8.84151 21.3878L9.10586 19.4053ZM5 17.0001C5 17.3276 4.99871 17.5656 5.02089 17.7818L7.01044 17.5777C7.00129 17.4885 7 17.3751 7 17.0001H5ZM8.53471 19.3187C7.7084 19.121 7.09716 18.4228 7.01045 17.5777L5.02089 17.7818C5.19433 19.4722 6.41681 20.8685 8.06941 21.2638L8.53471 19.3187ZM8.84152 2.61236C8.51683 2.65566 8.28079 2.68582 8.06941 2.73639L8.5347 4.68151C8.62191 4.66065 8.73409 4.64439 9.10585 4.59482L8.84152 2.61236ZM7 7.00008C7 6.62504 7.00129 6.51169 7.01044 6.42249L5.02089 6.21836C4.99871 6.43457 5 6.67252 5 7.00008H7ZM8.06941 2.73639C6.41681 3.13171 5.19433 4.528 5.02089 6.21836L7.01044 6.42249C7.09716 5.57732 7.7084 4.87917 8.53471 4.68151L8.06941 2.73639ZM20 16.5176C20 17.4817 19.9991 18.1413 19.9558 18.6473C19.9132 19.1434 19.836 19.3885 19.7445 19.5516L21.489 20.5297C21.7808 20.0094 21.8952 19.4395 21.9484 18.8181C22.0009 18.2068 22 17.4466 22 16.5176H20ZM15.4334 22.2667C16.3543 22.3895 17.1077 22.4908 17.7206 22.5197C18.3435 22.549 18.9236 22.5109 19.4779 22.2905L18.739 20.432C18.5652 20.5011 18.312 20.5453 17.8146 20.5219C17.3073 20.498 16.6534 20.4117 15.6978 20.2843L15.4334 22.2667ZM19.7445 19.5516C19.5202 19.9517 19.1652 20.2625 18.739 20.432L19.4779 22.2905C20.3304 21.9515 21.0404 21.3299 21.489 20.5297L19.7445 19.5516ZM22 7.48256C22 6.5536 22.0009 5.7934 21.9484 5.18202C21.8952 4.5607 21.7808 3.99079 21.489 3.47042L19.7445 4.44853C19.836 4.61168 19.9132 4.8568 19.9558 5.35288C19.9991 5.8589 20 6.51848 20 7.48256H22ZM15.6978 3.7159C16.6534 3.58848 17.3073 3.50216 17.8146 3.47829C18.312 3.45489 18.5652 3.49905 18.739 3.56816L19.4779 1.70968C18.9236 1.48925 18.3435 1.45119 17.7206 1.4805C17.1077 1.50934 16.3543 1.61067 15.4335 1.73344L15.6978 3.7159ZM21.489 3.47042C21.0404 2.67026 20.3304 2.04862 19.4779 1.70968L18.739 3.56816C19.1652 3.73763 19.5202 4.04845 19.7445 4.44853L21.489 3.47042ZM11.2929 8.70719L15.2929 12.7072L16.7071 11.293L12.7071 7.29298L11.2929 8.70719ZM15.2929 11.293L11.2929 15.293L12.7071 16.7072L16.7071 12.7072L15.2929 11.293ZM3 13.0001H16V11.0001H3V13.0001Z" fill="currentColor"/>
</svg>
