<svg width="100%" height="100%" viewBox="0 0 24 24" fill="none" xmlns="http://www.w3.org/2000/svg">
<path d="M16.6 9V8V9ZM15.546 8.89101L16 8L15.546 8.89101ZM15.109 8.45399L16 8L15.109 8.45399ZM20.891 9.54601L20 10L20.891 9.54601ZM19.4 9V10V9ZM20.454 9.10899L20 10L20.454 9.10899ZM20.454 14.891L20 14L20.454 14.891ZM20.891 14.454L20 14L20.891 14.454ZM15.109 15.546L16 16L15.109 15.546ZM15.546 15.109L16 16L15.546 15.109ZM14.454 20.891L14 20L14.454 20.891ZM14.891 20.454L14 20L14.891 20.454ZM9.10899 20.454L10 20L9.10899 20.454ZM9.54601 20.891L10 20L9.54601 20.891ZM8.45399 15.109L8 16L8.45399 15.109ZM8.89101 15.546L8 16L8.89101 15.546ZM3.10899 14.454L4 14L3.10899 14.454ZM3.54601 14.891L4 14L3.54601 14.891ZM4.6 9L4.6 10H4.6V9ZM3.54601 9.10899L3.09202 8.21799H3.09202L3.54601 9.10899ZM3.10899 9.54601L4 10L3.10899 9.54601ZM8.89101 8.45399L8 8L8.89101 8.45399ZM7.4 9V8V9ZM8.45399 8.89101L8.90798 9.78201L8.45399 8.89101ZM14.454 3.10899L14 4L14.454 3.10899ZM14.891 3.54601L14 4L14.891 3.54601ZM9.54601 3.10899L10 4L9.54601 3.10899ZM9.10899 3.54601L10 4L9.10899 3.54601ZM10.6 4H13.4V2H10.6V4ZM10 7.4V4.6H8V7.4H10ZM4.6 10H7.4V8H4.6V10ZM4 13.4V10.6H2V13.4H4ZM7.4 14H4.6V16H7.4V14ZM10 19.4V16.6H8V19.4H10ZM13.4 20H10.6V22H13.4V20ZM14 16.6V19.4H16V16.6H14ZM19.4 14H16.6V16H19.4V14ZM20 10.6V13.4H22V10.6H20ZM16.6 10L19.4 10V8L16.6 8V10ZM14 4.6V7.4H16V4.6H14ZM16.6 8C16.3035 8 16.1412 7.99922 16.0246 7.9897C15.9197 7.98112 15.9425 7.9707 16 8L15.092 9.78201C15.3634 9.92031 15.6332 9.96438 15.8618 9.98305C16.0787 10.0008 16.3365 10 16.6 10V8ZM14 7.4C14 7.66353 13.9992 7.92131 14.0169 8.13823C14.0356 8.36682 14.0797 8.63656 14.218 8.90798L16 8C16.0293 8.05751 16.0189 8.08028 16.0103 7.97537C16.0008 7.85878 16 7.69653 16 7.4H14ZM16 8L14.218 8.90798C14.4097 9.2843 14.7157 9.59027 15.092 9.78201L16 8ZM22 10.6C22 10.3365 22.0008 10.0787 21.9831 9.86177C21.9644 9.63318 21.9203 9.36344 21.782 9.09202L20 10C19.9707 9.94249 19.9811 9.91972 19.9897 10.0246C19.9992 10.1412 20 10.3035 20 10.6H22ZM19.4 10C19.6965 10 19.8588 10.0008 19.9754 10.0103C20.0803 10.0189 20.0575 10.0293 20 10L20.908 8.21799C20.6366 8.07969 20.3668 8.03562 20.1382 8.01695C19.9213 7.99922 19.6635 8 19.4 8V10ZM21.782 9.09202C21.5903 8.7157 21.2843 8.40973 20.908 8.21799L20 10L21.782 9.09202ZM19.4 16C19.6635 16 19.9213 16.0008 20.1382 15.9831C20.3668 15.9644 20.6366 15.9203 20.908 15.782L20 14C20.0575 13.9707 20.0803 13.9811 19.9754 13.9897C19.8588 13.9992 19.6965 14 19.4 14V16ZM20 13.4C20 13.6965 19.9992 13.8588 19.9897 13.9754C19.9811 14.0803 19.9707 14.0575 20 14L21.782 14.908C21.9203 14.6366 21.9644 14.3668 21.9831 14.1382C22.0008 13.9213 22 13.6635 22 13.4H20ZM20.908 15.782C21.2843 15.5903 21.5903 15.2843 21.782 14.908L20 14L20.908 15.782ZM16 16.6C16 16.3035 16.0008 16.1412 16.0103 16.0246C16.0189 15.9197 16.0293 15.9425 16 16L14.218 15.092C14.0797 15.3634 14.0356 15.6332 14.0169 15.8618C13.9992 16.0787 14 16.3365 14 16.6H16ZM16.6 14C16.3365 14 16.0787 13.9992 15.8618 14.0169C15.6332 14.0356 15.3634 14.0797 15.092 14.218L16 16C15.9425 16.0293 15.9197 16.0189 16.0246 16.0103C16.1412 16.0008 16.3035 16 16.6 16V14ZM16 16L15.092 14.218C14.7157 14.4097 14.4097 14.7157 14.218 15.092L16 16ZM13.4 22C13.6635 22 13.9213 22.0008 14.1382 21.9831C14.3668 21.9644 14.6366 21.9203 14.908 21.782L14 20C14.0575 19.9707 14.0803 19.9811 13.9754 19.9897C13.8588 19.9992 13.6965 20 13.4 20V22ZM14 19.4C14 19.6965 13.9992 19.8588 13.9897 19.9754C13.9811 20.0803 13.9707 20.0575 14 20L15.782 20.908C15.9203 20.6366 15.9644 20.3668 15.9831 20.1382C16.0008 19.9213 16 19.6635 16 19.4H14ZM14.908 21.782C15.2843 21.5903 15.5903 21.2843 15.782 20.908L14 20L14.908 21.782ZM8 19.4C8 19.6635 7.99922 19.9213 8.01695 20.1382C8.03562 20.3668 8.07969 20.6366 8.21799 20.908L10 20C10.0293 20.0575 10.0189 20.0803 10.0103 19.9754C10.0008 19.8588 10 19.6965 10 19.4H8ZM10.6 20C10.3035 20 10.1412 19.9992 10.0246 19.9897C9.91972 19.9811 9.94249 19.9707 10 20L9.09202 21.782C9.36344 21.9203 9.63318 21.9644 9.86177 21.9831C10.0787 22.0008 10.3365 22 10.6 22V20ZM8.21799 20.908C8.40973 21.2843 8.7157 21.5903 9.09202 21.782L10 20L8.21799 20.908ZM7.4 16C7.69653 16 7.85878 16.0008 7.97537 16.0103C8.08028 16.0189 8.05751 16.0293 8 16L8.90798 14.218C8.63656 14.0797 8.36682 14.0356 8.13823 14.0169C7.92131 13.9992 7.66353 14 7.4 14V16ZM10 16.6C10 16.3365 10.0008 16.0787 9.98305 15.8618C9.96438 15.6332 9.92031 15.3634 9.78201 15.092L8 16C7.9707 15.9425 7.98113 15.9197 7.9897 16.0246C7.99922 16.1412 8 16.3035 8 16.6H10ZM8 16L9.78201 15.092C9.59027 14.7157 9.2843 14.4097 8.90798 14.218L8 16ZM2 13.4C2 13.6635 1.99922 13.9213 2.01695 14.1382C2.03562 14.3668 2.07969 14.6366 2.21799 14.908L4 14C4.0293 14.0575 4.01887 14.0803 4.0103 13.9754C4.00078 13.8588 4 13.6965 4 13.4H2ZM4.6 14C4.30347 14 4.14122 13.9992 4.02463 13.9897C3.91972 13.9811 3.94249 13.9707 4 14L3.09202 15.782C3.36344 15.9203 3.63318 15.9644 3.86177 15.9831C4.07869 16.0008 4.33647 16 4.6 16V14ZM2.21799 14.908C2.40973 15.2843 2.7157 15.5903 3.09202 15.782L4 14L2.21799 14.908ZM4.6 8C4.33648 8 4.07869 7.99922 3.86177 8.01694C3.63318 8.03562 3.36344 8.07969 3.09202 8.21799L4 10C3.94249 10.0293 3.91972 10.0189 4.02463 10.0103C4.14122 10.0008 4.30347 10 4.6 10L4.6 8ZM4 10.6C4 10.3035 4.00078 10.1412 4.0103 10.0246C4.01887 9.91972 4.0293 9.94249 4 10L2.21799 9.09202C2.07969 9.36344 2.03562 9.63318 2.01695 9.86177C1.99922 10.0787 2 10.3365 2 10.6H4ZM3.09202 8.21799C2.71569 8.40973 2.40973 8.71569 2.21799 9.09202L4 10L3.09202 8.21799ZM8 7.4C8 7.69653 7.99922 7.85878 7.9897 7.97537C7.98113 8.08028 7.9707 8.05751 8 8L9.78201 8.90798C9.92031 8.63656 9.96438 8.36682 9.98305 8.13823C10.0008 7.92131 10 7.66352 10 7.4H8ZM7.4 10C7.66353 10 7.92131 10.0008 8.13823 9.98305C8.36682 9.96438 8.63656 9.92031 8.90798 9.78201L8 8C8.05751 7.9707 8.08028 7.98112 7.97537 7.9897C7.85878 7.99922 7.69653 8 7.4 8V10ZM8 8L8.90798 9.78201C9.28431 9.59027 9.59027 9.2843 9.78201 8.90798L8 8ZM13.4 4C13.6965 4 13.8588 4.00078 13.9754 4.0103C14.0803 4.01887 14.0575 4.0293 14 4L14.908 2.21799C14.6366 2.07969 14.3668 2.03562 14.1382 2.01695C13.9213 1.99922 13.6635 2 13.4 2V4ZM16 4.6C16 4.33647 16.0008 4.07869 15.9831 3.86177C15.9644 3.63318 15.9203 3.36344 15.782 3.09202L14 4C13.9707 3.94249 13.9811 3.91972 13.9897 4.02463C13.9992 4.14122 14 4.30347 14 4.6H16ZM14 4L15.782 3.09202C15.5903 2.7157 15.2843 2.40973 14.908 2.21799L14 4ZM10.6 2C10.3365 2 10.0787 1.99922 9.86177 2.01695C9.63318 2.03562 9.36344 2.07969 9.09202 2.21799L10 4C9.94249 4.0293 9.91972 4.01887 10.0246 4.0103C10.1412 4.00078 10.3035 4 10.6 4V2ZM10 4.6C10 4.30347 10.0008 4.14122 10.0103 4.02463C10.0189 3.91972 10.0293 3.94249 10 4L8.21799 3.09202C8.07969 3.36344 8.03562 3.63318 8.01695 3.86177C7.99922 4.07869 8 4.33647 8 4.6H10ZM9.09202 2.21799C8.71569 2.40973 8.40973 2.71569 8.21799 3.09202L10 4L9.09202 2.21799Z" fill="currentColor"/>
</svg>
