<svg width="100%" height="100%" viewBox="0 0 24 24" fill="none" xmlns="http://www.w3.org/2000/svg">
<path d="M4.63803 20.673L4.18404 21.564L4.63803 20.673ZM3.32698 19.362L2.43597 19.816L3.32698 19.362ZM20.673 19.362L21.564 19.816L20.673 19.362ZM19.362 20.673L19.816 21.564L19.362 20.673ZM19.362 3.32698L19.816 2.43597L19.362 3.32698ZM20.673 4.63803L21.564 4.18404L20.673 4.63803ZM4.63803 3.32698L4.18404 2.43597L4.63803 3.32698ZM3.32698 4.63803L2.43597 4.18404L3.32698 4.63803ZM14.6333 10.1667V11.1667V10.1667ZM14.1063 10.1122L14.5603 9.22116L14.1063 10.1122ZM13.8878 9.89366L14.7788 9.43967L13.8878 9.89366ZM17.4455 10.4397L16.5545 10.8937L17.4455 10.4397ZM16.7 10.1667V9.16667V10.1667ZM17.227 10.2212L16.773 11.1122L17.227 10.2212ZM17.227 13.7788L16.773 12.8878L17.227 13.7788ZM17.4455 13.5603L16.5545 13.1063L17.4455 13.5603ZM13.8878 14.1063L14.7788 14.5603L13.8878 14.1063ZM14.1063 13.8878L14.5603 14.7788L14.1063 13.8878ZM13.5603 17.4455L13.1063 16.5545L13.5603 17.4455ZM13.7788 17.227L12.8878 16.773L13.7788 17.227ZM10.2212 17.227L11.1122 16.773L10.2212 17.227ZM10.4397 17.4455L10.8937 16.5545L10.4397 17.4455ZM9.89366 13.8878L9.43967 14.7788L9.89366 13.8878ZM10.1122 14.1063L9.22116 14.5603L10.1122 14.1063ZM6.5545 13.5603L7.4455 13.1063L6.5545 13.5603ZM6.773 13.7788L7.227 12.8878L6.773 13.7788ZM7.3 10.1667V11.1667V10.1667ZM6.773 10.2212L6.31901 9.33016L6.773 10.2212ZM6.5545 10.4397L7.4455 10.8937L6.5545 10.4397ZM10.1122 9.89366L9.22116 9.43967L10.1122 9.89366ZM9.36667 10.1667V9.16667V10.1667ZM9.89366 10.1122L10.3477 11.0032L9.89366 10.1122ZM13.5603 6.5545L13.1063 7.4455L13.5603 6.5545ZM13.7788 6.773L12.8878 7.227L13.7788 6.773ZM10.4397 6.5545L10.8937 7.4455L10.4397 6.5545ZM10.2212 6.773L11.1122 7.227L10.2212 6.773ZM7.8 4H16.2V2H7.8V4ZM20 7.8V16.2H22V7.8H20ZM16.2 20H7.8V22H16.2V20ZM4 16.2V7.8H2V16.2H4ZM7.8 20C6.94342 20 6.36113 19.9992 5.91104 19.9624C5.47262 19.9266 5.24842 19.8617 5.09202 19.782L4.18404 21.564C4.66937 21.8113 5.18608 21.9099 5.74817 21.9558C6.2986 22.0008 6.97642 22 7.8 22V20ZM2 16.2C2 17.0236 1.99922 17.7014 2.04419 18.2518C2.09012 18.8139 2.18868 19.3306 2.43597 19.816L4.21799 18.908C4.1383 18.7516 4.07337 18.5274 4.03755 18.089C4.00078 17.6389 4 17.0566 4 16.2H2ZM5.09202 19.782C4.7157 19.5903 4.40973 19.2843 4.21799 18.908L2.43597 19.816C2.81947 20.5686 3.43139 21.1805 4.18404 21.564L5.09202 19.782ZM20 16.2C20 17.0566 19.9992 17.6389 19.9624 18.089C19.9266 18.5274 19.8617 18.7516 19.782 18.908L21.564 19.816C21.8113 19.3306 21.9099 18.8139 21.9558 18.2518C22.0008 17.7014 22 17.0236 22 16.2H20ZM16.2 22C17.0236 22 17.7014 22.0008 18.2518 21.9558C18.8139 21.9099 19.3306 21.8113 19.816 21.564L18.908 19.782C18.7516 19.8617 18.5274 19.9266 18.089 19.9624C17.6389 19.9992 17.0566 20 16.2 20V22ZM19.782 18.908C19.5903 19.2843 19.2843 19.5903 18.908 19.782L19.816 21.564C20.5686 21.1805 21.1805 20.5686 21.564 19.816L19.782 18.908ZM16.2 4C17.0566 4 17.6389 4.00078 18.089 4.03755C18.5274 4.07337 18.7516 4.1383 18.908 4.21799L19.816 2.43597C19.3306 2.18868 18.8139 2.09012 18.2518 2.04419C17.7014 1.99922 17.0236 2 16.2 2V4ZM22 7.8C22 6.97642 22.0008 6.2986 21.9558 5.74817C21.9099 5.18608 21.8113 4.66937 21.564 4.18404L19.782 5.09202C19.8617 5.24842 19.9266 5.47262 19.9624 5.91104C19.9992 6.36113 20 6.94342 20 7.8H22ZM18.908 4.21799C19.2843 4.40973 19.5903 4.7157 19.782 5.09202L21.564 4.18404C21.1805 3.43139 20.5686 2.81947 19.816 2.43597L18.908 4.21799ZM7.8 2C6.97642 2 6.2986 1.99922 5.74817 2.04419C5.18608 2.09012 4.66937 2.18868 4.18404 2.43597L5.09202 4.21799C5.24842 4.1383 5.47262 4.07337 5.91104 4.03755C6.36113 4.00078 6.94342 4 7.8 4V2ZM4 7.8C4 6.94342 4.00078 6.36113 4.03755 5.91104C4.07337 5.47262 4.1383 5.24842 4.21799 5.09202L2.43597 4.18404C2.18868 4.66937 2.09012 5.18608 2.04419 5.74817C1.99922 6.2986 2 6.97642 2 7.8H4ZM4.18404 2.43597C3.43139 2.81947 2.81947 3.43139 2.43597 4.18404L4.21799 5.09202C4.40973 4.71569 4.71569 4.40973 5.09202 4.21799L4.18404 2.43597ZM10.9667 7.5H13.0333V5.5H10.9667V7.5ZM11.1667 9.36667V7.3H9.16667V9.36667H11.1667ZM7.3 11.1667H9.36667V9.16667H7.3V11.1667ZM7.5 13.0333V10.9667H5.5V13.0333H7.5ZM9.36667 12.8333H7.3V14.8333H9.36667V12.8333ZM11.1667 16.7V14.6333H9.16667V16.7H11.1667ZM13.0333 16.5H10.9667V18.5H13.0333V16.5ZM12.8333 14.6333V16.7H14.8333V14.6333H12.8333ZM16.7 12.8333H14.6333V14.8333H16.7V12.8333ZM16.5 10.9667V13.0333H18.5V10.9667H16.5ZM14.6333 11.1667H16.7V9.16667H14.6333V11.1667ZM12.8333 7.3V9.36667H14.8333V7.3H12.8333ZM14.6333 9.16667C14.561 9.16667 14.5083 9.16664 14.4636 9.16594C14.4189 9.16524 14.3965 9.16401 14.3864 9.16318C14.3766 9.16238 14.3928 9.16304 14.4237 9.1703C14.4577 9.17832 14.506 9.19348 14.5603 9.22116L13.6523 11.0032C13.8703 11.1142 14.0783 11.1447 14.2235 11.1565C14.357 11.1674 14.5098 11.1667 14.6333 11.1667V9.16667ZM12.8333 9.36667C12.8333 9.49018 12.8326 9.64295 12.8435 9.77649C12.8553 9.92171 12.8858 10.1297 12.9968 10.3477L14.7788 9.43967C14.8065 9.494 14.8217 9.54232 14.8297 9.57635C14.837 9.60721 14.8376 9.62341 14.8368 9.61364C14.836 9.60348 14.8348 9.58113 14.8341 9.53639C14.8334 9.49168 14.8333 9.43896 14.8333 9.36667H12.8333ZM14.5603 9.22116C14.6544 9.2691 14.7309 9.34559 14.7788 9.43967L12.9968 10.3477C13.1406 10.6299 13.3701 10.8594 13.6523 11.0032L14.5603 9.22116ZM18.5 10.9667C18.5 10.8432 18.5008 10.6904 18.4899 10.5568C18.478 10.4116 18.4476 10.2036 18.3365 9.98568L16.5545 10.8937C16.5268 10.8393 16.5117 10.791 16.5036 10.757C16.4964 10.7261 16.4957 10.7099 16.4965 10.7197C16.4973 10.7299 16.4986 10.7522 16.4993 10.7969C16.5 10.8417 16.5 10.8944 16.5 10.9667H18.5ZM16.7 11.1667C16.7723 11.1667 16.825 11.1667 16.8697 11.1674C16.9145 11.1681 16.9368 11.1693 16.947 11.1702C16.9567 11.171 16.9405 11.1703 16.9097 11.163C16.8757 11.155 16.8273 11.1399 16.773 11.1122L17.681 9.33016C17.463 9.21911 17.255 9.18866 17.1098 9.1768C16.9763 9.16589 16.8235 9.16667 16.7 9.16667V11.1667ZM18.3365 9.98568C18.1927 9.70344 17.9632 9.47397 17.681 9.33016L16.773 11.1122C16.6789 11.0642 16.6024 10.9877 16.5545 10.8937L18.3365 9.98568ZM16.7 14.8333C16.8235 14.8333 16.9763 14.8341 17.1098 14.8232C17.255 14.8113 17.463 14.7809 17.681 14.6698L16.773 12.8878C16.8273 12.8601 16.8757 12.845 16.9097 12.837C16.9405 12.8297 16.9567 12.829 16.947 12.8298C16.9368 12.8307 16.9145 12.8319 16.8697 12.8326C16.825 12.8333 16.7723 12.8333 16.7 12.8333V14.8333ZM16.5 13.0333C16.5 13.1056 16.5 13.1583 16.4993 13.2031C16.4986 13.2478 16.4973 13.2701 16.4965 13.2803C16.4957 13.2901 16.4964 13.2739 16.5036 13.243C16.5117 13.209 16.5268 13.1607 16.5545 13.1063L18.3365 14.0143C18.4476 13.7964 18.478 13.5884 18.4899 13.4432C18.5008 13.3096 18.5 13.1568 18.5 13.0333H16.5ZM17.681 14.6698C17.9632 14.526 18.1927 14.2966 18.3365 14.0143L16.5545 13.1063C16.6024 13.0123 16.6789 12.9358 16.773 12.8878L17.681 14.6698ZM14.8333 14.6333C14.8333 14.561 14.8334 14.5083 14.8341 14.4636C14.8348 14.4189 14.836 14.3965 14.8368 14.3864C14.8376 14.3766 14.837 14.3928 14.8297 14.4236C14.8217 14.4577 14.8065 14.506 14.7788 14.5603L12.9968 13.6523C12.8858 13.8703 12.8553 14.0783 12.8435 14.2235C12.8326 14.357 12.8333 14.5098 12.8333 14.6333H14.8333ZM14.6333 12.8333C14.5098 12.8333 14.357 12.8326 14.2235 12.8435C14.0783 12.8553 13.8703 12.8858 13.6523 12.9968L14.5603 14.7788C14.506 14.8065 14.4577 14.8217 14.4236 14.8297C14.3928 14.837 14.3766 14.8376 14.3864 14.8368C14.3965 14.836 14.4189 14.8348 14.4636 14.8341C14.5083 14.8334 14.561 14.8333 14.6333 14.8333V12.8333ZM14.7788 14.5603C14.7309 14.6544 14.6544 14.7309 14.5603 14.7788L13.6523 12.9968C13.3701 13.1406 13.1406 13.3701 12.9968 13.6523L14.7788 14.5603ZM13.0333 18.5C13.1568 18.5 13.3096 18.5008 13.4432 18.4899C13.5884 18.478 13.7964 18.4476 14.0143 18.3365L13.1063 16.5545C13.1607 16.5268 13.209 16.5117 13.243 16.5036C13.2739 16.4964 13.2901 16.4957 13.2803 16.4965C13.2701 16.4973 13.2478 16.4986 13.2031 16.4993C13.1583 16.5 13.1056 16.5 13.0333 16.5V18.5ZM12.8333 16.7C12.8333 16.7723 12.8333 16.825 12.8326 16.8697C12.8319 16.9145 12.8307 16.9368 12.8298 16.947C12.829 16.9567 12.8297 16.9405 12.837 16.9097C12.845 16.8757 12.8601 16.8273 12.8878 16.773L14.6698 17.681C14.7809 17.463 14.8113 17.255 14.8232 17.1098C14.8341 16.9763 14.8333 16.8235 14.8333 16.7H12.8333ZM14.0143 18.3365C14.2966 18.1927 14.526 17.9632 14.6698 17.681L12.8878 16.773C12.9358 16.6789 13.0123 16.6024 13.1063 16.5545L14.0143 18.3365ZM9.16667 16.7C9.16667 16.8235 9.16589 16.9763 9.1768 17.1098C9.18866 17.255 9.21911 17.463 9.33016 17.681L11.1122 16.773C11.1399 16.8273 11.155 16.8757 11.163 16.9097C11.1703 16.9405 11.171 16.9567 11.1702 16.947C11.1693 16.9368 11.1681 16.9145 11.1674 16.8697C11.1667 16.825 11.1667 16.7723 11.1667 16.7H9.16667ZM10.9667 16.5C10.8944 16.5 10.8417 16.5 10.7969 16.4993C10.7522 16.4986 10.7299 16.4973 10.7197 16.4965C10.7099 16.4957 10.7261 16.4964 10.757 16.5036C10.791 16.5117 10.8393 16.5268 10.8937 16.5545L9.98568 18.3365C10.2036 18.4476 10.4116 18.478 10.5568 18.4899C10.6904 18.5008 10.8432 18.5 10.9667 18.5V16.5ZM9.33016 17.681C9.47397 17.9632 9.70344 18.1927 9.98568 18.3365L10.8937 16.5545C10.9877 16.6024 11.0642 16.6789 11.1122 16.773L9.33016 17.681ZM9.36667 14.8333C9.43896 14.8333 9.49168 14.8334 9.53639 14.8341C9.58113 14.8348 9.60348 14.836 9.61364 14.8368C9.62341 14.8376 9.60721 14.837 9.57635 14.8297C9.54232 14.8217 9.494 14.8065 9.43967 14.7788L10.3477 12.9968C10.1297 12.8858 9.92171 12.8553 9.77649 12.8435C9.64295 12.8326 9.49018 12.8333 9.36667 12.8333V14.8333ZM11.1667 14.6333C11.1667 14.5098 11.1674 14.357 11.1565 14.2235C11.1447 14.0783 11.1142 13.8703 11.0032 13.6523L9.22116 14.5603C9.19348 14.506 9.17832 14.4577 9.1703 14.4237C9.16304 14.3928 9.16238 14.3766 9.16318 14.3864C9.16401 14.3965 9.16524 14.4189 9.16594 14.4636C9.16664 14.5083 9.16667 14.561 9.16667 14.6333H11.1667ZM9.43967 14.7788C9.34559 14.7309 9.2691 14.6544 9.22116 14.5603L11.0032 13.6523C10.8594 13.3701 10.6299 13.1406 10.3477 12.9968L9.43967 14.7788ZM5.5 13.0333C5.5 13.1568 5.49922 13.3096 5.51013 13.4432C5.522 13.5884 5.55244 13.7964 5.66349 14.0143L7.4455 13.1063C7.47318 13.1607 7.48835 13.209 7.49636 13.243C7.50363 13.2739 7.50429 13.2901 7.50349 13.2803C7.50266 13.2701 7.50143 13.2478 7.50073 13.2031C7.50003 13.1583 7.5 13.1056 7.5 13.0333H5.5ZM7.3 12.8333C7.22771 12.8333 7.17499 12.8333 7.13028 12.8326C7.08554 12.8319 7.06319 12.8307 7.05303 12.8298C7.04326 12.829 7.05946 12.8297 7.09032 12.837C7.12435 12.845 7.17267 12.8601 7.227 12.8878L6.31901 14.6698C6.53696 14.7809 6.74495 14.8113 6.89017 14.8232C7.02371 14.8341 7.17649 14.8333 7.3 14.8333V12.8333ZM5.66349 14.0143C5.8073 14.2966 6.03677 14.526 6.31901 14.6698L7.227 12.8878C7.32108 12.9358 7.39757 13.0123 7.4455 13.1063L5.66349 14.0143ZM7.3 9.16667C7.17649 9.16667 7.02371 9.16589 6.89017 9.1768C6.74495 9.18866 6.53696 9.21911 6.31901 9.33016L7.227 11.1122C7.17267 11.1399 7.12435 11.155 7.09032 11.163C7.05946 11.1703 7.04326 11.171 7.05303 11.1702C7.06319 11.1693 7.08554 11.1681 7.13028 11.1674C7.17499 11.1667 7.22771 11.1667 7.3 11.1667V9.16667ZM7.5 10.9667C7.5 10.8944 7.50003 10.8417 7.50073 10.7969C7.50143 10.7522 7.50266 10.7299 7.50349 10.7197C7.50429 10.7099 7.50363 10.7261 7.49636 10.757C7.48835 10.791 7.47318 10.8393 7.4455 10.8937L5.66349 9.98568C5.55244 10.2036 5.522 10.4116 5.51013 10.5568C5.49922 10.6904 5.5 10.8432 5.5 10.9667H7.5ZM6.31901 9.33016C6.03677 9.47397 5.8073 9.70344 5.66349 9.98568L7.4455 10.8937C7.39757 10.9877 7.32108 11.0642 7.227 11.1122L6.31901 9.33016ZM9.16667 9.36667C9.16667 9.43896 9.16664 9.49168 9.16594 9.53639C9.16524 9.58113 9.16401 9.60347 9.16318 9.61363C9.16238 9.62341 9.16304 9.60721 9.1703 9.57635C9.17832 9.54232 9.19348 9.494 9.22116 9.43967L11.0032 10.3477C11.1142 10.1297 11.1447 9.92171 11.1565 9.7765C11.1674 9.64295 11.1667 9.49018 11.1667 9.36667H9.16667ZM9.36667 11.1667C9.49018 11.1667 9.64295 11.1674 9.7765 11.1565C9.92171 11.1447 10.1297 11.1142 10.3477 11.0032L9.43967 9.22116C9.494 9.19348 9.54232 9.17832 9.57635 9.1703C9.60721 9.16304 9.62341 9.16238 9.61363 9.16318C9.60347 9.16401 9.58113 9.16524 9.53639 9.16594C9.49168 9.16664 9.43896 9.16667 9.36667 9.16667V11.1667ZM9.22116 9.43967C9.2691 9.34559 9.34559 9.2691 9.43967 9.22116L10.3477 11.0032C10.6299 10.8594 10.8594 10.6299 11.0032 10.3477L9.22116 9.43967ZM13.0333 7.5C13.1056 7.5 13.1583 7.50003 13.2031 7.50073C13.2478 7.50143 13.2701 7.50266 13.2803 7.50349C13.2901 7.50429 13.2739 7.50363 13.243 7.49636C13.209 7.48835 13.1607 7.47318 13.1063 7.4455L14.0143 5.66349C13.7964 5.55244 13.5884 5.522 13.4432 5.51013C13.3096 5.49922 13.1568 5.5 13.0333 5.5V7.5ZM14.8333 7.3C14.8333 7.17649 14.8341 7.02371 14.8232 6.89017C14.8113 6.74495 14.7809 6.53696 14.6698 6.31901L12.8878 7.227C12.8601 7.17267 12.845 7.12435 12.837 7.09032C12.8297 7.05946 12.829 7.04326 12.8298 7.05303C12.8307 7.06319 12.8319 7.08554 12.8326 7.13028C12.8333 7.17499 12.8333 7.22771 12.8333 7.3H14.8333ZM13.1063 7.4455C13.0123 7.39757 12.9358 7.32108 12.8878 7.227L14.6698 6.31901C14.526 6.03677 14.2966 5.8073 14.0143 5.66349L13.1063 7.4455ZM10.9667 5.5C10.8432 5.5 10.6904 5.49922 10.5568 5.51013C10.4116 5.522 10.2036 5.55244 9.98568 5.66349L10.8937 7.4455C10.8393 7.47318 10.791 7.48835 10.757 7.49636C10.7261 7.50363 10.7099 7.50429 10.7197 7.50349C10.7299 7.50266 10.7522 7.50143 10.7969 7.50073C10.8417 7.50003 10.8944 7.5 10.9667 7.5V5.5ZM11.1667 7.3C11.1667 7.22771 11.1667 7.17499 11.1674 7.13028C11.1681 7.08554 11.1693 7.06319 11.1702 7.05303C11.171 7.04326 11.1703 7.05946 11.163 7.09032C11.155 7.12435 11.1399 7.17267 11.1122 7.227L9.33016 6.31901C9.21911 6.53696 9.18866 6.74495 9.1768 6.89017C9.16589 7.02371 9.16667 7.17649 9.16667 7.3H11.1667ZM9.98568 5.66349C9.70344 5.8073 9.47397 6.03677 9.33016 6.31901L11.1122 7.227C11.0642 7.32108 10.9877 7.39757 10.8937 7.4455L9.98568 5.66349Z" fill="currentColor"/>
</svg>
