<svg width="100%" height="100%" viewBox="0 0 24 24" fill="none" xmlns="http://www.w3.org/2000/svg">
<path d="M19.7071 5.70711C20.0976 5.31658 20.0976 4.68342 19.7071 4.29289C19.3166 3.90237 18.6834 3.90237 18.2929 4.29289L19.7071 5.70711ZM4.29289 18.2929C3.90237 18.6834 3.90237 19.3166 4.29289 19.7071C4.68342 20.0976 5.31658 20.0976 5.70711 19.7071L4.29289 18.2929ZM18.2929 4.29289L4.29289 18.2929L5.70711 19.7071L19.7071 5.70711L18.2929 4.29289ZM8 7C8 7.55228 7.55228 8 7 8V10C8.65685 10 10 8.65685 10 7H8ZM7 8C6.44772 8 6 7.55228 6 7H4C4 8.65685 5.34315 10 7 10V8ZM6 7C6 6.44772 6.44772 6 7 6V4C5.34315 4 4 5.34315 4 7H6ZM7 6C7.55228 6 8 6.44772 8 7H10C10 5.34315 8.65685 4 7 4V6ZM18 17C18 17.5523 17.5523 18 17 18V20C18.6569 20 20 18.6569 20 17H18ZM17 18C16.4477 18 16 17.5523 16 17H14C14 18.6569 15.3431 20 17 20V18ZM16 17C16 16.4477 16.4477 16 17 16V14C15.3431 14 14 15.3431 14 17H16ZM17 16C17.5523 16 18 16.4477 18 17H20C20 15.3431 18.6569 14 17 14V16Z" fill="currentColor"/>
</svg>
