<svg width="100%" height="100%" viewBox="0 0 24 24" fill="none" xmlns="http://www.w3.org/2000/svg">
<path d="M19.7071 5.70711C20.0976 5.31658 20.0976 4.68342 19.7071 4.29289C19.3166 3.90237 18.6834 3.90237 18.2929 4.29289L19.7071 5.70711ZM4.29289 18.2929C3.90237 18.6834 3.90237 19.3166 4.29289 19.7071C4.68342 20.0976 5.31658 20.0976 5.70711 19.7071L4.29289 18.2929ZM18.2929 4.29289L4.29289 18.2929L5.70711 19.7071L19.7071 5.70711L18.2929 4.29289ZM6.5 6.5V8.5C7.60457 8.5 8.5 7.60457 8.5 6.5H6.5ZM6.5 6.5H4.5C4.5 7.60457 5.39543 8.5 6.5 8.5V6.5ZM6.5 6.5V4.5C5.39543 4.5 4.5 5.39543 4.5 6.5H6.5ZM6.5 6.5H8.5C8.5 5.39543 7.60457 4.5 6.5 4.5V6.5ZM17.5 17.5V19.5C18.6046 19.5 19.5 18.6046 19.5 17.5H17.5ZM17.5 17.5H15.5C15.5 18.6046 16.3954 19.5 17.5 19.5V17.5ZM17.5 17.5V15.5C16.3954 15.5 15.5 16.3954 15.5 17.5H17.5ZM17.5 17.5H19.5C19.5 16.3954 18.6046 15.5 17.5 15.5V17.5Z" fill="currentColor"/>
</svg>
