<svg width="100%" height="100%" viewBox="0 0 24 24" fill="none" xmlns="http://www.w3.org/2000/svg">
<path d="M9 8C8.44772 8 8 8.44772 8 9C8 9.55228 8.44772 10 9 10V8ZM9.01 10C9.56228 10 10.01 9.55228 10.01 9C10.01 8.44772 9.56228 8 9.01 8V10ZM15 14C14.4477 14 14 14.4477 14 15C14 15.5523 14.4477 16 15 16V14ZM15.01 16C15.5623 16 16.01 15.5523 16.01 15C16.01 14.4477 15.5623 14 15.01 14V16ZM16.7071 8.70711C17.0976 8.31658 17.0976 7.68342 16.7071 7.29289C16.3166 6.90237 15.6834 6.90237 15.2929 7.29289L16.7071 8.70711ZM7.29289 15.2929C6.90237 15.6834 6.90237 16.3166 7.29289 16.7071C7.68342 17.0976 8.31658 17.0976 8.70711 16.7071L7.29289 15.2929ZM9 10H9.01V8H9V10ZM8.5 9C8.5 8.72386 8.72386 8.5 9 8.5V10.5C9.82843 10.5 10.5 9.82843 10.5 9H8.5ZM9 8.5C9.27614 8.5 9.5 8.72386 9.5 9H7.5C7.5 9.82843 8.17157 10.5 9 10.5V8.5ZM9.5 9C9.5 9.27614 9.27614 9.5 9 9.5V7.5C8.17157 7.5 7.5 8.17157 7.5 9H9.5ZM9 9.5C8.72386 9.5 8.5 9.27614 8.5 9H10.5C10.5 8.17157 9.82843 7.5 9 7.5V9.5ZM15 16H15.01V14H15V16ZM14.5 15C14.5 14.7239 14.7239 14.5 15 14.5V16.5C15.8284 16.5 16.5 15.8284 16.5 15H14.5ZM15 14.5C15.2761 14.5 15.5 14.7239 15.5 15H13.5C13.5 15.8284 14.1716 16.5 15 16.5V14.5ZM15.5 15C15.5 15.2761 15.2761 15.5 15 15.5V13.5C14.1716 13.5 13.5 14.1716 13.5 15H15.5ZM15 15.5C14.7239 15.5 14.5 15.2761 14.5 15H16.5C16.5 14.1716 15.8284 13.5 15 13.5V15.5ZM21 12C21 16.9706 16.9706 21 12 21V23C18.0751 23 23 18.0751 23 12H21ZM12 21C7.02944 21 3 16.9706 3 12H1C1 18.0751 5.92487 23 12 23V21ZM3 12C3 7.02944 7.02944 3 12 3V1C5.92487 1 1 5.92487 1 12H3ZM12 3C16.9706 3 21 7.02944 21 12H23C23 5.92487 18.0751 1 12 1V3ZM15.2929 7.29289L7.29289 15.2929L8.70711 16.7071L16.7071 8.70711L15.2929 7.29289Z" fill="currentColor"/>
</svg>
