<svg width="100%" height="100%" viewBox="0 0 24 24" fill="none" xmlns="http://www.w3.org/2000/svg">
<path d="M11.6944 6.64181L12.4015 7.34892V7.34892L11.6944 6.64181ZM11.852 6.47496L11.069 5.853L11.852 6.47496ZM12.0337 6.14071L12.9528 6.53463L12.0337 6.14071ZM11.9373 6.34905L12.8056 6.8451L11.9373 6.34905ZM17.8523 11.9594L18.2463 12.8786L17.8523 11.9594ZM17.644 12.0558L17.148 11.1875L17.644 12.0558ZM17.5181 12.141L18.1401 12.9241L17.5181 12.141ZM15.3528 14.6771L16.3334 14.8733L15.3528 14.6771ZM15.4381 14.33L16.369 14.6951L15.4381 14.33ZM15.5488 14.1231L14.7286 13.551L15.5488 14.1231ZM9.31592 8.64026L9.1198 7.65968L9.31592 8.64026ZM9.66309 8.555L9.29794 7.62405L9.66309 8.555ZM10.1335 8.2027L9.4264 7.49559V7.49559L10.1335 8.2027ZM9.86999 8.44427L10.442 9.26449L9.86999 8.44427ZM4.83387 12.0735L5.54098 11.3663L4.83387 12.0735ZM3.75771 10.7109L4.74823 10.5736L3.75771 10.7109ZM5.65145 9.37315L5.84757 10.3537L5.65145 9.37315ZM4.00024 9.9099L4.74823 10.5736L4.00024 9.9099ZM11.9196 19.1592L11.2125 19.8663L11.9196 19.1592ZM13.2821 20.2354L13.4195 19.2448L13.2821 20.2354ZM14.6199 18.3416L13.6393 18.1455L14.6199 18.3416ZM14.0832 19.9928L13.4195 19.2448L14.0832 19.9928ZM20.8478 8.28839L21.5549 7.58129L20.8478 8.28839ZM21.7474 9.42348L20.7673 9.62215L21.7474 9.42348ZM20.3467 10.8904L19.9528 9.97125L20.3467 10.8904ZM21.6035 10.1706L20.7673 9.62215L21.6035 10.1706ZM15.7047 3.14526L14.9976 3.85236L15.7047 3.14526ZM14.5696 2.24565L14.3709 3.22571L14.5696 2.24565ZM13.1027 3.64636L12.1835 3.25244V3.25244L13.1027 3.64636ZM13.8225 2.38953L14.3709 3.22571L13.8225 2.38953ZM9.08381 16.3234C9.47433 15.9329 9.47433 15.2997 9.08381 14.9092C8.69329 14.5187 8.06012 14.5187 7.6696 14.9092L9.08381 16.3234ZM2.01274 20.5661C1.62222 20.9566 1.62222 21.5897 2.01274 21.9803C2.40327 22.3708 3.03643 22.3708 3.42696 21.9803L2.01274 20.5661ZM14.9976 3.85236L20.1407 8.9955L21.5549 7.58129L16.4118 2.43815L14.9976 3.85236ZM12.6267 18.4521L5.54098 11.3663L4.12676 12.7806L11.2125 19.8663L12.6267 18.4521ZM5.84757 10.3537L9.51203 9.62084L9.1198 7.65968L5.45534 8.39257L5.84757 10.3537ZM14.3722 14.481L13.6393 18.1455L15.6005 18.5377L16.3334 14.8733L14.3722 14.481ZM19.9528 9.97125L17.4584 11.0403L18.2463 12.8786L20.7406 11.8095L19.9528 9.97125ZM16.6441 11.5916L15.0833 13.1524L16.4975 14.5667L18.0584 13.0058L16.6441 11.5916ZM10.8406 8.90981L12.4015 7.34892L10.9873 5.93471L9.4264 7.49559L10.8406 8.90981ZM12.9528 6.53463L14.0218 4.04028L12.1835 3.25244L11.1145 5.7468L12.9528 6.53463ZM12.4015 7.34892C12.4676 7.28286 12.5559 7.19661 12.6351 7.09693L11.069 5.853C11.0764 5.8437 11.0794 5.84125 11.0675 5.85375C11.0523 5.86963 11.031 5.891 10.9873 5.93471L12.4015 7.34892ZM11.1145 5.7468C11.0902 5.80361 11.0782 5.83131 11.0691 5.85131C11.0619 5.86704 11.0631 5.86332 11.069 5.853L12.8056 6.8451C12.8687 6.73456 12.916 6.62049 12.9528 6.53463L11.1145 5.7468ZM12.6351 7.09693C12.6982 7.01744 12.7552 6.93325 12.8056 6.8451L11.069 5.853L12.6351 7.09693ZM17.4584 11.0403C17.3726 11.0771 17.2585 11.1243 17.148 11.1875L18.1401 12.9241C18.1297 12.93 18.126 12.9311 18.1418 12.9239C18.1617 12.9148 18.1894 12.9029 18.2463 12.8786L17.4584 11.0403ZM18.0584 13.0058C18.1021 12.9621 18.1234 12.9408 18.1393 12.9256C18.1518 12.9137 18.1494 12.9167 18.1401 12.9241L16.8961 11.358C16.7964 11.4372 16.7102 11.5255 16.6441 11.5916L18.0584 13.0058ZM17.148 11.1875C17.0598 11.2378 16.9756 11.2948 16.8961 11.358L18.1401 12.9241H18.1401L17.148 11.1875ZM16.3334 14.8733C16.3523 14.7786 16.3618 14.7319 16.3698 14.6982C16.3761 14.6714 16.3759 14.6777 16.369 14.6951L14.5071 13.9648C14.4351 14.1484 14.4008 14.3382 14.3722 14.481L16.3334 14.8733ZM15.0833 13.1524C14.9803 13.2554 14.8414 13.3893 14.7286 13.551L16.369 14.6951C16.3583 14.7105 16.3532 14.7142 16.372 14.694C16.3956 14.6687 16.4292 14.635 16.4975 14.5667L15.0833 13.1524ZM16.369 14.6951H16.369L14.7286 13.551C14.6388 13.6798 14.5644 13.8187 14.5071 13.9648L16.369 14.6951ZM9.51203 9.62084C9.65485 9.59228 9.84467 9.55795 10.0282 9.48595L9.29794 7.62405C9.3154 7.6172 9.32164 7.61697 9.29484 7.62331C9.26113 7.63127 9.21451 7.64074 9.1198 7.65968L9.51203 9.62084ZM9.4264 7.49559C9.3581 7.56389 9.32437 7.59743 9.29904 7.62106C9.2789 7.63984 9.28256 7.63478 9.29794 7.62405L10.442 9.26449C10.6038 9.15169 10.7376 9.01279 10.8406 8.90981L9.4264 7.49559ZM10.0282 9.48595C10.1744 9.42862 10.3133 9.3543 10.442 9.26449L9.29794 7.62405L10.0282 9.48595ZM5.54098 11.3663C5.18357 11.0089 4.96538 10.7893 4.82423 10.6197C4.6766 10.4423 4.73154 10.4532 4.74823 10.5736L2.76718 10.8482C2.82996 11.3011 3.07963 11.6499 3.28688 11.899C3.50061 12.1558 3.79745 12.4512 4.12676 12.7806L5.54098 11.3663ZM5.45534 8.39257C4.99867 8.48391 4.58781 8.56505 4.2675 8.66021C3.95691 8.75247 3.55568 8.90422 3.25224 9.24619L4.74823 10.5736C4.66756 10.6645 4.61579 10.6431 4.83704 10.5774C5.04857 10.5146 5.35194 10.4529 5.84757 10.3537L5.45534 8.39257ZM4.74823 10.5736L3.25224 9.24619C2.86411 9.68361 2.68687 10.269 2.76718 10.8482L4.74823 10.5736ZM11.2125 19.8663C11.5418 20.1956 11.8372 20.4924 12.0941 20.7062C12.3431 20.9134 12.692 21.1631 13.1448 21.2259L13.4195 19.2448C13.5399 19.2615 13.5508 19.3165 13.3734 19.1688C13.2037 19.0277 12.9841 18.8095 12.6267 18.4521L11.2125 19.8663ZM13.6393 18.1455C13.5402 18.6411 13.4785 18.9445 13.4157 19.156C13.3499 19.3773 13.3285 19.3255 13.4195 19.2448L14.7469 20.7408C15.0888 20.4374 15.2406 20.0361 15.3329 19.7256C15.428 19.4052 15.5092 18.9944 15.6005 18.5377L13.6393 18.1455ZM13.1448 21.2259C13.7241 21.3062 14.3094 21.1289 14.7469 20.7408L13.4195 19.2448V19.2448L13.1448 21.2259ZM20.1407 8.9955C20.4341 9.28895 20.6054 9.46162 20.717 9.59542C20.8267 9.72712 20.7865 9.71678 20.7673 9.62215L22.7275 9.2248C22.6484 8.83483 22.4383 8.53686 22.2532 8.31482C22.0699 8.09486 21.8213 7.84767 21.5549 7.58129L20.1407 8.9955ZM20.7406 11.8095C21.0869 11.6611 21.4095 11.5239 21.6614 11.3878C21.9157 11.2504 22.2215 11.0518 22.4397 10.7191L20.7673 9.62215C20.8203 9.54142 20.8615 9.54676 20.7106 9.62827C20.5574 9.71107 20.3342 9.80778 19.9528 9.97125L20.7406 11.8095ZM20.7673 9.62215V9.62215L22.4397 10.7191C22.7288 10.2783 22.8322 9.74134 22.7275 9.2248L20.7673 9.62215ZM16.4118 2.43815C16.1454 2.17177 15.8982 1.92319 15.6782 1.73984C15.4562 1.55475 15.1582 1.34464 14.7683 1.26558L14.3709 3.22571C14.2763 3.20653 14.2659 3.16631 14.3976 3.27609C14.5314 3.38763 14.7041 3.55892 14.9976 3.85236L16.4118 2.43815ZM14.0218 4.04028C14.1853 3.65884 14.282 3.43567 14.3648 3.28242C14.4463 3.13158 14.4516 3.17276 14.3709 3.22571L13.274 1.55335C12.9413 1.77158 12.7427 2.07733 12.6052 2.33165C12.4691 2.58357 12.3319 2.90618 12.1835 3.25244L14.0218 4.04028ZM14.7683 1.26558C14.2517 1.16087 13.7147 1.26429 13.274 1.55335L14.3709 3.22571L14.7683 1.26558ZM7.6696 14.9092L2.01274 20.5661L3.42696 21.9803L9.08381 16.3234L7.6696 14.9092Z" fill="currentColor"/>
</svg>
