<svg width="100%" height="100%" viewBox="0 0 24 24" fill="none" xmlns="http://www.w3.org/2000/svg">
<path d="M7.99392 7.07868L8.98741 6.96477L7.99392 7.07868ZM7.88599 6.71391L6.95752 7.0853L7.88599 6.71391ZM7.96517 6.92937L8.9299 6.66615L7.96517 6.92937ZM16.1149 6.71391L17.0433 7.0853L16.1149 6.71391ZM16.0357 6.92937L15.071 6.66615L16.0357 6.92937ZM16.0069 7.07868L15.0134 6.96477L16.0069 7.07868ZM16.351 10.4383L17.1319 9.81357L16.351 10.4383ZM16.1099 10.1042L17.0004 9.64922L16.1099 10.1042ZM16.0208 9.85026L15.0413 10.0513L16.0208 9.85026ZM7.64982 10.4383L8.43069 11.063L7.64982 10.4383ZM7.89095 10.1042L7.00043 9.64922L7.89095 10.1042ZM7.98001 9.85026L8.95959 10.0513L7.98001 9.85026ZM5.4572 14.7815L6.08105 14L5.4572 14.7815ZM6.08004 12.4005L5.29917 11.7758H5.29917L6.08004 12.4005ZM5.08106 13.9989L4.08106 13.9978L5.08106 13.9989ZM18.5437 14.7815L17.9198 14L18.5437 14.7815ZM17.9208 12.4005L17.14 13.0252L17.9208 12.4005ZM18.9198 13.9989L19.9198 13.9978L18.9198 13.9989ZM17.0759 2.1665L16.5234 3L17.0759 2.1665ZM17.1227 4.19423L16.1943 3.82283L17.1227 4.19423ZM17.5025 2.79655L18.4816 2.59309L17.5025 2.79655ZM6.92494 2.1665L7.47746 3L6.92494 2.1665ZM6.87812 4.19423L7.8066 3.82284L6.87812 4.19423ZM6.49838 2.79655L5.51929 2.59309L6.49838 2.79655ZM13.0004 15C13.0004 14.4477 12.5527 14 12.0004 14C11.4481 14 11.0004 14.4477 11.0004 15H13.0004ZM11.0004 22C11.0004 22.5523 11.4481 23 12.0004 23C12.5527 23 13.0004 22.5523 13.0004 22H11.0004ZM8.36368 3H15.6372V1H8.36368V3ZM16.6714 14H7.32943V16H16.6714V14ZM6.86091 13.0252L8.43069 11.063L6.86895 9.81357L5.29917 11.7758L6.86091 13.0252ZM15.5702 11.063L17.14 13.0252L18.7017 11.7758L17.1319 9.81357L15.5702 11.063ZM16.1943 3.82283L15.1864 6.34252L17.0433 7.0853L18.0512 4.56562L16.1943 3.82283ZM15.0004 7.30813V9.43875H17.0004V7.30813H15.0004ZM9.00043 9.43875V7.30813H7.00043V9.43875H9.00043ZM8.81447 6.34252L7.8066 3.82284L5.94964 4.56562L6.95752 7.0853L8.81447 6.34252ZM9.00043 7.30813C9.00043 7.21471 9.00191 7.09125 8.98741 6.96477L7.00043 7.19258C6.99908 7.18078 6.99948 7.17691 6.99987 7.19419C7.00037 7.21616 7.00043 7.24632 7.00043 7.30813H9.00043ZM6.95752 7.0853C6.98047 7.14269 6.99162 7.17071 6.99932 7.1913C7.00537 7.20749 7.00356 7.20404 7.00043 7.19258L8.9299 6.66615C8.89639 6.54333 8.84916 6.42925 8.81447 6.34252L6.95752 7.0853ZM8.98741 6.96477C8.97585 6.86392 8.95663 6.76409 8.9299 6.66615L7.00043 7.19258H7.00043L8.98741 6.96477ZM15.1864 6.34252C15.1517 6.42925 15.1045 6.54333 15.071 6.66615L17.0004 7.19258C16.9973 7.20404 16.9955 7.20749 17.0015 7.1913C17.0092 7.17071 17.0204 7.14269 17.0433 7.0853L15.1864 6.34252ZM17.0004 7.30813C17.0004 7.24632 17.0005 7.21616 17.001 7.19419C17.0014 7.1769 17.0018 7.18078 17.0004 7.19258L15.0134 6.96477C14.9989 7.09125 15.0004 7.21472 15.0004 7.30813H17.0004ZM15.071 6.66615C15.0442 6.76408 15.025 6.86391 15.0134 6.96477L17.0004 7.19258L15.071 6.66615ZM17.1319 9.81357C17.0622 9.72649 17.0279 9.68326 17.0041 9.65091C16.985 9.62505 16.9905 9.62982 17.0004 9.64922L15.2194 10.5591C15.3225 10.7609 15.4652 10.9318 15.5702 11.063L17.1319 9.81357ZM15.0004 9.43875C15.0004 9.60671 14.9957 9.82935 15.0413 10.0513L17.0004 9.64922C17.0048 9.67056 17.0035 9.67774 17.0022 9.64563C17.0006 9.60548 17.0004 9.55026 17.0004 9.43875H15.0004ZM17.0004 9.64922V9.64922L15.0413 10.0513C15.0775 10.2278 15.1374 10.3986 15.2194 10.5591L17.0004 9.64922ZM8.43069 11.063C8.53562 10.9318 8.67838 10.7609 8.78146 10.5591L7.00043 9.64922C7.01034 9.62982 7.01587 9.62505 6.99681 9.65092C6.97297 9.68326 6.93861 9.72649 6.86895 9.81357L8.43069 11.063ZM7.00043 9.43875C7.00043 9.55026 7.00025 9.60548 6.99866 9.64563C6.99739 9.67774 6.99605 9.67055 7.00043 9.64922L8.95959 10.0513C9.00515 9.82935 9.00043 9.60671 9.00043 9.43875H7.00043ZM8.78146 10.5591C8.86345 10.3986 8.92337 10.2278 8.95959 10.0513L7.00043 9.64922L7.00043 9.64922L8.78146 10.5591ZM7.32943 14C6.77664 14 6.43132 13.999 6.18677 13.9768C5.92377 13.9529 5.97605 13.9162 6.08105 14L4.83335 15.5631C5.21203 15.8654 5.66758 15.9379 6.00585 15.9686C6.36256 16.001 6.81652 16 7.32943 16V14ZM5.29917 11.7758C4.97876 12.1763 4.6944 12.5302 4.49686 12.829C4.30954 13.1123 4.08158 13.5133 4.08106 13.9978L6.08105 14C6.08091 14.1344 6.01957 14.1522 6.16521 13.932C6.30064 13.7271 6.51558 13.4568 6.86091 13.0252L5.29917 11.7758ZM6.08105 14L4.08106 13.9978C4.0804 14.6069 4.35733 15.1831 4.83335 15.5631L6.08105 14ZM16.6714 16C17.1843 16 17.6383 16.001 17.995 15.9686C18.3333 15.9379 18.7888 15.8654 19.1675 15.5631L17.9198 14C18.0248 13.9162 18.0771 13.9529 17.8141 13.9768C17.5695 13.999 17.2242 14 16.6714 14V16ZM17.14 13.0252C17.4853 13.4568 17.7002 13.7271 17.8356 13.9319C17.9813 14.1522 17.92 14.1344 17.9198 14L19.9198 13.9978C19.9193 13.5133 19.6913 13.1123 19.504 12.829C19.3065 12.5302 19.0221 12.1763 18.7017 11.7758L17.14 13.0252ZM19.1675 15.5631C19.6435 15.1831 19.9205 14.6069 19.9198 13.9978L17.9198 14H17.9198L19.1675 15.5631ZM15.6372 3C16.0522 3 16.2954 3.00098 16.4689 3.01672C16.6396 3.03222 16.6039 3.05335 16.5234 3L17.6284 1.33301C17.2968 1.11316 16.9375 1.05103 16.6496 1.02491C16.3645 0.999024 16.0139 1 15.6372 1V3ZM18.0512 4.56562C18.1911 4.21584 18.3222 3.89071 18.4041 3.61632C18.4868 3.33931 18.5625 2.98267 18.4816 2.59309L16.5234 3C16.5038 2.90547 16.5366 2.88012 16.4876 3.04442C16.4378 3.21133 16.3484 3.43752 16.1943 3.82283L18.0512 4.56562ZM16.5234 3L18.4816 2.59309C18.3743 2.07706 18.0677 1.62422 17.6284 1.33301L16.5234 3ZM8.36368 1C7.98696 1 7.6364 0.999024 7.35122 1.02491C7.06333 1.05103 6.70406 1.11316 6.37241 1.33301L7.47746 3C7.39699 3.05335 7.36124 3.03222 7.53199 3.01672C7.70547 3.00098 7.94869 3 8.36368 3V1ZM7.8066 3.82284C7.65247 3.43752 7.56305 3.21133 7.51324 3.04442C7.46421 2.88012 7.49711 2.90547 7.47746 3L5.51929 2.59309C5.43834 2.98267 5.51409 3.33931 5.59675 3.61632C5.67863 3.89071 5.80973 4.21584 5.94964 4.56562L7.8066 3.82284ZM6.37241 1.33301C5.93312 1.62422 5.62652 2.07706 5.51929 2.59309L7.47746 3L6.37241 1.33301ZM11.0004 15L11.0004 22H13.0004L13.0004 15H11.0004Z" fill="currentColor"/>
</svg>
