<svg width="100%" height="100%" viewBox="0 0 24 24" fill="none" xmlns="http://www.w3.org/2000/svg">
<path d="M7 2C6.44772 2 6 2.44772 6 3C6 3.55228 6.44772 4 7 4V2ZM20 17C20 17.5523 20.4477 18 21 18C21.5523 18 22 17.5523 22 17H20ZM16.9373 3.93726L16.2302 4.64437V4.64437L16.9373 3.93726ZM20.0627 7.06274L20.7699 6.35564V6.35564L20.0627 7.06274ZM20.9447 8.36154L21.9171 8.12809V8.12809L20.9447 8.36154ZM20.7053 7.78343L21.5579 7.26093V7.26093L20.7053 7.78343ZM15.6385 3.05526L15.8719 2.08289L15.8719 2.08289L15.6385 3.05526ZM16.2166 3.29472L15.6941 4.14736L15.6941 4.14736L16.2166 3.29472ZM17.4724 9.68077L18.4447 9.44732L17.4724 9.68077ZM17.0314 9.03137L17.7385 8.32426V8.32426L17.0314 9.03137ZM17.3526 9.39172L18.2053 8.86922L17.3526 9.39172ZM14.3192 6.52763L14.5527 5.55526L14.3192 6.52763ZM14.9686 6.96863L14.2615 7.67574L14.9686 6.96863ZM14.6083 6.64736L15.1308 5.79472L14.6083 6.64736ZM4.09202 20.782L4.54601 19.891L4.09202 20.782ZM3.21799 19.908L4.10899 19.454L3.21799 19.908ZM16.408 20.782L15.954 19.891L16.408 20.782ZM17.282 19.908L16.391 19.454L17.282 19.908ZM3.21799 7.59202L4.10899 8.04601L3.21799 7.59202ZM4.09202 6.71799L4.54601 7.60899L4.09202 6.71799ZM12.5 11C13.0523 11 13.5 10.5523 13.5 10C13.5 9.44772 13.0523 9 12.5 9V11ZM8 6.5C8 5.94772 7.55228 5.5 7 5.5C6.44772 5.5 6 5.94772 6 6.5H8ZM7.54601 9.89101L8 9L7.54601 9.89101ZM7.10899 9.45399L6.21799 9.90798L7.10899 9.45399ZM12.5 21C12.5 21.5523 12.9477 22 13.5 22C14.0523 22 14.5 21.5523 14.5 21H12.5ZM6 21C6 21.5523 6.44772 22 7 22C7.55228 22 8 21.5523 8 21H6ZM12.954 15.109L12.5 16H12.5L12.954 15.109ZM13.391 15.546L12.5 16L13.391 15.546ZM7.54601 15.109L7.09202 14.218L7.54601 15.109ZM7.10899 15.546L6.21799 15.092L7.10899 15.546ZM7 4H14.6745V2H7V4ZM20 9.32548V17H22V9.32548H20ZM16.2302 4.64437L19.3556 7.76985L20.7699 6.35564L17.6444 3.23015L16.2302 4.64437ZM22 9.32548C22 8.8839 22.0064 8.50012 21.9171 8.12809L19.9724 8.59498C19.9936 8.6833 20 8.7887 20 9.32548H22ZM19.3556 7.76985C19.7352 8.14941 19.8052 8.22848 19.8526 8.30593L21.5579 7.26093C21.358 6.93471 21.0821 6.66789 20.7699 6.35564L19.3556 7.76985ZM21.9171 8.12809C21.8436 7.82198 21.7224 7.52935 21.5579 7.26093L19.8526 8.30593C19.9075 8.3954 19.9479 8.49295 19.9724 8.59498L21.9171 8.12809ZM14.6745 4C15.2113 4 15.3167 4.00643 15.405 4.02763L15.8719 2.08289C15.4999 1.99357 15.1161 2 14.6745 2V4ZM17.6444 3.23015C17.3321 2.91791 17.0653 2.64199 16.7391 2.44208L15.6941 4.14736C15.7715 4.19482 15.8506 4.2648 16.2302 4.64437L17.6444 3.23015ZM15.405 4.02763C15.5071 4.05213 15.6046 4.09253 15.6941 4.14736L16.7391 2.44208C16.4707 2.27759 16.178 2.15638 15.8719 2.08289L15.405 4.02763ZM14.3 20H6.2V22H14.3V20ZM4 17.8V9.7H2V17.8H4ZM6.2 7.5H13.8373V5.5H6.2V7.5ZM16.5 10.1627V17.8H18.5V10.1627H16.5ZM14.2615 7.67574L16.3243 9.73848L17.7385 8.32426L15.6757 6.26152L14.2615 7.67574ZM18.5 10.1627C18.5 9.96575 18.5064 9.70427 18.4447 9.44732L16.5 9.91421C16.494 9.88912 16.4958 9.88056 16.4976 9.91887C16.4998 9.96636 16.5 10.0317 16.5 10.1627H18.5ZM16.3243 9.73848C16.4169 9.83111 16.463 9.87751 16.495 9.91263C16.5209 9.94095 16.5135 9.93622 16.5 9.91421L18.2053 8.86922C18.0672 8.64391 17.8778 8.46356 17.7385 8.32426L16.3243 9.73848ZM18.4447 9.44732C18.3957 9.24325 18.3149 9.04816 18.2053 8.86922L16.5 9.91421V9.91421L18.4447 9.44732ZM13.8373 7.5C13.9683 7.5 14.0336 7.50024 14.0811 7.50241C14.1194 7.50416 14.1109 7.50602 14.0858 7.5L14.5527 5.55526C14.2957 5.49357 14.0343 5.5 13.8373 5.5V7.5ZM15.6757 6.26152C15.5364 6.12223 15.3561 5.93279 15.1308 5.79472L14.0858 7.5C14.0638 7.48652 14.059 7.47915 14.0874 7.505C14.1225 7.53704 14.1689 7.5831 14.2615 7.67574L15.6757 6.26152ZM14.0858 7.5L15.1308 5.79472C14.9518 5.68506 14.7568 5.60425 14.5527 5.55526L14.0858 7.5ZM6.2 20C5.62345 20 5.25117 19.9992 4.96784 19.9761C4.69617 19.9539 4.59545 19.9162 4.54601 19.891L3.63803 21.673C4.01641 21.8658 4.40963 21.9371 4.80497 21.9694C5.18864 22.0008 5.65645 22 6.2 22V20ZM2 17.8C2 18.3436 1.99922 18.8114 2.03057 19.195C2.06287 19.5904 2.13419 19.9836 2.32698 20.362L4.10899 19.454C4.0838 19.4045 4.04612 19.3038 4.02393 19.0322C4.00078 18.7488 4 18.3766 4 17.8H2ZM4.54601 19.891C4.35785 19.7951 4.20487 19.6422 4.10899 19.454L2.32698 20.362C2.6146 20.9265 3.07354 21.3854 3.63803 21.673L4.54601 19.891ZM14.3 22C14.8436 22 15.3114 22.0008 15.695 21.9694C16.0904 21.9371 16.4836 21.8658 16.862 21.673L15.954 19.891C15.9045 19.9162 15.8038 19.9539 15.5322 19.9761C15.2488 19.9992 14.8766 20 14.3 20V22ZM16.5 17.8C16.5 18.3766 16.4992 18.7488 16.4761 19.0322C16.4539 19.3038 16.4162 19.4045 16.391 19.454L18.173 20.362C18.3658 19.9836 18.4371 19.5904 18.4694 19.195C18.5008 18.8114 18.5 18.3436 18.5 17.8H16.5ZM16.862 21.673C17.4265 21.3854 17.8854 20.9265 18.173 20.362L16.391 19.454C16.2951 19.6422 16.1422 19.7951 15.954 19.891L16.862 21.673ZM4 9.7C4 9.12345 4.00078 8.75117 4.02393 8.46784C4.04612 8.19617 4.0838 8.09545 4.10899 8.04601L2.32698 7.13803C2.13419 7.51641 2.06287 7.90963 2.03057 8.30497C1.99922 8.68864 2 9.15645 2 9.7H4ZM6.2 5.5C5.65645 5.5 5.18864 5.49922 4.80497 5.53057C4.40963 5.56287 4.01641 5.63419 3.63803 5.82698L4.54601 7.60899C4.59545 7.5838 4.69617 7.54612 4.96784 7.52393C5.25117 7.50078 5.62345 7.5 6.2 7.5V5.5ZM4.10899 8.04601C4.20487 7.85785 4.35785 7.70487 4.54601 7.60899L3.63803 5.82698C3.07354 6.1146 2.6146 6.57354 2.32698 7.13803L4.10899 8.04601ZM12.5 9H8.6V11H12.5V9ZM8 8.4V6.5H6V8.4H8ZM8.6 9C8.30347 9 8.14122 8.99922 8.02463 8.9897C7.91972 8.98113 7.94249 8.9707 8 9L7.09202 10.782C7.36344 10.9203 7.63318 10.9644 7.86177 10.9831C8.07869 11.0008 8.33647 11 8.6 11V9ZM6 8.4C6 8.66353 5.99922 8.92131 6.01695 9.13823C6.03562 9.36682 6.07969 9.63656 6.21799 9.90798L8 9C8.0293 9.05751 8.01887 9.08028 8.0103 8.97537C8.00078 8.85878 8 8.69653 8 8.4H6ZM8 9L6.21799 9.90798C6.40973 10.2843 6.71569 10.5903 7.09202 10.782L8 9ZM8.6 16H11.9V14H8.6V16ZM12.5 16.6V21H14.5V16.6H12.5ZM8 21V16.6H6V21H8ZM11.9 16C12.1965 16 12.3588 16.0008 12.4754 16.0103C12.5803 16.0189 12.5575 16.0293 12.5 16L13.408 14.218C13.1366 14.0797 12.8668 14.0356 12.6382 14.0169C12.4213 13.9992 12.1635 14 11.9 14V16ZM14.5 16.6C14.5 16.3365 14.5008 16.0787 14.4831 15.8618C14.4644 15.6332 14.4203 15.3634 14.282 15.092L12.5 16C12.4707 15.9425 12.4811 15.9197 12.4897 16.0246C12.4992 16.1412 12.5 16.3035 12.5 16.6H14.5ZM12.5 16H12.5L14.282 15.092C14.0903 14.7157 13.7843 14.4097 13.408 14.218L12.5 16ZM8.6 14C8.33647 14 8.07869 13.9992 7.86177 14.0169C7.63318 14.0356 7.36344 14.0797 7.09202 14.218L8 16C7.94249 16.0293 7.91972 16.0189 8.02463 16.0103C8.14122 16.0008 8.30347 16 8.6 16V14ZM8 16.6C8 16.3035 8.00078 16.1412 8.0103 16.0246C8.01887 15.9197 8.0293 15.9425 8 16L6.21799 15.092C6.07969 15.3634 6.03562 15.6332 6.01695 15.8618C5.99922 16.0787 6 16.3365 6 16.6H8ZM7.09202 14.218C6.7157 14.4097 6.40973 14.7157 6.21799 15.092L8 16L7.09202 14.218Z" fill="currentColor"/>
</svg>
