<svg width="100%" height="100%" viewBox="0 0 24 24" fill="none" xmlns="http://www.w3.org/2000/svg">
<path d="M20.2929 21.7071C20.6834 22.0976 21.3166 22.0976 21.7071 21.7071C22.0976 21.3166 22.0976 20.6834 21.7071 20.2929L20.2929 21.7071ZM17.3571 15.9429C16.9666 15.5524 16.3334 15.5524 15.9429 15.9429C15.5524 16.3334 15.5524 16.9666 15.9429 17.3571L17.3571 15.9429ZM11 5C10.4477 5 10 5.44772 10 6C10 6.55228 10.4477 7 11 7V5ZM15 11C15 11.5523 15.4477 12 16 12C16.5523 12 17 11.5523 17 11H15ZM18 11C18 14.866 14.866 18 11 18V20C15.9706 20 20 15.9706 20 11H18ZM11 18C7.13401 18 4 14.866 4 11H2C2 15.9706 6.02944 20 11 20V18ZM4 11C4 7.13401 7.13401 4 11 4V2C6.02944 2 2 6.02944 2 11H4ZM11 4C14.866 4 18 7.13401 18 11H20C20 6.02944 15.9706 2 11 2V4ZM21.7071 20.2929L17.3571 15.9429L15.9429 17.3571L20.2929 21.7071L21.7071 20.2929ZM11 7C13.2091 7 15 8.79086 15 11H17C17 7.68629 14.3137 5 11 5V7Z" fill="currentColor"/>
</svg>
