<svg width="100%" height="100%" viewBox="0 0 24 24" fill="none" xmlns="http://www.w3.org/2000/svg">
<path d="M3 7C2.44772 7 2 7.44772 2 8C2 8.55228 2.44772 9 3 9L3 7ZM21 17C21.5523 17 22 16.5523 22 16C22 15.4477 21.5523 15 21 15V17ZM3 9L15 9V7L3 7L3 9ZM9 17L21 17V15L9 15V17ZM20 8C20 9.10457 19.1046 10 18 10V12C20.2091 12 22 10.2091 22 8H20ZM18 10C16.8954 10 16 9.10457 16 8H14C14 10.2091 15.7909 12 18 12V10ZM16 8C16 6.89543 16.8954 6 18 6V4C15.7909 4 14 5.79086 14 8H16ZM18 6C19.1046 6 20 6.89543 20 8H22C22 5.79086 20.2091 4 18 4V6ZM8 16C8 17.1046 7.10457 18 6 18V20C8.20914 20 10 18.2091 10 16H8ZM6 18C4.89543 18 4 17.1046 4 16H2C2 18.2091 3.79086 20 6 20V18ZM4 16C4 14.8954 4.89543 14 6 14V12C3.79086 12 2 13.7909 2 16H4ZM6 14C7.10457 14 8 14.8954 8 16H10C10 13.7909 8.20914 12 6 12V14Z" fill="currentColor"/>
</svg>
