<svg width="100%" height="100%" viewBox="0 0 24 24" fill="none" xmlns="http://www.w3.org/2000/svg">
<path d="M15.0505 10C15.6028 10 16.0505 9.55228 16.0505 9C16.0505 8.44772 15.6028 8 15.0505 8V10ZM15.0505 5C15.6028 5 16.0505 4.55228 16.0505 4C16.0505 3.44772 15.6028 3 15.0505 3V5ZM8.94949 19C8.39721 19 7.94949 19.4477 7.94949 20C7.94949 20.5523 8.39721 21 8.94949 21V19ZM8.94949 14C8.39721 14 7.94949 14.4477 7.94949 15C7.94949 15.5523 8.39721 16 8.94949 16V14ZM15.0505 8H5.5V10H15.0505V8ZM5.5 5H15.0505V3H5.5V5ZM4 6.5C4 5.67157 4.67157 5 5.5 5V3C3.567 3 2 4.567 2 6.5H4ZM5.5 8C4.67157 8 4 7.32843 4 6.5H2C2 8.433 3.567 10 5.5 10V8ZM8.94949 21H18.5V19H8.94949V21ZM18.5 14H8.94949V16H18.5V14ZM22 17.5C22 15.567 20.433 14 18.5 14V16C19.3284 16 20 16.6716 20 17.5H22ZM18.5 21C20.433 21 22 19.433 22 17.5H20C20 18.3284 19.3284 19 18.5 19V21ZM2 17.5C2 19.9853 4.01472 22 6.5 22V20C5.11929 20 4 18.8807 4 17.5H2ZM6.5 22C8.98528 22 11 19.9853 11 17.5H9C9 18.8807 7.88071 20 6.5 20V22ZM11 17.5C11 15.0147 8.98528 13 6.5 13V15C7.88071 15 9 16.1193 9 17.5H11ZM6.5 13C4.01472 13 2 15.0147 2 17.5H4C4 16.1193 5.11929 15 6.5 15V13ZM20 6.5C20 7.88071 18.8807 9 17.5 9V11C19.9853 11 22 8.98528 22 6.5H20ZM17.5 9C16.1193 9 15 7.88071 15 6.5H13C13 8.98528 15.0147 11 17.5 11V9ZM15 6.5C15 5.11929 16.1193 4 17.5 4V2C15.0147 2 13 4.01472 13 6.5H15ZM17.5 4C18.8807 4 20 5.11929 20 6.5H22C22 4.01472 19.9853 2 17.5 2V4Z" fill="currentColor"/>
</svg>
