<svg width="100%" height="100%" viewBox="0 0 24 24" fill="none" xmlns="http://www.w3.org/2000/svg">
<path d="M9.39504 19.3711L8.48104 19.7768L8.48129 19.7774L9.39504 19.3711ZM9.97949 20.6856L10.8934 20.2797L10.8932 20.2793L9.97949 20.6856ZM12.0017 22L12.0019 21H12.0015L12.0017 22ZM14.0239 20.6856L13.1102 20.2793L13.11 20.2797L14.0239 20.6856ZM14.6084 19.3711L13.6951 18.9637L13.6946 18.9648L14.6084 19.3711ZM15.6084 18.26L15.1087 17.3938L15.1074 17.3945L15.6084 18.26ZM17.0784 17.9478L17.1842 16.9534L17.1828 16.9532L17.0784 17.9478ZM18.5084 18.1L18.4025 19.0944L18.4032 19.0945L18.5084 18.1ZM20.6573 17.0056L19.7915 16.5051L19.7911 16.5058L20.6573 17.0056ZM20.5306 14.5978L19.7221 15.1862L19.7221 15.1863L20.5306 14.5978ZM19.6839 13.4344L18.8733 14.02L18.8754 14.0229L19.6839 13.4344ZM19.2239 12L20.2239 12.005V11.9998L19.2239 12ZM19.6884 10.5711L18.8798 9.98266L18.8796 9.983L19.6884 10.5711ZM20.535 9.40778L19.7266 8.81927L19.7265 8.81933L20.535 9.40778ZM20.6617 7L19.7955 7.49973L19.7959 7.50043L20.6617 7ZM18.5128 5.90556L18.4076 4.9111L18.407 4.91117L18.5128 5.90556ZM17.0828 6.05778L17.1873 7.05231L17.1887 7.05216L17.0828 6.05778ZM15.6128 5.74556L15.1105 6.61022L15.1132 6.61178L15.6128 5.74556ZM14.6128 4.62889L15.5275 4.2246L15.5254 4.22003L14.6128 4.62889ZM14.0239 3.31444L13.11 3.72027L13.1113 3.7233L14.0239 3.31444ZM12.0017 2L12.0015 3L12.0019 3L12.0017 2ZM9.97949 3.31444L10.8932 3.72073L10.8934 3.72027L9.97949 3.31444ZM9.39504 4.62889L8.48129 4.22261L8.48041 4.2246L9.39504 4.62889ZM8.39504 5.74556L8.89471 6.61178L8.8974 6.61022L8.39504 5.74556ZM6.92504 6.05778L6.81952 7.0522L6.8206 7.05231L6.92504 6.05778ZM5.4906 5.90556L5.59612 4.91114L5.59579 4.9111L5.4906 5.90556ZM3.34171 7L4.20748 7.50043L4.20789 7.49973L3.34171 7ZM3.46838 9.40778L4.27691 8.81933L4.27686 8.81927L3.46838 9.40778ZM4.31504 10.5711L5.12382 9.983L5.12358 9.98267L4.31504 10.5711ZM4.77949 12L3.77949 11.9998L3.77949 12.0002L4.77949 12ZM4.31504 13.4289L5.12358 14.0173L5.12382 14.017L4.31504 13.4289ZM3.46838 14.5922L4.27686 15.1807L4.27691 15.1807L3.46838 14.5922ZM3.34171 17L4.20757 16.4997L4.20748 16.4996L3.34171 17ZM5.4906 18.0944L5.59514 19.089L5.59645 19.0888L5.4906 18.0944ZM6.9206 17.9422L6.81615 16.9477L6.81475 16.9478L6.9206 17.9422ZM8.3906 18.2544L8.89049 17.3884L8.89026 17.3882L8.3906 18.2544ZM8.48129 19.7774L9.06574 21.0918L10.8932 20.2793L10.3088 18.9648L8.48129 19.7774ZM9.06554 21.0914C9.31781 21.6595 9.72952 22.1423 10.2507 22.481L11.3407 20.8042C11.144 20.6763 10.9886 20.4941 10.8934 20.2797L9.06554 21.0914ZM10.2507 22.481C10.7719 22.8198 11.3802 23.0001 12.0019 23L12.0015 21C11.767 21 11.5374 20.932 11.3407 20.8042L10.2507 22.481ZM12.0015 23C12.6232 23.0001 13.2315 22.8198 13.7527 22.481L12.6627 20.8042C12.466 20.932 12.2365 21 12.0019 21L12.0015 23ZM13.7527 22.481C14.2739 22.1423 14.6856 21.6595 14.9379 21.0914L13.11 20.2797C13.0148 20.4941 12.8594 20.6763 12.6627 20.8042L13.7527 22.481ZM14.9377 21.0918L15.5221 19.7774L13.6946 18.9648L13.1102 20.2793L14.9377 21.0918ZM15.5216 19.7785C15.6439 19.5044 15.8496 19.2758 16.1094 19.1255L15.1074 17.3945C14.4832 17.7559 13.9889 18.305 13.6951 18.9637L15.5216 19.7785ZM16.108 19.1262C16.37 18.9751 16.6731 18.9107 16.9739 18.9423L17.1828 16.9532C16.4623 16.8776 15.7363 17.0318 15.1087 17.3938L16.108 19.1262ZM16.9725 18.9422L18.4025 19.0944L18.6142 17.1056L17.1842 16.9534L16.9725 18.9422ZM18.4032 19.0945C19.0213 19.1598 19.6451 19.0445 20.1989 18.7624L19.2912 16.9802C19.0822 17.0867 18.8468 17.1302 18.6136 17.1055L18.4032 19.0945ZM20.1989 18.7624C20.7527 18.4803 21.2129 18.0436 21.5234 17.5053L19.7911 16.5058C19.6739 16.709 19.5002 16.8738 19.2912 16.9802L20.1989 18.7624ZM21.523 17.506C21.8341 16.9679 21.9823 16.351 21.9496 15.7303L19.9524 15.8354C19.9647 16.0695 19.9088 16.3022 19.7915 16.5051L21.523 17.506ZM21.9496 15.7303C21.917 15.1097 21.7049 14.5118 21.3391 14.0093L19.7221 15.1863C19.8601 15.3758 19.9401 15.6013 19.9524 15.8354L21.9496 15.7303ZM21.3391 14.0093L20.4925 12.846L18.8754 14.0229L19.7221 15.1862L21.3391 14.0093ZM20.4945 12.8488C20.3172 12.6033 20.2224 12.3078 20.2239 12.005L18.2239 11.995C18.2203 12.7218 18.4477 13.4309 18.8733 14.02L20.4945 12.8488ZM20.2239 11.9998C20.2239 11.6978 20.3195 11.4035 20.4972 11.1592L18.8796 9.983C18.4533 10.5692 18.2238 11.2754 18.2239 12.0002L20.2239 11.9998ZM20.4969 11.1596L21.3436 9.99622L19.7265 8.81933L18.8798 9.98267L20.4969 11.1596ZM21.3435 9.99629C21.7093 9.49377 21.9214 8.8959 21.9541 8.27521L19.9568 8.17014C19.9445 8.40424 19.8645 8.62974 19.7266 8.81927L21.3435 9.99629ZM21.9541 8.27521C21.9867 7.65452 21.8385 7.03769 21.5275 6.49957L19.7959 7.50043C19.9132 7.70339 19.9691 7.93604 19.9568 8.17014L21.9541 8.27521ZM21.5279 6.50027C21.2173 5.96191 20.7572 5.52522 20.2033 5.24314L19.2957 7.02531C19.5047 7.13176 19.6783 7.29656 19.7955 7.49973L21.5279 6.50027ZM20.2033 5.24314C19.6495 4.96107 19.0257 4.84573 18.4076 4.9111L18.618 6.90001C18.8513 6.87534 19.0867 6.91886 19.2957 7.02531L20.2033 5.24314ZM18.407 4.91117L16.977 5.0634L17.1887 7.05216L18.6187 6.89994L18.407 4.91117ZM16.9784 5.06325C16.6776 5.09484 16.3745 5.03046 16.1125 4.87934L15.1132 6.61178C15.7407 6.97378 16.4667 7.12798 17.1873 7.05231L16.9784 5.06325ZM16.1152 4.88089C15.8549 4.72967 15.6492 4.49993 15.5275 4.2246L13.6982 5.03317C13.9906 5.69478 14.485 6.24683 15.1105 6.61022L16.1152 4.88089ZM15.5254 4.22003L14.9365 2.90559L13.1113 3.7233L13.7002 5.03775L15.5254 4.22003ZM14.9379 2.90862C14.6856 2.34048 14.2739 1.85774 13.7527 1.51896L12.6627 3.19584C12.8594 3.32369 13.0148 3.50587 13.11 3.72027L14.9379 2.90862ZM13.7527 1.51896C13.2315 1.18017 12.6232 0.999899 12.0015 1L12.0019 3C12.2365 2.99996 12.466 3.06799 12.6627 3.19584L13.7527 1.51896ZM12.0019 1C11.3802 0.999899 10.7719 1.18017 10.2507 1.51896L11.3407 3.19584C11.5374 3.06799 11.767 2.99996 12.0015 3L12.0019 1ZM10.2507 1.51896C9.72952 1.85774 9.31781 2.34048 9.06554 2.90862L10.8934 3.72027C10.9886 3.50587 11.144 3.32369 11.3407 3.19584L10.2507 1.51896ZM9.06574 2.90816L8.48129 4.22261L10.3088 5.03517L10.8932 3.72073L9.06574 2.90816ZM8.48041 4.2246C8.35871 4.49993 8.15297 4.72967 7.89269 4.88089L8.8974 6.61022C9.52286 6.24683 10.0172 5.69478 10.3097 5.03317L8.48041 4.2246ZM7.89538 4.87934C7.63338 5.03046 7.33029 5.09484 7.02949 5.06325L6.8206 7.05231C7.54113 7.12798 8.26713 6.97378 8.8947 6.61178L7.89538 4.87934ZM7.03057 5.06336L5.59612 4.91114L5.38507 6.89997L6.81952 7.05219L7.03057 5.06336ZM5.59579 4.9111C4.9777 4.84573 4.35392 4.96107 3.80008 5.24314L4.70775 7.02531C4.91676 6.91886 5.15216 6.87534 5.38541 6.90001L5.59579 4.9111ZM3.80008 5.24314C3.24624 5.52522 2.78612 5.96191 2.47552 6.50027L4.20789 7.49973C4.3251 7.29656 4.49874 7.13176 4.70775 7.02531L3.80008 5.24314ZM2.47593 6.49957C2.16489 7.03769 2.0167 7.65452 2.04936 8.27521L4.04659 8.17014C4.03428 7.93604 4.09017 7.70339 4.20748 7.50043L2.47593 6.49957ZM2.04936 8.27521C2.08201 8.8959 2.2941 9.49377 2.65989 9.99629L4.27686 8.81927C4.1389 8.62974 4.05891 8.40424 4.04659 8.17014L2.04936 8.27521ZM2.65984 9.99622L3.50651 11.1596L5.12358 9.98267L4.27691 8.81933L2.65984 9.99622ZM3.50626 11.1592C3.68389 11.4035 3.77954 11.6978 3.77949 11.9998L5.77949 12.0002C5.77962 11.2754 5.55008 10.5692 5.12382 9.983L3.50626 11.1592ZM3.77949 12.0002C3.77954 12.3022 3.68389 12.5965 3.50626 12.8408L5.12382 14.017C5.55008 13.4308 5.77962 12.7246 5.77949 11.9998L3.77949 12.0002ZM3.50651 12.8404L2.65984 14.0038L4.27691 15.1807L5.12358 14.0173L3.50651 12.8404ZM2.65989 14.0037C2.2941 14.5062 2.08201 15.1041 2.04936 15.7248L4.04659 15.8299C4.05891 15.5958 4.1389 15.3703 4.27686 15.1807L2.65989 14.0037ZM2.04936 15.7248C2.0167 16.3455 2.16489 16.9623 2.47593 17.5004L4.20748 16.4996C4.09017 16.2966 4.03428 16.064 4.04659 15.8299L2.04936 15.7248ZM2.47585 17.5003C2.78666 18.0382 3.24668 18.4745 3.80027 18.7565L4.70794 16.9743C4.49879 16.8678 4.32499 16.7029 4.20757 16.4997L2.47585 17.5003ZM3.80027 18.7565C4.35386 19.0384 4.97729 19.1539 5.59514 19.089L5.38606 17.0999C5.15263 17.1245 4.91709 17.0808 4.70794 16.9743L3.80027 18.7565ZM5.59645 19.0888L7.02645 18.9366L6.81475 16.9478L5.38475 17.1001L5.59645 19.0888ZM7.02504 18.9368C7.32585 18.9052 7.62894 18.9695 7.89093 19.1207L8.89026 17.3882C8.26269 17.0262 7.53668 16.872 6.81615 16.9477L7.02504 18.9368ZM7.89071 19.1205C8.15196 19.2713 8.35866 19.5011 8.48104 19.7768L10.309 18.9654C10.015 18.3029 9.51829 17.7507 8.89049 17.3884L7.89071 19.1205ZM13.9999 12C13.9999 13.1046 13.1045 14 11.9999 14V16C14.2091 16 15.9999 14.2091 15.9999 12H13.9999ZM11.9999 14C10.8954 14 9.99992 13.1046 9.99992 12H7.99992C7.99992 14.2091 9.79078 16 11.9999 16V14ZM9.99992 12C9.99992 10.8954 10.8954 10 11.9999 10V8C9.79078 8 7.99992 9.79086 7.99992 12H9.99992ZM11.9999 10C13.1045 10 13.9999 10.8954 13.9999 12H15.9999C15.9999 9.79086 14.2091 8 11.9999 8V10Z" fill="currentColor"/>
</svg>
