<svg width="100%" height="100%" viewBox="0 0 24 24" fill="none" xmlns="http://www.w3.org/2000/svg">
<path d="M11 9.03468L11.1723 10.0197C11.6509 9.936 12 9.52048 12 9.03468H11ZM5.45971 12.1139L6.20524 12.7804H6.20524L5.45971 12.1139ZM3 18.551L2 18.5505V18.551H3ZM3 19.163H2C2 19.5844 2.26413 19.9605 2.66047 20.1036C3.05681 20.2467 3.5003 20.1259 3.76944 19.8017L3 19.163ZM6.84076 16.166L7.27329 17.0676L6.84076 16.166ZM11 15.0706H12C12 14.7936 11.8851 14.529 11.6828 14.3399C11.4804 14.1508 11.2087 14.0541 10.9323 14.0729L11 15.0706ZM11.1124 20.2288L11.8876 19.5971L11.1124 20.2288ZM12.3206 19.8681L11.6698 19.1088L12.3206 19.8681ZM11.5124 20.4128L11.5372 21.4125L11.5124 20.4128ZM20.7914 11.3926L21.4422 10.6334L20.7914 11.3926ZM21.2023 11.831L20.2611 12.1691L21.2023 11.831ZM20.7914 12.6075L21.4422 13.3667L20.7914 12.6075ZM21.2023 12.1691L20.2611 11.831L21.2023 12.1691ZM12.3206 4.13202L11.6698 4.89128L12.3206 4.13202ZM11.5124 3.58731L11.5372 2.58762L11.5124 3.58731ZM11.1124 3.77128L11.8876 4.40304L11.1124 3.77128ZM11.6698 4.89128L20.1406 12.1519L21.4422 10.6334L12.9714 3.37276L11.6698 4.89128ZM12 9.03468V4.73942H10V9.03468H12ZM10.8277 8.04964C8.47212 8.46174 6.31628 9.6553 4.71418 11.4474L6.20524 12.7804C7.50691 11.3243 9.25852 10.3545 11.1723 10.0197L10.8277 8.04964ZM4.71418 11.4474C2.96754 13.4013 2.00136 15.9298 2 18.5505L4 18.5515C4.00111 16.4222 4.78611 14.3678 6.20524 12.7804L4.71418 11.4474ZM2 18.551V19.163H4V18.551H2ZM3.76944 19.8017C4.72673 18.6485 5.92197 17.7158 7.27329 17.0676L6.40823 15.2643C4.79704 16.0373 3.37195 17.1493 2.23056 18.5243L3.76944 19.8017ZM7.27329 17.0676C8.46467 16.4961 9.75255 16.1575 11.0677 16.0683L10.9323 14.0729C9.36428 14.1792 7.82872 14.5829 6.40823 15.2643L7.27329 17.0676ZM12 19.2607V15.0706H10V19.2607H12ZM20.1406 11.8482L11.6698 19.1088L12.9714 20.6273L21.4422 13.3667L20.1406 11.8482ZM10 19.2607C10 19.5175 9.99902 19.7791 10.0181 19.9905C10.0352 20.1795 10.0803 20.5453 10.3373 20.8606L11.8876 19.5971C11.9653 19.6924 11.9964 19.7794 12.0071 19.8162C12.0166 19.8487 12.014 19.8548 12.01 19.8106C12.0062 19.7688 12.0032 19.7062 12.0016 19.6095C12 19.5135 12 19.4015 12 19.2607H10ZM11.6698 19.1088C11.5629 19.2005 11.4778 19.2734 11.404 19.3346C11.3295 19.3963 11.28 19.4348 11.2458 19.4591C11.2096 19.4849 11.2126 19.4789 11.2434 19.4649C11.2784 19.4492 11.3647 19.4161 11.4876 19.4131L11.5372 21.4125C11.9438 21.4024 12.2509 21.1986 12.4055 21.0886C12.5784 20.9655 12.7764 20.7945 12.9714 20.6273L11.6698 19.1088ZM10.3373 20.8606C10.6304 21.2202 11.0734 21.424 11.5372 21.4125L11.4876 19.4131C11.6422 19.4093 11.7899 19.4772 11.8876 19.5971L10.3373 20.8606ZM20.1406 12.1519C20.2034 12.2058 20.25 12.2457 20.2891 12.2803C20.3282 12.315 20.3481 12.3341 20.3579 12.3441C20.3676 12.354 20.3555 12.3431 20.336 12.3153C20.3143 12.2845 20.2849 12.2352 20.2611 12.1691L22.1434 11.4929C22.0507 11.2348 21.8959 11.0558 21.7853 10.9431C21.6813 10.8373 21.5508 10.7265 21.4422 10.6334L20.1406 12.1519ZM21.4422 13.3667C21.5508 13.2736 21.6813 13.1628 21.7853 13.057C21.8959 12.9443 22.0507 12.7653 22.1434 12.5072L20.2611 11.831C20.2849 11.7649 20.3143 11.7156 20.336 11.6848C20.3555 11.657 20.3676 11.6461 20.3579 11.656C20.3481 11.666 20.3282 11.6851 20.2891 11.7198C20.25 11.7544 20.2034 11.7943 20.1406 11.8482L21.4422 13.3667ZM20.2611 12.1691C20.2219 12.0598 20.2219 11.9403 20.2611 11.831L22.1434 12.5072C22.2611 12.1793 22.2611 11.8208 22.1434 11.4929L20.2611 12.1691ZM12.9714 3.37276C12.7764 3.20563 12.5784 3.03461 12.4055 2.91154C12.2509 2.80148 11.9438 2.59771 11.5372 2.58762L11.4876 4.587C11.3647 4.58396 11.2784 4.55095 11.2434 4.53518C11.2126 4.52125 11.2096 4.51524 11.2458 4.54096C11.28 4.56533 11.3295 4.60379 11.404 4.66551C11.4778 4.72673 11.5629 4.79962 11.6698 4.89128L12.9714 3.37276ZM12 4.73942C12 4.59858 12 4.48656 12.0016 4.39063C12.0032 4.29391 12.0062 4.23132 12.01 4.18946C12.014 4.14529 12.0166 4.15142 12.0071 4.18393C11.9964 4.22073 11.9653 4.30773 11.8876 4.40304L10.3373 3.13951C10.0803 3.45479 10.0352 3.82055 10.0181 4.00958C9.99902 4.22097 10 4.48261 10 4.73942H12ZM11.5372 2.58762C11.0734 2.57612 10.6304 2.77988 10.3373 3.13951L11.8876 4.40304C11.7899 4.52292 11.6422 4.59084 11.4876 4.587L11.5372 2.58762Z" fill="currentColor"/>
</svg>
