<svg width="100%" height="100%" viewBox="0 0 24 24" fill="none" xmlns="http://www.w3.org/2000/svg">
<path d="M20 9.00001C20 9.5523 20.4477 10 21 10C21.5523 10 22 9.55229 22 9.00001L20 9.00001ZM21 3.00001L22 3.00001C22 2.44772 21.5523 2.00001 21 2.00001V3.00001ZM15 2.00001C14.4477 2.00001 14 2.44772 14 3.00001C14 3.55229 14.4477 4.00001 15 4.00001V2.00001ZM11.2929 11.2929C10.9024 11.6834 10.9024 12.3166 11.2929 12.7071C11.6834 13.0976 12.3166 13.0976 12.7071 12.7071L11.2929 11.2929ZM10 4C10.5523 4 11 3.55228 11 3C11 2.44772 10.5523 2 10 2V4ZM22 14C22 13.4477 21.5523 13 21 13C20.4477 13 20 13.4477 20 14H22ZM4.63803 20.673L4.18404 21.564H4.18404L4.63803 20.673ZM3.32698 19.362L4.21799 18.908L4.21799 18.908L3.32698 19.362ZM19.362 20.673L18.908 19.782H18.908L19.362 20.673ZM20.673 19.362L19.782 18.908V18.908L20.673 19.362ZM3.32698 4.63803L4.21799 5.09202L3.32698 4.63803ZM4.63803 3.32698L5.09202 4.21799L4.63803 3.32698ZM22 9.00001L22 3.00001L20 3.00001L20 9.00001L22 9.00001ZM21 2.00001H15V4.00001H21V2.00001ZM20.2929 2.2929L11.2929 11.2929L12.7071 12.7071L21.7071 3.70712L20.2929 2.2929ZM16.2 20H7.8V22H16.2V20ZM4 16.2V7.8H2V16.2H4ZM10 2H7.8V4H10V2ZM22 16.2V14H20V16.2H22ZM7.8 20C6.94342 20 6.36113 19.9992 5.91104 19.9624C5.47262 19.9266 5.24842 19.8617 5.09202 19.782L4.18404 21.564C4.66937 21.8113 5.18608 21.9099 5.74817 21.9558C6.2986 22.0008 6.97642 22 7.8 22V20ZM2 16.2C2 17.0236 1.99922 17.7014 2.04419 18.2518C2.09012 18.8139 2.18868 19.3306 2.43597 19.816L4.21799 18.908C4.1383 18.7516 4.07337 18.5274 4.03755 18.089C4.00078 17.6389 4 17.0566 4 16.2H2ZM5.09202 19.782C4.71569 19.5903 4.40973 19.2843 4.21799 18.908L2.43597 19.816C2.81947 20.5686 3.43139 21.1805 4.18404 21.564L5.09202 19.782ZM16.2 22C17.0236 22 17.7014 22.0008 18.2518 21.9558C18.8139 21.9099 19.3306 21.8113 19.816 21.564L18.908 19.782C18.7516 19.8617 18.5274 19.9266 18.089 19.9624C17.6389 19.9992 17.0566 20 16.2 20V22ZM20 16.2C20 17.0566 19.9992 17.6389 19.9624 18.089C19.9266 18.5274 19.8617 18.7516 19.782 18.908L21.564 19.816C21.8113 19.3306 21.9099 18.8139 21.9558 18.2518C22.0008 17.7014 22 17.0236 22 16.2H20ZM19.816 21.564C20.5686 21.1805 21.1805 20.5686 21.564 19.816L19.782 18.908C19.5903 19.2843 19.2843 19.5903 18.908 19.782L19.816 21.564ZM4 7.8C4 6.94342 4.00078 6.36113 4.03755 5.91104C4.07337 5.47262 4.1383 5.24842 4.21799 5.09202L2.43597 4.18404C2.18868 4.66937 2.09012 5.18608 2.04419 5.74817C1.99922 6.2986 2 6.97642 2 7.8H4ZM7.8 2C6.97642 2 6.2986 1.99922 5.74817 2.04419C5.18608 2.09012 4.66937 2.18868 4.18404 2.43597L5.09202 4.21799C5.24842 4.1383 5.47262 4.07337 5.91104 4.03755C6.36113 4.00078 6.94342 4 7.8 4V2ZM4.21799 5.09202C4.40973 4.71569 4.71569 4.40973 5.09202 4.21799L4.18404 2.43597C3.43139 2.81947 2.81947 3.43139 2.43597 4.18404L4.21799 5.09202Z" fill="currentColor"/>
</svg>
