<svg width="100%" height="100%" viewBox="0 0 24 24" fill="none" xmlns="http://www.w3.org/2000/svg">
<path d="M3.10222 13.2235L4.06815 13.4824L3.10222 13.2235ZM7 12C7.55228 12 8 11.5523 8 11C8 10.4477 7.55228 10 7 10V12ZM5.22354 11.1022L5.48236 12.0681L5.22354 11.1022ZM20.8978 13.2235L19.9319 13.4824L20.8978 13.2235ZM17 10C16.4477 10 16 10.4477 16 11C16 11.5523 16.4477 12 17 12V10ZM18.7765 11.1022L18.5176 12.0681H18.5176L18.7765 11.1022ZM4.63803 20.673L5.09202 19.782H5.09202L4.63803 20.673ZM3.32698 19.362L2.43597 19.816H2.43597L3.32698 19.362ZM19.362 20.673L18.908 19.782H18.908L19.362 20.673ZM20.673 19.362L21.564 19.816L20.673 19.362ZM15.2929 7.70711C15.6834 8.09763 16.3166 8.09763 16.7071 7.70711C17.0976 7.31658 17.0976 6.68342 16.7071 6.29289L15.2929 7.70711ZM12 3L12.7071 2.29289C12.3166 1.90237 11.6834 1.90237 11.2929 2.29289L12 3ZM7.29289 6.29289C6.90237 6.68342 6.90237 7.31658 7.29289 7.70711C7.68342 8.09763 8.31658 8.09763 8.70711 7.70711L7.29289 6.29289ZM11 15C11 15.5523 11.4477 16 12 16C12.5523 16 13 15.5523 13 15H11ZM16.2 20H7.8V22H16.2V20ZM20 15V16.2H22V15H20ZM4 16.2V15H2V16.2H4ZM4 15C4 14.0056 4.00859 13.7046 4.06815 13.4824L2.1363 12.9647C1.99141 13.5054 2 14.1344 2 15H4ZM7 10C6.13441 10 5.50545 9.99141 4.96472 10.1363L5.48236 12.0681C5.70464 12.0086 6.00565 12 7 12V10ZM4.06815 13.4824C4.25308 12.7922 4.79218 12.2531 5.48236 12.0681L4.96472 10.1363C3.58436 10.5062 2.50617 11.5844 2.1363 12.9647L4.06815 13.4824ZM22 15C22 14.1344 22.0086 13.5054 21.8637 12.9647L19.9319 13.4824C19.9914 13.7046 20 14.0056 20 15H22ZM17 12C17.9944 12 18.2954 12.0086 18.5176 12.0681L19.0353 10.1363C18.4946 9.99141 17.8656 10 17 10V12ZM21.8637 12.9647C21.4938 11.5844 20.4156 10.5062 19.0353 10.1363L18.5176 12.0681C19.2078 12.2531 19.7469 12.7922 19.9319 13.4824L21.8637 12.9647ZM7.8 20C6.94342 20 6.36113 19.9992 5.91104 19.9624C5.47262 19.9266 5.24842 19.8617 5.09202 19.782L4.18404 21.564C4.66937 21.8113 5.18608 21.9099 5.74817 21.9558C6.2986 22.0008 6.97642 22 7.8 22V20ZM2 16.2C2 17.0236 1.99922 17.7014 2.04419 18.2518C2.09012 18.8139 2.18868 19.3306 2.43597 19.816L4.21799 18.908C4.1383 18.7516 4.07337 18.5274 4.03755 18.089C4.00078 17.6389 4 17.0566 4 16.2H2ZM5.09202 19.782C4.71569 19.5903 4.40973 19.2843 4.21799 18.908L2.43597 19.816C2.81947 20.5686 3.43139 21.1805 4.18404 21.564L5.09202 19.782ZM16.2 22C17.0236 22 17.7014 22.0008 18.2518 21.9558C18.8139 21.9099 19.3306 21.8113 19.816 21.564L18.908 19.782C18.7516 19.8617 18.5274 19.9266 18.089 19.9624C17.6389 19.9992 17.0566 20 16.2 20V22ZM20 16.2C20 17.0566 19.9992 17.6389 19.9624 18.089C19.9266 18.5274 19.8617 18.7516 19.782 18.908L21.564 19.816C21.8113 19.3306 21.9099 18.8139 21.9558 18.2518C22.0008 17.7014 22 17.0236 22 16.2H20ZM19.816 21.564C20.5686 21.1805 21.1805 20.5686 21.564 19.816L19.782 18.908C19.5903 19.2843 19.2843 19.5903 18.908 19.782L19.816 21.564ZM16.7071 6.29289L12.7071 2.29289L11.2929 3.70711L15.2929 7.70711L16.7071 6.29289ZM11.2929 2.29289L7.29289 6.29289L8.70711 7.70711L12.7071 3.70711L11.2929 2.29289ZM11 3V15H13V3H11Z" fill="currentColor"/>
</svg>
