<svg width="100%" height="100%" viewBox="0 0 24 24" fill="none" xmlns="http://www.w3.org/2000/svg">
<path d="M5.63711 4.22289C5.24658 3.83237 4.61342 3.83237 4.22289 4.22289C3.83237 4.61342 3.83237 5.24658 4.22289 5.63711L5.63711 4.22289ZM18.3629 19.7771C18.7534 20.1676 19.3866 20.1676 19.7771 19.7771C20.1676 19.3866 20.1676 18.7534 19.7771 18.3629L18.3629 19.7771ZM21 12C21 16.9706 16.9706 21 12 21V23C18.0751 23 23 18.0751 23 12H21ZM12 21C7.02944 21 3 16.9706 3 12H1C1 18.0751 5.92487 23 12 23V21ZM3 12C3 7.02944 7.02944 3 12 3V1C5.92487 1 1 5.92487 1 12H3ZM12 3C16.9706 3 21 7.02944 21 12H23C23 5.92487 18.0751 1 12 1V3ZM4.22289 5.63711L18.3629 19.7771L19.7771 18.3629L5.63711 4.22289L4.22289 5.63711Z" fill="currentColor"/>
</svg>
