<svg width="100%" height="100%" viewBox="0 0 24 24" fill="none" xmlns="http://www.w3.org/2000/svg">
<path d="M16.9252 15.4279C16.6092 15.8808 16.7203 16.5042 17.1732 16.8201C17.6262 17.1361 18.2496 17.025 18.5655 16.572L16.9252 15.4279ZM19.8159 10.2867C19.6981 9.74708 19.1652 9.40517 18.6256 9.52297C18.086 9.64078 17.7441 10.1737 17.8619 10.7133L19.8159 10.2867ZM5.4345 16.5721C5.75046 17.0251 6.37381 17.1361 6.82679 16.8202C7.27976 16.5042 7.39084 15.8809 7.07487 15.4279L5.4345 16.5721ZM13.0615 6.09344C13.6053 6.1904 14.1246 5.82823 14.2216 5.28452C14.3185 4.74082 13.9564 4.22146 13.4126 4.1245L13.0615 6.09344ZM17.207 8.20711C17.5975 7.81658 17.5975 7.18342 17.207 6.79289C16.8165 6.40237 16.1833 6.40237 15.7928 6.79289L17.207 8.20711ZM11.2928 11.2929C10.9023 11.6834 10.9023 12.3166 11.2928 12.7071C11.6833 13.0976 12.3165 13.0976 12.707 12.7071L11.2928 11.2929ZM21 12C21 16.9706 16.9706 21 12 21V23C18.0751 23 23 18.0751 23 12H21ZM12 21C7.02944 21 3 16.9706 3 12H1C1 18.0751 5.92487 23 12 23V21ZM3 12C3 7.02944 7.02944 3 12 3V1C5.92487 1 1 5.92487 1 12H3ZM12 3C16.9706 3 21 7.02944 21 12H23C23 5.92487 18.0751 1 12 1V3ZM18 12C18 13.2761 17.6027 14.4564 16.9252 15.4279L18.5655 16.572C19.4696 15.2758 20 13.6984 20 12H18ZM17.8619 10.7133C17.9522 11.1269 18 11.5573 18 12H20C20 11.4129 19.9366 10.8395 19.8159 10.2867L17.8619 10.7133ZM6 12C6 8.68629 8.68629 6 12 6V4C7.58172 4 4 7.58172 4 12H6ZM7.07487 15.4279C6.39726 14.4564 6 13.2761 6 12H4C4 13.6984 4.53037 15.2759 5.4345 16.5721L7.07487 15.4279ZM12 6C12.363 6 12.7177 6.03212 13.0615 6.09344L13.4126 4.1245C12.9534 4.04261 12.4813 4 12 4V6ZM15.7928 6.79289L11.2928 11.2929L12.707 12.7071L17.207 8.20711L15.7928 6.79289ZM12 12V14C13.1046 14 14 13.1046 14 12H12ZM12 12H10C10 13.1046 10.8954 14 12 14V12ZM12 12V10C10.8954 10 10 10.8954 10 12H12ZM12 12H14C14 10.8954 13.1046 10 12 10V12Z" fill="currentColor"/>
</svg>
