<svg width="100%" height="100%" viewBox="0 0 24 24" fill="none" xmlns="http://www.w3.org/2000/svg">
<path d="M4 12C4 12.5523 4.44772 13 5 13C5.55228 13 6 12.5523 6 12H4ZM12 6C12.5523 6 13 5.55228 13 5C13 4.44772 12.5523 4 12 4V6ZM17.207 8.20711C17.5975 7.81658 17.5975 7.18342 17.207 6.79289C16.8165 6.40237 16.1833 6.40237 15.7928 6.79289L17.207 8.20711ZM11.2928 11.2929C10.9023 11.6834 10.9023 12.3166 11.2928 12.7071C11.6833 13.0976 12.3165 13.0976 12.707 12.7071L11.2928 11.2929ZM6 12C6 8.68629 8.68629 6 12 6V4C7.58172 4 4 7.58172 4 12H6ZM21 12C21 16.9706 16.9706 21 12 21V23C18.0751 23 23 18.0751 23 12H21ZM12 21C7.02944 21 3 16.9706 3 12H1C1 18.0751 5.92487 23 12 23V21ZM3 12C3 7.02944 7.02944 3 12 3V1C5.92487 1 1 5.92487 1 12H3ZM12 3C16.9706 3 21 7.02944 21 12H23C23 5.92487 18.0751 1 12 1V3ZM15.7928 6.79289L11.2928 11.2929L12.707 12.7071L17.207 8.20711L15.7928 6.79289ZM12 12V14C13.1046 14 14 13.1046 14 12H12ZM12 12H10C10 13.1046 10.8954 14 12 14V12ZM12 12V10C10.8954 10 10 10.8954 10 12H12ZM12 12H14C14 10.8954 13.1046 10 12 10V12Z" fill="currentColor"/>
</svg>
