<svg width="100%" height="100%" viewBox="0 0 24 24" fill="none" xmlns="http://www.w3.org/2000/svg">
<path d="M11 4.5C11 5.05228 11.4477 5.5 12 5.5C12.5523 5.5 13 5.05228 13 4.5H11ZM4.5 13C5.05228 13 5.5 12.5523 5.5 12C5.5 11.4477 5.05228 11 4.5 11V13ZM19.5 11C18.9477 11 18.5 11.4477 18.5 12C18.5 12.5523 18.9477 13 19.5 13V11ZM19.7805 5.7121C20.1738 5.32435 20.1783 4.6912 19.7905 4.29792C19.4028 3.90464 18.7696 3.90015 18.3763 4.2879L19.7805 5.7121ZM12.7978 9.7879C12.4045 10.1756 12.4001 10.8088 12.7878 11.2021C13.1756 11.5954 13.8087 11.5998 14.202 11.2121L12.7978 9.7879ZM18.3713 19.7855C18.7618 20.1761 19.395 20.1761 19.7855 19.7855C20.1761 19.395 20.1761 18.7618 19.7855 18.3713L18.3713 19.7855ZM18.8745 18.8745L18.1674 19.5816V19.5816L18.8745 18.8745ZM4.21452 18.3713C3.824 18.7618 3.824 19.395 4.21452 19.7855C4.60505 20.1761 5.23821 20.1761 5.62874 19.7855L4.21452 18.3713ZM5.12549 18.8746L5.8326 19.5817L5.8326 19.5817L5.12549 18.8746ZM14.349 17L14.349 18L14.349 17ZM9.65096 17L9.65095 16L9.65096 17ZM6.56686 17.5895L6.04436 16.7368L6.56686 17.5895ZM7.72307 17.1106L7.48962 16.1382L7.72307 17.1106ZM17.4331 17.5894L16.9106 18.4421H16.9106L17.4331 17.5894ZM16.2769 17.1105L16.5104 16.1382L16.2769 17.1105ZM5.62874 4.29289C5.23821 3.90237 4.60505 3.90237 4.21452 4.29289C3.824 4.68342 3.824 5.31658 4.21452 5.70711L5.62874 4.29289ZM5.95097 7.44356C6.3415 7.83408 6.97466 7.83408 7.36519 7.44356C7.75571 7.05303 7.75571 6.41987 7.36519 6.02934L5.95097 7.44356ZM21 12C21 16.9706 16.9706 21 12 21V23C18.0751 23 23 18.0751 23 12H21ZM12 21C7.02944 21 3 16.9706 3 12H1C1 18.0751 5.92487 23 12 23V21ZM3 12C3 7.02944 7.02944 3 12 3V1C5.92487 1 1 5.92487 1 12H3ZM12 3C16.9706 3 21 7.02944 21 12H23C23 5.92487 18.0751 1 12 1V3ZM11 2V4.5H13V2H11ZM4.5 11H2V13H4.5V11ZM22 11H19.5V13H22V11ZM18.3763 4.2879L12.7978 9.7879L14.202 11.2121L19.7805 5.7121L18.3763 4.2879ZM19.7855 18.3713L19.5816 18.1674L18.1674 19.5816L18.3713 19.7855L19.7855 18.3713ZM5.62874 19.7855L5.8326 19.5817L4.41839 18.1675L4.21452 18.3713L5.62874 19.7855ZM14.349 16L9.65095 16L9.65096 18L14.349 18L14.349 16ZM5.8326 19.5817C6.55806 18.8562 6.81009 18.6133 7.08936 18.4421L6.04436 16.7368C5.51631 17.0604 5.07653 17.5093 4.41839 18.1675L5.8326 19.5817ZM9.65095 16C8.72019 16 8.09182 15.9936 7.48962 16.1382L7.95652 18.0829C8.27501 18.0065 8.625 18 9.65096 18L9.65095 16ZM7.08936 18.4421C7.35778 18.2776 7.65041 18.1564 7.95652 18.0829L7.48962 16.1382C6.97944 16.2607 6.49172 16.4627 6.04436 16.7368L7.08936 18.4421ZM19.5816 18.1674C18.9235 17.5093 18.4837 17.0604 17.9556 16.7368L16.9106 18.4421C17.1899 18.6132 17.442 18.8562 18.1674 19.5816L19.5816 18.1674ZM14.349 18C15.375 18 15.725 18.0064 16.0435 18.0829L16.5104 16.1382C15.9082 15.9936 15.2798 16 14.349 16L14.349 18ZM17.9556 16.7368C17.5083 16.4627 17.0205 16.2606 16.5104 16.1382L16.0435 18.0829C16.3496 18.1564 16.6422 18.2776 16.9106 18.4421L17.9556 16.7368ZM4.21452 5.70711L5.95097 7.44356L7.36519 6.02934L5.62874 4.29289L4.21452 5.70711ZM13 12C13 12.5523 12.5523 13 12 13V15C13.6569 15 15 13.6569 15 12H13ZM12 13C11.4477 13 11 12.5523 11 12H9C9 13.6569 10.3431 15 12 15V13ZM11 12C11 11.4477 11.4477 11 12 11V9C10.3431 9 9 10.3431 9 12H11ZM12 11C12.5523 11 13 11.4477 13 12H15C15 10.3431 13.6569 9 12 9V11Z" fill="currentColor"/>
</svg>
