<svg width="100%" height="100%" viewBox="0 0 24 24" fill="none" xmlns="http://www.w3.org/2000/svg">
<path d="M11 4.5C11 5.05228 11.4477 5.5 12 5.5C12.5523 5.5 13 5.05228 13 4.5H11ZM13 19.5C13 18.9477 12.5523 18.5 12 18.5C11.4477 18.5 11 18.9477 11 19.5H13ZM4.5 13C5.05228 13 5.5 12.5523 5.5 12C5.5 11.4477 5.05228 11 4.5 11V13ZM19.5 11C18.9477 11 18.5 11.4477 18.5 12C18.5 12.5523 18.9477 13 19.5 13V11ZM18.3713 19.7855C18.7618 20.1761 19.395 20.1761 19.7855 19.7855C20.1761 19.395 20.1761 18.7618 19.7855 18.3713L18.3713 19.7855ZM18.0118 16.5976C17.6213 16.2071 16.9881 16.2071 16.5976 16.5976C16.2071 16.9881 16.2071 17.6213 16.5976 18.0118L18.0118 16.5976ZM4.21452 18.3713C3.824 18.7618 3.824 19.395 4.21452 19.7855C4.60505 20.1761 5.23821 20.1761 5.62874 19.7855L4.21452 18.3713ZM7.40426 18.01C7.79478 17.6195 7.79478 16.9863 7.40426 16.5958C7.01373 16.2053 6.38057 16.2053 5.99005 16.5958L7.40426 18.01ZM5.62874 4.29289C5.23821 3.90237 4.60505 3.90237 4.21452 4.29289C3.824 4.68342 3.824 5.31658 4.21452 5.70711L5.62874 4.29289ZM5.95097 7.44356C6.3415 7.83408 6.97466 7.83408 7.36519 7.44356C7.75571 7.05303 7.75571 6.41987 7.36519 6.02934L5.95097 7.44356ZM19.7805 5.7121C20.1738 5.32435 20.1783 4.6912 19.7905 4.29792C19.4028 3.90464 18.7696 3.90015 18.3763 4.2879L19.7805 5.7121ZM12.7978 9.7879C12.4045 10.1756 12.4001 10.8088 12.7878 11.2021C13.1756 11.5954 13.8087 11.5998 14.202 11.2121L12.7978 9.7879ZM11 2V4.5H13V2H11ZM11 19.5V22H13V19.5H11ZM4.5 11H2V13H4.5V11ZM22 11H19.5V13H22V11ZM19.7855 18.3713L18.0118 16.5976L16.5976 18.0118L18.3713 19.7855L19.7855 18.3713ZM5.62874 19.7855L7.40426 18.01L5.99005 16.5958L4.21452 18.3713L5.62874 19.7855ZM4.21452 5.70711L5.95097 7.44356L7.36519 6.02934L5.62874 4.29289L4.21452 5.70711ZM21 12C21 16.9706 16.9706 21 12 21V23C18.0751 23 23 18.0751 23 12H21ZM12 21C7.02944 21 3 16.9706 3 12H1C1 18.0751 5.92487 23 12 23V21ZM3 12C3 7.02944 7.02944 3 12 3V1C5.92487 1 1 5.92487 1 12H3ZM12 3C16.9706 3 21 7.02944 21 12H23C23 5.92487 18.0751 1 12 1V3ZM18.3763 4.2879L12.7978 9.7879L14.202 11.2121L19.7805 5.7121L18.3763 4.2879ZM13 12C13 12.5523 12.5523 13 12 13V15C13.6569 15 15 13.6569 15 12H13ZM12 13C11.4477 13 11 12.5523 11 12H9C9 13.6569 10.3431 15 12 15V13ZM11 12C11 11.4477 11.4477 11 12 11V9C10.3431 9 9 10.3431 9 12H11ZM12 11C12.5523 11 13 11.4477 13 12H15C15 10.3431 13.6569 9 12 9V11Z" fill="currentColor"/>
</svg>
