<svg width="100%" height="100%" viewBox="0 0 24 24" fill="none" xmlns="http://www.w3.org/2000/svg">
<path d="M18 11C17.4477 11 17 11.4477 17 12C17 12.5523 17.4477 13 18 13V11ZM6 13C6.55228 13 7 12.5523 7 12C7 11.4477 6.55228 11 6 11V13ZM11 6C11 6.55228 11.4477 7 12 7C12.5523 7 13 6.55228 13 6H11ZM13 18C13 17.4477 12.5523 17 12 17C11.4477 17 11 17.4477 11 18H13ZM21 12C21 16.9706 16.9706 21 12 21V23C18.0751 23 23 18.0751 23 12H21ZM12 21C7.02944 21 3 16.9706 3 12H1C1 18.0751 5.92487 23 12 23V21ZM3 12C3 7.02944 7.02944 3 12 3V1C5.92487 1 1 5.92487 1 12H3ZM12 3C16.9706 3 21 7.02944 21 12H23C23 5.92487 18.0751 1 12 1V3ZM22 11H18V13H22V11ZM6 11H2V13H6V11ZM13 6V2H11V6H13ZM13 22V18H11V22H13Z" fill="currentColor"/>
</svg>
