<svg width="100%" height="100%" viewBox="0 0 24 24" fill="none" xmlns="http://www.w3.org/2000/svg">
<path d="M7 8H17V6H7V8ZM17 16H7V18H17V16ZM7 16C4.79086 16 3 14.2091 3 12H1C1 15.3137 3.68629 18 7 18V16ZM21 12C21 14.2091 19.2091 16 17 16V18C20.3137 18 23 15.3137 23 12H21ZM17 8C19.2091 8 21 9.79086 21 12H23C23 8.68629 20.3137 6 17 6V8ZM7 6C3.68629 6 1 8.68629 1 12H3C3 9.79086 4.79086 8 7 8V6ZM17 16C14.7909 16 13 14.2091 13 12H11C11 15.3137 13.6863 18 17 18V16ZM13 12C13 9.79086 14.7909 8 17 8V6C13.6863 6 11 8.68629 11 12H13Z" fill="currentColor"/>
</svg>
