<svg width="100%" height="100%" viewBox="0 0 24 24" fill="none" xmlns="http://www.w3.org/2000/svg">
<path d="M8 7H16V5H8V7ZM16 17H8V19H16V17ZM8 17C5.23858 17 3 14.7614 3 12H1C1 15.866 4.13401 19 8 19V17ZM21 12C21 14.7614 18.7614 17 16 17V19C19.866 19 23 15.866 23 12H21ZM16 7C18.7614 7 21 9.23858 21 12H23C23 8.13401 19.866 5 16 5V7ZM8 5C4.13401 5 1 8.13401 1 12H3C3 9.23858 5.23858 7 8 7V5ZM9.5 12C9.5 12.8284 8.82843 13.5 8 13.5V15.5C9.933 15.5 11.5 13.933 11.5 12H9.5ZM8 13.5C7.17157 13.5 6.5 12.8284 6.5 12H4.5C4.5 13.933 6.067 15.5 8 15.5V13.5ZM6.5 12C6.5 11.1716 7.17157 10.5 8 10.5V8.5C6.067 8.5 4.5 10.067 4.5 12H6.5ZM8 10.5C8.82843 10.5 9.5 11.1716 9.5 12H11.5C11.5 10.067 9.933 8.5 8 8.5V10.5Z" fill="currentColor"/>
</svg>
