<svg width="100%" height="100%" viewBox="0 0 24 24" fill="none" xmlns="http://www.w3.org/2000/svg">
<path d="M13.9995 17C14.5518 17 14.9995 16.5523 14.9995 16C14.9995 15.4477 14.5518 15 13.9995 15V17ZM13.9995 9C14.5518 9 14.9995 8.55228 14.9995 8C14.9995 7.44772 14.5518 7 13.9995 7V9ZM6 17H13.9995V15H6V17ZM13.9995 7H6V9H13.9995V7ZM3 12C3 10.3431 4.34315 9 6 9V7C3.23858 7 1 9.23858 1 12H3ZM6 15C4.34315 15 3 13.6569 3 12H1C1 14.7614 3.23858 17 6 17V15ZM20.9995 12C20.9995 14.2091 19.2087 16 16.9995 16V18C20.3132 18 22.9995 15.3137 22.9995 12H20.9995ZM16.9995 16C14.7904 16 12.9995 14.2091 12.9995 12H10.9995C10.9995 15.3137 13.6858 18 16.9995 18V16ZM12.9995 12C12.9995 9.79086 14.7904 8 16.9995 8V6C13.6858 6 10.9995 8.68629 10.9995 12H12.9995ZM16.9995 8C19.2087 8 20.9995 9.79086 20.9995 12H22.9995C22.9995 8.68629 20.3132 6 16.9995 6V8Z" fill="currentColor"/>
</svg>
