<svg width="100%" height="100%" viewBox="0 0 24 24" fill="none" xmlns="http://www.w3.org/2000/svg">
<path d="M10.0005 15C9.4482 15 9.00049 15.4477 9.00049 16C9.00049 16.5523 9.4482 17 10.0005 17V15ZM10.0005 7C9.4482 7 9.00049 7.44772 9.00049 8C9.00049 8.55228 9.4482 9 10.0005 9V7ZM18 15H10.0005V17H18V15ZM10.0005 9H18V7H10.0005V9ZM23 12C23 9.23858 20.7614 7 18 7V9C19.6569 9 21 10.3431 21 12H23ZM18 17C20.7614 17 23 14.7614 23 12H21C21 13.6569 19.6569 15 18 15V17ZM11 12C11 14.2091 9.20914 16 7 16V18C10.3137 18 13 15.3137 13 12H11ZM7 16C4.79086 16 3 14.2091 3 12H1C1 15.3137 3.68629 18 7 18V16ZM3 12C3 9.79086 4.79086 8 7 8V6C3.68629 6 1 8.68629 1 12H3ZM7 8C9.20914 8 11 9.79086 11 12H13C13 8.68629 10.3137 6 7 6V8Z" fill="currentColor"/>
</svg>
