<svg width="100%" height="100%" viewBox="0 0 24 24" fill="none" xmlns="http://www.w3.org/2000/svg">
<path d="M8 7H16V5H8V7ZM16 17H8V19H16V17ZM8 17C5.23858 17 3 14.7614 3 12H1C1 15.866 4.13401 19 8 19V17ZM21 12C21 14.7614 18.7614 17 16 17V19C19.866 19 23 15.866 23 12H21ZM16 7C18.7614 7 21 9.23858 21 12H23C23 8.13401 19.866 5 16 5V7ZM8 5C4.13401 5 1 8.13401 1 12H3C3 9.23858 5.23858 7 8 7V5ZM17.5 12C17.5 12.8284 16.8284 13.5 16 13.5V15.5C17.933 15.5 19.5 13.933 19.5 12H17.5ZM16 13.5C15.1716 13.5 14.5 12.8284 14.5 12H12.5C12.5 13.933 14.067 15.5 16 15.5V13.5ZM14.5 12C14.5 11.1716 15.1716 10.5 16 10.5V8.5C14.067 8.5 12.5 10.067 12.5 12H14.5ZM16 10.5C16.8284 10.5 17.5 11.1716 17.5 12H19.5C19.5 10.067 17.933 8.5 16 8.5V10.5Z" fill="currentColor"/>
</svg>
