<svg width="100%" height="100%" viewBox="0 0 24 24" fill="none" xmlns="http://www.w3.org/2000/svg">
<path d="M18.4697 2.53026L19.1768 3.23736C19.409 3.00521 19.5124 2.67388 19.4535 2.35089C19.3946 2.0279 19.1809 1.75439 18.8818 1.6191L18.4697 2.53026ZM21.4697 5.53026L22.3809 5.1182C22.2456 4.81905 21.9721 4.60536 21.6491 4.54647C21.3261 4.48759 20.9948 4.59099 20.7626 4.82315L21.4697 5.53026ZM18.6314 8.36863L17.9242 7.66152L18.6314 8.36863ZM17.809 9.03684L17.5 8.08579L17.809 9.03684ZM16.3686 8.36863L15.6615 9.07573L16.3686 8.36863ZM17.191 9.03684L16.8819 9.9879L17.191 9.03684ZM13.2949 13.7714L13.755 14.6592L13.2949 13.7714ZM14.5749 13.8297L14.8116 12.8582L14.5749 13.8297ZM13.6867 13.6616L13.6184 12.6639L13.6867 13.6616ZM3.49998 17.5L2.79288 16.7929H2.79288L3.49998 17.5ZM3.49998 20.5L2.79288 21.2071L3.49998 20.5ZM10.1702 9.42509L11.1418 9.1884L10.1702 9.42509ZM10.3384 10.3133L11.3361 10.3816L10.3384 10.3133ZM9.7478 11.2522L10.4549 11.9593L9.7478 11.2522ZM10.2286 10.7051L9.34074 10.245L10.2286 10.7051ZM6.49998 20.5L5.79288 19.7929L6.49998 20.5ZM15.6314 5.36863L14.9242 4.66152L15.6314 5.36863ZM14.9631 6.19098L14.0121 5.88197L14.9631 6.19098ZM15.6314 7.63137L16.3385 6.92426L15.6314 7.63137ZM14.9631 6.80902L15.9142 6.5L14.9631 6.80902ZM17.7626 1.82315L14.9242 4.66152L16.3385 6.07574L19.1768 3.23736L17.7626 1.82315ZM16 3C16.7355 3 17.4314 3.15818 18.0577 3.44141L18.8818 1.6191C18.0017 1.22107 17.0253 1 16 1V3ZM11 8C11 5.23858 13.2386 3 16 3V1C12.134 1 8.99998 4.13401 8.99998 8H11ZM11.1418 9.1884C11.0493 8.8085 11 8.41068 11 8H8.99998C8.99998 8.57139 9.06865 9.1281 9.19866 9.66177L11.1418 9.1884ZM4.20709 18.2071L10.4549 11.9593L9.04069 10.5451L2.79288 16.7929L4.20709 18.2071ZM12.0407 13.5451L5.79288 19.7929L7.20709 21.2071L13.4549 14.9593L12.0407 13.5451ZM16 13C15.5893 13 15.1915 12.9507 14.8116 12.8582L14.3382 14.8013C14.8719 14.9313 15.4286 15 16 15V13ZM21 8C21 10.7614 18.7614 13 16 13V15C19.866 15 23 11.866 23 8H21ZM20.5586 5.94232C20.8418 6.56862 21 7.26449 21 8H23C23 6.9747 22.7789 5.99833 22.3809 5.1182L20.5586 5.94232ZM19.3385 9.07574L22.1768 6.23736L20.7626 4.82315L17.9242 7.66152L19.3385 9.07574ZM14.9242 8.33848L15.6615 9.07573L17.0757 7.66152L16.3385 6.92426L14.9242 8.33848ZM17.9242 7.66152C17.7146 7.8712 17.5993 7.98538 17.5101 8.06108C17.4299 8.1292 17.4386 8.10573 17.5 8.08579L18.118 9.9879C18.4077 9.89376 18.6296 9.73419 18.8045 9.58576C18.9704 9.44491 19.1521 9.26208 19.3385 9.07574L17.9242 7.66152ZM15.6615 9.07573C15.8478 9.26208 16.0296 9.44491 16.1955 9.58576C16.3703 9.73419 16.5922 9.89376 16.8819 9.9879L17.5 8.08579C17.5614 8.10573 17.5701 8.1292 17.4898 8.06108C17.4007 7.98538 17.2854 7.8712 17.0757 7.66152L15.6615 9.07573ZM17.5 8.08579H17.5L16.8819 9.9879C17.2836 10.1184 17.7163 10.1184 18.118 9.9879L17.5 8.08579ZM13.4549 14.9593C13.5987 14.8155 13.6803 14.7344 13.7424 14.6783C13.8019 14.6245 13.7969 14.6375 13.755 14.6592L12.8348 12.8835C12.5241 13.0445 12.2559 13.3298 12.0407 13.5451L13.4549 14.9593ZM14.8116 12.8582C14.5755 12.8006 14.3686 12.75 14.2024 12.7166C14.0489 12.6858 13.8377 12.6489 13.6184 12.6639L13.755 14.6592C13.6901 14.6637 13.6785 14.6513 13.8082 14.6774C13.9251 14.7009 14.0851 14.7397 14.3382 14.8013L14.8116 12.8582ZM13.755 14.6592C13.7751 14.6488 13.782 14.646 13.7806 14.6466C13.7796 14.647 13.7764 14.6483 13.7715 14.65C13.7665 14.6518 13.7605 14.6537 13.7539 14.6556C13.7473 14.6574 13.7413 14.6589 13.7361 14.66C13.7309 14.661 13.7276 14.6616 13.7265 14.6617C13.725 14.662 13.7324 14.6608 13.755 14.6592L13.6184 12.6639C13.3199 12.6843 13.1004 12.7458 12.8348 12.8835L13.755 14.6592ZM2.79288 16.7929C1.57392 18.0118 1.57392 19.9882 2.79288 21.2071L4.20709 19.7929C3.76919 19.355 3.76919 18.645 4.20709 18.2071L2.79288 16.7929ZM9.19866 9.66177C9.26031 9.91484 9.29908 10.0749 9.32259 10.1918C9.34867 10.3215 9.3363 10.3099 9.34074 10.245L11.3361 10.3816C11.3511 10.1623 11.3142 9.9511 11.2834 9.7976C11.2499 9.63134 11.1993 9.42449 11.1418 9.1884L9.19866 9.66177ZM10.4549 11.9593C10.6701 11.744 10.9555 11.4759 11.1165 11.1652L9.34074 10.245C9.36246 10.2031 9.37549 10.1981 9.32172 10.2576C9.26561 10.3197 9.18451 10.4013 9.04069 10.5451L10.4549 11.9593ZM9.34074 10.245C9.33919 10.2676 9.33802 10.275 9.33824 10.2735C9.3384 10.2724 9.33894 10.269 9.34002 10.2639C9.34112 10.2587 9.34258 10.2527 9.34443 10.2461C9.34627 10.2395 9.34818 10.2335 9.34995 10.2285C9.35169 10.2236 9.35298 10.2204 9.3534 10.2194C9.35398 10.218 9.35116 10.2249 9.34074 10.245L11.1165 11.1652C11.2541 10.8995 11.3156 10.6801 11.3361 10.3816L9.34074 10.245ZM2.79288 21.2071C4.01183 22.4261 5.98814 22.4261 7.20709 21.2071L5.79288 19.7929C5.35497 20.2308 4.64499 20.2308 4.20709 19.7929L2.79288 21.2071ZM14.9242 4.66152C14.7379 4.84786 14.5551 5.02959 14.4142 5.19551C14.2658 5.37036 14.1062 5.59225 14.0121 5.88197L15.9142 6.5C15.8942 6.56139 15.8708 6.57011 15.9389 6.48987C16.0146 6.40069 16.1288 6.28541 16.3385 6.07574L14.9242 4.66152ZM16.3385 6.92426C16.1288 6.71459 16.0146 6.59931 15.9389 6.51013C15.8708 6.42989 15.8942 6.43861 15.9142 6.5L14.0121 7.11803C14.1062 7.40775 14.2658 7.62964 14.4142 7.80449C14.5551 7.9704 14.7379 8.15214 14.9242 8.33848L16.3385 6.92426ZM14.0121 5.88197C13.8816 6.28365 13.8816 6.71635 14.0121 7.11803L15.9142 6.5L14.0121 5.88197Z" fill="currentColor"/>
</svg>
