<svg width="100%" height="100%" viewBox="0 0 24 24" fill="none" xmlns="http://www.w3.org/2000/svg">
<path d="M9.79289 11.2071C10.1834 11.5976 10.8166 11.5976 11.2071 11.2071C11.5976 10.8166 11.5976 10.1834 11.2071 9.79289L9.79289 11.2071ZM3 2L3.31623 1.05132C2.95689 0.931538 2.56073 1.02506 2.29289 1.29289L3 2ZM6 3H7C7 2.56957 6.72457 2.18743 6.31623 2.05132L6 3ZM3 6L2.05132 6.31623C2.18743 6.72457 2.56957 7 3 7V6ZM2 3L1.29289 2.29289C1.02506 2.56073 0.931538 2.95689 1.05132 3.31623L2 3ZM19.259 2.74101L19.9661 3.44812C20.1856 3.22863 20.2907 2.91965 20.2506 2.61184C20.2105 2.30403 20.0297 2.03229 19.7613 1.87636L19.259 2.74101ZM21.5893 5.41072L22.5142 5.0306C22.3871 4.72123 22.1137 4.49591 21.7857 4.4302C21.4578 4.3645 21.1187 4.4671 20.8822 4.70361L21.5893 5.41072ZM10.657 10.343L9.94992 9.63586L10.657 10.343ZM11.1198 9.81949L12.0015 10.2913L11.1198 9.81949ZM11.1041 8.57024L10.123 8.76373L11.1041 8.57024ZM11.2332 9.44681L12.2283 9.54596L11.2332 9.44681ZM3.5 20.5L2.79289 21.2071H2.79289L3.5 20.5ZM3.5 17.5L4.20711 18.2071L3.5 17.5ZM15.4298 12.8959L15.2363 13.877L15.4298 12.8959ZM14.5532 12.7668L14.6523 13.7619L14.5532 12.7668ZM13.657 13.343L14.3641 14.0501L13.657 13.343ZM14.1805 12.8802L13.7087 11.9985H13.7087L14.1805 12.8802ZM6.5 20.5L5.79289 19.7929H5.79289L6.5 20.5ZM16.8686 7.86863L17.5757 7.16152L17.5757 7.16152L16.8686 7.86863ZM17.691 8.53684L17.382 9.4879L17.691 8.53684ZM19.1314 7.86863L19.8385 8.57574L19.1314 7.86863ZM18.309 8.53684L18.618 9.4879L18.309 8.53684ZM16.6314 5.36863L15.9243 4.66152L16.6314 5.36863ZM15.9632 6.19098L15.0121 5.88197L15.9632 6.19098ZM16.6314 7.63137L15.9243 8.33848L15.9243 8.33848L16.6314 7.63137ZM15.9632 6.80902L15.0121 7.11803L15.9632 6.80902ZM12.0001 14.9999L11.2929 14.2928C11.1054 14.4804 11.0001 14.7347 11.0001 14.9999C11.0001 15.2652 11.1054 15.5195 11.2929 15.7071L12.0001 14.9999ZM15.9753 12.9753L16.6824 12.2682C16.5179 12.1037 16.3012 12.0017 16.0695 11.9797L15.9753 12.9753ZM15.0408 12.8043L15.3055 11.84L15.0408 12.8043ZM13.9397 13.0603L14.6468 13.7674L13.9397 13.0603ZM20.5 17.4999L21.2071 16.7928L20.5 17.4999ZM17.5 20.4999L16.7929 21.207L17.5 20.4999ZM5.29289 6.70711L9.79289 11.2071L11.2071 9.79289L6.70711 5.29289L5.29289 6.70711ZM2.68377 2.94868L5.68377 3.94868L6.31623 2.05132L3.31623 1.05132L2.68377 2.94868ZM3.94868 5.68377L2.94868 2.68377L1.05132 3.31623L2.05132 6.31623L3.94868 5.68377ZM2.70711 3.70711L3.70711 2.70711L2.29289 1.29289L1.29289 2.29289L2.70711 3.70711ZM6 5H3V7H6V5ZM5 3V6H7V3H5ZM17.3385 6.07574L19.9661 3.44812L18.5519 2.03391L15.9243 4.66152L17.3385 6.07574ZM17.5757 7.16152L17.3385 6.92426L15.9243 8.33848L16.1615 8.57574L17.5757 7.16152ZM20.8822 4.70361L18.4243 7.16152L19.8385 8.57574L22.2964 6.11782L20.8822 4.70361ZM23 7.5C23 6.62776 22.8277 5.79328 22.5142 5.0306L20.6643 5.79083C20.8804 6.31649 21 6.89303 21 7.5H23ZM16.5 14C20.0898 14 23 11.0899 23 7.5H21C21 9.98528 18.9853 12 16.5 12V14ZM15.2363 13.877C15.6458 13.9578 16.0685 14 16.5 14V12C16.1991 12 15.906 11.9706 15.6233 11.9148L15.2363 13.877ZM7.20711 21.2071L14.3641 14.0501L12.9499 12.6359L5.79289 19.7929L7.20711 21.2071ZM9.94992 9.63586L2.7929 16.7929L4.20711 18.2071L11.3641 11.0501L9.94992 9.63586ZM10 7.5C10 7.93151 10.0422 8.35416 10.123 8.76373L12.0852 8.37675C12.0294 8.09395 12 7.8009 12 7.5H10ZM16.5 1C12.9101 1 10 3.91015 10 7.5H12C12 5.01472 14.0147 3 16.5 3V1ZM19.7613 1.87636C18.8019 1.31891 17.6867 1 16.5 1V3C17.3243 3 18.0941 3.22074 18.7566 3.60567L19.7613 1.87636ZM11.3641 11.0501C11.5707 10.8435 11.8436 10.5864 12.0015 10.2913L10.2381 9.34766C10.2596 9.30762 10.2718 9.30276 10.2198 9.36003C10.1658 9.41962 10.0879 9.49793 9.94992 9.63586L11.3641 11.0501ZM10.123 8.76373C10.1725 9.01485 10.2039 9.17503 10.2224 9.29178C10.2312 9.34783 10.2345 9.37836 10.2356 9.39267C10.2368 9.40788 10.2341 9.38817 10.2381 9.34766L12.2283 9.54596C12.2493 9.33503 12.2214 9.12831 12.1978 8.97936C12.172 8.81619 12.1315 8.61177 12.0852 8.37675L10.123 8.76373ZM12.0015 10.2913C12.0538 10.1936 12.1114 10.0751 12.1552 9.93091C12.1991 9.78673 12.2173 9.6562 12.2283 9.54596L10.2381 9.34766C10.237 9.35912 10.2361 9.36689 10.2354 9.37193C10.2347 9.37689 10.2344 9.37848 10.2346 9.37752C10.2348 9.37644 10.2355 9.37293 10.2367 9.36756C10.238 9.36211 10.2397 9.35572 10.2418 9.34878C10.2439 9.34184 10.2461 9.33559 10.248 9.33035C10.25 9.32519 10.2514 9.32191 10.2518 9.32091C10.2522 9.32001 10.2516 9.3215 10.2494 9.32598C10.2471 9.33054 10.2436 9.3375 10.2381 9.34766L12.0015 10.2913ZM4.20711 19.7929C3.76921 19.355 3.76921 18.645 4.20711 18.2071L2.7929 16.7929C1.57394 18.0118 1.57394 19.9881 2.79289 21.2071L4.20711 19.7929ZM15.6233 11.9148C15.3882 11.8685 15.1838 11.828 15.0206 11.8022C14.8717 11.7786 14.665 11.7507 14.454 11.7717L14.6523 13.7619C14.6118 13.7659 14.5921 13.7632 14.6073 13.7644C14.6216 13.7655 14.6522 13.7688 14.7082 13.7776C14.825 13.7961 14.9851 13.8275 15.2363 13.877L15.6233 11.9148ZM14.3641 14.0501C14.5021 13.9121 14.5804 13.8342 14.64 13.7802C14.6972 13.7282 14.6924 13.7404 14.6523 13.7619L13.7087 11.9985C13.4136 12.1564 13.1565 12.4293 12.9499 12.6359L14.3641 14.0501ZM14.454 11.7717C14.3438 11.7827 14.2133 11.8009 14.0691 11.8448C13.9249 11.8887 13.8064 11.9462 13.7087 11.9985L14.6523 13.7619C14.6625 13.7564 14.6695 13.7529 14.674 13.7506C14.6785 13.7484 14.68 13.7478 14.6791 13.7482C14.6781 13.7486 14.6748 13.75 14.6697 13.752C14.6644 13.7539 14.6582 13.7561 14.6512 13.7582C14.6443 13.7603 14.6379 13.762 14.6324 13.7633C14.6271 13.7645 14.6236 13.7652 14.6225 13.7654C14.6215 13.7656 14.6231 13.7653 14.6281 13.7646C14.6331 13.7639 14.6409 13.763 14.6523 13.7619L14.454 11.7717ZM5.79289 19.7929C5.35499 20.2308 4.64501 20.2308 4.20711 19.7929L2.79289 21.2071C4.01185 22.426 5.98816 22.426 7.20711 21.2071L5.79289 19.7929ZM16.1615 8.57574C16.3479 8.76208 16.5296 8.94491 16.6955 9.08576C16.8704 9.23419 17.0922 9.39376 17.382 9.4879L18 7.58579C18.0614 7.60573 18.0701 7.6292 17.9899 7.56108C17.9007 7.48538 17.7854 7.3712 17.5757 7.16152L16.1615 8.57574ZM18.4243 7.16152C18.2146 7.3712 18.0993 7.48538 18.0101 7.56108C17.9299 7.6292 17.9386 7.60573 18 7.58579L18.618 9.4879C18.9078 9.39376 19.1296 9.23419 19.3045 9.08576C19.4704 8.94491 19.6521 8.76208 19.8385 8.57574L18.4243 7.16152ZM17.382 9.4879C17.7837 9.61842 18.2163 9.61842 18.618 9.4879L18 7.58579L17.382 9.4879ZM15.9243 4.66152C15.7379 4.84786 15.5551 5.02959 15.4142 5.19551C15.2658 5.37036 15.1062 5.59225 15.0121 5.88197L16.9142 6.5C16.8943 6.56139 16.8708 6.57011 16.9389 6.48987C17.0146 6.40069 17.1288 6.28541 17.3385 6.07574L15.9243 4.66152ZM17.3385 6.92426C17.1288 6.71459 17.0146 6.59931 16.9389 6.51013C16.8708 6.42989 16.8943 6.43861 16.9142 6.5L15.0121 7.11803C15.1062 7.40775 15.2658 7.62964 15.4142 7.80449C15.5551 7.9704 15.7379 8.15214 15.9243 8.33848L17.3385 6.92426ZM15.0121 5.88197C14.8816 6.28365 14.8816 6.71635 15.0121 7.11803L16.9142 6.5L15.0121 5.88197ZM18.2071 19.7928L12.7072 14.2928L11.2929 15.7071L16.7929 21.207L18.2071 19.7928ZM15.2682 13.6824L19.7929 18.207L21.2071 16.7928L16.6824 12.2682L15.2682 13.6824ZM16.0695 11.9797C15.8073 11.9549 15.552 11.9077 15.3055 11.84L14.7761 13.7687C15.1334 13.8667 15.5027 13.935 15.8811 13.9708L16.0695 11.9797ZM15.3055 11.84C14.6374 11.6566 13.818 11.7678 13.2326 12.3532L14.6468 13.7674C14.6419 13.7723 14.6432 13.767 14.6646 13.7623C14.6887 13.757 14.7285 13.7556 14.7761 13.7687L15.3055 11.84ZM13.2326 12.3532L11.2929 14.2928L12.7072 15.7071L14.6468 13.7674L13.2326 12.3532ZM21.2071 21.207C22.426 19.988 22.426 18.0117 21.2071 16.7928L19.7929 18.207C20.2308 18.6449 20.2308 19.3549 19.7929 19.7928L21.2071 21.207ZM16.7929 21.207C18.0118 22.4259 19.9881 22.4259 21.2071 21.207L19.7929 19.7928C19.355 20.2307 18.645 20.2307 18.2071 19.7928L16.7929 21.207Z" fill="currentColor"/>
</svg>
