<svg width="100%" height="100%" viewBox="0 0 24 24" fill="none" xmlns="http://www.w3.org/2000/svg">
<path d="M10.0979 20.5685C9.85958 21.0668 10.0703 21.6638 10.5685 21.9021C11.0668 22.1404 11.6638 21.9297 11.9021 21.4315L10.0979 20.5685ZM15.7783 11.009L16.6804 11.4405L15.7783 11.009ZM17.2217 11.009L18.1238 10.5776L17.2217 11.009ZM21.0979 21.4315C21.3362 21.9297 21.9332 22.1404 22.4315 21.9021C22.9297 21.6638 23.1404 21.0668 22.9021 20.5685L21.0979 21.4315ZM16.2826 10.2086L15.8477 9.30812L15.8477 9.30812L16.2826 10.2086ZM16.7174 10.2086L17.1523 9.30812L17.1523 9.30812L16.7174 10.2086ZM2 4C1.44772 4 1 4.44772 1 5C1 5.55228 1.44772 6 2 6V4ZM14 6C14.5523 6 15 5.55228 15 5C15 4.44772 14.5523 4 14 4V6ZM9 3C9 2.44772 8.55228 2 8 2C7.44772 2 7 2.44772 7 3H9ZM9.59019 14.9122C10.094 15.1385 10.6858 14.9136 10.9122 14.4098C11.1385 13.906 10.9136 13.3142 10.4098 13.0878L9.59019 14.9122ZM5.92116 8.61081C5.70621 8.10207 5.11955 7.8639 4.61081 8.07884C4.10207 8.29379 3.8639 8.88045 4.07884 9.38919L5.92116 8.61081ZM1.55497 17.1045C1.06039 17.3503 0.858701 17.9505 1.10449 18.445C1.35027 18.9396 1.95045 19.1413 2.44503 18.8955L1.55497 17.1045ZM12.913 18H20.087V16H12.913V18ZM11.9021 21.4315L13.8152 17.4315L12.0109 16.5685L10.0979 20.5685L11.9021 21.4315ZM13.8152 17.4315L16.6804 11.4405L14.8762 10.5776L12.0109 16.5685L13.8152 17.4315ZM16.3196 11.4405L19.1848 17.4315L20.9891 16.5685L18.1238 10.5776L16.3196 11.4405ZM19.1848 17.4315L21.0979 21.4315L22.9021 20.5685L20.9891 16.5685L19.1848 17.4315ZM16.6804 11.4405C16.7392 11.3175 16.7858 11.2202 16.8271 11.1375C16.8687 11.0541 16.897 11.0016 16.9172 10.9676C16.9385 10.9318 16.9374 10.9396 16.9144 10.9653C16.8883 10.9944 16.8244 11.0575 16.7174 11.1091L15.8477 9.30812C15.4893 9.48122 15.2949 9.78284 15.1983 9.94515C15.0921 10.1237 14.983 10.3542 14.8762 10.5776L16.6804 11.4405ZM18.1238 10.5776C18.017 10.3542 17.9079 10.1237 17.8017 9.94515C17.7051 9.78284 17.5107 9.48122 17.1523 9.30812L16.2826 11.1091C16.1756 11.0575 16.1117 10.9944 16.0856 10.9653C16.0626 10.9396 16.0615 10.9318 16.0828 10.9676C16.103 11.0016 16.1313 11.0541 16.1729 11.1375C16.2142 11.2202 16.2608 11.3175 16.3196 11.4405L18.1238 10.5776ZM16.7174 11.1091C16.5801 11.1755 16.4199 11.1755 16.2826 11.1091L17.1523 9.30812C16.7402 9.10912 16.2598 9.10912 15.8477 9.30812L16.7174 11.1091ZM2 6H8V4H2V6ZM8 6H11.5V4H8V6ZM11.5 6H14V4H11.5V6ZM7 3V5H9V3H7ZM10.4098 13.0878C9.87851 12.8491 9.31967 12.5091 8.77388 12.0907L7.55722 13.6781C8.20563 14.1751 8.89644 14.6005 9.59019 14.9122L10.4098 13.0878ZM8.77388 12.0907C7.52256 11.1317 6.44063 9.84031 5.92116 8.61081L4.07884 9.38919C4.7649 11.013 6.10348 12.5639 7.55722 13.6781L8.77388 12.0907ZM10.5138 4.83454C10.0433 7.63874 8.95395 10.1676 7.3657 12.2842L8.9654 13.4846C10.7512 11.1047 11.9644 8.27583 12.4862 5.16546L10.5138 4.83454ZM7.3657 12.2842C5.85499 14.2975 3.88726 15.9454 1.55497 17.1045L2.44503 18.8955C5.05561 17.5982 7.26673 15.7484 8.9654 13.4846L7.3657 12.2842Z" fill="currentColor"/>
</svg>
