<svg width="100%" height="100%" viewBox="0 0 24 24" fill="none" xmlns="http://www.w3.org/2000/svg">
<path d="M5.70711 7.29289C5.31658 6.90237 4.68342 6.90237 4.29289 7.29289C3.90237 7.68342 3.90237 8.31658 4.29289 8.70711L5.70711 7.29289ZM9.29289 13.7071C9.68342 14.0976 10.3166 14.0976 10.7071 13.7071C11.0976 13.3166 11.0976 12.6834 10.7071 12.2929L9.29289 13.7071ZM3.29289 13.2929C2.90237 13.6834 2.90237 14.3166 3.29289 14.7071C3.68342 15.0976 4.31658 15.0976 4.70711 14.7071L3.29289 13.2929ZM10 8L10.7071 8.70711C10.7537 8.66054 10.7955 8.60949 10.8321 8.5547L10 8ZM12.8321 5.5547C13.1384 5.09517 13.0142 4.4743 12.5547 4.16795C12.0952 3.8616 11.4743 3.98577 11.1679 4.4453L12.8321 5.5547ZM2 4C1.44772 4 1 4.44772 1 5C1 5.55228 1.44772 6 2 6V4ZM14 6C14.5523 6 15 5.55228 15 5C15 4.44772 14.5523 4 14 4V6ZM7 1C6.44772 1 6 1.44772 6 2C6 2.55228 6.44772 3 7 3V1ZM8 3C8.55228 3 9 2.55228 9 2C9 1.44772 8.55228 1 8 1V3ZM10.0979 20.5685C9.85958 21.0668 10.0703 21.6638 10.5685 21.9021C11.0668 22.1404 11.6638 21.9297 11.9021 21.4315L10.0979 20.5685ZM15.7783 11.009L16.6804 11.4405L15.7783 11.009ZM17.2217 11.009L18.1238 10.5776L17.2217 11.009ZM21.0979 21.4315C21.3362 21.9297 21.9332 22.1404 22.4315 21.9021C22.9297 21.6638 23.1404 21.0668 22.9021 20.5685L21.0979 21.4315ZM16.2826 10.2086L15.8477 9.30812L15.8477 9.30812L16.2826 10.2086ZM16.7174 10.2086L17.1523 9.30812L17.1523 9.30812L16.7174 10.2086ZM4.29289 8.70711L9.29289 13.7071L10.7071 12.2929L5.70711 7.29289L4.29289 8.70711ZM4.70711 14.7071L10.7071 8.70711L9.29289 7.29289L3.29289 13.2929L4.70711 14.7071ZM10.8321 8.5547L12.8321 5.5547L11.1679 4.4453L9.16795 7.4453L10.8321 8.5547ZM2 6H14V4H2V6ZM7 3H8V1H7V3ZM12.913 18H20.087V16H12.913V18ZM11.9021 21.4315L13.8152 17.4315L12.0109 16.5685L10.0979 20.5685L11.9021 21.4315ZM13.8152 17.4315L16.6804 11.4405L14.8762 10.5776L12.0109 16.5685L13.8152 17.4315ZM16.3196 11.4405L19.1848 17.4315L20.9891 16.5685L18.1238 10.5776L16.3196 11.4405ZM19.1848 17.4315L21.0979 21.4315L22.9021 20.5685L20.9891 16.5685L19.1848 17.4315ZM16.6804 11.4405C16.7392 11.3175 16.7858 11.2202 16.8271 11.1375C16.8687 11.0541 16.897 11.0016 16.9172 10.9676C16.9385 10.9318 16.9374 10.9396 16.9144 10.9653C16.8883 10.9944 16.8244 11.0575 16.7174 11.1091L15.8477 9.30812C15.4893 9.48122 15.2949 9.78284 15.1983 9.94515C15.0921 10.1237 14.983 10.3542 14.8762 10.5776L16.6804 11.4405ZM18.1238 10.5776C18.017 10.3542 17.9079 10.1237 17.8017 9.94515C17.7051 9.78284 17.5107 9.48122 17.1523 9.30812L16.2826 11.1091C16.1756 11.0575 16.1117 10.9944 16.0856 10.9653C16.0626 10.9396 16.0615 10.9318 16.0828 10.9676C16.103 11.0016 16.1313 11.0541 16.1729 11.1375C16.2142 11.2202 16.2608 11.3175 16.3196 11.4405L18.1238 10.5776ZM16.7174 11.1091C16.5801 11.1755 16.4199 11.1755 16.2826 11.1091L17.1523 9.30812C16.7402 9.10912 16.2598 9.10912 15.8477 9.30812L16.7174 11.1091Z" fill="currentColor"/>
</svg>
