<svg width="100%" height="100%" viewBox="0 0 24 24" fill="none" xmlns="http://www.w3.org/2000/svg">
<path d="M15.2929 12.7071C15.6834 13.0976 16.3166 13.0976 16.7071 12.7071C17.0976 12.3166 17.0976 11.6834 16.7071 11.2929L15.2929 12.7071ZM12 8L12.7071 7.29289C12.5196 7.10536 12.2652 7 12 7C11.7348 7 11.4804 7.10536 11.2929 7.29289L12 8ZM7.29289 11.2929C6.90237 11.6834 6.90237 12.3166 7.29289 12.7071C7.68342 13.0976 8.31658 13.0976 8.70711 12.7071L7.29289 11.2929ZM16.6186 20.8719L16.1561 19.9852L16.6186 20.8719ZM6.49928 21.5278C6.97734 21.8043 7.58906 21.641 7.86561 21.1629C8.14215 20.6848 7.97879 20.0731 7.50073 19.7966L6.49928 21.5278ZM14.5972 21.3054L14.7315 20.3144H14.7315L14.5972 21.3054ZM12.5505 20.0646L13.367 19.4873L13.367 19.4872L12.5505 20.0646ZM16.7071 11.2929L12.7071 7.29289L11.2929 8.70711L15.2929 12.7071L16.7071 11.2929ZM11.2929 7.29289L7.29289 11.2929L8.70711 12.7071L12.7071 8.70711L11.2929 7.29289ZM3 12C3 7.02944 7.02944 3 12 3V1C5.92487 1 1 5.92487 1 12H3ZM12 3C16.9706 3 21 7.02944 21 12H23C23 5.92487 18.0751 1 12 1V3ZM21 12C21 15.4697 19.0369 18.4825 16.1561 19.9852L17.0811 21.7585C20.5965 19.9247 23 16.2438 23 12H21ZM7.50073 19.7966C4.80801 18.2389 3 15.33 3 12H1C1 16.0728 3.21398 19.6273 6.49928 21.5278L7.50073 19.7966ZM13 17.2V8H11V17.2H13ZM16.1561 19.9852C15.773 20.1851 15.6079 20.2658 15.4408 20.3094C15.3057 20.3446 15.118 20.3668 14.7315 20.3144L14.463 22.2963C15.0213 22.372 15.4855 22.3646 15.9455 22.2446C16.3734 22.1331 16.7465 21.933 17.0811 21.7585L16.1561 19.9852ZM11 17.2C11 18.5302 10.9702 19.5617 11.734 20.642L13.367 19.4872C13.0298 19.0104 13 18.6513 13 17.2H11ZM14.7315 20.3144C14.6161 20.2988 14.3339 20.198 13.994 19.9919C13.6541 19.7859 13.4342 19.5823 13.367 19.4873L11.734 20.642C12.0326 21.0642 12.5221 21.4385 12.9572 21.7022C13.3923 21.966 13.9505 22.2269 14.463 22.2963L14.7315 20.3144Z" fill="currentColor"/>
</svg>
