<svg width="100%" height="100%" viewBox="0 0 24 24" fill="none" xmlns="http://www.w3.org/2000/svg">
<path d="M15.2929 12.7071C15.6834 13.0976 16.3166 13.0976 16.7071 12.7071C17.0976 12.3166 17.0976 11.6834 16.7071 11.2929L15.2929 12.7071ZM12 8L12.7071 7.29289C12.3166 6.90237 11.6834 6.90237 11.2929 7.29289L12 8ZM7.29289 11.2929C6.90237 11.6834 6.90237 12.3166 7.29289 12.7071C7.68342 13.0976 8.31658 13.0976 8.70711 12.7071L7.29289 11.2929ZM11 16C11 16.5523 11.4477 17 12 17C12.5523 17 13 16.5523 13 16H11ZM21 12C21 16.9706 16.9706 21 12 21V23C18.0751 23 23 18.0751 23 12H21ZM12 21C7.02944 21 3 16.9706 3 12H1C1 18.0751 5.92487 23 12 23V21ZM3 12C3 7.02944 7.02944 3 12 3V1C5.92487 1 1 5.92487 1 12H3ZM12 3C16.9706 3 21 7.02944 21 12H23C23 5.92487 18.0751 1 12 1V3ZM16.7071 11.2929L12.7071 7.29289L11.2929 8.70711L15.2929 12.7071L16.7071 11.2929ZM11.2929 7.29289L7.29289 11.2929L8.70711 12.7071L12.7071 8.70711L11.2929 7.29289ZM13 16V8H11V16H13Z" fill="currentColor"/>
</svg>
