<svg width="100%" height="100%" viewBox="0 0 24 24" fill="none" xmlns="http://www.w3.org/2000/svg">
<path d="M6.07974 8.01937L6.17196 9.01511C6.62505 8.97315 6.99268 8.63059 7.0665 8.18159L6.07974 8.01937ZM17.9203 8.01937L16.9335 8.18159C17.0073 8.63059 17.3749 8.97315 17.828 9.01511L17.9203 8.01937ZM3.44374 17.0732C3.90269 17.3804 4.52379 17.2574 4.83101 16.7985C5.13822 16.3395 5.01521 15.7184 4.55626 15.4112L3.44374 17.0732ZM19.4437 15.4112C18.9848 15.7184 18.8618 16.3395 19.169 16.7985C19.4762 17.2574 20.0973 17.3804 20.5563 17.0732L19.4437 15.4112ZM7.29289 15.2929C6.90237 15.6834 6.90237 16.3166 7.29289 16.7071C7.68342 17.0976 8.31658 17.0976 8.70711 16.7071L7.29289 15.2929ZM12 12L12.7071 11.2929C12.3166 10.9024 11.6834 10.9024 11.2929 11.2929L12 12ZM15.2929 16.7071C15.6834 17.0976 16.3166 17.0976 16.7071 16.7071C17.0976 16.3166 17.0976 15.6834 16.7071 15.2929L15.2929 16.7071ZM11 21C11 21.5523 11.4477 22 12 22C12.5523 22 13 21.5523 13 21H11ZM5.98752 7.02363C3.18973 7.28275 1 9.63507 1 12.5H3C3 10.6778 4.39329 9.17984 6.17196 9.01511L5.98752 7.02363ZM12 2C8.52264 2 5.6392 4.53459 5.09299 7.85715L7.0665 8.18159C7.45643 5.80968 9.51785 4 12 4V2ZM18.907 7.85715C18.3608 4.53459 15.4774 2 12 2V4C14.4822 4 16.5436 5.80968 16.9335 8.18159L18.907 7.85715ZM17.828 9.01511C19.6067 9.17984 21 10.6778 21 12.5H23C23 9.63507 20.8103 7.28275 18.0125 7.02363L17.828 9.01511ZM1 12.5C1 14.4079 1.97228 16.0883 3.44374 17.0732L4.55626 15.4112C3.61575 14.7817 3 13.7125 3 12.5H1ZM21 12.5C21 13.7125 20.3842 14.7817 19.4437 15.4112L20.5563 17.0732C22.0277 16.0883 23 14.4079 23 12.5H21ZM8.70711 16.7071L12.7071 12.7071L11.2929 11.2929L7.29289 15.2929L8.70711 16.7071ZM11.2929 12.7071L15.2929 16.7071L16.7071 15.2929L12.7071 11.2929L11.2929 12.7071ZM11 12V21H13V12H11Z" fill="currentColor"/>
</svg>
