<svg width="100%" height="100%" viewBox="0 0 24 24" fill="none" xmlns="http://www.w3.org/2000/svg">
<path d="M21 4C21.5523 4 22 3.55228 22 3C22 2.44772 21.5523 2 21 2V4ZM3 2C2.44772 2 2 2.44772 2 3C2 3.55228 2.44772 4 3 4V2ZM17.2929 13.7071C17.6834 14.0976 18.3166 14.0976 18.7071 13.7071C19.0976 13.3166 19.0976 12.6834 18.7071 12.2929L17.2929 13.7071ZM12 7L12.7071 6.29289C12.5196 6.10536 12.2652 6 12 6C11.7348 6 11.4804 6.10536 11.2929 6.29289L12 7ZM5.29289 12.2929C4.90237 12.6834 4.90237 13.3166 5.29289 13.7071C5.68342 14.0976 6.31658 14.0976 6.70711 13.7071L5.29289 12.2929ZM11 21C11 21.5523 11.4477 22 12 22C12.5523 22 13 21.5523 13 21H11ZM21 2H3V4H21V2ZM18.7071 12.2929L12.7071 6.29289L11.2929 7.70711L17.2929 13.7071L18.7071 12.2929ZM11.2929 6.29289L5.29289 12.2929L6.70711 13.7071L12.7071 7.70711L11.2929 6.29289ZM11 7V21H13V7H11Z" fill="currentColor"/>
</svg>
