<svg width="100%" height="100%" viewBox="0 0 24 24" fill="none" xmlns="http://www.w3.org/2000/svg">
<path d="M5.63602 4.22183C5.24549 3.8313 4.61233 3.8313 4.2218 4.22183C3.83128 4.61235 3.83128 5.24551 4.2218 5.63604L5.63602 4.22183ZM7.75734 9.17157C8.14786 9.5621 8.78103 9.5621 9.17155 9.17157C9.56207 8.78105 9.56207 8.14788 9.17155 7.75736L7.75734 9.17157ZM16.2426 14.8284C15.8521 14.4379 15.2189 14.4379 14.8284 14.8284C14.4379 15.219 14.4379 15.8521 14.8284 16.2426L16.2426 14.8284ZM18.3639 19.7782C18.7545 20.1687 19.3876 20.1687 19.7782 19.7782C20.1687 19.3876 20.1687 18.7545 19.7782 18.364L18.3639 19.7782ZM4.2218 18.364C3.83128 18.7545 3.83128 19.3876 4.2218 19.7782C4.61233 20.1687 5.24549 20.1687 5.63602 19.7782L4.2218 18.364ZM9.17155 16.2426C9.56207 15.8521 9.56207 15.219 9.17155 14.8284C8.78103 14.4379 8.14786 14.4379 7.75734 14.8284L9.17155 16.2426ZM14.8284 7.75736C14.4379 8.14788 14.4379 8.78105 14.8284 9.17157C15.2189 9.5621 15.8521 9.5621 16.2426 9.17157L14.8284 7.75736ZM19.7782 5.63604C20.1687 5.24551 20.1687 4.61235 19.7782 4.22183C19.3876 3.8313 18.7545 3.8313 18.3639 4.22183L19.7782 5.63604ZM9.71293 1.23829C9.1726 1.3526 8.82725 1.88329 8.94157 2.42362C9.05588 2.96394 9.58657 3.30929 10.1269 3.19498L9.71293 1.23829ZM22.7617 9.71278C22.6473 9.17246 22.1166 8.82712 21.5763 8.94144C21.036 9.05576 20.6906 9.58646 20.805 10.1268L22.7617 9.71278ZM14.2837 22.7624C14.8241 22.6483 15.1696 22.1177 15.0554 21.5773C14.9413 21.037 14.4107 20.6914 13.8704 20.8056L14.2837 22.7624ZM1.2383 14.2872C1.35262 14.8275 1.88332 15.1729 2.42364 15.0586C2.96396 14.9442 3.3093 14.4135 3.19498 13.8732L1.2383 14.2872ZM13.8731 3.19498C14.4134 3.30929 14.9441 2.96394 15.0584 2.42362C15.1727 1.88329 14.8274 1.3526 14.287 1.23829L13.8731 3.19498ZM17.992 2.77389C17.5291 2.47268 16.9097 2.60377 16.6085 3.06669C16.3072 3.5296 16.4383 4.14905 16.9013 4.45026L17.992 2.77389ZM19.5505 7.09995C19.8516 7.56291 20.4711 7.6941 20.934 7.39297C21.397 7.09183 21.5282 6.47241 21.2271 6.00944L19.5505 7.09995ZM20.8051 13.8725C20.6908 14.4128 21.0362 14.9435 21.5766 15.0578C22.1169 15.1721 22.6476 14.8267 22.7618 14.2863L20.8051 13.8725ZM21.224 17.9952C21.5254 17.5324 21.3945 16.9129 20.9317 16.6116C20.4689 16.3102 19.8494 16.4411 19.548 16.9039L21.224 17.9952ZM16.8993 19.551C16.4363 19.8521 16.305 20.4715 16.6061 20.9345C16.9072 21.3975 17.5266 21.5288 17.9896 21.2277L16.8993 19.551ZM10.1229 20.8042C9.58261 20.6896 9.05176 21.0347 8.9372 21.575C8.82264 22.1153 9.16774 22.6461 9.70802 22.7607L10.1229 20.8042ZM6.00836 21.2264C6.4713 21.5276 7.09073 21.3965 7.39192 20.9335C7.69311 20.4706 7.56199 19.8512 7.09906 19.55L6.00836 21.2264ZM4.45266 16.905C4.15122 16.4422 3.53171 16.3114 3.06894 16.6129C2.60618 16.9143 2.47539 17.5338 2.77683 17.9966L4.45266 16.905ZM3.19554 10.1241C3.31003 9.58384 2.96485 9.05304 2.42456 8.93855C1.88427 8.82407 1.35347 9.16925 1.23899 9.70954L3.19554 10.1241ZM2.77349 6.00853C2.47231 6.47147 2.60344 7.09091 3.06637 7.39209C3.52931 7.69327 4.14875 7.56214 4.44993 7.0992L2.77349 6.00853ZM7.0982 4.45059C7.56109 4.14935 7.69214 3.52989 7.3909 3.067C7.08966 2.6041 6.47021 2.47305 6.00731 2.77429L7.0982 4.45059ZM11 2V7H13V2H11ZM11 17V22H13V17H11ZM4.2218 5.63604L7.75734 9.17157L9.17155 7.75736L5.63602 4.22183L4.2218 5.63604ZM14.8284 16.2426L18.3639 19.7782L19.7782 18.364L16.2426 14.8284L14.8284 16.2426ZM2 13H7V11H2V13ZM17 13H22V11H17V13ZM5.63602 19.7782L9.17155 16.2426L7.75734 14.8284L4.2218 18.364L5.63602 19.7782ZM16.2426 9.17157L19.7782 5.63604L18.3639 4.22183L14.8284 7.75736L16.2426 9.17157ZM16 12C16 14.2091 14.2091 16 12 16V18C15.3137 18 18 15.3137 18 12H16ZM12 16C9.79084 16 8 14.2092 8 12H6C6 15.3137 8.68627 18 12 18V16ZM8 12C8 9.79087 9.79085 8 12 8V6C8.68626 6 6 8.68633 6 12H8ZM12 8C14.2091 8 16 9.79088 16 12H18C18 8.68631 15.3137 6 12 6V8ZM10.1269 3.19498C10.7302 3.06733 11.3567 3 12 3V1C11.2167 1 10.4516 1.08202 9.71293 1.23829L10.1269 3.19498ZM20.805 10.1268C20.9326 10.7302 21 11.3567 21 12H23C23 11.2167 22.9179 10.4514 22.7617 9.71278L20.805 10.1268ZM13.8704 20.8056C13.2678 20.9329 12.6423 21 12 21V23C12.782 23 13.5461 22.9182 14.2837 22.7624L13.8704 20.8056ZM3.19498 13.8732C3.06732 13.2699 3 12.6434 3 12H1C1 12.7833 1.08201 13.5485 1.2383 14.2872L3.19498 13.8732ZM12 3C12.6433 3 13.2697 3.06733 13.8731 3.19498L14.287 1.23829C13.5484 1.08202 12.7832 1 12 1V3ZM16.9013 4.45026C17.9586 5.13824 18.8627 6.0425 19.5505 7.09995L21.2271 6.00944C20.387 4.71796 19.2834 3.61413 17.992 2.77389L16.9013 4.45026ZM21 12C21 12.6431 20.9327 13.2693 20.8051 13.8725L22.7618 14.2863C22.918 13.548 23 12.783 23 12H21ZM19.548 16.9039C18.8601 17.9603 17.9562 18.8637 16.8993 19.551L17.9896 21.2277C19.2804 20.3882 20.3838 19.2855 21.224 17.9952L19.548 16.9039ZM12 21C11.3553 21 10.7275 20.9324 10.1229 20.8042L9.70802 22.7607C10.4482 22.9176 11.215 23 12 23V21ZM7.09906 19.55C6.04322 18.863 5.14015 17.9604 4.45266 16.905L2.77683 17.9966C3.61647 19.2856 4.71885 20.3874 6.00836 21.2264L7.09906 19.55ZM3 12C3 11.3557 3.06752 10.7283 3.19554 10.1241L1.23899 9.70954C1.08224 10.4492 1 11.2156 1 12H3ZM4.44993 7.0992C5.13757 6.04224 6.04133 5.13837 7.0982 4.45059L6.00731 2.77429C4.71654 3.61429 3.61332 4.71765 2.77349 6.00853L4.44993 7.0992Z" fill="currentColor"/>
</svg>
