<svg width="100%" height="100%" viewBox="0 0 24 24" fill="none" xmlns="http://www.w3.org/2000/svg">
<path d="M17.7071 7.70711C18.0976 7.31658 18.0976 6.68342 17.7071 6.29289C17.3166 5.90237 16.6834 5.90237 16.2929 6.29289L17.7071 7.70711ZM6.29289 16.2929C5.90237 16.6834 5.90237 17.3166 6.29289 17.7071C6.68342 18.0976 7.31658 18.0976 7.70711 17.7071L6.29289 16.2929ZM7.70711 6.29289C7.31658 5.90237 6.68342 5.90237 6.29289 6.29289C5.90237 6.68342 5.90237 7.31658 6.29289 7.70711L7.70711 6.29289ZM16.2929 17.7071C16.6834 18.0976 17.3166 18.0976 17.7071 17.7071C18.0976 17.3166 18.0976 16.6834 17.7071 16.2929L16.2929 17.7071ZM16.2929 6.29289L6.29289 16.2929L7.70711 17.7071L17.7071 7.70711L16.2929 6.29289ZM6.29289 7.70711L16.2929 17.7071L17.7071 16.2929L7.70711 6.29289L6.29289 7.70711Z" fill="currentColor"/>
</svg>
