<svg width="100%" height="100%" viewBox="0 0 24 24" fill="none" xmlns="http://www.w3.org/2000/svg">
<path d="M12 14L12.9923 14.124C13.0279 13.8394 12.9395 13.5532 12.7497 13.3382C12.5599 13.1232 12.2868 13 12 13V14ZM11 22L10.0077 21.876C9.95266 22.3165 10.1946 22.7405 10.6018 22.9173C11.009 23.0941 11.484 22.9812 11.7682 22.6402L11 22ZM8.76822 8.64018C9.12179 8.21591 9.06446 7.58534 8.64018 7.23178C8.21591 6.87821 7.58534 6.93554 7.23178 7.35982L8.76822 8.64018ZM4.09346 12.6879L4.86168 13.328L4.09346 12.6879ZM16.7682 16.6402C17.1218 16.2159 17.0645 15.5853 16.6402 15.2318C16.2159 14.8782 15.5853 14.9355 15.2318 15.3598L16.7682 16.6402ZM3.75326 13.8889L3.12473 14.6667L3.12473 14.6667L3.75326 13.8889ZM3.56758 13.4925L4.56746 13.5075L3.56758 13.4925ZM15.65 9C15.0978 9 14.65 9.44772 14.65 10C14.65 10.5523 15.0978 11 15.65 11V9ZM17.782 12.2995C17.4285 12.7238 17.4858 13.3544 17.9101 13.7079C18.3343 14.0615 18.9649 14.0042 19.3185 13.5799L17.782 12.2995ZM19.9065 11.3121L20.6748 11.9523L19.9065 11.3121ZM20.2467 10.1111L20.8753 9.33332L20.8753 9.33332L20.2467 10.1111ZM20.4324 10.5075L21.4323 10.5226V10.5226L20.4324 10.5075ZM13 2L13.9922 2.12403C14.0473 1.68354 13.8054 1.25947 13.3982 1.0827C12.9909 0.90593 12.5159 1.01878 12.2317 1.35982L13 2ZM9.80453 4.27246C9.45097 4.69674 9.50829 5.32731 9.93257 5.68087C10.3568 6.03443 10.9874 5.97711 11.341 5.55283L9.80453 4.27246ZM11.408 6.67368C11.3395 7.2217 11.7282 7.72149 12.2762 7.78999C12.8242 7.85849 13.324 7.46977 13.3925 6.92175L11.408 6.67368ZM20.2929 21.7071C20.6834 22.0976 21.3166 22.0976 21.7071 21.7071C22.0976 21.3166 22.0976 20.6834 21.7071 20.2929L20.2929 21.7071ZM3.70711 2.29289C3.31658 1.90237 2.68342 1.90237 2.29289 2.29289C1.90237 2.68342 1.90237 3.31658 2.29289 3.70711L3.70711 2.29289ZM4.70803 15H12V13H4.70803V15ZM11.0077 13.876L10.0077 21.876L11.9923 22.124L12.9923 14.124L11.0077 13.876ZM7.23178 7.35982L3.32523 12.0477L4.86168 13.328L8.76822 8.64018L7.23178 7.35982ZM11.7682 22.6402L16.7682 16.6402L15.2318 15.3598L10.2318 21.3598L11.7682 22.6402ZM4.70803 13C4.56934 13 4.45923 13 4.36496 12.9984C4.26992 12.9968 4.20874 12.9939 4.16805 12.9902C4.12514 12.9863 4.1319 12.9838 4.1647 12.9934C4.20188 13.0043 4.28768 13.0351 4.38179 13.1111L3.12473 14.6667C3.43794 14.9198 3.79911 14.965 3.98772 14.982C4.19703 15.001 4.45554 15 4.70803 15V13ZM3.32523 12.0477C3.16359 12.2416 2.99734 12.4396 2.8779 12.6125C2.77027 12.7684 2.57376 13.0747 2.56769 13.4774L4.56746 13.5075C4.56564 13.6285 4.53437 13.7141 4.51893 13.7497C4.5053 13.781 4.49905 13.7846 4.52353 13.7491C4.54675 13.7155 4.58365 13.6666 4.64328 13.5926C4.70242 13.5192 4.77289 13.4346 4.86168 13.328L3.32523 12.0477ZM4.38179 13.1111C4.50131 13.2077 4.56978 13.3539 4.56746 13.5075L2.56769 13.4774C2.56074 13.9384 2.76615 14.3769 3.12473 14.6667L4.38179 13.1111ZM19.292 9H15.65V11H19.292V9ZM19.3185 13.5799L20.6748 11.9523L19.1383 10.672L17.782 12.2995L19.3185 13.5799ZM19.292 11C19.4307 11 19.5408 11 19.635 11.0016C19.7301 11.0032 19.7913 11.0061 19.8319 11.0098C19.8749 11.0137 19.8681 11.0162 19.8353 11.0066C19.7981 10.9957 19.7123 10.9649 19.6182 10.8889L20.8753 9.33332C20.5621 9.08021 20.2009 9.03504 20.0123 9.01796C19.803 8.99901 19.5445 9 19.292 9V11ZM20.6748 11.9523C20.8364 11.7584 21.0027 11.5604 21.1221 11.3875C21.2297 11.2316 21.4262 10.9253 21.4323 10.5226L19.4325 10.4925C19.4344 10.3715 19.4656 10.2859 19.4811 10.2503C19.4947 10.219 19.501 10.2154 19.4765 10.2509C19.4533 10.2845 19.4164 10.3334 19.3567 10.4074C19.2976 10.4808 19.2271 10.5654 19.1383 10.672L20.6748 11.9523ZM19.6182 10.8889C19.4987 10.7923 19.4302 10.6461 19.4325 10.4925L21.4323 10.5226C21.4393 10.0616 21.2338 9.62309 20.8753 9.33332L19.6182 10.8889ZM12.2317 1.35982L9.80453 4.27246L11.341 5.55283L13.7682 2.64018L12.2317 1.35982ZM13.3925 6.92175L13.9922 2.12403L12.0077 1.87597L11.408 6.67368L13.3925 6.92175ZM21.7071 20.2929L3.70711 2.29289L2.29289 3.70711L20.2929 21.7071L21.7071 20.2929Z" fill="currentColor"/>
</svg>
