<svg width="100%" height="100%" viewBox="0 0 24 24" fill="none" xmlns="http://www.w3.org/2000/svg">
<path d="M17 3L17.9912 3.13216C18.0519 2.6769 17.7947 2.23883 17.3676 2.07001C16.9404 1.90118 16.4532 2.04502 16.1863 2.41876L17 3ZM16 13.5L16.9912 13.6322C17.0293 13.3464 16.9423 13.0582 16.7524 12.8413C16.5625 12.6244 16.2883 12.5 16 12.5V13.5ZM15 21L14.0088 20.8678C13.9481 21.3231 14.2053 21.7612 14.6324 21.93C15.0596 22.0988 15.5468 21.955 15.8137 21.5812L15 21ZM16 10.5L15.0088 10.3678C14.9707 10.6536 15.0577 10.9418 15.2476 11.1587C15.4375 11.3756 15.7117 11.5 16 11.5V10.5ZM21.5964 11.765L20.7827 11.1838L21.5964 11.765ZM22.0281 10.9815L23.0274 10.9444L22.0281 10.9815ZM21.8339 10.6042L22.4449 9.81255L21.8339 10.6042ZM10.4036 12.235L9.58983 11.6538L10.4036 12.235ZM9.97194 13.0185L8.97262 13.0556L9.97194 13.0185ZM10.1661 13.3958L9.55511 14.1875L10.1661 13.3958ZM9 18.5C9.55228 18.5 10 18.0523 10 17.5C10 16.9477 9.55228 16.5 9 16.5V18.5ZM3.5 16.5C2.94772 16.5 2.5 16.9477 2.5 17.5C2.5 18.0523 2.94772 18.5 3.5 18.5V16.5ZM6.5 13C7.05228 13 7.5 12.5523 7.5 12C7.5 11.4477 7.05228 11 6.5 11V13ZM2 11C1.44772 11 1 11.4477 1 12C1 12.5523 1.44772 13 2 13V11ZM9 7.5C9.55228 7.5 10 7.05228 10 6.5C10 5.94772 9.55228 5.5 9 5.5V7.5ZM4 5.5C3.44772 5.5 3 5.94772 3 6.5C3 7.05228 3.44772 7.5 4 7.5V5.5ZM16.1863 2.41876L9.58983 11.6538L11.2173 12.8162L17.8137 3.58124L16.1863 2.41876ZM11.0546 14.5H16V12.5H11.0546V14.5ZM15.0088 13.3678L14.0088 20.8678L15.9912 21.1322L16.9912 13.6322L15.0088 13.3678ZM15.8137 21.5812L22.4102 12.3462L20.7827 11.1838L14.1863 20.4188L15.8137 21.5812ZM20.9454 9.5H16V11.5H20.9454V9.5ZM16.9912 10.6322L17.9912 3.13216L16.0088 2.86784L15.0088 10.3678L16.9912 10.6322ZM22.4102 12.3462C22.5446 12.1581 22.6866 11.961 22.7874 11.7886C22.8816 11.6274 23.0415 11.326 23.0274 10.9444L21.0287 11.0185C21.0246 10.9073 21.0474 10.8254 21.0607 10.7874C21.0724 10.754 21.0795 10.7473 21.0608 10.7791C21.0431 10.8095 21.0137 10.8552 20.9645 10.9267C20.9156 10.9976 20.8572 11.0795 20.7827 11.1838L22.4102 12.3462ZM20.9454 11.5C21.0735 11.5 21.1742 11.5 21.2603 11.5015C21.3471 11.503 21.4014 11.5057 21.4364 11.5089C21.4731 11.5122 21.4635 11.5141 21.4295 11.5042C21.3909 11.4929 21.311 11.4638 21.2229 11.3958L22.4449 9.81255C22.1426 9.57921 21.8044 9.53417 21.6185 9.51718C21.4196 9.499 21.1767 9.5 20.9454 9.5V11.5ZM23.0274 10.9444C23.0109 10.4994 22.7975 10.0847 22.4449 9.81255L21.2229 11.3958C21.1054 11.3051 21.0343 11.1669 21.0287 11.0185L23.0274 10.9444ZM9.58983 11.6538C9.45542 11.8419 9.31341 12.039 9.21263 12.2114C9.1184 12.3726 8.95847 12.674 8.97262 13.0556L10.9713 12.9815C10.9754 13.0927 10.9526 13.1746 10.9393 13.2126C10.9276 13.246 10.9205 13.2527 10.9392 13.2209C10.9569 13.1905 10.9863 13.1448 11.0355 13.0733C11.0844 13.0024 11.1428 12.9205 11.2173 12.8162L9.58983 11.6538ZM11.0546 12.5C10.9265 12.5 10.8258 12.5 10.7397 12.4985C10.6529 12.497 10.5986 12.4943 10.5636 12.4911C10.5269 12.4878 10.5365 12.4859 10.5705 12.4958C10.6091 12.5071 10.689 12.5362 10.7771 12.6042L9.55511 14.1875C9.85743 14.4208 10.1956 14.4658 10.3815 14.4828C10.5804 14.501 10.8233 14.5 11.0546 14.5V12.5ZM8.97262 13.0556C8.98913 13.5006 9.20255 13.9153 9.55511 14.1875L10.7771 12.6042C10.8946 12.6949 10.9658 12.8331 10.9713 12.9815L8.97262 13.0556ZM9 16.5H3.5V18.5H9V16.5ZM6.5 11H2V13H6.5V11ZM9 5.5H4V7.5H9V5.5Z" fill="currentColor"/>
</svg>
