<svg width="100%" height="100%" viewBox="0 0 24 24" fill="none" xmlns="http://www.w3.org/2000/svg">
<path d="M12 5.5H13C13 5.06197 12.7149 4.67493 12.2966 4.545C11.8783 4.41508 11.4241 4.57252 11.176 4.93347L12 5.5ZM12 13.5H13C13 12.9477 12.5523 12.5 12 12.5V13.5ZM12 18.5H11C11 18.938 11.2851 19.3251 11.7034 19.455C12.1217 19.5849 12.5759 19.4275 12.824 19.0665L12 18.5ZM12 10.5H11C11 11.0523 11.4477 11.5 12 11.5V10.5ZM16.6384 11.7532L15.8144 11.1867V11.1867L16.6384 11.7532ZM17.0489 10.9752L18.0476 10.9256L17.0489 10.9752ZM16.8528 10.6025L16.2461 11.3975L16.8528 10.6025ZM7.36159 12.2468L8.18563 12.8133L7.36159 12.2468ZM6.95113 13.0248L5.95236 13.0744L6.95113 13.0248ZM7.14716 13.3975L7.75387 12.6025L7.14716 13.3975ZM11.176 4.93347L6.53755 11.6802L8.18563 12.8133L12.824 6.06653L11.176 4.93347ZM8.02082 14.5H12V12.5H8.02082V14.5ZM11 13.5V18.5H13V13.5H11ZM12.824 19.0665L17.4625 12.3197L15.8144 11.1867L11.176 17.9335L12.824 19.0665ZM15.9792 9.5H12V11.5H15.9792V9.5ZM13 10.5V5.5H11V10.5H13ZM17.4625 12.3198C17.5908 12.1331 17.7273 11.9363 17.8238 11.7642C17.9147 11.6021 18.0663 11.3022 18.0476 10.9256L16.0501 11.0248C16.0447 10.9158 16.0655 10.8348 16.0783 10.7964C16.0895 10.7626 16.0966 10.7552 16.0792 10.7862C16.0626 10.8157 16.0349 10.8608 15.988 10.9316C15.9414 11.0018 15.8856 11.0831 15.8144 11.1867L17.4625 12.3198ZM15.9792 11.5C16.1049 11.5 16.2035 11.5 16.2878 11.5015C16.3727 11.5029 16.4255 11.5056 16.4593 11.5087C16.4947 11.5119 16.4845 11.5136 16.4503 11.5036C16.4114 11.4924 16.3329 11.4637 16.2461 11.3975L17.4596 9.80762C17.1598 9.57885 16.8268 9.53393 16.6416 9.51698C16.4451 9.49899 16.2057 9.5 15.9792 9.5V11.5ZM18.0476 10.9256C18.0257 10.4845 17.8106 10.0755 17.4596 9.80762L16.2461 11.3975C16.1291 11.3082 16.0574 11.1718 16.0501 11.0248L18.0476 10.9256ZM6.53755 11.6802C6.4092 11.8669 6.27274 12.0637 6.17625 12.2358C6.08532 12.3979 5.93365 12.6978 5.95236 13.0744L7.9499 12.9752C7.95531 13.0842 7.93446 13.1652 7.92173 13.2036C7.91053 13.2374 7.90338 13.2448 7.92076 13.2138C7.93735 13.1843 7.96507 13.1392 8.012 13.0684C8.05858 12.9982 8.1144 12.9169 8.18563 12.8133L6.53755 11.6802ZM8.02082 12.5C7.89509 12.5 7.79651 12.5 7.71222 12.4985C7.62728 12.4971 7.57449 12.4944 7.54071 12.4913C7.50532 12.4881 7.5155 12.4864 7.54969 12.4964C7.58857 12.5076 7.66713 12.5363 7.75387 12.6025L6.54044 14.1924C6.84018 14.4212 7.17322 14.4661 7.35838 14.483C7.55486 14.501 7.79427 14.5 8.02082 14.5V12.5ZM5.95236 13.0744C5.97427 13.5155 6.18941 13.9245 6.54044 14.1924L7.75387 12.6025C7.87088 12.6918 7.9426 12.8282 7.9499 12.9752L5.95236 13.0744ZM21 12C21 16.9706 16.9706 21 12 21V23C18.0751 23 23 18.0751 23 12H21ZM12 21C7.02944 21 3 16.9706 3 12H1C1 18.0751 5.92487 23 12 23V21ZM3 12C3 7.02944 7.02944 3 12 3V1C5.92487 1 1 5.92487 1 12H3ZM12 3C16.9706 3 21 7.02944 21 12H23C23 5.92487 18.0751 1 12 1V3Z" fill="currentColor"/>
</svg>
