<svg width="100%" height="100%" viewBox="0 0 24 24" fill="none" xmlns="http://www.w3.org/2000/svg">
<path d="M4.63803 20.673L4.18404 21.564L4.63803 20.673ZM3.32698 19.362L2.43597 19.816L3.32698 19.362ZM20.673 19.362L21.564 19.816L20.673 19.362ZM19.362 20.673L19.816 21.564L19.362 20.673ZM19.362 3.32698L19.816 2.43597L19.362 3.32698ZM20.673 4.63803L21.564 4.18404L20.673 4.63803ZM4.63803 3.32698L4.18404 2.43597L4.63803 3.32698ZM3.32698 4.63803L2.43597 4.18404L3.32698 4.63803ZM12 6H13C13 5.56759 12.7221 5.18416 12.3111 5.04963C11.9002 4.9151 11.4493 5.05994 11.1936 5.40864L12 6ZM12 13.5H13C13 12.9477 12.5523 12.5 12 12.5V13.5ZM12 18H11C11 18.4324 11.2779 18.8158 11.6889 18.9504C12.0998 19.0849 12.5507 18.9401 12.8064 18.5914L12 18ZM12 10.5H11C11 11.0523 11.4477 11.5 12 11.5V10.5ZM16.5664 11.7731L17.3728 12.3645L16.5664 11.7731ZM17.0131 10.9858L18.0127 10.9575L17.0131 10.9858ZM16.8203 10.6053L17.4342 9.81599L16.8203 10.6053ZM7.4336 12.2269L6.62719 11.6355L7.4336 12.2269ZM6.9869 13.0142L5.9873 13.0425L6.9869 13.0142ZM7.17972 13.3947L6.56577 14.184L7.17972 13.3947ZM7.8 4H16.2V2H7.8V4ZM20 7.8V16.2H22V7.8H20ZM16.2 20H7.8V22H16.2V20ZM4 16.2V7.8H2V16.2H4ZM7.8 20C6.94342 20 6.36113 19.9992 5.91104 19.9624C5.47262 19.9266 5.24842 19.8617 5.09202 19.782L4.18404 21.564C4.66937 21.8113 5.18608 21.9099 5.74817 21.9558C6.2986 22.0008 6.97642 22 7.8 22V20ZM2 16.2C2 17.0236 1.99922 17.7014 2.04419 18.2518C2.09012 18.8139 2.18868 19.3306 2.43597 19.816L4.21799 18.908C4.1383 18.7516 4.07337 18.5274 4.03755 18.089C4.00078 17.6389 4 17.0566 4 16.2H2ZM5.09202 19.782C4.7157 19.5903 4.40973 19.2843 4.21799 18.908L2.43597 19.816C2.81947 20.5686 3.43139 21.1805 4.18404 21.564L5.09202 19.782ZM20 16.2C20 17.0566 19.9992 17.6389 19.9624 18.089C19.9266 18.5274 19.8617 18.7516 19.782 18.908L21.564 19.816C21.8113 19.3306 21.9099 18.8139 21.9558 18.2518C22.0008 17.7014 22 17.0236 22 16.2H20ZM16.2 22C17.0236 22 17.7014 22.0008 18.2518 21.9558C18.8139 21.9099 19.3306 21.8113 19.816 21.564L18.908 19.782C18.7516 19.8617 18.5274 19.9266 18.089 19.9624C17.6389 19.9992 17.0566 20 16.2 20V22ZM19.782 18.908C19.5903 19.2843 19.2843 19.5903 18.908 19.782L19.816 21.564C20.5686 21.1805 21.1805 20.5686 21.564 19.816L19.782 18.908ZM16.2 4C17.0566 4 17.6389 4.00078 18.089 4.03755C18.5274 4.07337 18.7516 4.1383 18.908 4.21799L19.816 2.43597C19.3306 2.18868 18.8139 2.09012 18.2518 2.04419C17.7014 1.99922 17.0236 2 16.2 2V4ZM22 7.8C22 6.97642 22.0008 6.2986 21.9558 5.74817C21.9099 5.18608 21.8113 4.66937 21.564 4.18404L19.782 5.09202C19.8617 5.24842 19.9266 5.47262 19.9624 5.91104C19.9992 6.36113 20 6.94342 20 7.8H22ZM18.908 4.21799C19.2843 4.40973 19.5903 4.7157 19.782 5.09202L21.564 4.18404C21.1805 3.43139 20.5686 2.81947 19.816 2.43597L18.908 4.21799ZM7.8 2C6.97642 2 6.2986 1.99922 5.74817 2.04419C5.18608 2.09012 4.66937 2.18868 4.18404 2.43597L5.09202 4.21799C5.24842 4.1383 5.47262 4.07337 5.91104 4.03755C6.36113 4.00078 6.94342 4 7.8 4V2ZM4 7.8C4 6.94342 4.00078 6.36113 4.03755 5.91104C4.07337 5.47262 4.1383 5.24842 4.21799 5.09202L2.43597 4.18404C2.18868 4.66937 2.09012 5.18608 2.04419 5.74817C1.99922 6.2986 2 6.97642 2 7.8H4ZM4.18404 2.43597C3.43139 2.81947 2.81947 3.43139 2.43597 4.18404L4.21799 5.09202C4.40973 4.71569 4.71569 4.40973 5.09202 4.21799L4.18404 2.43597ZM11.1936 5.40864L6.62719 11.6355L8.24 12.8183L12.8064 6.59136L11.1936 5.40864ZM8.07872 14.5H12V12.5H8.07872V14.5ZM11 13.5V18H13V13.5H11ZM12.8064 18.5914L17.3728 12.3645L15.76 11.1817L11.1936 17.4086L12.8064 18.5914ZM15.9213 9.5H12V11.5H15.9213V9.5ZM13 10.5V6H11V10.5H13ZM17.3728 12.3645C17.5115 12.1753 17.6575 11.978 17.7613 11.8054C17.8578 11.645 18.0236 11.3427 18.0127 10.9575L16.0135 11.0142C16.0103 10.9014 16.0344 10.8188 16.0481 10.7812C16.0601 10.7481 16.0671 10.7418 16.0476 10.7743C16.029 10.8051 15.9985 10.8514 15.9476 10.9233C15.8971 10.9947 15.8367 11.0771 15.76 11.1817L17.3728 12.3645ZM15.9213 11.5C16.051 11.5 16.1532 11.5 16.2406 11.5015C16.3287 11.503 16.3841 11.5057 16.42 11.509C16.4577 11.5125 16.4485 11.5144 16.4146 11.5045C16.3762 11.4933 16.2954 11.4639 16.2063 11.3947L17.4342 9.81599C17.1301 9.57944 16.7882 9.53433 16.6018 9.51731C16.4013 9.499 16.1559 9.5 15.9213 9.5V11.5ZM18.0127 10.9575C18 10.5097 17.7878 10.091 17.4342 9.81599L16.2063 11.3947C16.0884 11.303 16.0177 11.1634 16.0135 11.0142L18.0127 10.9575ZM6.62719 11.6355C6.48846 11.8247 6.34252 12.022 6.2387 12.1946C6.14219 12.355 5.9764 12.6573 5.9873 13.0425L7.9865 12.9858C7.9897 13.0986 7.96562 13.1812 7.95191 13.2188C7.93985 13.2519 7.93286 13.2582 7.95238 13.2257C7.97097 13.1949 8.0015 13.1486 8.05239 13.0767C8.10287 13.0053 8.16326 12.9229 8.24 12.8183L6.62719 11.6355ZM8.07872 12.5C7.94895 12.5 7.8468 12.5 7.75941 12.4985C7.67133 12.497 7.61595 12.4943 7.58004 12.491C7.54235 12.4875 7.55152 12.4856 7.58536 12.4955C7.62382 12.5067 7.70463 12.5361 7.79368 12.6053L6.56577 14.184C6.86989 14.4206 7.21177 14.4657 7.39818 14.4827C7.59871 14.501 7.84412 14.5 8.07872 14.5V12.5ZM5.9873 13.0425C5.99999 13.4903 6.21216 13.909 6.56577 14.184L7.79368 12.6053C7.91155 12.697 7.98227 12.8366 7.9865 12.9858L5.9873 13.0425Z" fill="currentColor"/>
</svg>
