<svg width="100%" height="100%" viewBox="0 0 24 24" fill="none" xmlns="http://www.w3.org/2000/svg">
<path d="M13 2L13.9923 2.12403C14.0473 1.68354 13.8054 1.25947 13.3982 1.0827C12.991 0.90593 12.516 1.01878 12.2318 1.35982L13 2ZM12 14L12.9923 14.124C13.0278 13.8394 12.9395 13.5532 12.7497 13.3382C12.5598 13.1232 12.2868 13 12 13V14ZM11 22L10.0077 21.876C9.95264 22.3165 10.1946 22.7405 10.6018 22.9173C11.009 23.0941 11.484 22.9812 11.7682 22.6402L11 22ZM12 10L11.0077 9.87597C10.9721 10.1606 11.0605 10.4468 11.2503 10.6618C11.4401 10.8768 11.7132 11 12 11V10ZM19.9065 11.3121L20.6747 11.9523L19.9065 11.3121ZM20.4324 10.5075L19.4325 10.4925L20.4324 10.5075ZM20.2467 10.1111L20.8753 9.33332L20.2467 10.1111ZM4.09344 12.6879L3.32522 12.0477L4.09344 12.6879ZM3.56756 13.4925L4.56745 13.5075L3.56756 13.4925ZM3.75324 13.8889L3.12471 14.6667L3.75324 13.8889ZM12.2318 1.35982L3.32522 12.0477L4.86166 13.328L13.7682 2.64018L12.2318 1.35982ZM4.70802 15H12V13H4.70802V15ZM11.0077 13.876L10.0077 21.876L11.9923 22.124L12.9923 14.124L11.0077 13.876ZM11.7682 22.6402L20.6747 11.9523L19.1383 10.672L10.2318 21.3598L11.7682 22.6402ZM19.292 9H12V11H19.292V9ZM12.9923 10.124L13.9923 2.12403L12.0077 1.87597L11.0077 9.87597L12.9923 10.124ZM20.6747 11.9523C20.8364 11.7584 21.0026 11.5604 21.1221 11.3875C21.2297 11.2316 21.4262 10.9253 21.4323 10.5226L19.4325 10.4925C19.4343 10.3715 19.4656 10.2859 19.4811 10.2503C19.4947 10.219 19.5009 10.2154 19.4765 10.2509C19.4532 10.2845 19.4163 10.3334 19.3567 10.4074C19.2976 10.4808 19.2271 10.5654 19.1383 10.672L20.6747 11.9523ZM19.292 11C19.4306 11 19.5408 11 19.635 11.0016C19.7301 11.0032 19.7912 11.0061 19.8319 11.0098C19.8748 11.0137 19.8681 11.0162 19.8353 11.0066C19.7981 10.9957 19.7123 10.9649 19.6182 10.8889L20.8753 9.33332C20.562 9.08021 20.2009 9.03504 20.0123 9.01796C19.803 8.99901 19.5444 9 19.292 9V11ZM21.4323 10.5226C21.4392 10.0616 21.2338 9.62308 20.8753 9.33332L19.6182 10.8889C19.4987 10.7923 19.4302 10.6461 19.4325 10.4925L21.4323 10.5226ZM3.32522 12.0477C3.16358 12.2416 2.99732 12.4396 2.87788 12.6125C2.77026 12.7684 2.57375 13.0747 2.56768 13.4774L4.56745 13.5075C4.56562 13.6285 4.53436 13.7141 4.51891 13.7497C4.50529 13.781 4.49903 13.7846 4.52351 13.7491C4.54673 13.7155 4.58363 13.6666 4.64326 13.5926C4.7024 13.5192 4.77287 13.4346 4.86166 13.328L3.32522 12.0477ZM4.70802 13C4.56932 13 4.45922 13 4.36495 12.9984C4.26991 12.9968 4.20872 12.9939 4.16803 12.9902C4.12513 12.9863 4.13188 12.9838 4.16468 12.9934C4.20187 13.0043 4.28766 13.0351 4.38177 13.1111L3.12471 14.6667C3.43793 14.9198 3.79909 14.965 3.9877 14.982C4.19701 15.001 4.45553 15 4.70802 15V13ZM2.56768 13.4774C2.56072 13.9384 2.76614 14.3769 3.12471 14.6667L4.38177 13.1111C4.5013 13.2077 4.56977 13.3539 4.56745 13.5075L2.56768 13.4774Z" fill="currentColor"/>
</svg>
