<svg width="24" height="24" viewBox="0 0 24 24" fill="none" xmlns="http://www.w3.org/2000/svg">
<path d="M13.744 2.63358L13.199 3.47202L13.744 2.63358ZM12.457 1.93829L12.2285 2.91184L12.457 1.93829ZM10.256 2.63358L10.801 3.47202L10.256 2.63358ZM11.543 1.93829L11.7715 2.91184L11.543 1.93829ZM21.9558 8.24877L22.9117 7.95485L21.9558 8.24877ZM21.272 7.52679L20.727 8.36523L21.272 7.52679ZM21.7674 7.90146L21 8.54269L21.7674 7.90146ZM2.04417 8.24877L1.08834 7.95485L2.04417 8.24877ZM2.72802 7.52679L2.18303 6.68835H2.18303L2.72802 7.52679ZM2.23265 7.90146L3 8.54269L2.23265 7.90146ZM3.63803 20.673L3.18404 21.564L3.63803 20.673ZM2.32698 19.362L1.43597 19.816L2.32698 19.362ZM20.362 20.673L20.816 21.564L20.362 20.673ZM21.673 19.362L22.564 19.816L21.673 19.362ZM3.03193 8.67076L2.48694 9.5092L2.48694 9.5092L3.03193 8.67076ZM10.256 13.3664L10.801 12.528V12.528L10.256 13.3664ZM13.744 13.3664L13.199 12.528V12.528L13.744 13.3664ZM20.9681 8.67076L21.5131 9.5092V9.5092L20.9681 8.67076ZM3.03193 7.32925L2.48694 6.49081L2.48694 6.49081L3.03193 7.32925ZM20.9681 7.32925L21.5131 6.49081V6.4908L20.9681 7.32925ZM21.5435 8.19368L20.6216 7.80631L20.6216 7.80633L21.5435 8.19368ZM21.5435 7.80632L20.6216 8.19368L20.6216 8.1937L21.5435 7.80632ZM11.543 14.0617L11.3145 15.0353L11.543 14.0617ZM12.457 14.0617L12.6855 15.0353L12.6855 15.0353L12.457 14.0617ZM2.45649 8.19368L3.37841 7.80632L3.37841 7.80632L2.45649 8.19368ZM2.45649 7.80632L3.37841 8.19369L3.37841 8.19369L2.45649 7.80632ZM17.2 20H6.8V22H17.2V20ZM3 16.2V8.8683H1V16.2H3ZM21 8.8683V16.2H23V8.8683H21ZM13.199 3.47202L20.727 8.36523L21.817 6.68835L14.289 1.79514L13.199 3.47202ZM3.27301 8.36524L10.801 3.47202L9.71105 1.79514L2.18303 6.68835L3.27301 8.36524ZM14.289 1.79514C13.7218 1.4265 13.2364 1.09406 12.6855 0.964753L12.2285 2.91184C12.3578 2.94218 12.5036 3.02004 13.199 3.47202L14.289 1.79514ZM10.801 3.47202C11.4964 3.02004 11.6422 2.94218 11.7715 2.91184L11.3145 0.964753C10.7636 1.09406 10.2782 1.42651 9.71105 1.79514L10.801 3.47202ZM12.6855 0.964753C12.2346 0.858917 11.7654 0.858917 11.3145 0.964753L11.7715 2.91184C11.9218 2.87656 12.0782 2.87656 12.2285 2.91184L12.6855 0.964753ZM23 8.8683C23 8.61423 23.0104 8.27607 22.9117 7.95485L21 8.54269C20.99 8.51012 20.9932 8.49867 20.9961 8.5501C20.9996 8.61256 21 8.69874 21 8.8683H23ZM20.727 8.36523C20.8692 8.45765 20.9412 8.50492 20.9917 8.54193C21.0332 8.57241 21.0219 8.56884 21 8.54269L22.5347 7.26024C22.3192 7.00235 22.03 6.82681 21.817 6.68835L20.727 8.36523ZM22.9117 7.95485C22.8335 7.70055 22.7053 7.4644 22.5347 7.26024L21 8.54269L22.9117 7.95485ZM3 8.8683C3 8.69874 3.00037 8.61256 3.00391 8.5501C3.00683 8.49867 3.01002 8.51012 3 8.54269L1.08834 7.95485C0.989562 8.27607 1 8.61423 1 8.8683H3ZM2.18303 6.68835C1.97 6.82682 1.68079 7.00235 1.4653 7.26024L3 8.54269C2.97815 8.56884 2.96682 8.57241 3.00835 8.54193C3.05878 8.50492 3.13084 8.45765 3.27301 8.36524L2.18303 6.68835ZM3 8.54269L1.4653 7.26024C1.29469 7.4644 1.16654 7.70054 1.08834 7.95485L3 8.54269ZM6.8 20C5.94342 20 5.36113 19.9992 4.91104 19.9625C4.47262 19.9266 4.24842 19.8617 4.09202 19.782L3.18404 21.564C3.66937 21.8113 4.18608 21.9099 4.74817 21.9558C5.2986 22.0008 5.97642 22 6.8 22V20ZM1 16.2C1 17.0236 0.999222 17.7014 1.04419 18.2518C1.09012 18.8139 1.18868 19.3306 1.43597 19.816L3.21799 18.908C3.1383 18.7516 3.07337 18.5274 3.03755 18.089C3.00078 17.6389 3 17.0566 3 16.2H1ZM4.09202 19.782C3.7157 19.5903 3.40973 19.2843 3.21799 18.908L1.43597 19.816C1.81947 20.5686 2.43139 21.1805 3.18404 21.564L4.09202 19.782ZM17.2 22C18.0236 22 18.7014 22.0008 19.2518 21.9558C19.8139 21.9099 20.3306 21.8113 20.816 21.564L19.908 19.782C19.7516 19.8617 19.5274 19.9266 19.089 19.9625C18.6389 19.9992 18.0566 20 17.2 20V22ZM21 16.2C21 17.0566 20.9992 17.6389 20.9624 18.089C20.9266 18.5274 20.8617 18.7516 20.782 18.908L22.564 19.816C22.8113 19.3306 22.9099 18.8139 22.9558 18.2518C23.0008 17.7014 23 17.0236 23 16.2H21ZM20.816 21.564C21.5686 21.1805 22.1805 20.5686 22.564 19.816L20.782 18.908C20.5903 19.2843 20.2843 19.5903 19.908 19.782L20.816 21.564ZM2.48694 9.5092L9.71105 14.2049L10.801 12.528L3.57692 7.83231L2.48694 9.5092ZM14.289 14.2049L21.5131 9.5092L20.4231 7.83232L13.199 12.528L14.289 14.2049ZM3.57692 8.16769L10.801 3.47202L9.71105 1.79514L2.48694 6.49081L3.57692 8.16769ZM13.199 3.47202L20.4231 8.16769L21.5131 6.4908L14.289 1.79514L13.199 3.47202ZM21.5131 9.5092C21.6688 9.40795 21.8436 9.29553 21.9813 9.18705C22.1198 9.07795 22.3371 8.88639 22.4654 8.58104L20.6216 7.80633C20.6565 7.72312 20.6995 7.66619 20.7265 7.63554C20.7504 7.6084 20.7626 7.60104 20.7436 7.61605C20.725 7.63064 20.6927 7.65424 20.6354 7.69284C20.5786 7.7312 20.5112 7.77505 20.4231 7.83232L21.5131 9.5092ZM20.4231 8.16769C20.5112 8.22495 20.5786 8.2688 20.6354 8.30717C20.6927 8.34577 20.725 8.36937 20.7436 8.38396C20.7626 8.39897 20.7504 8.3916 20.7265 8.36447C20.6995 8.33382 20.6565 8.27688 20.6216 8.19368L22.4654 7.41896C22.3371 7.11362 22.1198 6.92205 21.9813 6.81296C21.8436 6.70448 21.6688 6.59205 21.5131 6.49081L20.4231 8.16769ZM22.4654 8.58106C22.6216 8.20942 22.6216 7.79058 22.4654 7.41895L20.6216 8.1937C20.5695 8.06981 20.5695 7.93019 20.6216 7.80631L22.4654 8.58106ZM9.71105 14.2049C10.2782 14.5735 10.7636 14.9059 11.3145 15.0353L11.7715 13.0882C11.6422 13.0578 11.4964 12.98 10.801 12.528L9.71105 14.2049ZM13.199 12.528C12.5036 12.98 12.3578 13.0578 12.2285 13.0882L12.6855 15.0353C13.2364 14.9059 13.7218 14.5735 14.289 14.2049L13.199 12.528ZM11.3145 15.0353C11.7654 15.1411 12.2346 15.1411 12.6855 15.0353L12.2285 13.0882C12.0782 13.1235 11.9218 13.1235 11.7715 13.0882L11.3145 15.0353ZM3.57692 7.83232C3.48882 7.77505 3.42142 7.7312 3.36455 7.69284C3.30733 7.65424 3.27495 7.63064 3.25643 7.61605C3.23738 7.60104 3.2496 7.6084 3.2735 7.63554C3.30051 7.66619 3.34346 7.72312 3.37841 7.80632L1.53456 8.58105C1.66286 8.88639 1.88024 9.07795 2.01871 9.18705C2.1564 9.29553 2.33118 9.40795 2.48694 9.5092L3.57692 7.83232ZM2.48694 6.49081C2.33118 6.59205 2.1564 6.70448 2.01871 6.81296C1.88024 6.92205 1.66286 7.11362 1.53456 7.41896L3.37841 8.19369C3.34346 8.27689 3.30051 8.33382 3.2735 8.36447C3.2496 8.3916 3.23738 8.39897 3.25643 8.38396C3.27495 8.36937 3.30733 8.34577 3.36455 8.30717C3.42142 8.26881 3.48882 8.22495 3.57692 8.16769L2.48694 6.49081ZM3.37841 7.80632C3.43046 7.9302 3.43046 8.06981 3.37841 8.19369L1.53456 7.41896C1.37841 7.79059 1.37841 8.20942 1.53456 8.58105L3.37841 7.80632Z" fill="#172136"/>
</svg>
