<svg width="22" height="22" viewBox="0 0 22 22" fill="none" xmlns="http://www.w3.org/2000/svg">
<path d="M12.744 2.63358L12.199 3.47202L12.744 2.63358ZM11.457 1.93829L11.2285 2.91184L11.457 1.93829ZM9.25604 2.63358L9.80102 3.47202L9.25604 2.63358ZM10.543 1.93829L10.7715 2.91184L10.543 1.93829ZM20.9558 8.24877L21.9117 7.95485L20.9558 8.24877ZM20.272 7.52679L19.727 8.36523L20.272 7.52679ZM20.7674 7.90146L20 8.54269L20.7674 7.90146ZM1.04417 8.24877L0.0883405 7.95485L1.04417 8.24877ZM1.72802 7.52679L1.18303 6.68835H1.18303L1.72802 7.52679ZM1.23265 7.90146L2 8.54269L1.23265 7.90146ZM2.63803 20.673L2.18404 21.564L2.63803 20.673ZM1.32698 19.362L0.435974 19.816L1.32698 19.362ZM19.362 20.673L19.816 21.564L19.362 20.673ZM20.673 19.362L21.564 19.816L20.673 19.362ZM3.06386 9.34151L3.60885 8.50307H3.60885L3.06386 9.34151ZM9.25604 13.3664L9.80102 12.528V12.528L9.25604 13.3664ZM12.744 13.3664L12.199 12.528V12.528L12.744 13.3664ZM18.9361 9.34152L19.4811 10.18L18.9361 9.34152ZM3.06386 6.65849L3.60885 7.49694H3.60885L3.06386 6.65849ZM18.9361 6.65849L19.4811 5.82005L18.9361 6.65849ZM20.087 8.38737L21.009 8.77473L21.009 8.77472L20.087 8.38737ZM20.087 7.61264L21.009 7.22528L21.009 7.22528L20.087 7.61264ZM10.543 14.0617L10.3145 15.0353L10.543 14.0617ZM11.457 14.0617L11.6855 15.0353L11.6855 15.0353L11.457 14.0617ZM1.91297 8.38737L0.991046 8.77473L0.991046 8.77473L1.91297 8.38737ZM1.91297 7.61264L0.991046 7.22528L0.991046 7.22528L1.91297 7.61264ZM19.8297 19.7421C20.2396 20.1123 20.8719 20.0801 21.2421 19.6703C21.6123 19.2604 21.5801 18.6281 21.1703 18.2579L19.8297 19.7421ZM14.5275 12.2579C14.1176 11.8877 13.4853 11.9199 13.1151 12.3297C12.7449 12.7396 12.777 13.3719 13.1869 13.7421L14.5275 12.2579ZM8.81311 13.7421C9.22296 13.3719 9.25511 12.7396 8.88492 12.3297C8.51473 11.9199 7.88239 11.8877 7.47253 12.2579L8.81311 13.7421ZM0.829712 18.2579C0.419861 18.6281 0.387709 19.2604 0.757899 19.6703C1.12809 20.0801 1.76044 20.1123 2.17029 19.7421L0.829712 18.2579ZM16.2 20H5.8V22H16.2V20ZM2 16.2V8.8683H0V16.2H2ZM20 8.8683V16.2H22V8.8683H20ZM12.199 3.47202L19.727 8.36523L20.817 6.68835L13.289 1.79514L12.199 3.47202ZM2.27301 8.36524L9.80102 3.47202L8.71105 1.79514L1.18303 6.68835L2.27301 8.36524ZM13.289 1.79514C12.7218 1.4265 12.2364 1.09406 11.6855 0.964753L11.2285 2.91184C11.3578 2.94218 11.5036 3.02004 12.199 3.47202L13.289 1.79514ZM9.80102 3.47202C10.4964 3.02004 10.6422 2.94218 10.7715 2.91184L10.3145 0.964753C9.76358 1.09406 9.27817 1.42651 8.71105 1.79514L9.80102 3.47202ZM11.6855 0.964753C11.2346 0.858917 10.7654 0.858917 10.3145 0.964753L10.7715 2.91184C10.9218 2.87656 11.0782 2.87656 11.2285 2.91184L11.6855 0.964753ZM22 8.8683C22 8.61423 22.0104 8.27607 21.9117 7.95485L20 8.54269C19.99 8.51012 19.9932 8.49867 19.9961 8.5501C19.9996 8.61256 20 8.69874 20 8.8683H22ZM19.727 8.36523C19.8692 8.45765 19.9412 8.50492 19.9917 8.54193C20.0332 8.57241 20.0219 8.56884 20 8.54269L21.5347 7.26024C21.3192 7.00235 21.03 6.82681 20.817 6.68835L19.727 8.36523ZM21.9117 7.95485C21.8335 7.70055 21.7053 7.4644 21.5347 7.26024L20 8.54269L21.9117 7.95485ZM2 8.8683C2 8.69874 2.00037 8.61256 2.00391 8.5501C2.00683 8.49867 2.01002 8.51012 2 8.54269L0.0883405 7.95485C-0.0104378 8.27607 0 8.61423 0 8.8683H2ZM1.18303 6.68835C0.970003 6.82682 0.680793 7.00235 0.465296 7.26024L2 8.54269C1.97815 8.56884 1.96682 8.57241 2.00835 8.54193C2.05878 8.50492 2.13084 8.45765 2.27301 8.36524L1.18303 6.68835ZM2 8.54269L0.465296 7.26024C0.294694 7.4644 0.16654 7.70054 0.0883405 7.95485L2 8.54269ZM5.8 20C4.94342 20 4.36113 19.9992 3.91104 19.9625C3.47262 19.9266 3.24842 19.8617 3.09202 19.782L2.18404 21.564C2.66937 21.8113 3.18608 21.9099 3.74817 21.9558C4.2986 22.0008 4.97642 22 5.8 22V20ZM0 16.2C0 17.0236 -0.000777721 17.7014 0.0441936 18.2518C0.0901188 18.8139 0.188683 19.3306 0.435974 19.816L2.21799 18.908C2.1383 18.7516 2.07337 18.5274 2.03755 18.089C2.00078 17.6389 2 17.0566 2 16.2H0ZM3.09202 19.782C2.7157 19.5903 2.40973 19.2843 2.21799 18.908L0.435974 19.816C0.819467 20.5686 1.43139 21.1805 2.18404 21.564L3.09202 19.782ZM16.2 22C17.0236 22 17.7014 22.0008 18.2518 21.9558C18.8139 21.9099 19.3306 21.8113 19.816 21.564L18.908 19.782C18.7516 19.8617 18.5274 19.9266 18.089 19.9625C17.6389 19.9992 17.0566 20 16.2 20V22ZM20 16.2C20 17.0566 19.9992 17.6389 19.9624 18.089C19.9266 18.5274 19.8617 18.7516 19.782 18.908L21.564 19.816C21.8113 19.3306 21.9099 18.8139 21.9558 18.2518C22.0008 17.7014 22 17.0236 22 16.2H20ZM19.816 21.564C20.5686 21.1805 21.1805 20.5686 21.564 19.816L19.782 18.908C19.5903 19.2843 19.2843 19.5903 18.908 19.782L19.816 21.564ZM2.51887 10.18L8.71105 14.2049L9.80102 12.528L3.60885 8.50307L2.51887 10.18ZM13.289 14.2049L19.4811 10.18L18.3911 8.50307L12.199 12.528L13.289 14.2049ZM3.60885 7.49694L9.80102 3.47202L8.71105 1.79514L2.51887 5.82005L3.60885 7.49694ZM12.199 3.47202L18.3911 7.49694L19.4811 5.82005L13.289 1.79514L12.199 3.47202ZM19.4811 10.18C19.8089 9.96694 20.1126 9.77068 20.3437 9.58859C20.5756 9.40589 20.8509 9.15095 21.009 8.77473L19.1651 8C19.2041 7.90728 19.2478 7.90586 19.106 8.01759C18.9634 8.12992 18.7513 8.26899 18.3911 8.50307L19.4811 10.18ZM18.3911 7.49694C18.7513 7.73101 18.9634 7.87008 19.106 7.98242C19.2478 8.09415 19.2041 8.09273 19.1651 8.00001L21.009 7.22528C20.8509 6.84906 20.5756 6.59412 20.3437 6.41142C20.1126 6.22933 19.8089 6.03307 19.4811 5.82005L18.3911 7.49694ZM21.009 8.77472C21.2171 8.27922 21.2171 7.72078 21.009 7.22528L19.1651 8V8.00001L21.009 8.77472ZM8.71105 14.2049C9.27817 14.5735 9.76358 14.9059 10.3145 15.0353L10.7715 13.0882C10.6422 13.0578 10.4964 12.98 9.80102 12.528L8.71105 14.2049ZM12.199 12.528C11.5036 12.98 11.3578 13.0578 11.2285 13.0882L11.6855 15.0353C12.2364 14.9059 12.7218 14.5735 13.289 14.2049L12.199 12.528ZM10.3145 15.0353C10.7654 15.1411 11.2346 15.1411 11.6855 15.0353L11.2285 13.0882C11.0782 13.1235 10.9218 13.1235 10.7715 13.0882L10.3145 15.0353ZM3.60885 8.50307C3.24873 8.26899 3.03659 8.12992 2.894 8.01759C2.75219 7.90586 2.79594 7.90728 2.8349 8L0.991046 8.77473C1.14912 9.15095 1.42439 9.40589 1.65628 9.58859C1.8874 9.77068 2.19115 9.96693 2.51887 10.18L3.60885 8.50307ZM2.51887 5.82005C2.19115 6.03307 1.8874 6.22933 1.65628 6.41142C1.42439 6.59412 1.14912 6.84906 0.991046 7.22528L2.8349 8C2.79594 8.09273 2.75219 8.09415 2.894 7.98242C3.03659 7.87008 3.24873 7.73102 3.60885 7.49694L2.51887 5.82005ZM2.8349 8V8L0.991046 7.22528C0.782853 7.72078 0.782853 8.27923 0.991046 8.77473L2.8349 8ZM21.1703 18.2579L14.5275 12.2579L13.1869 13.7421L19.8297 19.7421L21.1703 18.2579ZM7.47253 12.2579L0.829712 18.2579L2.17029 19.7421L8.81311 13.7421L7.47253 12.2579Z" fill="#172136"/>
</svg>
