<svg width="24" height="24" viewBox="0 0 24 24" fill="none" xmlns="http://www.w3.org/2000/svg">
<path d="M2.5547 6.16795C2.09517 5.8616 1.4743 5.98577 1.16795 6.4453C0.861597 6.90483 0.985771 7.5257 1.4453 7.83205L2.5547 6.16795ZM7.19384 10.4626L7.74854 9.63051L7.19384 10.4626ZM16.8062 10.4626L17.3609 11.2946L17.3609 11.2946L16.8062 10.4626ZM22.5547 7.83205C23.0142 7.5257 23.1384 6.90483 22.8321 6.4453C22.5257 5.98577 21.9048 5.8616 21.4453 6.16795L22.5547 7.83205ZM16.1946 10.833L16.5947 11.7494H16.5947L16.1946 10.833ZM15.7454 10.969L15.9209 11.9534L15.7454 10.969ZM7.8054 10.833L7.40532 11.7494H7.40532L7.8054 10.833ZM8.25458 10.969L8.07909 11.9534L8.25458 10.969ZM3.63803 19.673L3.18404 20.564L3.63803 19.673ZM2.32698 18.362L1.43597 18.816L2.32698 18.362ZM21.673 18.362L22.564 18.816L21.673 18.362ZM20.362 19.673L20.816 20.564L20.362 19.673ZM20.362 4.32698L20.816 3.43597L20.362 4.32698ZM21.673 5.63803L22.564 5.18404L21.673 5.63803ZM3.63803 4.32698L3.18404 3.43597L3.63803 4.32698ZM2.32698 5.63803L1.43597 5.18404L2.32698 5.63803ZM1.4453 7.83205L6.63914 11.2946L7.74854 9.63051L2.5547 6.16795L1.4453 7.83205ZM17.3609 11.2946L22.5547 7.83205L21.4453 6.16795L16.2515 9.63051L17.3609 11.2946ZM8.96888 12H15.0311V10H8.96888V12ZM16.2515 9.63051C15.9232 9.84936 15.8569 9.88924 15.7945 9.91648L16.5947 11.7494C16.8565 11.6352 17.0899 11.4753 17.3609 11.2946L16.2515 9.63051ZM15.0311 12C15.3568 12 15.6397 12.0036 15.9209 11.9534L15.5699 9.98448C15.5029 9.99643 15.4257 10 15.0311 10V12ZM15.7945 9.91648C15.7226 9.94788 15.6472 9.97071 15.5699 9.98448L15.9209 11.9534C16.1527 11.9121 16.3789 11.8436 16.5947 11.7494L15.7945 9.91648ZM6.63914 11.2946C6.91014 11.4753 7.14355 11.6352 7.40532 11.7494L8.20547 9.91648C8.14307 9.88924 8.07683 9.84937 7.74854 9.63051L6.63914 11.2946ZM8.96888 10C8.57433 10 8.4971 9.99643 8.43006 9.98448L8.07909 11.9534C8.36028 12.0036 8.64318 12 8.96888 12V10ZM7.40532 11.7494C7.62112 11.8436 7.84727 11.9121 8.07909 11.9534L8.43006 9.98448C8.35279 9.97071 8.27741 9.94788 8.20547 9.91648L7.40532 11.7494ZM6.8 5H17.2V3H6.8V5ZM21 8.8V15.2H23V8.8H21ZM17.2 19H6.8V21H17.2V19ZM3 15.2V8.8H1V15.2H3ZM6.8 19C5.94342 19 5.36113 18.9992 4.91104 18.9624C4.47262 18.9266 4.24842 18.8617 4.09202 18.782L3.18404 20.564C3.66937 20.8113 4.18608 20.9099 4.74817 20.9558C5.2986 21.0008 5.97642 21 6.8 21V19ZM1 15.2C1 16.0236 0.999222 16.7014 1.04419 17.2518C1.09012 17.8139 1.18868 18.3306 1.43597 18.816L3.21799 17.908C3.1383 17.7516 3.07337 17.5274 3.03755 17.089C3.00078 16.6389 3 16.0566 3 15.2H1ZM4.09202 18.782C3.71569 18.5903 3.40973 18.2843 3.21799 17.908L1.43597 18.816C1.81947 19.5686 2.43139 20.1805 3.18404 20.564L4.09202 18.782ZM21 15.2C21 16.0566 20.9992 16.6389 20.9624 17.089C20.9266 17.5274 20.8617 17.7516 20.782 17.908L22.564 18.816C22.8113 18.3306 22.9099 17.8139 22.9558 17.2518C23.0008 16.7014 23 16.0236 23 15.2H21ZM17.2 21C18.0236 21 18.7014 21.0008 19.2518 20.9558C19.8139 20.9099 20.3306 20.8113 20.816 20.564L19.908 18.782C19.7516 18.8617 19.5274 18.9266 19.089 18.9624C18.6389 18.9992 18.0566 19 17.2 19V21ZM20.782 17.908C20.5903 18.2843 20.2843 18.5903 19.908 18.782L20.816 20.564C21.5686 20.1805 22.1805 19.5686 22.564 18.816L20.782 17.908ZM17.2 5C18.0566 5 18.6389 5.00078 19.089 5.03755C19.5274 5.07337 19.7516 5.1383 19.908 5.21799L20.816 3.43597C20.3306 3.18868 19.8139 3.09012 19.2518 3.04419C18.7014 2.99922 18.0236 3 17.2 3V5ZM23 8.8C23 7.97642 23.0008 7.2986 22.9558 6.74817C22.9099 6.18608 22.8113 5.66937 22.564 5.18404L20.782 6.09202C20.8617 6.24842 20.9266 6.47262 20.9624 6.91104C20.9992 7.36113 21 7.94342 21 8.8H23ZM19.908 5.21799C20.2843 5.40973 20.5903 5.7157 20.782 6.09202L22.564 5.18404C22.1805 4.43139 21.5686 3.81947 20.816 3.43597L19.908 5.21799ZM6.8 3C5.97642 3 5.2986 2.99922 4.74817 3.04419C4.18608 3.09012 3.66937 3.18868 3.18404 3.43597L4.09202 5.21799C4.24842 5.1383 4.47262 5.07337 4.91104 5.03755C5.36113 5.00078 5.94342 5 6.8 5V3ZM3 8.8C3 7.94342 3.00078 7.36113 3.03755 6.91104C3.07337 6.47262 3.1383 6.24842 3.21799 6.09202L1.43597 5.18404C1.18868 5.66937 1.09012 6.18608 1.04419 6.74817C0.999222 7.2986 1 7.97642 1 8.8H3ZM3.18404 3.43597C2.43139 3.81947 1.81947 4.43139 1.43597 5.18404L3.21799 6.09202C3.40973 5.71569 3.71569 5.40973 4.09202 5.21799L3.18404 3.43597Z" fill="#172136"/>
</svg>
